<svg width="512" height="174" viewBox="0 0 512 174" fill="none" xmlns="http://www.w3.org/2000/svg">
<path d="M298.202 137.677V136.448C298.612 136.21 299.043 136.005 299.497 135.833C299.971 135.66 300.424 135.552 300.856 135.509V117.19C300.424 117.104 299.971 116.986 299.497 116.834C299.022 116.662 298.59 116.468 298.202 116.252V115.022H303.413C304.233 115.022 305.009 114.99 305.743 114.925C306.476 114.86 307.318 114.828 308.267 114.828C309.303 114.828 310.306 114.903 311.277 115.054C312.248 115.205 313.111 115.475 313.866 115.864C314.622 116.252 315.226 116.802 315.679 117.514C316.132 118.205 316.359 119.1 316.359 120.2C316.359 120.891 316.229 121.538 315.97 122.142C315.733 122.725 315.388 123.243 314.935 123.696C314.503 124.149 313.985 124.527 313.381 124.829C312.798 125.131 312.162 125.346 311.471 125.476V125.605C312.162 125.692 312.852 125.853 313.543 126.091C314.255 126.328 314.891 126.673 315.452 127.126C316.013 127.58 316.466 128.151 316.812 128.842C317.178 129.511 317.362 130.309 317.362 131.237C317.362 132.402 317.103 133.405 316.585 134.247C316.067 135.088 315.366 135.779 314.481 136.318C313.618 136.858 312.626 137.257 311.504 137.516C310.382 137.753 309.217 137.872 308.008 137.872C307.555 137.872 307.059 137.861 306.52 137.839C305.98 137.818 305.441 137.796 304.901 137.775C304.362 137.753 303.833 137.731 303.316 137.71C302.819 137.688 302.399 137.677 302.053 137.677H298.202ZM307.976 135.768C309.335 135.768 310.403 135.369 311.18 134.57C311.957 133.75 312.345 132.672 312.345 131.334C312.345 130.514 312.216 129.845 311.957 129.327C311.698 128.788 311.342 128.367 310.889 128.065C310.436 127.741 309.896 127.526 309.271 127.418C308.645 127.288 307.965 127.224 307.232 127.224H305.516V135.541C305.818 135.606 306.131 135.66 306.455 135.703C306.8 135.746 307.307 135.768 307.976 135.768ZM306.552 125.12C306.919 125.12 307.286 125.109 307.652 125.088C308.019 125.044 308.364 125.001 308.688 124.958C309.53 124.613 310.209 124.084 310.727 123.372C311.245 122.639 311.504 121.808 311.504 120.88C311.504 119.521 311.148 118.528 310.436 117.903C309.724 117.255 308.807 116.932 307.685 116.932C307.21 116.932 306.8 116.942 306.455 116.964C306.11 116.986 305.797 117.018 305.516 117.061V125.12H306.552Z" fill="#C3AC3C"/>
<path d="M320.847 131.275C320.847 129.916 320.88 128.654 320.944 127.489C321.009 126.323 321.041 125.094 321.041 123.799L318.905 123.54V122.278C319.25 122.148 319.671 122.019 320.168 121.889C320.685 121.76 321.214 121.652 321.753 121.566C322.293 121.458 322.811 121.372 323.307 121.307C323.825 121.221 324.256 121.156 324.601 121.113H325.702C325.702 122.731 325.67 124.328 325.605 125.903C325.54 127.456 325.508 128.988 325.508 130.499C325.508 132.268 325.68 133.541 326.026 134.318C326.392 135.094 327.061 135.483 328.032 135.483C328.701 135.483 329.316 135.235 329.877 134.738C330.46 134.22 330.934 133.401 331.301 132.279V123.799L329.197 123.54V122.278C329.521 122.148 329.92 122.019 330.395 121.889C330.891 121.76 331.398 121.652 331.916 121.566C332.455 121.458 332.984 121.372 333.502 121.307C334.02 121.221 334.473 121.156 334.861 121.113H335.962V135.386L338.098 135.645V136.777C337.796 136.907 337.418 137.036 336.965 137.166C336.512 137.295 336.037 137.425 335.541 137.554C335.045 137.662 334.548 137.748 334.052 137.813C333.577 137.899 333.146 137.964 332.757 138.007H331.657L331.43 134.156H331.301C331.193 134.609 330.999 135.073 330.718 135.547C330.438 136.001 330.071 136.421 329.618 136.81C329.187 137.176 328.669 137.479 328.065 137.716C327.46 137.953 326.792 138.072 326.058 138.072C325.238 138.072 324.504 137.964 323.857 137.748C323.231 137.554 322.692 137.198 322.239 136.68C321.786 136.162 321.441 135.472 321.203 134.609C320.966 133.724 320.847 132.613 320.847 131.275Z" fill="#C3AC3C"/>
<path d="M347.963 134.158C347.963 133.597 347.758 133.111 347.348 132.701C346.959 132.291 346.463 131.914 345.859 131.569C345.277 131.223 344.629 130.878 343.917 130.533C343.227 130.188 342.58 129.789 341.975 129.335C341.393 128.861 340.896 128.31 340.487 127.685C340.098 127.059 339.904 126.293 339.904 125.387C339.904 124.74 340.055 124.157 340.357 123.639C340.659 123.1 341.069 122.647 341.587 122.28C342.105 121.913 342.72 121.633 343.432 121.438C344.165 121.223 344.953 121.115 345.794 121.115C346.96 121.115 348.038 121.212 349.031 121.406C350.045 121.579 350.93 121.827 351.685 122.15C351.598 122.841 351.426 123.585 351.167 124.384C350.908 125.16 350.66 125.872 350.423 126.52H349.322L347.963 123.218C347.704 123.111 347.434 123.046 347.154 123.024C346.873 122.981 346.56 122.96 346.215 122.96C345.568 122.96 345.072 123.154 344.726 123.542C344.403 123.909 344.241 124.33 344.241 124.804C344.241 125.344 344.435 125.818 344.823 126.228C345.233 126.617 345.73 126.984 346.312 127.329C346.916 127.674 347.564 128.019 348.254 128.364C348.966 128.71 349.613 129.109 350.196 129.562C350.8 129.993 351.296 130.511 351.685 131.115C352.095 131.72 352.3 132.442 352.3 133.284C352.3 134.773 351.696 135.949 350.487 136.812C349.279 137.653 347.661 138.074 345.633 138.074C344.597 138.074 343.529 137.966 342.428 137.75C341.328 137.534 340.379 137.232 339.58 136.844C339.623 136.067 339.807 135.28 340.131 134.481C340.454 133.683 340.799 132.971 341.166 132.345H342.267L343.852 135.873C344.09 136.046 344.349 136.154 344.629 136.197C344.931 136.218 345.212 136.229 345.471 136.229C346.096 136.229 346.668 136.046 347.186 135.679C347.704 135.312 347.963 134.805 347.963 134.158Z" fill="#C3AC3C"/>
<path d="M363.184 137.677H354.252V136.415C354.575 136.243 354.91 136.102 355.255 135.994C355.6 135.865 355.978 135.746 356.388 135.638V123.793L354.252 123.534V122.272C354.575 122.142 354.974 122.013 355.449 121.883C355.945 121.754 356.463 121.646 357.003 121.56C357.542 121.452 358.071 121.366 358.589 121.301C359.106 121.215 359.559 121.15 359.948 121.107H361.048V135.638C361.48 135.746 361.868 135.865 362.213 135.994C362.559 136.102 362.882 136.243 363.184 136.415V137.677ZM355.838 116.187C355.838 115.432 356.097 114.839 356.614 114.407C357.132 113.976 357.801 113.76 358.621 113.76C359.441 113.76 360.11 113.976 360.628 114.407C361.145 114.839 361.404 115.432 361.404 116.187C361.404 116.921 361.145 117.503 360.628 117.935C360.11 118.366 359.441 118.582 358.621 118.582C357.801 118.582 357.132 118.366 356.614 117.935C356.097 117.503 355.838 116.921 355.838 116.187Z" fill="#C3AC3C"/>
<path d="M384.444 137.677H375.867V136.415C376.148 136.264 376.418 136.135 376.677 136.027C376.957 135.897 377.281 135.768 377.647 135.638V128.033C377.647 126.673 377.453 125.616 377.065 124.861C376.677 124.084 375.986 123.696 374.994 123.696C374.174 123.696 373.462 123.966 372.857 124.505C372.275 125.023 371.833 125.735 371.531 126.641V135.638C371.876 135.725 372.178 135.833 372.437 135.962C372.717 136.07 373.009 136.221 373.311 136.415V137.677H364.734V136.415C365.273 136.135 365.985 135.876 366.87 135.638V123.793L364.734 123.534V122.272C365.014 122.142 365.381 122.024 365.834 121.916C366.287 121.786 366.773 121.668 367.291 121.56C367.83 121.452 368.37 121.366 368.909 121.301C369.47 121.215 369.977 121.15 370.43 121.107H371.531V124.44H371.563C372.016 123.534 372.696 122.757 373.602 122.11C374.508 121.441 375.609 121.107 376.903 121.107C377.745 121.107 378.5 121.215 379.169 121.43C379.837 121.624 380.398 121.98 380.852 122.498C381.326 123.016 381.682 123.717 381.92 124.602C382.179 125.465 382.308 126.565 382.308 127.903V135.638C383.171 135.789 383.883 136.048 384.444 136.415V137.677Z" fill="#C3AC3C"/>
<path d="M400.586 134.967C400.413 135.334 400.133 135.711 399.745 136.1C399.378 136.466 398.914 136.801 398.353 137.103C397.813 137.383 397.177 137.61 396.443 137.783C395.731 137.977 394.955 138.074 394.113 138.074C392.775 138.074 391.589 137.88 390.553 137.491C389.517 137.081 388.654 136.51 387.964 135.776C387.273 135.021 386.745 134.125 386.378 133.09C386.033 132.054 385.86 130.889 385.86 129.594C385.86 126.832 386.583 124.729 388.028 123.283C389.474 121.838 391.481 121.115 394.048 121.115C395.149 121.115 396.174 121.266 397.123 121.568C398.094 121.87 398.892 122.366 399.518 123.057C400.165 123.747 400.608 124.653 400.845 125.775C401.104 126.897 401.093 128.267 400.813 129.886H390.877C390.898 131.59 391.33 132.949 392.171 133.964C393.034 134.978 394.296 135.485 395.958 135.485C396.67 135.485 397.403 135.377 398.159 135.161C398.935 134.945 399.54 134.665 399.971 134.32L400.586 134.967ZM393.919 122.96C393.487 122.96 393.099 123.035 392.754 123.186C392.43 123.337 392.139 123.618 391.88 124.028C391.643 124.416 391.448 124.955 391.297 125.646C391.146 126.315 391.038 127.167 390.974 128.203H396.184C396.335 126.52 396.238 125.225 395.893 124.319C395.548 123.413 394.89 122.96 393.919 122.96Z" fill="#C3AC3C"/>
<path d="M411.56 134.158C411.56 133.597 411.355 133.111 410.945 132.701C410.556 132.291 410.06 131.914 409.456 131.569C408.873 131.223 408.226 130.878 407.514 130.533C406.824 130.188 406.176 129.789 405.572 129.335C404.99 128.861 404.493 128.31 404.083 127.685C403.695 127.059 403.501 126.293 403.501 125.387C403.501 124.74 403.652 124.157 403.954 123.639C404.256 123.1 404.666 122.647 405.184 122.28C405.702 121.913 406.317 121.633 407.029 121.438C407.762 121.223 408.55 121.115 409.391 121.115C410.556 121.115 411.635 121.212 412.628 121.406C413.642 121.579 414.526 121.827 415.282 122.15C415.195 122.841 415.023 123.585 414.764 124.384C414.505 125.16 414.257 125.872 414.019 126.52H412.919L411.56 123.218C411.301 123.111 411.031 123.046 410.751 123.024C410.47 122.981 410.157 122.96 409.812 122.96C409.165 122.96 408.668 123.154 408.323 123.542C408 123.909 407.838 124.33 407.838 124.804C407.838 125.344 408.032 125.818 408.42 126.228C408.83 126.617 409.327 126.984 409.909 127.329C410.513 127.674 411.16 128.019 411.851 128.364C412.563 128.71 413.21 129.109 413.793 129.562C414.397 129.993 414.893 130.511 415.282 131.115C415.692 131.72 415.897 132.442 415.897 133.284C415.897 134.773 415.292 135.949 414.084 136.812C412.876 137.653 411.258 138.074 409.229 138.074C408.194 138.074 407.126 137.966 406.025 137.75C404.925 137.534 403.976 137.232 403.177 136.844C403.22 136.067 403.404 135.28 403.727 134.481C404.051 133.683 404.396 132.971 404.763 132.345H405.863L407.449 135.873C407.687 136.046 407.946 136.154 408.226 136.197C408.528 136.218 408.809 136.229 409.068 136.229C409.693 136.229 410.265 136.046 410.783 135.679C411.301 135.312 411.56 134.805 411.56 134.158Z" fill="#C3AC3C"/>
<path d="M426.164 134.158C426.164 133.597 425.959 133.111 425.549 132.701C425.161 132.291 424.665 131.914 424.061 131.569C423.478 131.223 422.831 130.878 422.119 130.533C421.428 130.188 420.781 129.789 420.177 129.335C419.594 128.861 419.098 128.31 418.688 127.685C418.3 127.059 418.105 126.293 418.105 125.387C418.105 124.74 418.256 124.157 418.559 123.639C418.861 123.1 419.271 122.647 419.788 122.28C420.306 121.913 420.921 121.633 421.633 121.438C422.367 121.223 423.154 121.115 423.996 121.115C425.161 121.115 426.24 121.212 427.232 121.406C428.246 121.579 429.131 121.827 429.886 122.15C429.8 122.841 429.627 123.585 429.368 124.384C429.109 125.16 428.861 125.872 428.624 126.52H427.524L426.164 123.218C425.905 123.111 425.636 123.046 425.355 123.024C425.075 122.981 424.762 122.96 424.417 122.96C423.769 122.96 423.273 123.154 422.928 123.542C422.604 123.909 422.442 124.33 422.442 124.804C422.442 125.344 422.637 125.818 423.025 126.228C423.435 126.617 423.931 126.984 424.514 127.329C425.118 127.674 425.765 128.019 426.456 128.364C427.168 128.71 427.815 129.109 428.397 129.562C429.002 129.993 429.498 130.511 429.886 131.115C430.296 131.72 430.501 132.442 430.501 133.284C430.501 134.773 429.897 135.949 428.689 136.812C427.48 137.653 425.862 138.074 423.834 138.074C422.798 138.074 421.73 137.966 420.63 137.75C419.529 137.534 418.58 137.232 417.782 136.844C417.825 136.067 418.008 135.28 418.332 134.481C418.656 133.683 419.001 132.971 419.368 132.345H420.468L422.054 135.873C422.291 136.046 422.55 136.154 422.831 136.197C423.133 136.218 423.413 136.229 423.672 136.229C424.298 136.229 424.87 136.046 425.388 135.679C425.905 135.312 426.164 134.805 426.164 134.158Z" fill="#C3AC3C"/>
<path d="M448.324 135.513C448.907 135.599 449.478 135.729 450.039 135.901C450.622 136.052 451.14 136.236 451.593 136.452V137.681H440.815V136.452C441.225 136.214 441.657 136.02 442.11 135.869C442.585 135.718 443.038 135.599 443.469 135.513V117.195C442.973 117.108 442.498 116.99 442.045 116.839C441.592 116.666 441.182 116.472 440.815 116.256V115.026H444.893C445.756 115.026 446.738 114.983 447.839 114.897C448.961 114.81 449.985 114.767 450.913 114.767C452.057 114.767 453.168 114.886 454.247 115.123C455.347 115.339 456.318 115.717 457.16 116.256C458.023 116.795 458.713 117.518 459.231 118.424C459.749 119.309 460.008 120.42 460.008 121.758C460.008 123.031 459.749 124.131 459.231 125.059C458.735 125.987 458.066 126.753 457.224 127.357C456.383 127.961 455.412 128.414 454.312 128.716C453.211 128.997 452.078 129.137 450.913 129.137C450.805 129.137 450.633 129.137 450.395 129.137C450.158 129.137 449.899 129.137 449.619 129.137C449.36 129.116 449.101 129.105 448.842 129.105C448.605 129.083 448.432 129.062 448.324 129.04V135.513ZM450.072 116.871C449.64 116.871 449.295 116.892 449.036 116.936C448.799 116.957 448.561 117 448.324 117.065V126.904C448.518 126.969 448.81 127.012 449.198 127.033C449.586 127.033 449.899 127.033 450.136 127.033C450.719 127.033 451.28 126.936 451.819 126.742C452.359 126.548 452.834 126.246 453.244 125.836C453.675 125.426 454.02 124.897 454.279 124.25C454.538 123.603 454.668 122.826 454.668 121.92C454.668 120.194 454.247 118.921 453.405 118.101C452.564 117.281 451.453 116.871 450.072 116.871Z" fill="#C3AC3C"/>
<path d="M475.925 132.985C475.925 133.459 475.925 133.869 475.925 134.214C475.947 134.56 475.979 134.926 476.022 135.315L478.255 135.638V136.771C477.997 136.901 477.641 137.03 477.187 137.16C476.756 137.289 476.292 137.418 475.796 137.548C475.321 137.656 474.846 137.742 474.372 137.807C473.897 137.893 473.476 137.958 473.109 138.001H472.009C471.793 137.505 471.664 137.009 471.621 136.512C471.578 136.016 471.545 135.412 471.524 134.7H471.362C471.254 135.131 471.07 135.552 470.812 135.962C470.553 136.35 470.218 136.706 469.808 137.03C469.42 137.332 468.956 137.58 468.417 137.775C467.877 137.969 467.273 138.066 466.604 138.066C465.892 138.066 465.234 137.958 464.63 137.742C464.026 137.526 463.497 137.224 463.044 136.836C462.591 136.448 462.235 135.984 461.976 135.444C461.717 134.883 461.588 134.258 461.588 133.567C461.588 132.596 461.771 131.798 462.138 131.172C462.505 130.546 463.076 130.039 463.853 129.651C464.651 129.241 465.666 128.939 466.895 128.745C468.147 128.551 469.657 128.41 471.426 128.324C471.599 126.468 471.524 125.109 471.2 124.246C470.876 123.383 470.175 122.951 469.096 122.951C468.427 122.951 467.812 123.059 467.251 123.275L465.73 127.159H464.306C464.134 126.9 463.961 126.609 463.788 126.285C463.637 125.94 463.486 125.584 463.335 125.217C463.206 124.829 463.087 124.44 462.979 124.052C462.893 123.663 462.828 123.286 462.785 122.919C463.605 122.358 464.662 121.916 465.957 121.592C467.251 121.268 468.622 121.107 470.067 121.107C471.297 121.107 472.3 121.247 473.077 121.527C473.854 121.786 474.458 122.153 474.889 122.628C475.343 123.081 475.656 123.62 475.828 124.246C476.001 124.872 476.087 125.541 476.087 126.253C476.087 127.547 476.055 128.723 475.99 129.78C475.947 130.816 475.925 131.884 475.925 132.985ZM468.643 135.477C469.096 135.477 469.485 135.39 469.808 135.218C470.132 135.045 470.402 134.84 470.617 134.603C470.855 134.365 471.027 134.106 471.135 133.826C471.265 133.545 471.362 133.297 471.426 133.082V129.845C470.412 129.867 469.582 129.931 468.934 130.039C468.287 130.147 467.78 130.331 467.413 130.59C467.046 130.827 466.788 131.14 466.636 131.528C466.507 131.895 466.442 132.348 466.442 132.887C466.442 133.707 466.636 134.344 467.025 134.797C467.413 135.25 467.953 135.477 468.643 135.477Z" fill="#C3AC3C"/>
<path d="M488.113 125.217C487.854 125.346 487.552 125.562 487.206 125.864C486.861 126.166 486.548 126.663 486.268 127.353V135.638C486.699 135.682 487.131 135.768 487.562 135.897C487.994 136.005 488.425 136.178 488.857 136.415V137.677H479.471V136.415C479.86 136.199 480.226 136.038 480.572 135.93C480.917 135.822 481.262 135.725 481.607 135.638V123.793L479.471 123.534V122.272C479.816 122.121 480.237 121.98 480.733 121.851C481.251 121.722 481.78 121.614 482.319 121.527C482.859 121.42 483.377 121.333 483.873 121.268C484.391 121.204 484.822 121.15 485.167 121.107H486.268V125.411H486.397C486.57 124.936 486.818 124.44 487.142 123.922C487.487 123.405 487.886 122.93 488.339 122.498C488.792 122.067 489.289 121.722 489.828 121.463C490.367 121.204 490.928 121.085 491.511 121.107C491.748 121.409 491.953 121.84 492.126 122.401C492.298 122.941 492.439 123.458 492.547 123.955V125.217H488.113Z" fill="#C3AC3C"/>
<path d="M503.112 121.495H510.685V122.757C510.275 122.93 509.887 123.081 509.52 123.21C509.175 123.34 508.786 123.448 508.355 123.534C508.031 123.966 507.675 124.397 507.287 124.829C506.92 125.239 506.542 125.638 506.154 126.026C505.787 126.414 505.431 126.792 505.086 127.159C504.741 127.504 504.428 127.817 504.147 128.097C504.471 128.529 504.849 129.047 505.28 129.651C505.712 130.255 506.176 130.902 506.672 131.593C507.168 132.262 507.686 132.952 508.225 133.664C508.786 134.355 509.347 135.013 509.908 135.638L511.559 136.415V137.677H506.089L505.215 136.901C504.719 136.232 504.277 135.606 503.888 135.024C503.522 134.441 503.187 133.88 502.885 133.341C502.583 132.801 502.292 132.283 502.011 131.787C501.731 131.269 501.45 130.762 501.17 130.266L500.102 129.942V135.638C500.469 135.703 500.803 135.8 501.105 135.93C501.407 136.059 501.731 136.221 502.076 136.415V137.677H493.305V136.415C494.017 136.07 494.729 135.811 495.441 135.638V116.025L492.981 115.766V114.504C493.284 114.375 493.693 114.245 494.211 114.116C494.729 113.986 495.279 113.879 495.862 113.792C496.445 113.684 497.016 113.598 497.577 113.533C498.138 113.447 498.613 113.382 499.001 113.339H500.102V128.518H500.943C501.655 127.763 502.313 126.932 502.917 126.026C503.543 125.12 504.093 124.289 504.568 123.534C504.288 123.448 504.029 123.34 503.791 123.21C503.576 123.081 503.349 122.93 503.112 122.757V121.495Z" fill="#C3AC3C"/>
<path d="M131.483 69.7518L131.628 69.679C130.973 61.7051 131.665 55.5882 132.502 51.7651L132.357 51.6923C129.553 52.2384 121.87 52.4569 114.734 52.1656V52.3112C124.055 52.9666 128.206 61.2318 131.483 69.7518ZM95.5093 104.961H114.77V104.815C111.493 104.087 109.418 101.866 109.418 98.2247V57.4451C109.418 54.1682 109.673 52.6753 111.129 52.3112V52.1656H95.5093V52.3112C98.4221 53.0394 100.133 55.2605 100.133 58.9015V98.2247C100.133 101.866 98.4221 104.087 95.5093 104.815V104.961ZM113.059 79.3278C121.069 80.4201 124.237 81.5124 126.64 89.377L126.786 89.3042C126.203 82.7867 126.312 76.0872 127.15 69.2056L127.004 69.1328C124.601 76.9975 121.433 78.0898 113.059 79.1821V79.3278Z" fill="#455353"/>
<path d="M150.052 105.252C160.174 105.325 164.616 98.8073 165.527 95.6396L165.381 95.6032C163.779 99.4263 159.118 104.014 153.183 104.014C145.464 104.014 141.641 96.3314 141.569 85.8816C141.532 76.7426 144.627 69.2056 148.705 68.4046V68.259C138.728 68.6231 131.556 76.779 131.811 87.9206C132.065 98.8801 139.493 105.179 150.052 105.252ZM145.21 84.9713L166.218 84.7893C165.963 75.6139 160.575 68.6959 151.982 68.259V68.4046C154.713 69.4241 156.715 73.2472 156.824 77.9805C156.897 82.6047 155.077 84.1339 145.21 84.8257V84.9713Z" fill="#455353"/>
<path d="M196.87 105.211C200.11 105.211 203.315 104.01 205.426 102.371L205.354 102.226C201.021 104.083 199.2 101.388 199.2 95.8904C199.2 89.555 199.491 84.7853 199.491 78.996C199.491 69.7478 194.649 68.2549 190.826 68.2549C189.114 68.2549 187.731 68.5462 186.821 68.8011L186.857 68.9467C190.571 68.5826 190.462 72.4785 190.462 79.1052C190.462 85.3314 190.17 90.9386 190.17 96.8371C190.17 101.425 190.971 105.211 196.87 105.211ZM169.198 96.1453C169.198 102.007 173.422 105.248 178.992 105.248C183.471 105.248 186.493 103.136 187.913 101.825L187.84 101.68C186.711 102.444 185.328 103.063 183.981 103.063C180.813 103.063 178.956 99.6407 178.956 95.235C178.956 90.0648 181.395 85.0765 187.185 83.9478V83.8022C179.793 84.057 169.198 86.6786 169.198 96.1453ZM172.621 82.8555L172.766 82.9283C175.934 76.156 179.429 71.1314 183.616 69.5657L183.58 69.4201C180.34 70.0754 176.262 70.4396 173.349 68.6555L173.203 68.7283C173.895 72.7334 173.786 77.4303 172.621 82.8555Z" fill="#455353"/>
<path d="M204.364 68.5482V68.6939C207.641 69.6041 209.425 72.1893 209.352 76.6313L209.134 94.3268C209.025 101.9 212.083 105.25 218.091 105.25C222.242 105.25 225.482 103.611 227.849 101.099L227.776 100.953C226.247 102.191 224.499 103.029 222.861 103.029C219.475 103.029 218.091 99.5699 218.091 94.1083V78.998C218.091 72.3713 221.259 69.859 227.339 68.6939V68.5482H219.875C218.601 68.5482 218.2 67.9657 218.091 66.9462V56.3144H217.945C215.287 62.9046 211.282 68.4754 204.364 68.5482Z" fill="#455353"/>
<path d="M226.382 104.817V104.963H244.442V104.817C241.529 104.089 239.781 101.904 239.781 98.2632V46.7061C235.303 48.4173 231.261 49.5825 226.055 50.6748V50.8204C229.332 51.3666 231.043 53.2235 231.043 57.6656V98.2632C231.043 101.904 229.295 104.089 226.382 104.817ZM243.422 73.5041L243.495 73.6497C245.025 72.4118 247.391 70.8461 250.158 70.8461C253.545 70.8461 255.11 73.4313 255.11 79.5846C255.11 85.3739 254.783 91.0903 254.783 96.8796C254.783 101.467 255.584 105.254 261.009 105.254C264.65 105.254 267.854 104.016 269.966 102.378L269.893 102.232C265.56 104.089 263.703 101.431 263.703 95.9329C263.703 89.5975 264.031 84.6821 264.031 79.0021C264.031 71.1738 260.39 68.261 254.928 68.261C250.158 68.261 246.117 70.6277 243.422 73.5041Z" fill="#455353"/>
<path d="M292.933 105.07V105.216C318.383 104.997 321.806 75.3226 321.806 67.8221C317.328 69.5333 313.286 70.6985 308.079 71.7908V71.9364C311.356 72.4826 313.068 74.3395 313.068 78.7816C313.068 85.8088 307.023 103.796 292.933 105.07ZM271.196 87.4108C271.45 98.0791 279.024 105.179 289.437 105.252V105.106C284.777 104.305 281.208 96.477 280.954 86.537C280.699 77.1067 284.012 69.2056 288.454 68.4046V68.259C278.114 68.6231 270.941 76.779 271.196 87.4108ZM284.595 84.9713L305.603 84.7893C305.349 75.6139 299.96 68.6959 291.367 68.259V68.4046C294.098 69.4241 296.1 73.2472 296.21 77.9806C296.282 82.6047 294.462 84.1339 284.595 84.8257V84.9713ZM307.315 104.961H325.92V104.815C323.008 104.087 321.26 101.902 321.26 98.2612V89.1949H321.114C320.095 93.9647 315.107 103.541 307.315 104.815V104.961ZM323.445 77.6164L323.59 77.6529C324.719 75.0677 325.702 74.1939 327.122 74.1939C329.489 74.1939 332.365 77.5072 332.802 82.5683L332.948 82.6047C334.586 77.8713 336.115 74.121 337.681 70.2615C336.152 69.1328 334.076 68.0769 331.892 68.0769C328.178 68.0769 325.119 71.2082 323.445 77.6164Z" fill="#455353"/>
<path d="M354.658 105.029V105.175C359.683 104.993 365.545 102.736 365.545 95.9633C365.545 89.2637 359.464 85.3314 354.986 82.2729C349.379 78.4498 346.32 75.7555 346.32 72.5149C346.32 70.1483 347.85 68.7283 350.507 68.3278V68.1821C345.483 68.3642 339.621 71.0221 339.621 77.6488C339.621 83.074 343.517 87.0791 349.415 91.1571C354.84 94.9073 358.773 97.4925 358.773 101.061C358.773 103.391 357.316 104.629 354.658 105.029ZM338.929 90.2832C339.548 95.1986 339.621 100.66 339.147 104.556L339.293 104.629C342.024 103.427 346.32 104.738 351.381 105.175V105.029C345.01 103.5 341.514 95.854 339.075 90.2104L338.929 90.2832ZM353.42 68.3641C359.392 70.3667 362.195 77.8673 364.453 82.9647L364.598 82.8919C363.943 77.8309 363.542 72.4421 364.016 68.619L363.87 68.5462C361.795 70.1847 358.008 68.5826 353.42 68.2185V68.3641Z" fill="#455353"/>
<path d="M366.927 68.5482V68.6939C370.204 69.6041 371.988 72.1893 371.915 76.6313L371.696 94.3268C371.587 101.9 374.646 105.25 380.653 105.25C384.804 105.25 388.045 103.611 390.411 101.099L390.339 100.953C388.809 102.191 387.062 103.029 385.423 103.029C382.037 103.029 380.653 99.5699 380.653 94.1083V78.998C380.653 72.3713 383.821 69.859 389.902 68.6939V68.5482H382.437C381.163 68.5482 380.763 67.9657 380.653 66.9462V56.3144H380.508C377.85 62.9046 373.845 68.4754 366.927 68.5482Z" fill="#455353"/>
<path d="M408.343 105.252V105.106C403.683 104.305 400.115 96.477 399.86 86.537C399.605 77.1067 402.918 69.2056 407.36 68.4046V68.259C397.02 68.6231 389.847 76.779 390.102 87.4108C390.357 98.0791 397.93 105.179 408.343 105.252ZM410.637 68.4046C415.298 69.4241 418.939 77.1431 419.121 86.9375C419.303 96.4042 416.062 104.305 411.62 105.106V105.252C422.289 104.888 429.134 96.7319 428.879 86.0636C428.624 75.4318 421.051 68.3318 410.637 68.259V68.4046Z" fill="#455353"/>
<path d="M432.597 104.817V104.963H450.656V104.817C447.744 104.089 445.996 101.904 445.996 98.2632V68.0061C441.517 69.7174 437.476 70.8825 432.269 71.9748V72.1205C435.546 72.6667 437.257 74.5236 437.257 78.9657V98.2632C437.257 101.904 435.51 104.089 432.597 104.817ZM449.637 73.5041L449.71 73.6497C451.239 72.4118 453.606 70.8461 456.373 70.8461C459.759 70.8461 461.325 73.4313 461.325 79.5846C461.325 85.3739 460.997 91.0903 460.997 96.8796C460.997 101.467 461.798 105.254 467.332 105.254C470.973 105.254 474.178 104.016 476.289 102.378L476.216 102.232C471.884 104.089 470.027 101.431 470.027 95.9329C470.027 89.5975 470.354 84.6821 470.354 79.0021C470.354 71.1738 466.713 68.261 461.143 68.261C456.373 68.261 452.331 70.6277 449.637 73.5041Z" fill="#455353"/>
<path d="M495.809 105.252C505.931 105.325 510.373 98.8073 511.284 95.6396L511.138 95.6032C509.536 99.4263 504.875 104.014 498.941 104.014C491.222 104.014 487.398 96.3314 487.326 85.8816C487.289 76.7426 490.384 69.2056 494.462 68.4046V68.259C484.486 68.6231 477.313 76.779 477.568 87.9206C477.823 98.8801 485.25 105.179 495.809 105.252ZM490.967 84.9713L511.976 84.7893C511.721 75.6139 506.332 68.6959 497.739 68.259V68.4046C500.47 69.4241 502.472 73.2472 502.582 77.9805C502.654 82.6047 500.834 84.1339 490.967 84.8257V84.9713Z" fill="#455353"/>
<path d="M88.7208 0.00565508C87.1803 -0.00344752 85.6562 -0.00141978 85.3341 0.010717C85.0127 0.0230561 84.0429 0.0747291 83.179 0.125845C82.3157 0.177528 81.0134 0.276084 80.2849 0.344435C79.5571 0.413412 78.3102 0.551946 77.514 0.652318C76.7184 0.753357 75.3083 0.96084 74.3811 1.11416C73.4537 1.26687 72.0128 1.53102 71.1791 1.70097C70.3454 1.87092 68.8873 2.19972 67.939 2.43248C66.9907 2.66524 65.4944 3.06366 64.6139 3.31857C63.7333 3.57349 62.5905 3.91894 62.0738 4.08582L61.1347 4.38926L59.8002 5.67506C59.0668 6.38196 58.1223 7.33395 57.7017 7.7915C57.2812 8.24839 56.4998 9.19048 55.9654 9.88511C55.4303 10.5791 54.7221 11.5187 54.3908 11.9732C54.0595 12.427 53.4807 13.2588 53.1051 13.8205C52.7289 14.3826 52.2178 15.2244 51.9684 15.6912C51.7184 16.1579 51.3274 16.9473 51.0983 17.446C50.8686 17.9442 50.5392 18.7323 50.3649 19.1973C50.1907 19.6622 49.9549 20.3826 49.8409 20.7989C49.727 21.2146 49.5909 21.818 49.5386 22.1394C49.4856 22.4609 49.4235 22.9313 49.3994 23.1856L49.3569 23.6474L49.2714 23.403C49.2239 23.2681 49.1297 22.8944 49.0614 22.5717C48.9832 22.2023 48.9235 21.6179 48.9001 20.9947C48.8779 20.3931 48.893 19.6918 48.9376 19.209C48.9789 18.7712 49.0657 18.0994 49.1309 17.7158C49.1962 17.3328 49.3341 16.6813 49.437 16.2688C49.5392 15.8568 49.7615 15.1111 49.9296 14.6118C50.0983 14.1124 50.4043 13.3088 50.61 12.8261C50.815 12.3433 51.1931 11.5459 51.4487 11.0551C51.7048 10.5637 52.1223 9.81563 52.3772 9.39256C52.6321 8.96891 53.025 8.34578 53.251 8.00716C53.477 7.66848 53.6826 7.3563 53.7078 7.3138C53.7368 7.26454 53.6333 7.28306 53.4264 7.36488C53.246 7.43568 52.5447 7.7448 51.8674 8.05145C51.19 8.3581 49.9776 8.93754 49.1734 9.33969C48.3692 9.74178 47.2751 10.3095 46.7412 10.6013C46.2079 10.8931 45.3144 11.3956 44.7554 11.7171C44.1969 12.0391 43.2271 12.6222 42.6002 13.0133C41.974 13.4043 40.9242 14.0822 40.2678 14.52C39.6114 14.9578 38.6834 15.5951 38.205 15.9369C37.7265 16.2781 36.7401 17.0071 36.0117 17.557C35.2839 18.1069 34.1889 18.9653 33.5795 19.464C32.9699 19.9622 32.0986 20.6924 31.6429 21.0853C31.1873 21.4787 30.3419 22.2268 29.7649 22.749C29.1873 23.2706 27.7574 24.656 26.5874 25.8278C25.4174 26.999 24.0006 28.47 23.4384 29.0969C22.8769 29.7231 22.0506 30.6651 21.6023 31.1905C21.154 31.7151 20.3529 32.6849 19.8221 33.3457C19.2913 34.0058 18.4126 35.1419 17.869 35.8703C17.3253 36.5982 16.6172 37.5699 16.2951 38.0285C15.9731 38.4873 15.3499 39.4017 14.9109 40.0605C14.4713 40.7194 13.7927 41.7705 13.4029 42.3973C13.0132 43.0241 12.3882 44.063 12.0144 44.7064C11.64 45.3499 11.0914 46.3197 10.7939 46.8616C10.4965 47.4035 9.8235 48.7058 9.29767 49.7557L8.34075 51.6645L8.41591 54.0044C8.45717 55.2913 8.51814 56.7323 8.55076 57.2064C8.58403 57.6805 8.66653 58.6916 8.73487 59.4539C8.80385 60.2156 8.94236 61.4903 9.04396 62.2865C9.145 63.0826 9.35248 64.4638 9.50457 65.3561C9.65666 66.2483 9.91957 67.606 10.0895 68.3733C10.2589 69.1405 10.5507 70.332 10.7379 71.0217C10.9251 71.7108 11.2607 72.8333 11.4836 73.5155C11.7065 74.1978 12.1326 75.3929 12.4301 76.172C12.7275 76.9509 13.1708 78.0729 13.4153 78.6658C13.6591 79.2581 14.0255 80.114 14.2287 80.5667C14.4319 81.0193 14.8266 81.7964 15.1055 82.2933C15.3851 82.7902 15.8561 83.5975 16.1529 84.087C16.4491 84.5765 16.9978 85.4343 17.371 85.9934C17.7447 86.5519 18.3291 87.3831 18.6696 87.8395C19.0107 88.2958 19.5569 88.9885 19.8839 89.3788C20.2108 89.7692 20.7798 90.3801 21.1486 90.7371C21.5168 91.0937 21.999 91.5475 22.2188 91.7445L22.619 92.1035L22.188 91.7778C21.951 91.5986 21.4239 91.1694 21.0162 90.824C20.6086 90.4785 19.8407 89.7748 19.3094 89.26C18.7786 88.7452 17.9854 87.9312 17.547 87.4515C17.1092 86.9712 16.4023 86.167 15.9775 85.6639C15.552 85.1608 14.8894 84.3431 14.5059 83.8474C14.1217 83.3511 13.5841 82.6265 13.3114 82.2373C13.0386 81.8475 12.6273 81.2379 12.3964 80.8826C12.1661 80.5267 11.7504 79.8617 11.4733 79.4048C11.1962 78.9473 10.743 78.1665 10.4659 77.6689C10.1888 77.1714 9.61802 76.063 9.19742 75.2058C8.77685 74.3487 8.22082 73.1486 7.9628 72.539C7.70419 71.9294 7.27564 70.8487 7.01085 70.1375C6.74608 69.4263 6.37231 68.3593 6.1802 67.7668C5.98808 67.1738 5.69311 66.204 5.5244 65.6116C5.3563 65.0186 5.08228 63.9798 4.91542 63.3025C4.74917 62.6251 4.59462 61.9534 4.57183 61.8092C4.54907 61.6652 4.51205 61.5475 4.4893 61.5475C4.46654 61.5475 4.29041 62.0531 4.09767 62.6713C3.90494 63.2895 3.59335 64.335 3.40555 64.9958C3.21712 65.6559 2.87231 66.9725 2.63832 67.9207C2.40434 68.8689 2.08784 70.2408 1.93573 70.9687C1.78302 71.6966 1.54658 72.9158 1.40988 73.6781C1.27379 74.4398 1.09336 75.5204 1.009 76.0795C0.925253 76.638 0.787326 77.6356 0.702348 78.2963C0.617997 78.9564 0.494237 80.0648 0.427121 80.7594C0.36057 81.4533 0.275634 82.4097 0.239304 82.8837C0.202388 83.3579 0.144548 84.2168 0.110009 84.7925C0.0761268 85.3683 0.0311979 86.9477 0.0108688 88.3024C-0.0118877 89.7981 0.00178504 91.4791 0.0453764 92.5819C0.0842141 93.5807 0.157425 94.9527 0.207297 95.6299C0.257159 96.3073 0.35448 97.4156 0.42283 98.093C0.491808 98.7703 0.602627 99.7401 0.669754 100.248C0.736304 100.756 0.847103 101.546 0.916061 102.003C0.985038 102.46 1.13773 103.37 1.25595 104.025C1.37417 104.68 1.56753 105.677 1.68637 106.242C1.80521 106.806 2.01336 107.725 2.14883 108.284C2.28429 108.842 2.49365 109.66 2.61372 110.1C2.7338 110.541 3.00843 111.483 3.22455 112.194C3.44069 112.905 3.8249 114.099 4.07798 114.846C4.33167 115.593 4.72453 116.688 4.95114 117.278C5.17774 117.868 5.59276 118.892 5.87355 119.552C6.15372 120.212 6.63647 121.294 6.94563 121.954C7.25474 122.614 7.76829 123.658 8.0867 124.272C8.40505 124.887 8.86441 125.746 9.1076 126.181C9.35021 126.616 9.78617 127.374 10.0756 127.865C10.3656 128.356 10.9185 129.257 11.3052 129.866C11.6919 130.476 12.3151 131.418 12.69 131.96C13.0657 132.502 13.7652 133.472 14.2455 134.115C14.7258 134.759 15.4191 135.659 15.7867 136.117C16.1537 136.573 16.7744 137.322 17.1648 137.779C17.5558 138.236 18.2812 139.055 18.7781 139.598C19.2744 140.142 20.2171 141.122 20.8729 141.778C21.5287 142.433 22.5502 143.412 23.1426 143.953C23.7355 144.494 24.6911 145.33 25.2669 145.81C25.8426 146.291 26.688 146.975 27.145 147.33C27.6025 147.685 28.382 148.271 28.8777 148.632C29.3734 148.993 30.3702 149.679 31.0926 150.158C31.8155 150.636 32.8364 151.285 33.3623 151.599C33.8881 151.915 34.651 152.36 35.0575 152.589C35.4639 152.819 36.3505 153.293 37.0279 153.641C37.7052 153.99 38.7169 154.487 39.2754 154.746C39.8345 155.004 40.7347 155.404 41.2767 155.633C41.8185 155.863 42.747 156.237 43.3394 156.464C43.9324 156.692 45.0265 157.082 45.7716 157.331C46.5167 157.581 47.5696 157.913 48.1115 158.07C48.6534 158.226 49.6927 158.503 50.4206 158.685C51.1491 158.868 52.2852 159.127 52.9453 159.261C53.606 159.395 54.6035 159.578 55.1621 159.669C55.7212 159.759 56.3031 159.854 56.4552 159.879L56.7322 159.926L56.3628 160.094C56.1596 160.187 55.5143 160.441 54.9292 160.66C54.3443 160.878 53.3468 161.206 52.7124 161.389C52.0782 161.571 51.0609 161.833 50.4514 161.969C49.8417 162.106 48.8307 162.302 48.2038 162.406C47.5776 162.51 46.497 162.662 45.8024 162.744C45.1078 162.826 44.0967 162.924 43.5548 162.961C43.013 162.999 42.3898 163.047 42.1694 163.068L41.7691 163.106L42.0154 163.182C42.1509 163.225 42.7328 163.401 43.3085 163.576C43.8843 163.749 44.8819 164.028 45.5253 164.195C46.1688 164.361 47.0974 164.579 47.5881 164.68C48.0794 164.781 48.8689 164.919 49.3429 164.988C49.8171 165.057 50.524 165.142 50.9132 165.177C51.3029 165.211 52.3282 165.258 53.1914 165.28C54.1329 165.303 55.2523 165.291 55.9876 165.249C56.6619 165.21 57.6175 165.137 58.112 165.086C58.6058 165.034 59.4402 164.923 59.9648 164.838C60.49 164.753 61.3071 164.586 61.7812 164.467C62.2554 164.348 62.9345 164.166 63.2899 164.063C63.6458 163.96 64.352 163.728 64.86 163.547C65.368 163.367 66.1568 163.062 66.6131 162.87C67.0688 162.678 67.8798 162.302 68.4148 162.035C68.9493 161.768 69.6143 161.421 69.8915 161.263C70.1685 161.106 70.5676 160.872 70.7775 160.743C70.9875 160.615 71.4019 160.35 71.6981 160.155L72.2375 159.799L72.9204 159.691C73.2966 159.631 73.6655 159.567 73.7406 159.548L73.8773 159.514L73.6556 160.146C73.5337 160.493 73.2695 161.291 73.0694 161.917C72.8687 162.543 72.538 163.638 72.3348 164.349C72.131 165.06 71.7597 166.466 71.5097 167.473C71.2597 168.481 70.9155 169.968 70.7443 170.78C70.5725 171.591 70.4327 172.291 70.4333 172.335C70.4333 172.379 70.5073 172.291 70.5971 172.138C70.687 171.986 70.8459 171.751 70.9493 171.615C71.0528 171.48 71.2769 171.207 71.4469 171.01C71.6174 170.812 72.0891 170.358 72.4955 170C72.9019 169.643 73.6643 169.029 74.1889 168.637C74.7141 168.244 75.7671 167.506 76.5287 166.997C77.2911 166.489 78.4222 165.754 79.0435 165.365C79.6648 164.975 81.0502 164.078 82.1223 163.371C83.1944 162.664 84.9172 161.539 85.9498 160.872C86.9831 160.204 88.2159 159.422 88.6899 159.135C89.1641 158.847 89.8156 158.472 90.1369 158.3C90.459 158.128 90.9941 157.887 91.3273 157.764C91.6598 157.64 92.1056 157.523 92.318 157.504C92.5563 157.481 92.7915 157.496 92.9344 157.544C93.0612 157.586 93.2577 157.701 93.3709 157.8C93.4843 157.9 93.6277 158.112 93.6893 158.271C93.7761 158.497 93.8001 158.729 93.7977 159.331C93.7957 159.821 93.7546 160.29 93.685 160.624C93.6247 160.911 93.4818 161.48 93.3679 161.886C93.2546 162.292 93.0496 162.948 92.9129 163.343C92.7762 163.739 92.5557 164.334 92.4227 164.667C92.2897 165 92.0656 165.536 91.9234 165.858C91.7817 166.179 91.395 166.984 91.0644 167.645C90.7331 168.307 90.246 169.234 89.9819 169.708C89.7177 170.181 89.2109 171.053 88.8557 171.646C88.5004 172.238 88.1032 172.881 87.9727 173.074C87.8421 173.267 87.7356 173.443 87.7356 173.464C87.7356 173.485 88.1956 173.265 88.7571 172.975C89.3187 172.685 90.1296 172.215 90.5582 171.931C90.9868 171.648 91.573 171.226 91.8612 170.994C92.1494 170.762 92.6586 170.308 92.9936 169.985C93.3286 169.662 93.8464 169.101 94.1444 168.737C94.4425 168.373 94.8655 167.805 95.0853 167.474C95.3046 167.144 95.6377 166.582 95.8255 166.225C96.0139 165.869 96.2922 165.279 96.4449 164.915C96.597 164.551 96.8316 163.911 96.9659 163.492C97.0995 163.072 97.2922 162.346 97.3932 161.877C97.4942 161.407 97.6087 160.816 97.6469 160.562C97.6851 160.307 97.7294 160.038 97.7455 159.963L97.7738 159.827L98.2541 160.214C98.5177 160.427 99.0712 160.856 99.4838 161.168L100.234 161.734L100.197 161.471C100.176 161.327 100.017 160.349 99.8433 159.299L99.5274 157.391L99.0041 157.351C98.7159 157.329 98.3286 157.28 98.142 157.242C97.956 157.205 97.3322 157.107 96.7566 157.026C96.1808 156.944 95.3495 156.819 94.9093 156.748C94.469 156.676 93.6654 156.534 93.1235 156.431C92.5817 156.328 91.5706 156.12 90.876 155.968C90.182 155.816 89.129 155.566 88.5361 155.412C87.9438 155.258 87.1125 155.037 86.6888 154.918C86.2658 154.801 85.3372 154.522 84.6259 154.301C83.9147 154.079 82.6678 153.661 81.855 153.373C81.0422 153.085 79.7399 152.593 78.961 152.281C78.1821 151.968 76.9906 151.467 76.3132 151.167C75.6359 150.866 74.2646 150.213 73.2652 149.716C72.2664 149.218 70.897 148.503 70.2234 148.127C69.5491 147.75 68.6212 147.217 68.1606 146.941C67.7 146.665 66.7554 146.081 66.0608 145.642C65.3668 145.204 64.328 144.523 63.7536 144.129C63.1785 143.735 62.2093 143.042 61.5996 142.588C60.99 142.134 60.0749 141.428 59.5657 141.019C59.057 140.609 58.267 139.954 57.8096 139.561C57.3527 139.169 56.618 138.521 56.1778 138.122C55.7375 137.723 54.7714 136.797 54.0313 136.064C53.2905 135.331 52.3207 134.343 51.8761 133.868C51.4309 133.394 50.6901 132.576 50.2296 132.052C49.7697 131.527 49.0067 130.627 48.5356 130.051C48.064 129.475 47.3293 128.547 46.9026 127.988C46.4759 127.429 45.7715 126.474 45.3368 125.864C44.9027 125.254 44.1545 124.16 43.6748 123.432C43.1945 122.703 42.4273 121.484 41.9697 120.722C41.5116 119.96 40.8515 118.811 40.503 118.167C40.1545 117.524 39.5301 116.304 39.1157 115.458C38.7013 114.611 38.1218 113.378 37.8288 112.718C37.5351 112.057 37.0511 110.907 36.753 110.162C36.455 109.416 36.0166 108.266 35.7795 107.606C35.5424 106.946 35.1939 105.935 35.0061 105.359C34.8177 104.784 34.4802 103.675 34.2555 102.896C34.0314 102.117 33.7001 100.884 33.5191 100.155C33.338 99.4258 33.0788 98.304 32.9433 97.6611C32.8072 97.0182 32.6108 96.0213 32.5074 95.4455C32.4033 94.8698 32.2358 93.8446 32.1354 93.1672C32.0345 92.4899 31.883 91.3119 31.798 90.5503C31.713 89.7879 31.601 88.6106 31.5492 87.9333C31.497 87.2559 31.4236 85.7898 31.3854 84.6746C31.3344 83.1629 31.3344 82.1382 31.3875 80.6414C31.4263 79.5379 31.4995 78.0391 31.55 77.3114C31.5999 76.583 31.683 75.5578 31.7341 75.0332C31.7852 74.5079 31.9109 73.4272 32.0131 72.6317C32.1159 71.8355 32.308 70.5473 32.4404 69.7684C32.5728 68.9895 32.7945 67.798 32.933 67.1207C33.0715 66.4433 33.3474 65.2241 33.5469 64.4113C33.7458 63.5985 34.0919 62.2962 34.3166 61.5173C34.5408 60.7384 34.9416 59.4502 35.2076 58.654C35.473 57.8578 35.9028 56.6442 36.1621 55.9564C36.4219 55.2693 36.8517 54.1886 37.1171 53.555C37.3825 52.9219 37.8277 51.9054 38.1054 51.2957C38.3837 50.6861 38.9262 49.5636 39.311 48.8019C39.6965 48.0396 40.3184 46.8629 40.694 46.1868C41.0696 45.5101 41.6835 44.443 42.0579 43.8161C42.4323 43.1886 43.2167 41.9546 43.8005 41.0741C44.3842 40.1936 45.1712 39.0482 45.5492 38.5286C45.9273 38.0089 46.519 37.2194 46.8644 36.7737C47.2099 36.3279 47.8287 35.5612 48.2393 35.0705C48.65 34.5791 49.3329 33.7897 49.7571 33.3156C50.1814 32.8415 51.1758 31.7763 51.9677 30.9486C52.7589 30.1211 53.7811 29.0983 54.2381 28.6765C54.6956 28.2547 55.8433 27.2418 56.7891 26.4254C57.7355 25.6095 58.8163 24.6981 59.1906 24.4014C59.5656 24.1039 60.6481 23.3244 61.5964 22.6686C62.5447 22.0128 63.7085 21.2284 64.1825 20.9255C64.6567 20.6225 65.5574 20.0684 66.1838 19.6933C66.8106 19.3189 67.7109 18.8004 68.1851 18.5406C68.6592 18.2814 69.4676 17.8639 69.9813 17.6127C70.4948 17.3614 71.3058 16.9883 71.783 16.7844C72.2602 16.5806 73.0614 16.2746 73.5639 16.1047C74.0664 15.9347 74.7794 15.7266 75.1488 15.6428C75.5183 15.5591 76.0146 15.4907 76.2517 15.4901C76.5657 15.4901 76.7344 15.5215 76.873 15.6059C76.9795 15.6711 77.1267 15.8528 77.2085 16.0215C77.2941 16.1976 77.3557 16.4365 77.3569 16.6034C77.359 16.8195 77.317 16.9482 77.1753 17.1527C77.0738 17.2998 76.7831 17.5979 76.5288 17.8152C76.2751 18.032 75.0004 18.9255 73.6962 19.7998C72.3926 20.6742 70.8132 21.7561 70.1864 22.2044C69.5602 22.6527 68.4377 23.4802 67.6926 24.043C66.9475 24.6065 65.5577 25.697 64.604 26.4673C63.6508 27.237 62.6809 28.0375 62.4488 28.2456C62.2172 28.4537 61.0941 29.5355 59.9538 30.649C58.8127 31.763 57.5646 33.0259 57.1792 33.457C56.7943 33.8874 56.314 34.4354 56.1126 34.6743C55.9113 34.9132 55.4045 35.5061 54.9852 35.9919C54.5665 36.4777 53.9065 37.274 53.5179 37.7611C53.1294 38.2481 52.4637 39.1237 52.0382 39.7069C51.6127 40.29 50.8431 41.4039 50.3276 42.1829C49.8123 42.9618 49.1331 44.0283 48.8183 44.5536C48.5031 45.0782 47.944 46.0481 47.5751 46.7088C47.2057 47.3689 46.5234 48.6712 46.0578 49.6028C45.5923 50.5339 44.9673 51.8484 44.6693 52.524C44.3712 53.1989 43.9538 54.183 43.7413 54.71C43.5283 55.2371 43.2099 56.0561 43.0332 56.5301C42.8558 57.0042 42.5468 57.8768 42.3454 58.4698C42.1441 59.0622 41.7986 60.1569 41.5781 60.902C41.3571 61.6471 41.0012 62.9629 40.7863 63.8269C40.5714 64.6902 40.282 65.9587 40.1428 66.6452C40.0037 67.3318 39.7955 68.468 39.6798 69.1699C39.5646 69.8719 39.3984 71.0005 39.3115 71.6779C39.2242 72.3552 39.0985 73.5189 39.032 74.264C38.9654 75.0091 38.8768 76.1864 38.8356 76.881C38.7937 77.575 38.7598 79.3902 38.7592 80.9143C38.7592 82.9463 38.7875 84.0712 38.8657 85.1322C38.9242 85.9277 39.0277 87.0916 39.096 87.7183C39.1638 88.3446 39.3011 89.4252 39.4008 90.1198C39.5005 90.8138 39.6656 91.8391 39.7678 92.3981C39.87 92.9566 40.0381 93.8156 40.1422 94.307C40.2463 94.7978 40.4655 95.754 40.6292 96.4314C40.7937 97.1087 41.1114 98.2996 41.3362 99.0785C41.5609 99.8568 41.9513 101.11 42.2038 101.863C42.4562 102.615 42.8725 103.78 43.1293 104.45C43.386 105.12 43.7715 106.083 43.9852 106.591C44.1988 107.099 44.5843 107.979 44.8411 108.546C45.0985 109.113 45.5757 110.11 45.9014 110.762C46.2278 111.415 46.758 112.433 47.08 113.026C47.4021 113.618 47.9568 114.588 48.3127 115.181C48.668 115.774 49.2985 116.776 49.7142 117.407C50.1292 118.039 50.8633 119.105 51.3453 119.778C51.8274 120.45 52.5885 121.471 53.0374 122.047C53.4862 122.623 54.1691 123.472 54.5552 123.934C54.9412 124.396 55.671 125.241 56.1771 125.812C56.6838 126.383 57.8052 127.559 58.6696 128.424C59.5342 129.291 60.6574 130.372 61.1654 130.827C61.6734 131.282 62.4357 131.947 62.8587 132.305C63.2823 132.662 63.9658 133.222 64.3784 133.548C64.7903 133.875 65.4973 134.415 65.9486 134.748C66.3993 135.082 67.1291 135.604 67.5693 135.907C68.0095 136.21 68.7183 136.683 69.1438 136.959C69.5699 137.235 70.4707 137.793 71.1463 138.198C71.8212 138.604 72.8753 139.214 73.4886 139.554C74.1013 139.894 75.2171 140.479 75.967 140.855C76.7176 141.23 77.7842 141.743 78.337 141.993C78.8906 142.244 79.8203 142.647 80.4041 142.889C80.9879 143.131 81.9688 143.518 82.5839 143.748C83.199 143.979 84.3395 144.377 85.1184 144.634C85.8973 144.891 86.9645 145.226 87.4891 145.378C88.0143 145.53 88.8733 145.766 89.3979 145.903C89.9231 146.039 90.9065 146.274 91.5838 146.424C92.2612 146.574 93.2729 146.782 93.8314 146.886C94.3899 146.989 95.194 147.128 95.6171 147.195C96.0407 147.261 96.8302 147.372 97.372 147.442C97.9138 147.511 98.8116 147.61 99.367 147.662C99.923 147.714 100.387 147.747 100.398 147.735C100.41 147.724 100.695 146.775 101.031 145.627C101.368 144.479 101.637 143.533 101.63 143.526C101.622 143.518 101.149 143.843 100.578 144.248C100.006 144.653 99.511 144.984 99.4785 144.984C99.4409 144.984 99.4328 144.825 99.4563 144.568C99.4778 144.34 99.5128 143.557 99.5352 142.829C99.5605 142.004 99.5475 141.075 99.5008 140.366C99.4601 139.739 99.3734 138.793 99.3081 138.263C99.2428 137.733 99.119 136.915 99.0328 136.447C98.9466 135.977 98.7785 135.192 98.6578 134.701C98.5378 134.21 98.2933 133.364 98.1141 132.82C97.9355 132.277 97.6443 131.489 97.4676 131.069C97.2908 130.649 97.0495 130.114 96.9319 129.88C96.8143 129.646 96.7108 129.464 96.7022 129.476C96.6931 129.488 96.7103 131.105 96.738 133.069C96.7663 135.034 96.7738 137.541 96.7553 138.642C96.7368 139.742 96.6937 141.059 96.6593 141.567C96.6248 142.075 96.5417 142.836 96.4746 143.26C96.4081 143.683 96.2849 144.255 96.2012 144.53C96.1174 144.806 95.9585 145.165 95.8483 145.329C95.7381 145.493 95.554 145.69 95.4388 145.767C95.3237 145.845 95.1439 145.908 95.0386 145.907C94.934 145.907 94.7006 145.838 94.5214 145.754C94.3416 145.671 94.0269 145.443 93.8219 145.247C93.5934 145.03 93.3194 144.672 93.115 144.325C92.9315 144.014 92.6187 143.404 92.4192 142.971C92.2203 142.537 91.9136 141.822 91.7375 141.382C91.5614 140.942 91.2141 139.972 90.966 139.227C90.7178 138.482 90.4026 137.442 90.2652 136.918C90.1285 136.392 89.9487 135.631 89.8662 135.224C89.7837 134.818 89.6593 134.097 89.5897 133.623C89.5196 133.149 89.4198 132.332 89.3674 131.807C89.3158 131.282 89.256 130.201 89.2345 129.405C89.2111 128.5 89.2243 127.601 89.2689 127.004C89.3089 126.479 89.3835 125.763 89.4346 125.413C89.4863 125.062 89.6064 124.467 89.7018 124.089C89.7978 123.711 89.8705 123.395 89.8638 123.387C89.8557 123.379 88.8238 125.443 87.5682 127.974C86.3134 130.506 85.0152 133.152 84.6852 133.854C84.3545 134.557 84.0645 135.132 84.0405 135.132C84.0164 135.132 83.9069 134.899 83.7967 134.613L83.5965 134.096L83.5817 129.518C83.5715 126.588 83.53 124.044 83.4653 122.447C83.4099 121.075 83.336 119.524 83.3009 118.999C83.2658 118.474 83.2116 117.795 83.1796 117.49C83.1475 117.186 83.0644 116.257 82.9948 115.428C82.9253 114.598 82.8397 113.683 82.8052 113.396C82.7713 113.107 82.716 112.692 82.6827 112.472C82.6495 112.251 82.6064 111.994 82.5872 111.898C82.5674 111.803 82.541 111.735 82.5275 111.748C82.5146 111.761 82.2424 112.851 81.9222 114.169C81.602 115.488 81.1587 117.384 80.937 118.383C80.7147 119.382 80.381 120.931 80.1944 121.825C80.0084 122.719 79.8471 123.46 79.836 123.471C79.8249 123.481 79.7252 123.18 79.6137 122.8C79.5023 122.42 79.2314 121.457 79.0115 120.662C78.7923 119.865 78.3945 118.341 78.1279 117.275C77.8613 116.208 77.4906 114.656 77.304 113.827C77.1175 112.997 76.7843 111.417 76.5639 110.317C76.3434 109.216 76.0085 107.429 75.82 106.345C75.631 105.261 75.3379 103.585 75.1679 102.62C74.998 101.654 74.7351 100.213 74.583 99.4178C74.4309 98.6216 74.1667 97.3193 73.9961 96.5238C73.8256 95.7276 73.5109 94.3563 73.296 93.4757C73.0811 92.5952 72.7492 91.3341 72.5584 90.674C72.3675 90.0133 71.9518 88.6279 71.6347 87.5952C71.3176 86.562 70.8749 85.0935 70.6501 84.3317C70.4253 83.5694 70.0885 82.3778 69.9013 81.6839C69.7148 80.9893 69.4241 79.8397 69.2554 79.1285C69.0873 78.4173 68.8145 77.1562 68.6495 76.3268C68.4845 75.4968 68.3158 74.6034 68.2745 74.341C68.2332 74.0787 68.1754 73.8638 68.1458 73.8638C68.1169 73.8638 67.7678 74.0621 67.3693 74.3041C66.9716 74.5467 66.0448 75.1403 65.3102 75.6237C64.5756 76.107 63.4119 76.8982 62.7241 77.3829C62.0363 77.8675 60.6976 78.8453 59.7493 79.5566C58.8011 80.2678 57.3189 81.4162 56.455 82.1084C55.5917 82.8005 54.3726 83.7986 53.7457 84.3264C53.1195 84.8541 52.1909 85.6459 51.6828 86.0856C51.1748 86.5252 50.3301 87.2728 49.8048 87.7469C49.2801 88.2204 48.9298 88.5123 49.027 88.3947C49.1243 88.2765 49.7216 87.6398 50.354 86.9796C50.9864 86.3189 51.724 85.5432 51.9932 85.2543C52.2629 84.9655 52.8719 84.2869 53.3466 83.7457C53.8214 83.2044 54.5031 82.4151 54.8614 81.992C55.2198 81.5684 56.0504 80.6527 56.7075 79.9569C57.3645 79.2611 58.3072 78.25 58.8023 77.7094C59.2974 77.1693 60.2266 76.2143 60.8676 75.588C61.5086 74.9612 62.5167 74.019 63.1078 73.4932C63.6989 72.968 64.5431 72.2316 64.9834 71.8572C65.4237 71.4828 66.2205 70.8233 66.7538 70.3917L67.7236 69.6072V67.3486C67.7242 66.106 67.7519 64.6318 67.7864 64.0733C67.8203 63.5148 67.904 62.5031 67.9717 61.8258C68.0401 61.1485 68.1515 60.2063 68.2199 59.7322C68.2882 59.258 68.4299 58.3992 68.5345 57.824C68.6392 57.2482 68.8289 56.3339 68.957 55.792C69.0844 55.2495 69.3843 54.0993 69.6239 53.2359C69.8628 52.3719 70.1263 51.4718 70.2082 51.2346C70.2907 50.9975 70.7094 49.9028 71.1392 48.8024C71.7833 47.1521 72.0887 46.4717 72.8807 44.923C73.4084 43.8898 73.9773 42.7956 74.1449 42.4908C74.313 42.1861 74.8629 41.3062 75.3685 40.5351C75.874 39.7648 76.3032 39.0923 76.3223 39.0419C76.3432 38.9883 76.3229 38.9507 76.2743 38.9514C76.228 38.952 75.701 38.9797 75.1024 39.013C74.3912 39.0524 73.2188 39.0524 71.7158 39.0123C70.4515 38.9791 69.1265 38.9218 68.7707 38.8849C68.4154 38.8479 67.7251 38.7506 67.238 38.6687C66.7503 38.5868 66.0299 38.4385 65.6371 38.3387C65.2434 38.2391 64.6725 38.0691 64.3677 37.9619C64.0629 37.8542 63.6473 37.6867 63.4441 37.5888C63.1171 37.4317 63.0993 37.4145 63.2902 37.4397C63.409 37.4557 63.9355 37.4872 64.4601 37.5099C65.0451 37.5352 65.7366 37.5229 66.2459 37.4785C66.7034 37.439 67.5346 37.3362 68.0932 37.25C68.6523 37.1639 69.2995 37.0536 69.5328 37.005C69.7656 36.9563 70.5137 36.8209 71.1954 36.7045C71.8764 36.5881 72.8499 36.4058 73.358 36.3005C73.866 36.1946 74.6141 36.0265 75.0205 35.9268C75.4269 35.8276 76.513 35.6214 77.4337 35.4693C78.3549 35.3172 79.148 35.1774 79.1973 35.1589C79.2459 35.1398 79.6031 34.7593 79.9904 34.3129C80.3783 33.8658 81.1259 33.0432 81.6517 32.4847C82.1782 31.9255 83.0765 31.0352 83.648 30.505C84.22 29.9755 85.0378 29.2408 85.4645 28.8732C85.8918 28.5056 86.6775 27.8609 87.2108 27.4404C87.744 27.0205 88.683 26.3178 89.2976 25.8801C89.9121 25.4429 90.8856 24.7859 91.4614 24.4214C92.0371 24.0562 92.9239 23.5138 93.4318 23.2151C93.9398 22.917 95.0457 22.3198 95.89 21.8887L97.4245 21.1049L96.8137 20.9183C96.4775 20.8155 95.8291 20.6203 95.3715 20.4842C94.914 20.3487 94.3327 20.1837 94.0784 20.1184C93.8247 20.0532 92.4608 19.7963 91.0483 19.5482C89.6356 19.3007 88.488 19.0889 88.4984 19.0784C88.5085 19.0679 89.3876 19.0285 90.4515 18.9903C91.5149 18.9522 92.9115 18.9225 93.5549 18.9251C94.1984 18.9271 95.1959 18.9595 95.7717 18.9971C96.3474 19.0346 97.6079 19.0919 98.5734 19.1252C99.5389 19.1584 100.589 19.2224 100.907 19.2674L101.485 19.3487L102.077 19.1197C102.402 18.9934 103.111 18.7379 103.653 18.5519C104.195 18.366 105.11 18.0735 105.685 17.9017C106.261 17.7299 107.106 17.4916 107.563 17.3727C108.021 17.2539 108.838 17.0575 109.38 16.9368C109.922 16.8155 110.892 16.6221 111.535 16.5064C112.179 16.3906 113.204 16.2268 113.813 16.1431C114.423 16.0587 115.352 15.9466 115.876 15.8949C116.402 15.8426 117.26 15.7656 117.785 15.7237C118.347 15.6788 119.853 15.6474 121.449 15.6474C123.054 15.6474 124.547 15.6788 125.113 15.7243C125.638 15.7662 126.483 15.8426 126.991 15.8937C127.499 15.9447 128.496 16.0704 129.208 16.1726C129.919 16.2755 131.041 16.4663 131.701 16.5981C132.362 16.7293 133.313 16.9349 133.815 17.0556C134.318 17.1763 135.204 17.4115 135.786 17.5784C136.367 17.7459 137.273 18.0254 137.797 18.2003C138.323 18.3746 139.209 18.6929 139.768 18.9066C140.327 19.1209 141.214 19.4817 141.738 19.7089C142.263 19.9362 143.289 20.422 144.016 20.7884C144.745 21.1554 145.728 21.6825 146.202 21.9596C146.677 22.2373 147.42 22.6967 147.853 22.9799C148.287 23.2638 148.628 23.4719 148.609 23.4423C148.592 23.4128 147.627 22.6683 146.466 21.7878C145.305 20.9073 143.773 19.7582 143.062 19.2343C142.351 18.7109 141.146 17.8445 140.383 17.31C139.622 16.7755 138.361 15.9159 137.582 15.3999C136.803 14.8845 135.792 14.2269 135.334 13.9399C134.877 13.6524 133.94 13.0785 133.25 12.6654C132.561 12.2516 131.371 11.5644 130.606 11.1382C129.84 10.7121 128.437 9.96704 127.487 9.48309C126.537 8.99848 125.177 8.33406 124.466 8.00596C123.755 7.67776 122.693 7.20361 122.107 6.95236C121.52 6.70113 120.492 6.27687 119.821 6.00902C119.151 5.74116 117.954 5.28795 117.163 5.00225C116.37 4.71591 115.251 4.328 114.676 4.13956C114.1 3.95114 113.114 3.64572 112.485 3.46037C111.856 3.27441 110.761 2.969 110.053 2.78059C109.344 2.59216 108.168 2.30153 107.44 2.13405C106.713 1.96594 105.613 1.73011 104.998 1.60943C104.382 1.48873 103.301 1.29415 102.596 1.17777C101.891 1.06077 101.005 0.920983 100.627 0.866802L99.9405 0.767693L99.1801 0.922267C98.762 1.00722 98.0039 1.19812 97.4959 1.34651C96.9879 1.49492 95.5192 1.9518 94.2323 2.36125C92.9454 2.77135 91.6153 3.20607 91.2767 3.32737C90.938 3.44867 90.5088 3.6069 90.3223 3.67896C90.1363 3.75157 88.8198 4.34892 87.3974 5.00775C85.975 5.66599 84.7835 6.22021 84.7497 6.23801C84.7084 6.26016 84.7084 6.25034 84.7497 6.20786C84.7835 6.17337 85.8507 5.42955 87.1204 4.55584C88.3907 3.68269 89.6541 2.82121 89.9288 2.64209C90.2035 2.4629 91.113 1.94074 91.9503 1.4813C92.7878 1.02195 93.6406 0.561971 93.845 0.458575C94.0494 0.355746 94.1923 0.248593 94.1627 0.221497C94.1332 0.194392 93.5272 0.138355 92.816 0.0977268C92.1048 0.0570685 90.2626 0.0158156 88.7212 0.00661191L88.7208 0.00565508ZM22.6734 92.0926C22.6863 92.0926 22.7344 92.1413 22.7811 92.2004L22.8655 92.3081L22.7577 92.2238C22.6985 92.177 22.65 92.129 22.65 92.116C22.65 92.1031 22.6605 92.0926 22.6734 92.0926ZM74.8889 17.1539C74.7916 17.156 74.5182 17.2211 74.2811 17.2993C74.0441 17.3781 73.5453 17.5585 73.1728 17.7014C72.8002 17.8436 71.9966 18.218 71.387 18.5326C70.7774 18.8479 69.8354 19.3479 69.2934 19.6446C68.7516 19.9414 67.7683 20.4907 67.1075 20.8651C66.4474 21.2389 65.4911 21.822 64.9832 22.1601C64.4752 22.4982 63.727 23.0105 63.3206 23.298C62.9142 23.5856 62.2086 24.0998 61.7528 24.4396C61.2972 24.7795 60.5767 25.3349 60.1519 25.673C59.727 26.0111 58.9783 26.6244 58.4869 27.0357C57.9962 27.447 57.1508 28.1816 56.6089 28.6681C56.067 29.1545 54.8602 30.3158 53.9272 31.2494C52.9938 32.1822 51.8324 33.3891 51.3459 33.931C50.8595 34.4729 50.0437 35.4174 49.5325 36.0294C49.022 36.6415 48.2825 37.5559 47.8902 38.0615C47.498 38.567 46.8717 39.3959 46.4998 39.9038C46.1273 40.4118 45.1901 41.825 44.418 43.0442C43.6452 44.2635 42.841 45.5387 42.631 45.878C42.4204 46.2173 41.6119 47.7553 40.8343 49.2955C40.0572 50.8355 39.2203 52.5528 38.9747 53.1108C38.7296 53.6693 38.3903 54.5005 38.2204 54.9581C38.0504 55.4162 37.7167 56.2875 37.479 56.8953C37.242 57.5025 36.8682 58.5277 36.6496 59.1736C36.431 59.8189 36.0745 60.9569 35.8571 61.7019C35.6404 62.447 35.3257 63.6108 35.1588 64.2881C34.9914 64.9654 34.742 66.0596 34.6034 66.7203C34.4655 67.3804 34.2549 68.4697 34.1361 69.1395C34.0172 69.8101 33.838 70.9185 33.7377 71.6026C33.6373 72.2873 33.4852 73.4425 33.399 74.171C33.3134 74.8988 33.1601 76.7972 33.0585 78.3889L32.8744 81.2829L32.9354 83.0686C32.9693 84.0508 33.0376 85.8002 33.0875 86.9559L33.1774 89.0574L33.4828 91.2354C33.6503 92.433 33.8603 93.9399 33.9489 94.5834C34.037 95.2268 34.263 96.4732 34.4508 97.3531C34.6386 98.233 34.9151 99.451 35.0659 100.06C35.2162 100.669 35.4501 101.556 35.5856 102.032C35.7211 102.507 35.9871 103.395 36.1768 104.004C36.3664 104.614 36.7278 105.695 36.9803 106.406C37.2328 107.117 37.6755 108.294 37.9643 109.023C38.2537 109.751 38.7839 111.012 39.1429 111.825C39.5019 112.637 40.2008 114.12 40.6965 115.119C41.1916 116.118 41.9201 117.525 42.3153 118.246C42.71 118.967 43.3277 120.047 43.6873 120.647C44.0475 121.248 44.7181 122.306 45.1781 122.999C45.6375 123.692 46.3543 124.726 46.7698 125.297C47.1855 125.868 47.8216 126.714 48.1837 127.177C48.5451 127.64 49.2341 128.49 49.7144 129.066C50.1941 129.642 50.8579 130.417 51.1892 130.79C51.5204 131.163 52.3068 132.018 52.9379 132.692C53.5684 133.365 54.8634 134.67 55.8153 135.591C56.7673 136.512 57.9866 137.643 58.5247 138.104C59.0628 138.565 59.9741 139.313 60.5499 139.766C61.1256 140.219 62.3171 141.137 63.1976 141.806C64.4661 142.771 65.2715 143.319 67.0758 144.446C68.3282 145.228 69.8657 146.169 70.4933 146.537C71.1207 146.904 72.5204 147.643 73.604 148.18C74.6877 148.717 76.0664 149.382 76.6674 149.658C77.2684 149.934 78.2204 150.354 78.7832 150.59C79.3466 150.826 80.3651 151.23 81.0467 151.487C81.7283 151.745 82.8546 152.144 83.5485 152.375C84.2431 152.605 85.3927 152.961 86.1039 153.165C86.8151 153.369 87.9525 153.675 88.6316 153.845C89.3108 154.016 90.3779 154.266 91.0042 154.401C91.6304 154.535 92.6126 154.73 93.187 154.834C93.7615 154.938 94.6617 155.09 95.1863 155.172C95.7116 155.254 96.6813 155.391 97.3415 155.476C98.0022 155.562 98.9721 155.674 99.4967 155.726C100.022 155.778 100.978 155.861 101.621 155.91C102.264 155.96 103.539 156.033 104.454 156.073C105.508 156.118 107.186 156.132 109.041 156.109C110.829 156.087 112.397 156.036 113.074 155.978C113.684 155.927 114.585 155.841 115.075 155.788C115.567 155.736 116.495 155.623 117.138 155.537C117.782 155.451 118.89 155.284 119.601 155.166C120.313 155.047 121.504 154.826 122.249 154.674C122.994 154.522 124.276 154.232 125.096 154.031C125.918 153.83 127.22 153.484 127.99 153.262C128.761 153.041 130.049 152.64 130.852 152.371C131.656 152.102 132.871 151.672 133.553 151.415C134.234 151.158 135.225 150.767 135.755 150.546C136.285 150.326 137.218 149.921 137.828 149.647C138.437 149.373 139.74 148.743 140.722 148.247C141.704 147.751 143.017 147.061 143.64 146.713C144.262 146.365 145.232 145.802 145.795 145.462C146.357 145.123 147.248 144.561 147.772 144.215C148.515 143.725 148.844 143.462 149.255 143.03C149.681 142.582 149.844 142.352 150.103 141.836C150.291 141.461 150.461 141.018 150.514 140.765C150.562 140.528 150.603 140.176 150.603 139.983C150.604 139.79 150.574 139.485 150.536 139.306C150.498 139.126 150.397 138.827 150.31 138.641C150.214 138.434 149.995 138.146 149.748 137.902C149.525 137.681 149.199 137.424 149.023 137.33C148.849 137.237 148.491 137.106 148.229 137.039C147.93 136.962 147.549 136.917 147.206 136.917C146.905 136.917 146.445 136.961 146.184 137.015C145.923 137.068 145.489 137.199 145.22 137.305C144.951 137.411 144.507 137.64 144.235 137.814C143.962 137.987 143.268 138.434 142.692 138.806C142.116 139.178 141.285 139.698 140.845 139.963C140.405 140.227 139.47 140.758 138.769 141.142C138.067 141.526 136.931 142.122 136.244 142.465C135.557 142.81 134.635 143.256 134.195 143.459C133.754 143.661 132.882 144.041 132.255 144.304C131.629 144.566 130.621 144.967 130.017 145.193C129.413 145.419 128.512 145.743 128.016 145.913C127.52 146.082 126.518 146.403 125.789 146.624C125.062 146.845 123.712 147.218 122.791 147.452C121.87 147.685 120.359 148.028 119.435 148.213C118.51 148.398 117.117 148.646 116.338 148.765C115.559 148.885 114.298 149.052 113.536 149.136C112.774 149.22 111.721 149.32 111.196 149.356C110.671 149.393 109.022 149.439 107.532 149.459C105.83 149.481 104.228 149.468 103.222 149.422C102.341 149.382 101.094 149.308 100.451 149.258C99.8075 149.207 98.7822 149.111 98.1727 149.044C97.5631 148.977 96.5655 148.852 95.9559 148.766C95.3463 148.68 94.3735 148.528 93.7933 148.429C93.2139 148.33 92.2576 148.15 91.669 148.029C91.0803 147.908 89.9891 147.661 89.2441 147.478C88.4991 147.297 87.4462 147.02 86.9043 146.863C86.3624 146.706 85.5177 146.451 85.0262 146.297C84.5355 146.142 83.6345 145.836 83.025 145.617C82.4154 145.397 81.4357 145.024 80.8482 144.787C80.2602 144.55 79.3322 144.154 78.7854 143.908C78.2386 143.66 77.2945 143.232 76.6875 142.956C76.081 142.678 75.2072 142.261 74.746 142.027C74.2848 141.793 73.3822 141.3 72.7399 140.93C72.0977 140.562 70.7683 139.777 69.7861 139.188C68.3853 138.347 67.5768 137.805 66.0336 136.673C64.9518 135.88 63.6636 134.913 63.1704 134.526C62.6771 134.138 62.0522 133.634 61.7812 133.404C61.5103 133.175 61.0669 132.786 60.796 132.541C60.525 132.295 59.6205 131.449 58.7861 130.66C57.9517 129.871 56.7738 128.704 56.1691 128.066C55.5644 127.428 54.7485 126.547 54.3557 126.108C53.9634 125.669 53.2608 124.852 52.7941 124.294C52.3279 123.735 51.453 122.621 50.8496 121.82C50.2468 121.017 49.3527 119.756 48.8638 119.018C48.3743 118.279 47.7253 117.259 47.4216 116.751C47.1181 116.243 46.583 115.314 46.2326 114.688C45.8823 114.061 45.2148 112.801 44.7486 111.886C44.2831 110.972 43.6612 109.697 43.3675 109.054C43.0737 108.41 42.6304 107.399 42.3816 106.806C42.1335 106.213 41.6963 105.105 41.4105 104.343C41.1248 103.581 40.7104 102.403 40.4888 101.726C40.2677 101.049 39.9746 100.107 39.8379 99.6325C39.7012 99.1584 39.4093 98.05 39.1895 97.1694C38.9697 96.2889 38.7332 95.2889 38.6643 94.9478C38.5947 94.6067 38.4555 93.8031 38.3551 93.1621C38.2542 92.5211 38.0448 91.2625 37.889 90.3652L37.5911 88.7373L37.4128 86.117C37.3143 84.6773 37.2034 82.9704 37.1659 82.3233C37.111 81.3843 37.1172 80.6121 37.1948 78.5056C37.2484 77.053 37.334 75.3793 37.3851 74.7869C37.4361 74.194 37.5341 73.2106 37.6018 72.601C37.6702 71.9914 37.7951 70.9938 37.8801 70.3842C37.9651 69.7746 38.116 68.7869 38.2157 68.1903C38.3161 67.593 38.5211 66.4982 38.672 65.7581C38.8229 65.0173 39.1024 63.7877 39.2933 63.0259C39.4842 62.2635 39.8161 61.0585 40.031 60.3473C40.2459 59.6361 40.5507 58.694 40.7083 58.2537C40.8666 57.8134 41.1744 56.9267 41.3937 56.2833C41.6123 55.6398 41.9971 54.6226 42.2483 54.0234C42.4996 53.4236 43.0969 52.0795 43.5759 51.0369C44.0544 49.9939 44.6048 48.8079 44.7983 48.4014C44.9916 47.995 45.4147 47.2192 45.7373 46.6773C46.0606 46.1355 46.7478 44.9575 47.2644 44.0603C47.781 43.1631 48.547 41.9218 48.9664 41.3017C49.3851 40.6823 50.0243 39.7678 50.3863 39.2697C50.7484 38.7722 51.3217 38.0043 51.6604 37.5641C51.9991 37.1238 52.5686 36.4033 52.9264 35.9631C53.2841 35.5229 53.9608 34.7193 54.4306 34.1774C54.8998 33.6356 55.7392 32.7027 56.2951 32.104C56.8512 31.5055 57.9182 30.4162 58.6665 29.6836C59.4152 28.9502 60.5433 27.8898 61.1738 27.3271C61.8043 26.7643 62.8894 25.8307 63.5839 25.2525C64.2791 24.6749 65.2902 23.8634 65.8314 23.4495C66.3727 23.0357 68.1732 21.7795 69.8326 20.6576C71.492 19.5363 73.1134 18.4643 73.4348 18.2752C73.7569 18.0868 74.2144 17.8016 74.4527 17.6415C74.691 17.4814 74.9225 17.306 74.9681 17.2512C75.0413 17.1631 75.0303 17.152 74.8738 17.1539L74.8889 17.1539Z" fill="#C3AC3C"/>
</svg>
