<svg width="313" height="360" viewBox="0 0 313 360" fill="none" xmlns="http://www.w3.org/2000/svg">
<path fill-rule="evenodd" clip-rule="evenodd" d="M177.35 0.0240842C178.02 -0.00377503 181.187 -0.00686371 184.389 0.0117091C187.592 0.030901 191.42 0.119657 192.898 0.203853C194.377 0.28836 195.636 0.404464 195.697 0.460801C195.759 0.517015 195.462 0.739504 195.037 0.952782C194.612 1.16745 192.84 2.12203 191.099 3.07534C189.359 4.02878 187.469 5.11244 186.898 5.48433C186.327 5.85578 183.701 7.64369 181.061 9.45578C178.422 11.2691 176.205 12.8128 176.134 12.8843C176.048 12.9716 176.048 12.993 176.134 12.9469C176.205 12.9099 178.681 11.7597 181.637 10.3936C184.593 9.02637 187.329 7.78673 187.716 7.63598C188.103 7.48647 188.995 7.15799 189.699 6.90633C190.403 6.6546 193.168 5.75238 195.842 4.90128C198.517 4.05148 201.569 3.10325 202.625 2.79525C203.68 2.48728 205.256 2.09127 206.125 1.91483L207.705 1.59402L209.132 1.79986C209.916 1.91232 211.758 2.20257 213.225 2.44525C214.69 2.68679 216.936 3.09065 218.216 3.34108C219.494 3.59153 221.78 4.081 223.292 4.42989C224.805 4.77745 227.249 5.38055 228.722 5.7716C230.194 6.16262 232.469 6.79654 233.777 7.18245C235.083 7.56709 237.132 8.20093 238.329 8.59198C239.525 8.98303 241.851 9.78807 243.498 10.3823C245.143 10.9752 247.63 11.9158 249.023 12.4717C250.417 13.0276 252.554 13.908 253.773 14.4294C254.992 14.9508 257.198 15.9348 258.676 16.6159C260.154 17.2969 262.98 18.6758 264.955 19.6815C266.929 20.686 269.846 22.2322 271.437 23.1165C273.027 24.0008 275.501 25.4269 276.933 26.2857C278.365 27.1431 280.314 28.3342 281.264 28.9309C282.214 29.5264 284.316 30.8913 285.935 31.9608C287.553 33.0317 290.174 34.8157 291.757 35.9249C293.341 37.0341 295.846 38.8322 297.324 39.9184C298.802 41.0058 301.986 43.3904 304.398 45.2179C306.811 47.0454 308.816 48.5903 308.853 48.6516C308.891 48.7129 308.184 48.281 307.282 47.6919C306.381 47.1041 304.836 46.1508 303.851 45.5745C302.865 44.9994 300.821 43.9055 299.307 43.1439C297.795 42.3835 295.664 41.3753 294.572 40.9038C293.482 40.4322 291.639 39.6833 290.477 39.2386C289.316 38.7952 287.474 38.1345 286.382 37.7729C285.292 37.41 283.409 36.8298 282.201 36.4822C280.993 36.1359 279.15 35.6477 278.106 35.3972C277.062 35.1468 275.086 34.7199 273.713 34.4478C272.341 34.1743 270.008 33.7781 268.53 33.5648C267.052 33.3526 264.978 33.092 263.923 32.9858C262.867 32.8799 261.111 32.7214 260.02 32.6344C258.845 32.54 255.74 32.4747 252.405 32.4747C249.09 32.4747 245.959 32.54 244.791 32.6332C243.701 32.72 241.915 32.8798 240.824 32.9884C239.733 33.0958 237.803 33.3283 236.537 33.5035C235.27 33.6773 233.139 34.0172 231.802 34.2574C230.464 34.4977 228.449 34.899 227.322 35.1507C226.196 35.4012 224.498 35.8087 223.547 36.0554C222.597 36.302 220.841 36.7966 219.644 37.1532C218.448 37.5097 216.548 38.1167 215.421 38.5026C214.295 38.8885 212.821 39.4189 212.145 39.6808L210.915 40.1562L209.713 39.9875C209.052 39.8941 206.87 39.7612 204.863 39.6921C202.857 39.6231 200.237 39.5043 199.041 39.4263C197.844 39.3483 195.771 39.2799 194.433 39.2768C193.096 39.2718 190.194 39.3331 187.984 39.4123C185.773 39.4916 183.946 39.5734 183.925 39.595C183.903 39.6168 186.288 40.0563 189.224 40.57C192.16 41.085 194.994 41.6178 195.522 41.7534C196.05 41.8889 197.258 42.2314 198.209 42.5124C199.16 42.7949 200.507 43.2001 201.206 43.4134L202.476 43.8006L199.287 45.4274C197.532 46.3219 195.234 47.5614 194.178 48.1799C193.122 48.7997 191.279 49.9255 190.083 50.6833C188.886 51.4399 186.863 52.8034 185.586 53.7107C184.308 54.6193 182.357 56.0773 181.249 56.9489C180.14 57.8216 178.507 59.1597 177.619 59.9226C176.733 60.6854 175.033 62.21 173.844 63.309C172.657 64.4092 170.789 66.257 169.695 67.4173C168.602 68.5764 167.049 70.2836 166.243 71.2114C165.438 72.1378 164.695 72.9276 164.594 72.9672C164.492 73.0055 162.844 73.2956 160.929 73.6113C159.016 73.9269 156.758 74.3549 155.914 74.5608C155.069 74.7678 153.514 75.1166 152.458 75.3364C151.403 75.555 149.379 75.9334 147.964 76.1748C146.547 76.4163 144.993 76.6975 144.509 76.7984C144.024 76.8994 142.679 77.1281 141.517 77.307C140.356 77.4858 138.629 77.6994 137.678 77.7811C136.619 77.8743 135.182 77.8987 133.967 77.8464C132.876 77.799 131.782 77.7337 131.535 77.7006C131.138 77.6482 131.175 77.684 131.855 78.0098C132.277 78.213 133.141 78.5608 133.775 78.7842C134.408 79.0066 135.594 79.3595 136.412 79.5662C137.229 79.7733 138.726 80.0812 139.74 80.2511C140.752 80.4211 142.187 80.623 142.925 80.6997C143.665 80.7765 146.419 80.8953 149.046 80.9643C152.17 81.0473 154.607 81.0474 156.085 80.9657C157.329 80.8966 158.424 80.8391 158.52 80.8379C158.621 80.8366 158.663 80.9146 158.62 81.0258C158.58 81.1305 157.688 82.526 156.638 84.1246C155.587 85.7248 154.444 87.5508 154.095 88.1834C153.747 88.8161 152.564 91.0868 151.467 93.2312C149.822 96.4449 149.187 97.857 147.848 101.282C146.955 103.566 146.085 105.838 145.913 106.33C145.743 106.822 145.195 108.69 144.699 110.483C144.201 112.275 143.578 114.662 143.313 115.788C143.047 116.912 142.653 118.81 142.435 120.004C142.217 121.198 141.923 122.981 141.781 123.965C141.639 124.948 141.407 126.904 141.265 128.309C141.124 129.715 140.95 131.815 140.88 132.974C140.808 134.133 140.751 137.192 140.75 139.771V144.458L138.734 146.086C137.626 146.982 135.97 148.351 135.055 149.128C134.14 149.905 132.385 151.433 131.157 152.523C129.929 153.614 127.833 155.569 126.501 156.87C125.169 158.17 123.238 160.152 122.209 161.273C121.18 162.394 119.221 164.493 117.856 165.937C116.49 167.381 114.764 169.281 114.019 170.16C113.274 171.039 111.857 172.677 110.871 173.8C109.884 174.923 108.618 176.331 108.058 176.931C107.498 177.53 105.965 179.14 104.651 180.511C103.337 181.881 102.095 183.202 101.893 183.448C101.691 183.692 102.419 183.086 103.509 182.104C104.601 181.12 106.357 179.568 107.412 178.656C108.468 177.743 110.398 176.1 111.7 175.005C113.002 173.91 115.536 171.838 117.33 170.402C119.126 168.965 122.206 166.582 124.177 165.106C126.148 163.63 128.93 161.601 130.359 160.595C131.789 159.589 134.207 157.947 135.734 156.944C137.261 155.941 139.187 154.709 140.013 154.205C140.841 153.703 141.567 153.292 141.627 153.292C141.689 153.292 141.809 153.738 141.895 154.282C141.98 154.827 142.331 156.681 142.674 158.403C143.017 160.125 143.584 162.742 143.933 164.218C144.284 165.694 144.888 168.08 145.276 169.521C145.665 170.961 146.365 173.434 146.832 175.016C147.299 176.597 148.219 179.645 148.878 181.789C149.537 183.932 150.401 186.808 150.798 188.179C151.195 189.549 151.884 192.166 152.331 193.993C152.778 195.821 153.431 198.666 153.786 200.319C154.14 201.97 154.689 204.673 155.006 206.325C155.322 207.976 155.868 210.966 156.221 212.97C156.575 214.972 157.184 218.452 157.577 220.701C157.968 222.95 158.664 226.659 159.122 228.944C159.581 231.227 160.273 234.505 160.661 236.228C161.048 237.949 161.819 241.169 162.373 243.384C162.927 245.597 163.754 248.76 164.209 250.412C164.666 252.063 165.229 254.061 165.461 254.849C165.693 255.639 165.901 256.265 165.923 256.243C165.946 256.22 166.281 254.683 166.668 252.828C167.056 250.972 167.749 247.757 168.211 245.684C168.672 243.611 169.593 239.676 170.259 236.938C170.924 234.202 171.489 231.941 171.517 231.914C171.545 231.887 171.6 232.027 171.641 232.225C171.68 232.423 171.77 232.959 171.839 233.416C171.908 233.873 172.023 234.735 172.094 235.333C172.165 235.93 172.344 237.828 172.488 239.55C172.633 241.272 172.805 243.199 172.872 243.831C172.939 244.464 173.051 245.872 173.124 246.962C173.197 248.052 173.351 251.271 173.466 254.118C173.6 257.432 173.686 262.711 173.707 268.793L173.738 278.293L174.154 279.367C174.383 279.959 174.611 280.443 174.661 280.443C174.711 280.443 175.314 279.25 176.001 277.792C176.687 276.333 179.385 270.842 181.993 265.589C184.602 260.335 186.748 256.053 186.764 256.069C186.778 256.085 186.627 256.741 186.427 257.525C186.229 258.31 185.979 259.546 185.871 260.273C185.765 261 185.61 262.485 185.527 263.575C185.434 264.815 185.407 266.679 185.456 268.559C185.501 270.21 185.625 272.452 185.732 273.543C185.841 274.633 186.048 276.328 186.194 277.312C186.339 278.296 186.597 279.791 186.769 280.635C186.94 281.478 187.314 283.059 187.598 284.149C187.883 285.238 188.539 287.395 189.054 288.941C189.57 290.488 190.292 292.5 190.658 293.414C191.024 294.328 191.661 295.811 192.074 296.711C192.489 297.61 193.139 298.876 193.521 299.522C193.945 300.242 194.515 300.984 194.99 301.435C195.416 301.842 196.07 302.316 196.444 302.488C196.816 302.662 197.301 302.804 197.518 302.805C197.737 302.806 198.111 302.676 198.35 302.515C198.59 302.355 198.972 301.946 199.201 301.605C199.43 301.265 199.761 300.519 199.935 299.948C200.109 299.377 200.365 298.189 200.503 297.312C200.643 296.432 200.815 294.852 200.887 293.797C200.958 292.743 201.048 290.011 201.086 287.727C201.125 285.443 201.109 280.239 201.05 276.162C200.992 272.086 200.957 268.73 200.976 268.706C200.994 268.68 201.209 269.057 201.453 269.543C201.698 270.028 202.199 271.14 202.567 272.012C202.934 272.883 203.539 274.519 203.91 275.646C204.283 276.773 204.791 278.53 205.041 279.549C205.291 280.567 205.641 282.198 205.82 283.172C205.999 284.144 206.256 285.841 206.392 286.941C206.527 288.042 206.708 290.004 206.792 291.305C206.889 292.777 206.916 294.706 206.864 296.417C206.818 297.927 206.745 299.553 206.7 300.027C206.651 300.558 206.668 300.889 206.746 300.889C206.814 300.889 207.843 300.202 209.03 299.362C210.218 298.522 211.202 297.848 211.217 297.863C211.233 297.879 210.673 299.84 209.973 302.224C209.273 304.606 208.683 306.575 208.658 306.599C208.633 306.624 207.67 306.556 206.514 306.447C205.36 306.34 203.494 306.133 202.368 305.99C201.242 305.846 199.601 305.616 198.721 305.477C197.842 305.339 196.17 305.051 195.01 304.836C193.849 304.621 191.746 304.189 190.339 303.878C188.931 303.566 186.887 303.079 185.795 302.796C184.705 302.513 182.92 302.022 181.828 301.706C180.738 301.391 178.52 300.697 176.901 300.163C175.282 299.63 172.912 298.803 171.634 298.325C170.356 297.847 168.317 297.045 167.104 296.542C165.89 296.039 163.958 295.203 162.807 294.683C161.658 294.163 159.442 293.1 157.882 292.32C156.323 291.541 154.004 290.327 152.731 289.621C151.456 288.916 149.266 287.65 147.863 286.807C146.459 285.965 144.587 284.808 143.701 284.235C142.817 283.663 141.344 282.68 140.429 282.051C139.514 281.423 137.998 280.34 137.061 279.648C136.123 278.955 134.654 277.834 133.797 277.157C132.94 276.48 131.52 275.318 130.639 274.576C129.76 273.833 128.176 272.453 127.12 271.509C126.064 270.564 123.73 268.321 121.933 266.523C120.137 264.727 117.806 262.286 116.753 261.101C115.701 259.917 114.184 258.162 113.382 257.204C112.579 256.246 111.16 254.483 110.227 253.288C109.294 252.094 107.713 249.975 106.711 248.579C105.709 247.184 104.183 244.97 103.321 243.659C102.457 242.348 101.146 240.269 100.408 239.04C99.6681 237.809 98.5151 235.796 97.8458 234.567C97.1765 233.336 96.0746 231.223 95.3964 229.869C94.7194 228.516 93.7275 226.446 93.1926 225.269C92.659 224.092 91.8579 222.267 91.4138 221.213C90.9698 220.159 90.1686 218.159 89.6349 216.768C89.1013 215.378 88.2362 212.961 87.7115 211.4C87.1868 209.837 86.3755 207.237 85.9084 205.621C85.4413 204.005 84.7809 201.534 84.4393 200.128C84.0988 198.722 83.6434 196.737 83.427 195.719C83.2107 194.699 82.8613 192.916 82.6489 191.757C82.4365 190.597 82.0936 188.469 81.8862 187.029C81.6789 185.587 81.3934 183.345 81.2527 182.045C81.1107 180.744 80.8956 178.329 80.7741 176.678C80.6117 174.476 80.5527 172.141 80.5527 167.924C80.554 164.762 80.6244 160.994 80.7115 159.554C80.7972 158.113 80.9814 155.669 81.1197 154.123C81.2579 152.577 81.5191 150.162 81.7007 148.756C81.8812 147.35 82.2267 145.008 82.466 143.551C82.7066 142.094 83.1391 139.736 83.4283 138.312C83.7176 136.887 84.319 134.254 84.7656 132.463C85.2123 130.67 85.952 127.939 86.4114 126.393C86.8696 124.846 87.5876 122.574 88.006 121.345C88.4245 120.114 89.0669 118.304 89.4354 117.32C89.8027 116.336 90.4643 114.636 90.9071 113.542C91.3486 112.448 92.2163 110.406 92.8357 109.006C93.4551 107.604 94.754 104.875 95.7215 102.943C96.6889 101.01 98.1068 98.3068 98.8747 96.9369C99.6413 95.5656 100.803 93.5531 101.459 92.4643C102.113 91.3741 103.524 89.1608 104.595 87.5443C105.667 85.9275 107.266 83.6161 108.151 82.4059C109.035 81.1955 110.418 79.3783 111.226 78.3675C112.033 77.3565 113.405 75.7042 114.275 74.6959C115.147 73.6878 116.2 72.4572 116.619 71.9613C117.037 71.4655 118.035 70.3282 118.835 69.4349C119.636 68.5407 122.23 65.9194 124.601 63.6077C126.971 61.2971 129.306 59.0519 129.787 58.62C130.269 58.1881 132.285 56.5269 134.266 54.9295C136.248 53.3307 139.137 51.0678 140.685 49.8985C142.234 48.7304 144.567 47.013 145.868 46.0827C147.171 45.1525 150.453 42.9071 153.163 41.0925C155.873 39.2778 158.522 37.4235 159.049 36.9737C159.578 36.5226 160.182 35.9042 160.393 35.5986C160.688 35.1744 160.774 34.9074 160.771 34.4588C160.768 34.1125 160.64 33.6166 160.462 33.2512C160.292 32.901 159.986 32.5242 159.765 32.3886C159.477 32.2137 159.126 32.1484 158.473 32.1484C157.981 32.1497 156.949 32.2916 156.181 32.4653C155.414 32.6391 153.932 33.071 152.887 33.4237C151.843 33.7764 150.178 34.4115 149.186 34.8345C148.195 35.2575 146.509 36.0319 145.442 36.5532C144.374 37.0746 142.694 37.9411 141.709 38.4791C140.723 39.0183 138.852 40.0942 137.549 40.8712C136.248 41.6495 134.376 42.7997 133.39 43.4284C132.405 44.057 129.986 45.6851 128.015 47.0461C126.045 48.407 123.795 50.0249 123.016 50.6421C122.238 51.2581 119.992 53.1494 118.025 54.8426C116.059 56.5371 113.674 58.6393 112.723 59.5147C111.773 60.3897 109.649 62.5125 108.004 64.2299C106.359 65.9476 104.292 68.1585 103.41 69.1425C102.529 70.1265 101.109 71.7648 100.256 72.7846C99.4024 73.803 98.1162 75.3941 97.3983 76.3193C96.6804 77.2445 95.4506 78.883 94.6649 79.9615C93.8794 81.04 92.2438 83.4168 91.0306 85.2442C89.8175 87.0718 88.1871 89.6327 87.409 90.9349C86.631 92.2359 85.3551 94.4505 84.5744 95.8549C83.7937 97.258 82.5013 99.7001 81.7002 101.282C80.9005 102.863 79.773 105.193 79.1946 106.458C78.6174 107.723 77.6921 109.833 77.1406 111.147C76.589 112.461 75.6957 114.704 75.1556 116.13C74.6169 117.557 73.7237 120.076 73.1721 121.729C72.6193 123.381 71.7861 126.054 71.3203 127.671C70.8532 129.287 70.1341 131.99 69.7207 133.677C69.3061 135.364 68.7328 137.894 68.4448 139.3C68.1569 140.706 67.6963 143.179 67.421 144.795C67.1459 146.412 66.7465 149.085 66.5329 150.737C66.3205 152.388 66.0595 154.631 65.9532 155.721C65.8471 156.81 65.6741 158.938 65.5705 160.449C65.4655 161.96 65.3133 165.07 65.2327 167.36C65.1233 170.466 65.1233 172.593 65.2296 175.73C65.309 178.045 65.4612 181.087 65.57 182.493C65.6775 183.899 65.9104 186.342 66.0871 187.924C66.2637 189.505 66.5785 191.949 66.7883 193.355C66.9969 194.761 67.3449 196.888 67.5612 198.083C67.7762 199.278 68.1846 201.347 68.4673 202.681C68.7489 204.016 69.2876 206.344 69.6638 207.857C70.0401 209.37 70.7286 211.93 71.1944 213.546C71.6615 215.163 72.3628 217.463 72.7544 218.658C73.1447 219.853 73.869 221.951 74.3617 223.321C74.8544 224.689 75.7656 227.076 76.385 228.624C77.0044 230.17 78.0103 232.557 78.6207 233.929C79.2298 235.298 80.434 237.858 81.2953 239.615C82.1566 241.372 83.4542 243.902 84.1785 245.238C84.9029 246.573 86.2748 248.959 87.2269 250.541C88.1778 252.122 89.7725 254.652 90.7707 256.164C91.7676 257.674 93.3224 259.946 94.2246 261.211C95.128 262.476 96.592 264.46 97.4789 265.62C98.3657 266.78 99.8924 268.706 100.873 269.901C101.852 271.096 103.437 272.964 104.393 274.053C105.35 275.142 106.89 276.839 107.815 277.823C108.739 278.808 110.755 280.858 112.294 282.38C113.832 283.9 115.84 285.822 116.755 286.652C117.67 287.48 119.197 288.824 120.147 289.638C121.097 290.452 122.739 291.813 123.796 292.663C124.855 293.513 126.756 294.977 128.023 295.919C129.29 296.861 131.305 298.3 132.5 299.118C133.694 299.936 135.853 301.348 137.295 302.257C138.738 303.167 140.702 304.38 141.659 304.953C142.616 305.525 144.545 306.633 145.946 307.414C147.346 308.196 150.192 309.679 152.268 310.712C154.345 311.745 157.195 313.099 158.603 313.723C160.01 314.345 162.487 315.385 164.106 316.034C165.724 316.684 168.431 317.703 170.12 318.301C171.809 318.9 174.401 319.766 175.879 320.227C177.357 320.687 179.287 321.265 180.166 321.509C181.047 321.754 182.774 322.214 184.005 322.534C185.238 322.852 187.426 323.371 188.868 323.687C190.312 324.002 192.413 324.434 193.539 324.648C194.666 324.861 196.336 325.157 197.251 325.306C198.166 325.454 199.893 325.713 201.09 325.883C202.286 326.052 203.583 326.254 203.969 326.332C204.357 326.41 205.162 326.511 205.761 326.557L206.849 326.64L207.505 330.601C207.866 332.78 208.196 334.808 208.24 335.108L208.317 335.654L206.758 334.478C205.9 333.832 204.75 332.941 204.202 332.499L203.204 331.695L203.145 331.979C203.112 332.135 203.02 332.693 202.94 333.221C202.861 333.748 202.623 334.976 202.413 335.949C202.203 336.923 201.803 338.431 201.525 339.301C201.246 340.172 200.758 341.501 200.442 342.256C200.125 343.011 199.546 344.234 199.155 344.974C198.765 345.714 198.072 346.881 197.617 347.567C197.16 348.253 196.281 349.431 195.661 350.187C195.042 350.942 193.965 352.107 193.269 352.777C192.573 353.447 191.515 354.39 190.916 354.87C190.317 355.352 189.099 356.227 188.208 356.816C187.317 357.406 185.632 358.379 184.465 358.982C183.298 359.584 182.342 360.041 182.342 359.997C182.342 359.952 182.563 359.588 182.834 359.188C183.106 358.787 183.931 357.453 184.669 356.224C185.408 354.993 186.461 353.183 187.01 352.202C187.559 351.219 188.571 349.293 189.26 347.921C189.947 346.548 190.751 344.878 191.045 344.211C191.341 343.542 191.806 342.432 192.083 341.741C192.359 341.049 192.818 339.814 193.102 338.993C193.386 338.173 193.812 336.812 194.047 335.968C194.284 335.125 194.581 333.946 194.706 333.349C194.851 332.656 194.935 331.684 194.941 330.665C194.946 329.417 194.896 328.936 194.715 328.467C194.587 328.136 194.289 327.697 194.054 327.49C193.818 327.284 193.41 327.044 193.147 326.957C192.85 326.858 192.361 326.826 191.865 326.874C191.424 326.915 190.497 327.157 189.806 327.413C189.114 327.669 188.002 328.17 187.333 328.526C186.665 328.883 185.311 329.662 184.325 330.259C183.34 330.856 180.778 332.477 178.63 333.864C176.484 335.249 172.903 337.584 170.675 339.051C168.447 340.518 165.568 342.38 164.277 343.189C162.985 343.996 160.634 345.521 159.05 346.576C157.467 347.632 155.279 349.163 154.187 349.978C153.097 350.793 151.512 352.068 150.668 352.809C149.823 353.551 148.843 354.493 148.488 354.903C148.135 355.313 147.669 355.878 147.454 356.159C147.239 356.441 146.909 356.929 146.722 357.246C146.535 357.561 146.382 357.745 146.382 357.653C146.381 357.562 146.671 356.11 147.028 354.425C147.384 352.742 148.099 349.655 148.619 347.564C149.138 345.473 149.91 342.556 150.334 341.08C150.756 339.604 151.443 337.332 151.86 336.032C152.276 334.733 152.825 333.078 153.079 332.357L153.539 331.046L153.255 331.116C153.099 331.156 152.332 331.289 151.55 331.413L150.131 331.638L149.01 332.375C148.395 332.78 147.533 333.33 147.097 333.597C146.661 333.864 145.831 334.35 145.256 334.675C144.68 335.003 143.297 335.723 142.187 336.278C141.074 336.832 139.389 337.612 138.442 338.011C137.494 338.409 135.854 339.042 134.799 339.416C133.743 339.791 132.275 340.273 131.535 340.486C130.797 340.701 129.386 341.078 128.4 341.324C127.415 341.572 125.717 341.918 124.625 342.095C123.535 342.271 121.801 342.502 120.775 342.609C119.747 342.715 117.761 342.867 116.359 342.947C114.831 343.033 112.505 343.06 110.548 343.011C108.754 342.966 106.623 342.869 105.813 342.797C105.004 342.725 103.535 342.548 102.55 342.406C101.564 342.263 99.9235 341.976 98.9023 341.767C97.8824 341.558 95.9525 341.104 94.6151 340.759C93.2779 340.414 91.2046 339.835 90.0081 339.475C88.8115 339.113 87.6021 338.746 87.3206 338.658L86.8087 338.5L87.6406 338.421C88.0986 338.377 89.3938 338.278 90.5199 338.2C91.6461 338.122 93.7473 337.918 95.1909 337.748C96.6345 337.579 98.8802 337.263 100.182 337.048C101.484 336.832 103.586 336.425 104.853 336.141C106.12 335.857 108.234 335.315 109.552 334.936C110.87 334.558 112.943 333.876 114.159 333.423C115.375 332.969 116.716 332.441 117.138 332.25L117.906 331.901L117.33 331.804C117.014 331.751 115.805 331.555 114.643 331.367C113.482 331.179 111.409 330.798 110.036 330.52C108.664 330.242 106.303 329.704 104.789 329.326C103.276 328.948 101.116 328.373 99.9897 328.048C98.8632 327.722 96.675 327.033 95.1266 326.516C93.5779 325.998 91.3039 325.189 90.0715 324.717C88.8403 324.244 86.9106 323.468 85.7844 322.991C84.6582 322.516 82.7873 321.687 81.6253 321.15C80.4647 320.613 78.3621 319.582 76.9544 318.857C75.5466 318.134 73.7037 317.151 72.8591 316.675C72.0145 316.198 70.4289 315.274 69.3361 314.62C68.243 313.967 66.1213 312.62 64.6189 311.628C63.118 310.635 61.0461 309.21 60.0159 308.462C58.9857 307.713 57.3656 306.496 56.4147 305.76C55.4652 305.023 53.7082 303.603 52.5117 302.606C51.3148 301.609 49.3289 299.874 48.0965 298.752C46.8653 297.628 44.7423 295.597 43.3793 294.237C42.0166 292.876 40.0574 290.842 39.0259 289.713C37.9931 288.586 36.4857 286.886 35.673 285.938C34.8617 284.989 33.5718 283.436 32.8091 282.488C32.045 281.539 30.6041 279.67 29.6059 278.335C28.6078 276.999 27.1541 274.987 26.3734 273.862C25.5942 272.738 24.299 270.783 23.4954 269.517C22.6918 268.252 21.5426 266.383 20.9398 265.364C20.3383 264.346 19.4323 262.773 18.9281 261.869C18.4226 260.967 17.4679 259.184 16.8063 257.908C16.1446 256.632 15.0773 254.466 14.4349 253.096C13.7925 251.726 12.7891 249.482 12.2069 248.113C11.6233 246.743 10.7607 244.617 10.2898 243.393C9.81883 242.168 9.00236 239.896 8.47513 238.345C7.94914 236.794 7.15065 234.317 6.70145 232.841C6.2523 231.365 5.68153 229.41 5.43199 228.497C5.18245 227.583 4.7472 225.886 4.46573 224.727C4.1842 223.566 3.75174 221.66 3.50468 220.489C3.25771 219.318 2.85595 217.247 2.61013 215.889C2.36443 214.529 2.04695 212.64 1.90374 211.692C1.7604 210.743 1.53011 209.104 1.39185 208.05C1.25233 206.996 1.02185 204.983 0.878639 203.577C0.736695 202.172 0.534333 199.872 0.430796 198.466C0.327012 197.06 0.174802 194.213 0.0942046 192.14C0.00399769 189.852 -0.024837 186.363 0.0225914 183.259C0.06506 180.447 0.15836 177.17 0.228728 175.975C0.300335 174.78 0.420613 172.997 0.49749 172.013C0.573004 171.029 0.74956 169.045 0.887815 167.604C1.02728 166.163 1.28442 163.863 1.45987 162.493C1.63647 161.122 1.9233 159.051 2.0972 157.892C2.27253 156.732 2.64755 154.489 2.93026 152.909C3.21436 151.327 3.70579 148.797 4.02319 147.286C4.33928 145.775 4.99705 142.928 5.48336 140.96C5.96967 138.993 6.68626 136.26 7.07787 134.89C7.46817 133.519 8.11571 131.35 8.51628 130.067C8.91685 128.784 9.2828 127.734 9.33023 127.734C9.37766 127.734 9.45422 127.978 9.50165 128.277C9.54898 128.576 9.87018 129.971 10.2157 131.376C10.5625 132.782 11.132 134.938 11.4814 136.168C11.832 137.398 12.445 139.411 12.8443 140.641C13.2436 141.871 14.0203 144.085 14.5706 145.561C15.1209 147.037 16.0116 149.28 16.5491 150.545C17.0853 151.81 18.241 154.3 19.115 156.079C19.9892 157.858 21.1754 160.158 21.7513 161.191C22.3272 162.223 23.2691 163.844 23.845 164.793C24.4209 165.741 25.2846 167.122 25.7632 167.86C26.2431 168.598 27.0981 169.863 27.665 170.672C28.2319 171.479 29.349 172.983 30.1475 174.013C30.9447 175.042 32.3217 176.739 33.206 177.783C34.089 178.827 35.5581 180.496 36.468 181.493C37.3791 182.488 39.0275 184.178 40.1306 185.246C41.2348 186.314 42.8306 187.775 43.6778 188.492C44.525 189.209 45.6205 190.099 46.1132 190.471L47.009 191.147L46.1772 190.402C45.7203 189.993 44.7183 189.052 43.953 188.312C43.1865 187.57 42.0041 186.303 41.3245 185.493C40.6451 184.682 39.5099 183.245 38.8009 182.298C38.0932 181.351 36.8788 179.626 36.102 178.467C35.3264 177.306 34.1861 175.526 33.5706 174.51C32.9537 173.494 31.9748 171.819 31.3938 170.788C30.8141 169.756 29.9938 168.144 29.5715 167.204C29.1492 166.265 28.3877 164.489 27.8809 163.259C27.3728 162.029 26.4515 159.7 25.8333 158.084C25.2152 156.467 24.3296 153.987 23.8664 152.571C23.4031 151.155 22.7057 148.825 22.3166 147.395C21.9276 145.964 21.3211 143.491 20.9691 141.899C20.6159 140.307 20.0695 137.489 19.7534 135.637C19.4373 133.785 19.006 130.919 18.7961 129.267C18.585 127.614 18.2969 124.969 18.1537 123.388C18.0116 121.806 17.8402 119.708 17.771 118.724C17.7031 117.74 17.5767 114.75 17.4908 112.079L17.3346 107.223L19.3233 103.261C20.4162 101.082 21.815 98.3796 22.4331 97.255C23.0512 96.1305 24.1915 94.1178 24.9695 92.7824C25.7464 91.4471 27.0453 89.2913 27.8553 87.9904C28.6653 86.6893 30.0757 84.508 30.9894 83.1407C31.9019 81.7735 33.1969 79.8757 33.8662 78.9237C34.5356 77.9715 36.0073 75.955 37.1373 74.4446C38.2672 72.933 40.0935 70.5751 41.1966 69.2052C42.2998 67.8339 43.9647 65.8213 44.8964 64.7325C45.8282 63.6423 47.5454 61.6873 48.7126 60.3877C49.8809 59.087 52.8256 56.0339 55.2571 53.6033C57.6887 51.1712 60.6601 48.2961 61.8605 47.2137C63.0595 46.1302 64.8166 44.5776 65.7636 43.761C66.7104 42.9456 68.5212 41.4301 69.7882 40.3963C71.0551 39.3614 73.3305 37.5799 74.8432 36.4387C76.3571 35.2977 78.4072 33.7846 79.4015 33.0767C80.396 32.3674 82.3246 31.0447 83.6888 30.1361C85.053 29.2275 87.2348 27.8206 88.5363 27.0091C89.8392 26.1976 91.8547 24.9875 93.0154 24.3191C94.1774 23.652 96.0344 22.6091 97.1426 22.0034C98.2524 21.3978 100.526 20.2196 102.198 19.3851C103.869 18.5505 106.389 17.348 107.796 16.7116C109.204 16.0752 110.662 15.4338 111.037 15.2868C111.466 15.1169 111.682 15.0785 111.621 15.1806C111.569 15.2688 111.142 15.9167 110.672 16.6195C110.202 17.3224 109.386 18.6156 108.856 19.4948C108.326 20.3726 107.459 21.9253 106.926 22.9451C106.395 23.9636 105.609 25.6184 105.183 26.6203C104.756 27.6221 104.12 29.2898 103.769 30.3262C103.42 31.3624 102.958 32.9101 102.745 33.765C102.532 34.6211 102.245 35.9732 102.109 36.768C101.974 37.5642 101.793 38.9583 101.707 39.8669C101.614 40.8688 101.583 42.3243 101.629 43.5728C101.678 44.8659 101.802 46.0786 101.965 46.8453C102.107 47.5149 102.302 48.2906 102.401 48.5705L102.579 49.0778L102.667 48.1194C102.717 47.5916 102.846 46.6153 102.957 45.9483C103.065 45.2812 103.348 44.0289 103.585 43.1663C103.822 42.3024 104.312 40.8072 104.674 39.8424C105.036 38.8775 105.721 37.2417 106.198 36.2079C106.674 35.1726 107.487 33.5346 108.006 32.5659C108.525 31.5972 109.587 29.8503 110.369 28.6835C111.149 27.518 112.352 25.7916 113.041 24.8498C113.729 23.9069 115.201 21.9567 116.313 20.5165C117.424 19.075 119.048 17.1199 119.922 16.1717C120.796 15.2223 122.759 13.2465 124.283 11.7795L127.057 9.11107L129.008 8.48127C130.082 8.13495 132.457 7.41809 134.287 6.88904C136.118 6.35999 139.227 5.53321 141.198 5.05016C143.169 4.56711 146.199 3.88469 147.932 3.53199C149.664 3.17926 152.659 2.63105 154.586 2.31413C156.513 1.99595 159.444 1.56524 161.097 1.35568C162.752 1.14739 165.343 0.859721 166.856 0.71671C168.37 0.574845 171.077 0.370496 172.871 0.263084C174.666 0.156909 176.682 0.0488479 177.35 0.0240842ZM47.3489 191.347C47.2519 191.224 47.153 191.123 47.1251 191.123C47.0981 191.123 47.0767 191.144 47.0767 191.171C47.0767 191.198 47.1778 191.298 47.3006 191.395L47.5244 191.57L47.3489 191.347ZM155.612 35.6016L155.611 35.6017Z" fill="#34473B" fill-opacity="0.05"/>
<path d="M154.38 35.9019C153.887 36.0653 152.851 36.4398 152.076 36.7363C151.302 37.0316 149.632 37.8085 148.365 38.4615C147.099 39.1158 145.141 40.1534 144.014 40.7693C142.888 41.3852 140.844 42.5252 139.471 43.3022C138.1 44.0778 136.112 45.288 135.056 45.9896C134 46.6912 132.446 47.7544 131.601 48.3512C130.757 48.948 129.29 50.0151 128.343 50.7204C127.396 51.4258 125.898 52.5784 125.015 53.2801C124.132 53.9816 122.576 55.2544 121.555 56.108C120.535 56.9616 118.778 58.4861 117.652 59.4957C116.526 60.5052 114.018 62.9156 112.079 64.8528C110.138 66.7888 107.725 69.2935 106.714 70.418C105.703 71.5426 104.007 73.503 102.945 74.7731C101.884 76.0433 100.347 77.941 99.5318 78.99C98.7166 80.0392 97.4151 81.7593 96.6423 82.8135C95.868 83.8678 93.9203 86.8005 92.3154 89.3307C90.7093 91.861 89.0382 94.5076 88.6017 95.2115C88.1641 95.9157 86.4838 99.1078 84.8676 102.304C83.2526 105.5 81.5135 109.064 81.003 110.222C80.4936 111.381 79.7885 113.106 79.4353 114.055C79.0821 115.006 78.3885 116.814 77.8945 118.076C77.4018 119.336 76.625 121.464 76.1707 122.804C75.7164 124.143 74.9755 126.505 74.5237 128.051C74.0732 129.597 73.4193 132.013 73.0725 133.418C72.7244 134.824 72.2061 137.095 71.9182 138.466C71.6315 139.836 71.1938 142.097 70.9468 143.487C70.6998 144.879 70.3275 147.179 70.1189 148.598C69.9103 150.02 69.5942 152.417 69.4151 153.929C69.2371 155.439 68.9185 159.379 68.7073 162.682L68.3247 168.688L68.4515 172.394C68.5219 174.432 68.6638 178.063 68.7676 180.462L68.9545 184.823L69.5893 189.343C69.9374 191.829 70.3738 194.956 70.558 196.291C70.7412 197.627 71.2107 200.213 71.601 202.039C71.9913 203.865 72.5659 206.393 72.8794 207.657C73.1917 208.921 73.678 210.762 73.9595 211.749C74.241 212.735 74.7939 214.578 75.1881 215.843C75.5822 217.108 76.3334 219.351 76.8581 220.827C77.3828 222.303 78.3029 224.746 78.9031 226.258C79.5046 227.768 80.6065 230.386 81.3526 232.072C82.0987 233.759 83.5512 236.835 84.5814 238.909C85.6103 240.982 87.1243 243.903 87.9457 245.398C88.7661 246.895 90.0496 249.137 90.797 250.382C91.5457 251.628 92.9393 253.824 93.8953 255.262C94.85 256.701 96.3397 258.847 97.2035 260.032C98.0673 261.216 99.3893 262.972 100.142 263.933C100.893 264.894 102.325 266.659 103.323 267.854C104.32 269.049 105.7 270.659 106.388 271.432C107.077 272.205 108.711 273.981 110.022 275.379C111.333 276.776 114.024 279.484 116.003 281.396C117.981 283.307 120.515 285.654 121.633 286.611C122.752 287.568 124.646 289.12 125.843 290.06C127.039 290.999 129.515 292.904 131.345 294.293C133.982 296.296 135.656 297.433 139.405 299.772C142.008 301.396 145.204 303.348 146.508 304.111C147.812 304.873 150.721 306.408 152.973 307.522C155.225 308.635 158.09 310.016 159.339 310.589C160.588 311.162 162.567 312.032 163.737 312.523C164.908 313.012 167.024 313.85 168.441 314.385C169.857 314.92 172.198 315.748 173.64 316.227C175.084 316.705 177.473 317.443 178.951 317.867C180.429 318.29 182.793 318.925 184.204 319.279C185.616 319.633 187.834 320.152 189.135 320.432C190.437 320.71 192.478 321.115 193.672 321.331C194.866 321.546 196.737 321.862 197.827 322.032C198.918 322.203 200.934 322.487 202.306 322.663C203.679 322.841 205.695 323.073 206.785 323.182C207.876 323.289 209.863 323.462 211.2 323.564C212.537 323.667 215.186 323.818 217.087 323.901C219.278 323.996 222.766 324.024 226.621 323.977C230.336 323.931 233.595 323.826 235.003 323.706C236.27 323.599 238.142 323.421 239.162 323.311C240.183 323.202 242.112 322.969 243.449 322.79C244.787 322.612 247.09 322.266 248.568 322.019C250.046 321.774 252.522 321.314 254.071 320.998C255.619 320.682 258.283 320.082 259.988 319.665C261.696 319.247 264.402 318.529 266.003 318.069C267.605 317.609 270.282 316.777 271.951 316.219C273.621 315.662 276.146 314.768 277.563 314.235C278.978 313.702 281.038 312.891 282.14 312.432C283.242 311.975 285.181 311.134 286.448 310.565C287.715 309.997 290.422 308.689 292.463 307.661C294.504 306.632 297.232 305.199 298.527 304.477C299.821 303.754 301.837 302.587 303.006 301.882C304.175 301.176 306.025 300.011 307.116 299.293C308.659 298.275 309.343 297.73 310.197 296.834C311.083 295.904 311.422 295.427 311.961 294.355C312.351 293.578 312.704 292.658 312.813 292.134C312.914 291.642 312.998 290.911 313 290.511C313.001 290.11 312.939 289.477 312.861 289.105C312.781 288.732 312.57 288.111 312.389 287.725C312.19 287.296 311.734 286.698 311.221 286.191C310.758 285.732 310.081 285.199 309.716 285.005C309.353 284.811 308.609 284.539 308.064 284.4C307.443 284.242 306.651 284.147 305.938 284.147C305.313 284.147 304.358 284.238 303.815 284.35C303.273 284.461 302.371 284.732 301.811 284.952C301.252 285.173 300.331 285.647 299.764 286.008C299.197 286.368 297.754 287.295 296.558 288.067C295.361 288.84 293.634 289.919 292.719 290.469C291.804 291.017 289.862 292.119 288.404 292.916C286.945 293.712 284.584 294.949 283.158 295.662C281.729 296.376 279.812 297.303 278.897 297.723C277.982 298.143 276.169 298.931 274.866 299.477C273.565 300.022 271.471 300.853 270.216 301.322C268.96 301.792 267.088 302.464 266.057 302.817C265.025 303.169 262.943 303.833 261.429 304.292C259.917 304.752 257.112 305.525 255.197 306.011C253.282 306.495 250.143 307.207 248.222 307.59C246.3 307.973 243.404 308.49 241.785 308.736C240.166 308.984 237.547 309.331 235.962 309.506C234.379 309.681 232.191 309.886 231.099 309.962C230.009 310.039 226.582 310.135 223.485 310.175C219.947 310.221 216.618 310.194 214.527 310.1C212.697 310.017 210.105 309.863 208.768 309.759C207.431 309.654 205.3 309.454 204.033 309.315C202.766 309.176 200.693 308.917 199.426 308.738C198.159 308.56 196.137 308.244 194.931 308.039C193.727 307.833 191.74 307.459 190.516 307.208C189.293 306.958 187.025 306.444 185.477 306.066C183.928 305.689 181.74 305.114 180.614 304.788C179.487 304.462 177.732 303.933 176.71 303.613C175.691 303.293 173.818 302.657 172.551 302.203C171.284 301.746 169.248 300.972 168.027 300.481C166.805 299.989 164.877 299.168 163.74 298.655C162.604 298.141 160.642 297.253 159.38 296.679C158.12 296.104 156.304 295.238 155.345 294.752C154.387 294.267 152.511 293.243 151.176 292.476C149.841 291.711 147.078 290.083 145.037 288.86C142.126 287.116 140.445 285.991 137.238 283.641C134.99 281.995 132.313 279.989 131.287 279.185C130.262 278.38 128.963 277.333 128.4 276.858C127.837 276.381 126.916 275.575 126.353 275.066C125.79 274.556 123.91 272.799 122.176 271.162C120.442 269.525 117.994 267.102 116.737 265.778C115.48 264.456 113.785 262.627 112.968 261.716C112.153 260.803 110.693 259.109 109.723 257.95C108.754 256.79 106.936 254.479 105.682 252.815C104.429 251.15 102.57 248.533 101.554 247.001C100.537 245.467 99.1882 243.35 98.5571 242.296C97.9262 241.242 96.8141 239.314 96.086 238.015C95.3578 236.714 93.9706 234.098 93.0017 232.2C92.0342 230.303 90.7417 227.657 90.1313 226.322C89.5209 224.987 88.5995 222.887 88.0824 221.658C87.5667 220.427 86.6581 218.127 86.0643 216.546C85.4705 214.964 84.6092 212.521 84.1485 211.115C83.6891 209.71 83.08 207.754 82.7959 206.77C82.512 205.786 81.9052 203.486 81.4483 201.659C80.9915 199.831 80.5 197.756 80.3567 197.048C80.2123 196.34 79.9229 194.673 79.7143 193.343C79.5044 192.012 79.0693 189.4 78.7456 187.538L78.1264 184.16L77.7559 178.721C77.5513 175.734 77.3207 172.191 77.2426 170.848C77.1289 168.9 77.1416 167.297 77.3028 162.925C77.4141 159.911 77.592 156.437 77.6982 155.208C77.8046 153.977 78.008 151.936 78.1487 150.671C78.2907 149.406 78.5505 147.336 78.7271 146.071C78.9038 144.806 79.2173 142.756 79.4246 141.518C79.6332 140.278 80.0594 138.006 80.3729 136.47C80.6864 134.932 81.2674 132.381 81.6641 130.8C82.0608 129.218 82.7506 126.717 83.1972 125.241C83.6439 123.765 84.2773 121.81 84.6049 120.896C84.9338 119.982 85.5737 118.142 86.0293 116.807C86.4836 115.472 87.2834 113.361 87.8055 112.117C88.3277 110.872 89.5691 108.083 90.5646 105.919C91.5589 103.755 92.703 101.294 93.1049 100.45C93.5068 99.6066 94.386 97.9965 95.0566 96.872C95.7284 95.7474 97.1566 93.3029 98.2302 91.4409C99.3039 89.579 100.896 87.0027 101.767 85.7159C102.638 84.4303 103.966 82.5325 104.718 81.4989C105.471 80.4664 106.662 78.8728 107.366 77.9593C108.07 77.0456 109.254 75.5503 109.997 74.6365C110.741 73.7228 112.147 72.0553 113.124 70.9307C114.099 69.8062 115.843 67.8701 116.999 66.628C118.154 65.3858 120.372 63.1251 121.927 61.6046C123.483 60.0826 125.828 57.882 127.138 56.7141C128.448 55.5461 130.703 53.6087 132.147 52.4089C133.592 51.2102 135.693 49.526 136.818 48.6671C137.943 47.8083 141.685 45.2014 145.133 42.873C148.582 40.5459 151.952 38.3212 152.62 37.9287C153.289 37.5376 154.24 36.9459 154.735 36.6137C155.231 36.2814 155.712 35.9173 155.807 35.8035C155.959 35.6212 155.936 35.5977 155.612 35.6016C155.388 35.6163 154.85 35.7473 154.38 35.9019Z" fill="#34473B" fill-opacity="0.05"/>
</svg>
