<svg width="270" height="92" viewBox="0 0 270 92" fill="none" xmlns="http://www.w3.org/2000/svg">
<path d="M46.7859 0.00348172C45.9738 -0.00182181 45.1723 -0.00181663 45.0035 0.00879043C44.8348 0.014094 44.3232 0.04062 43.8644 0.0671377C43.4109 0.0936553 42.7254 0.146675 42.3404 0.1838C41.9555 0.220925 41.2963 0.295189 40.8797 0.348224C40.4578 0.40126 39.7143 0.507326 39.2238 0.592182C38.7387 0.671735 37.9793 0.80962 37.5363 0.89978C37.0986 0.98994 36.3287 1.16497 35.8277 1.29225C35.3268 1.41423 34.541 1.62636 34.0769 1.75895C33.6129 1.89684 33.0064 2.07717 32.7375 2.16733L32.2418 2.32643L31.5351 3.01059C31.1502 3.38714 30.6545 3.89097 30.433 4.12963C30.2062 4.37359 29.7949 4.87213 29.5154 5.24337C29.2307 5.60932 28.8563 6.10785 28.6822 6.35181C28.5082 6.59047 28.2023 7.03066 28.0072 7.32766C27.8068 7.62996 27.5379 8.07546 27.4061 8.32472C27.2742 8.56869 27.0686 8.98767 26.9473 9.25284C26.826 9.51802 26.6519 9.937 26.5623 10.181C26.4674 10.4302 26.3461 10.8121 26.2828 11.0295C26.2248 11.2523 26.151 11.5705 26.1246 11.7402C26.0982 11.9152 26.0666 12.1592 26.0508 12.2971L26.0297 12.541L25.9822 12.4138C25.9611 12.3395 25.9084 12.1433 25.8715 11.9736C25.8346 11.7773 25.8029 11.4644 25.7871 11.1356C25.7766 10.8174 25.7871 10.4461 25.8082 10.1863C25.8293 9.95291 25.8768 9.59758 25.9084 9.39605C25.9453 9.19451 26.0191 8.84978 26.0719 8.62703C26.1246 8.40958 26.2406 8.01713 26.3303 7.75195C26.4199 7.48677 26.5834 7.05718 26.6889 6.80261C26.7996 6.54804 27 6.12377 27.1318 5.86389C27.2689 5.60402 27.4852 5.20625 27.6223 4.98351C27.7541 4.75545 27.965 4.42663 28.0811 4.24631C28.2023 4.06599 28.3131 3.90158 28.3236 3.88036C28.3394 3.85384 28.2867 3.86446 28.176 3.90689C28.081 3.94401 27.7119 4.10842 27.3533 4.26753C26.9947 4.43194 26.3566 4.73954 25.9348 4.95169C25.5076 5.16913 24.9328 5.46612 24.648 5.62523C24.3685 5.77903 23.8992 6.04422 23.6039 6.21393C23.3086 6.38364 22.7971 6.69654 22.4648 6.90338C22.1379 7.11022 21.5842 7.47086 21.2361 7.69891C20.8881 7.93227 20.4029 8.2717 20.1498 8.45202C19.8967 8.63234 19.3746 9.01949 18.9896 9.31119C18.61 9.60288 18.0299 10.059 17.7082 10.3242C17.3865 10.5893 16.9277 10.9765 16.6852 11.1833C16.4479 11.3902 15.9996 11.7879 15.699 12.0637C15.3932 12.3448 14.6391 13.0767 14.0221 13.6972C13.4051 14.3177 12.6562 15.0973 12.3609 15.4315C12.0656 15.7656 11.6279 16.2641 11.3906 16.5452C11.1586 16.821 10.7314 17.3354 10.452 17.6855C10.1725 18.0355 9.70839 18.6401 9.42362 19.022C9.13886 19.4091 8.76444 19.9236 8.59569 20.1675C8.42167 20.4115 8.09472 20.8994 7.86269 21.2494C7.63066 21.5995 7.27206 22.1563 7.0664 22.4852C6.86073 22.8193 6.53378 23.3708 6.33866 23.7103C6.13827 24.055 5.84824 24.5694 5.69004 24.8558C5.53711 25.1422 5.1785 25.8317 4.90429 26.3885L4.39804 27.4015L4.44024 28.6426C4.46133 29.3267 4.49296 30.0904 4.50878 30.3397C4.5246 30.5943 4.57207 31.1299 4.60371 31.533C4.64063 31.9361 4.71445 32.6149 4.76719 33.0339C4.82519 33.4582 4.93066 34.19 5.01504 34.6621C5.09414 35.1394 5.23124 35.8554 5.32089 36.2637C5.41054 36.6721 5.56347 37.3032 5.66366 37.6692C5.76386 38.0351 5.93789 38.6291 6.05391 38.9897C6.1752 39.3504 6.39667 39.9868 6.55487 40.4005C6.71308 40.8142 6.94512 41.4081 7.07696 41.7211C7.20352 42.034 7.39863 42.4901 7.5041 42.7287C7.60957 42.9727 7.82049 43.3811 7.96815 43.6462C8.11581 43.9114 8.36366 44.3357 8.51659 44.5956C8.6748 44.8555 8.96484 45.3116 9.15995 45.6086C9.35507 45.9056 9.66621 46.3457 9.84551 46.5897C10.0248 46.8284 10.3148 47.1996 10.4836 47.4064C10.6576 47.6133 10.9582 47.9368 11.1533 48.1224C11.3484 48.3134 11.6016 48.552 11.7176 48.6581L11.9285 48.849L11.7018 48.674C11.5752 48.5838 11.301 48.3558 11.0848 48.1702C10.8685 47.9898 10.4625 47.6133 10.183 47.3428C9.90351 47.067 9.4869 46.6374 9.25487 46.3829C9.02284 46.1283 8.64844 45.6987 8.42695 45.4335C8.2002 45.1684 7.85215 44.7335 7.65176 44.4683C7.44609 44.2084 7.1666 43.8213 7.01894 43.6144C6.87656 43.4076 6.66034 43.0841 6.53905 42.8984C6.41777 42.7075 6.19628 42.3575 6.04863 42.1135C5.90625 41.8696 5.66367 41.4559 5.52128 41.196C5.37363 40.9308 5.07305 40.3421 4.85156 39.886C4.63008 39.4352 4.33476 38.7935 4.19765 38.47C4.06054 38.1518 3.83906 37.579 3.69668 37.1971C3.55957 36.8206 3.35917 36.2584 3.25898 35.9402C3.15878 35.6273 3.00058 35.1129 2.91621 34.8C2.82656 34.4817 2.67891 33.9355 2.59453 33.5748C2.50488 33.2142 2.42578 32.8589 2.40996 32.7846C2.39941 32.7051 2.37831 32.6414 2.36776 32.6414C2.35722 32.6414 2.2623 32.9119 2.16211 33.2407C2.05664 33.5695 1.89316 34.1211 1.79824 34.4711C1.69804 34.8212 1.51348 35.5212 1.39219 36.0251C1.26563 36.5289 1.10214 37.2555 1.02304 37.6373C0.938668 38.0245 0.81738 38.6715 0.743552 39.0799C0.669724 39.483 0.574805 40.0558 0.532617 40.3528C0.49043 40.6445 0.416603 41.1748 0.369142 41.5248C0.326955 41.8749 0.25839 42.4636 0.226749 42.8348C0.189835 43.2007 0.147646 43.7099 0.126552 43.9591C0.105459 44.2084 0.0738154 44.6645 0.0579951 44.9721C0.0421748 45.2744 0.0158205 46.1177 0.0052736 46.8337C-0.00527327 47.6292 -4.787e-07 48.5202 0.0210933 49.1036C0.042187 49.6339 0.0843655 50.3605 0.110733 50.7212C0.1371 51.0765 0.189846 51.6652 0.221486 52.0258C0.258401 52.3865 0.316408 52.9009 0.353322 53.1714C0.390236 53.4366 0.448244 53.8555 0.485158 54.0995C0.522072 54.3435 0.601172 54.8261 0.664453 55.1708C0.722461 55.5209 0.827926 56.0512 0.891207 56.3482C0.949215 56.6452 1.05995 57.1331 1.13378 57.4301C1.20234 57.7271 1.31307 58.162 1.37635 58.3954C1.43964 58.6287 1.5873 59.1272 1.69804 59.5038C1.81406 59.8804 2.01971 60.5168 2.15155 60.9092C2.28339 61.307 2.48906 61.8904 2.61035 62.2033C2.73164 62.5162 2.94784 63.0572 3.0955 63.4072C3.24316 63.7572 3.50156 64.33 3.66504 64.6801C3.82324 65.0301 4.09745 65.587 4.2662 65.9105C4.43495 66.2393 4.67225 66.6901 4.80409 66.9234C4.93065 67.1515 5.16268 67.5546 5.31561 67.8144C5.46854 68.0743 5.75858 68.5569 5.95897 68.8751C6.16464 69.1987 6.49687 69.7025 6.69199 69.9889C6.89238 70.2753 7.26152 70.7897 7.51464 71.1291C7.76777 71.4739 8.13164 71.9512 8.32676 72.1898C8.5166 72.4338 8.84883 72.8316 9.05449 73.0755C9.26016 73.3142 9.63984 73.7491 9.90351 74.0408C10.1672 74.3272 10.6629 74.8469 11.0057 75.1969C11.3537 75.5417 11.8916 76.0614 12.2027 76.3478C12.5191 76.6342 13.0201 77.0797 13.326 77.3343C13.6266 77.5888 14.0748 77.9495 14.3174 78.1404C14.5547 78.326 14.966 78.6389 15.2297 78.8299C15.4881 79.0208 16.0154 79.3867 16.3951 79.6413C16.7801 79.8959 17.318 80.2353 17.5922 80.405C17.8717 80.5694 18.2725 80.8081 18.4887 80.9301C18.7049 81.052 19.1689 81.3013 19.5275 81.4869C19.8861 81.6726 20.4187 81.9377 20.7141 82.0756C21.0094 82.2082 21.484 82.4204 21.7687 82.5423C22.0535 82.6643 22.5439 82.8659 22.8551 82.9825C23.1662 83.1045 23.7463 83.3114 24.1365 83.4439C24.532 83.5765 25.0857 83.7515 25.3705 83.8364C25.6605 83.9213 26.2037 84.0645 26.5887 84.1652C26.9736 84.2607 27.5748 84.3986 27.9229 84.4675C28.2709 84.5365 28.7982 84.6372 29.0883 84.685C29.3836 84.7327 29.6894 84.7804 29.7738 84.7963L29.9162 84.8229L29.7264 84.9077C29.6156 84.9607 29.2781 85.0933 28.967 85.21C28.6611 85.3267 28.1338 85.5017 27.7963 85.5972C27.4641 85.6926 26.9262 85.8305 26.6045 85.9048C26.2828 85.9737 25.7502 86.0798 25.4232 86.1381C25.091 86.1912 24.5215 86.2707 24.1523 86.3132C23.7885 86.3609 23.2559 86.4086 22.9711 86.4298C22.681 86.4511 22.3541 86.4776 22.2381 86.4882L22.0271 86.5094L22.159 86.5465C22.2275 86.5677 22.5334 86.6632 22.8393 86.7587C23.1451 86.8488 23.6672 86.9973 24.01 87.0822C24.3475 87.1723 24.8379 87.289 25.0963 87.342C25.3547 87.3951 25.7713 87.4693 26.0244 87.5065C26.2723 87.5436 26.6467 87.586 26.8523 87.6072C27.058 87.6231 27.5959 87.6496 28.0494 87.6602C28.5451 87.6709 29.1357 87.6655 29.526 87.6443C29.8793 87.6231 30.3855 87.586 30.6492 87.5595C30.9076 87.5277 31.3453 87.4693 31.6248 87.4269C31.899 87.3792 32.3314 87.2943 32.5793 87.2307C32.8324 87.167 33.191 87.0716 33.3756 87.0132C33.5654 86.9602 33.9398 86.8382 34.2035 86.7427C34.4724 86.6473 34.8891 86.4829 35.1316 86.3821C35.3689 86.2813 35.7961 86.0798 36.0809 85.9366C36.3604 85.7987 36.7137 85.6131 36.8561 85.5282C37.0037 85.4487 37.2146 85.3214 37.3254 85.2524C37.4361 85.1835 37.6523 85.0456 37.8106 84.9395L38.0953 84.7539L38.4539 84.6956C38.6543 84.6638 38.8494 84.6319 38.8863 84.6213L38.9602 84.6001L38.8441 84.9395C38.7809 85.1199 38.6385 85.5441 38.533 85.8783C38.4275 86.2071 38.2535 86.7905 38.148 87.167C38.0373 87.5436 37.8422 88.2914 37.7104 88.8217C37.5785 89.3574 37.3992 90.1476 37.3096 90.5772C37.2199 91.0068 37.1408 91.378 37.1461 91.4045C37.1461 91.4257 37.183 91.378 37.2305 91.2985C37.2779 91.2189 37.3623 91.0916 37.415 91.0174C37.4731 90.9484 37.5891 90.8052 37.6787 90.6992C37.7684 90.5931 38.0162 90.3544 38.2324 90.1635C38.4434 89.9726 38.8494 89.6491 39.1236 89.4422C39.4031 89.2301 39.9568 88.8429 40.3576 88.5724C40.7584 88.302 41.3596 87.9095 41.6865 87.7027C42.0135 87.4958 42.7412 87.0238 43.3055 86.6473C43.875 86.2707 44.782 85.6767 45.3252 85.3214C45.8736 84.9661 46.5223 84.5524 46.7701 84.3986C47.0232 84.2501 47.366 84.0485 47.5348 83.9584C47.7035 83.8682 47.9883 83.7409 48.1623 83.672C48.3363 83.6084 48.5736 83.5447 48.6844 83.5341C48.8109 83.5235 48.9375 83.5288 49.0113 83.5553C49.0799 83.5765 49.1801 83.6402 49.2434 83.6932C49.3014 83.7462 49.3752 83.8576 49.4068 83.9425C49.4543 84.0645 49.4701 84.1864 49.4648 84.5047C49.4648 84.7645 49.4437 85.0138 49.4068 85.1888C49.3752 85.3426 49.2961 85.6449 49.2381 85.8624C49.1801 86.0745 49.0693 86.4245 49.0008 86.6314C48.927 86.8435 48.8109 87.1564 48.7424 87.3367C48.6685 87.5118 48.5525 87.7928 48.4787 87.9679C48.4049 88.1376 48.1992 88.5619 48.0252 88.9172C47.8512 89.2672 47.5928 89.7552 47.4557 90.0097C47.3133 90.259 47.0443 90.7204 46.8598 91.0386C46.6699 91.3515 46.4643 91.6909 46.3957 91.7917C46.3272 91.8978 46.2691 91.9879 46.2691 91.9985C46.2691 92.0145 46.5117 91.8978 46.807 91.744C47.1023 91.5902 47.5295 91.3409 47.7562 91.1871C47.983 91.0386 48.2941 90.8159 48.4471 90.6886C48.5947 90.5666 48.8637 90.3279 49.043 90.1582C49.217 89.9832 49.4912 89.6862 49.6494 89.4953C49.8076 89.299 50.0291 88.9967 50.1451 88.8217C50.2611 88.6467 50.4351 88.3497 50.5353 88.1641C50.6355 87.9732 50.7832 87.6602 50.8623 87.4693C50.9414 87.2731 51.068 86.9337 51.1365 86.7109C51.2051 86.4882 51.3105 86.1063 51.3633 85.857C51.416 85.6078 51.474 85.2949 51.4951 85.157C51.5162 85.0244 51.5373 84.8812 51.5478 84.8388L51.5637 84.7698L51.8168 84.9714C51.9539 85.088 52.2492 85.3161 52.4654 85.4805L52.8609 85.7775L52.8398 85.6396C52.8293 85.5654 52.7449 85.0456 52.6553 84.4887L52.4865 83.4758L52.2123 83.4545C52.0594 83.4439 51.8537 83.4174 51.7588 83.3962C51.6586 83.375 51.3316 83.3273 51.0258 83.2795C50.7252 83.2371 50.2822 83.1735 50.0502 83.1363C49.8182 83.0992 49.3963 83.0197 49.1115 82.9666C48.8268 82.9136 48.2941 82.8022 47.925 82.7227C47.5611 82.6431 47.0021 82.5052 46.691 82.4257C46.3799 82.3461 45.9422 82.2294 45.7154 82.1658C45.4939 82.1022 45.0035 81.9537 44.6291 81.837C44.2547 81.7203 43.5955 81.4976 43.1683 81.3438C42.7412 81.1899 42.0504 80.9301 41.6391 80.7657C41.233 80.6012 40.6002 80.3361 40.2469 80.177C39.8883 80.0179 39.1658 79.6678 38.6385 79.4027C38.1111 79.1428 37.3887 78.7609 37.0354 78.5647C36.6768 78.3632 36.1863 78.0821 35.9437 77.9336C35.7012 77.7904 35.2055 77.4775 34.8363 77.2441C34.4725 77.0108 33.924 76.6501 33.6234 76.4433C33.3176 76.2311 32.8061 75.8652 32.4844 75.6265C32.1627 75.3826 31.6828 75.0113 31.4139 74.7939C31.1449 74.5764 30.7283 74.2264 30.4857 74.0196C30.2484 73.8127 29.8582 73.468 29.6262 73.2559C29.3941 73.0437 28.8826 72.5505 28.4924 72.1633C28.1021 71.7762 27.5906 71.2511 27.3586 71.0019C27.1213 70.7473 26.7311 70.3124 26.4885 70.0366C26.2459 69.7608 25.8451 69.2835 25.5973 68.9759C25.3494 68.6683 24.9592 68.1751 24.7324 67.8834C24.5109 67.5864 24.1365 67.0772 23.9098 66.7537C23.683 66.4302 23.2875 65.8521 23.0344 65.465C22.7812 65.0778 22.3752 64.4308 22.1326 64.0277C21.89 63.6246 21.542 63.0147 21.3627 62.6753C21.1781 62.3306 20.8459 61.6836 20.6297 61.2328C20.4082 60.7873 20.1023 60.1296 19.9494 59.7796C19.7965 59.4296 19.5381 58.8196 19.3852 58.4272C19.227 58.0294 18.9949 57.4195 18.8684 57.0695C18.7418 56.7194 18.5625 56.1838 18.4623 55.8815C18.3621 55.5739 18.1828 54.9852 18.0668 54.5715C17.9455 54.1631 17.7715 53.5055 17.6766 53.1184C17.5816 52.7312 17.4445 52.1372 17.376 51.7978C17.3022 51.453 17.1967 50.928 17.1439 50.6204C17.0912 50.3181 17.0016 49.7718 16.9488 49.4112C16.8961 49.0558 16.817 48.43 16.7695 48.027C16.7273 47.6186 16.6641 46.9981 16.6377 46.6374C16.6113 46.2768 16.5691 45.5025 16.5533 44.9085C16.527 44.1077 16.527 43.5667 16.5533 42.7712C16.5744 42.1825 16.6113 41.3922 16.6377 41.0051C16.6641 40.6179 16.7115 40.0717 16.7379 39.7959C16.7642 39.5148 16.8275 38.942 16.8855 38.523C16.9383 38.0987 17.0385 37.4146 17.107 37.0062C17.1756 36.5926 17.2969 35.9561 17.3707 35.6008C17.4393 35.2402 17.5869 34.5931 17.6924 34.1635C17.7978 33.7286 17.9771 33.0392 18.0984 32.6255C18.2145 32.2118 18.4254 31.533 18.5678 31.1087C18.7049 30.6844 18.9316 30.0427 19.0687 29.6767C19.2059 29.3108 19.4326 28.738 19.575 28.4039C19.7121 28.0698 19.9494 27.5288 20.0971 27.2053C20.2447 26.8818 20.5295 26.2878 20.7299 25.8847C20.9355 25.4764 21.2625 24.8558 21.4629 24.4952C21.658 24.1346 21.985 23.5724 22.1801 23.2383C22.3752 22.9041 22.7918 22.2518 23.0976 21.7851C23.4088 21.3184 23.8201 20.7085 24.0205 20.4327C24.2209 20.1569 24.532 19.7379 24.7166 19.5046C24.8959 19.2659 25.2228 18.8575 25.4391 18.5977C25.6553 18.3378 26.0191 17.9188 26.2406 17.6695C26.4621 17.4203 26.9895 16.8528 27.4061 16.4126C27.8227 15.9777 28.3605 15.4315 28.6031 15.2087C28.8457 14.986 29.4521 14.4503 29.9479 14.0154C30.4488 13.5805 31.0184 13.0979 31.2135 12.9388C31.4139 12.785 31.9834 12.3713 32.4844 12.0213C32.9854 11.6766 33.5971 11.2576 33.8502 11.0985C34.098 10.9394 34.5727 10.6424 34.9049 10.4461C35.2318 10.2446 35.7064 9.96882 35.9596 9.83092C36.2074 9.69834 36.6346 9.4756 36.9035 9.34301C37.1777 9.21042 37.6049 9.00888 37.858 8.90281C38.1059 8.79143 38.533 8.63233 38.7967 8.54217C39.0604 8.45201 39.4348 8.34064 39.6299 8.29821C39.825 8.25048 40.0887 8.21335 40.2152 8.21335C40.3787 8.21335 40.4684 8.22926 40.5422 8.27699C40.5949 8.30881 40.674 8.40959 40.7162 8.49975C40.7637 8.58991 40.7953 8.71719 40.7953 8.80735C40.7953 8.91872 40.7742 8.98768 40.7004 9.09905C40.6476 9.1733 40.4947 9.33239 40.3576 9.44907C40.2258 9.56044 39.5508 10.0378 38.8652 10.4992C38.1797 10.9659 37.3465 11.5387 37.0143 11.7773C36.682 12.016 36.0914 12.4509 35.7012 12.7532C35.3057 13.0502 34.5726 13.6283 34.0717 14.0366C33.5654 14.445 33.0539 14.8693 32.9326 14.9807C32.8113 15.092 32.2207 15.6648 31.6195 16.2535C31.0184 16.8475 30.3592 17.5157 30.1535 17.7438C29.9531 17.9719 29.7 18.2635 29.5945 18.3908C29.4838 18.5181 29.2201 18.831 28.9986 19.0909C28.7771 19.3455 28.4291 19.7697 28.2234 20.0296C28.0178 20.2842 27.6697 20.7509 27.443 21.0585C27.2215 21.3661 26.8154 21.9601 26.5412 22.3738C26.267 22.7875 25.9137 23.3496 25.7449 23.6307C25.5814 23.9065 25.2861 24.4209 25.091 24.771C24.8959 25.121 24.5373 25.8158 24.2894 26.309C24.0469 26.8022 23.7147 27.497 23.5564 27.8576C23.3982 28.213 23.182 28.738 23.066 29.0138C22.9553 29.2949 22.7865 29.7298 22.6969 29.9791C22.602 30.2336 22.4385 30.695 22.333 31.0079C22.2275 31.3261 22.043 31.9042 21.9269 32.302C21.8109 32.6945 21.6211 33.3945 21.5104 33.8506C21.3943 34.312 21.2414 34.9803 21.1676 35.3462C21.099 35.7122 20.9883 36.3115 20.925 36.688C20.867 37.0593 20.7773 37.6586 20.7299 38.0139C20.6877 38.3745 20.6191 38.9897 20.5822 39.3875C20.5506 39.78 20.5031 40.4058 20.482 40.777C20.4609 41.143 20.4398 42.1082 20.4398 42.9144C20.4398 43.991 20.4557 44.5903 20.4978 45.1524C20.5295 45.5714 20.5822 46.1919 20.6191 46.5208C20.6561 46.8549 20.7246 47.4277 20.7773 47.7989C20.8301 48.1649 20.9197 48.7058 20.9725 49.0028C21.0252 49.2998 21.1148 49.7559 21.1676 50.0158C21.2256 50.2757 21.3416 50.7848 21.426 51.1454C21.5156 51.5008 21.6791 52.1372 21.8004 52.5509C21.9164 52.9592 22.1221 53.6275 22.2592 54.0253C22.391 54.423 22.6072 55.0435 22.7443 55.3989C22.8814 55.7542 23.0818 56.2633 23.1978 56.5338C23.3086 56.8043 23.5143 57.271 23.6461 57.568C23.7832 57.8703 24.0363 58.4007 24.2051 58.7454C24.3791 59.0901 24.6586 59.6311 24.8273 59.944C24.9961 60.2622 25.2914 60.7767 25.476 61.0896C25.6658 61.4025 25.998 61.9328 26.2195 62.2669C26.4357 62.6064 26.826 63.1685 27.0791 63.5239C27.3322 63.8845 27.733 64.4255 27.9703 64.7278C28.2076 65.0354 28.5662 65.4862 28.7719 65.7302C28.9723 65.9741 29.3572 66.4249 29.6262 66.7272C29.8951 67.0295 30.4857 67.6553 30.9393 68.1114C31.398 68.5728 31.9887 69.1456 32.2576 69.3843C32.5266 69.6282 32.9273 69.9783 33.1488 70.1692C33.3703 70.3601 33.7342 70.6571 33.9504 70.8322C34.1666 71.0019 34.541 71.2882 34.7783 71.4686C35.0156 71.6436 35.4006 71.9194 35.6326 72.0785C35.8646 72.2429 36.2391 72.4922 36.4658 72.6407C36.6873 72.7839 37.1619 73.0808 37.5205 73.2983C37.8791 73.5104 38.4328 73.8339 38.7545 74.0143C39.0762 74.1946 39.6668 74.5075 40.0623 74.7037C40.4578 74.9053 41.0221 75.1757 41.3121 75.3083C41.6074 75.4409 42.0926 75.6584 42.4037 75.7856C42.7096 75.9129 43.2264 76.1198 43.5533 76.2417C43.875 76.3637 44.4762 76.5759 44.8875 76.7085C45.2988 76.8463 45.8631 77.0214 46.1373 77.1062C46.4168 77.1858 46.8703 77.3131 47.1445 77.382C47.424 77.4563 47.9408 77.5782 48.2994 77.6578C48.658 77.7373 49.1906 77.8487 49.4859 77.9017C49.776 77.9601 50.2031 78.0343 50.4246 78.0662C50.6461 78.1033 51.068 78.1616 51.3527 78.1987C51.6375 78.2359 52.1121 78.2889 52.4021 78.3154C52.6975 78.3419 52.94 78.3632 52.9453 78.3526C52.9506 78.3473 53.1035 77.8434 53.2828 77.2335C53.4568 76.6289 53.5992 76.1251 53.5939 76.1198C53.5939 76.1198 53.3408 76.2895 53.0402 76.5069C52.7396 76.7191 52.4813 76.8941 52.4602 76.8941C52.4391 76.8941 52.4391 76.8092 52.4496 76.6766C52.4601 76.5547 52.4813 76.141 52.4918 75.7538C52.5023 75.3136 52.4971 74.8204 52.476 74.4439C52.4549 74.115 52.4074 73.6112 52.3705 73.3301C52.3389 73.049 52.2703 72.6141 52.2281 72.3649C52.1807 72.1209 52.091 71.7019 52.0277 71.4421C51.9645 71.1822 51.8379 70.7314 51.743 70.445C51.648 70.1533 51.4951 69.7396 51.4002 69.5169C51.3105 69.2941 51.1787 69.0077 51.1207 68.8857C51.0574 68.7585 51.0047 68.663 50.9994 68.6683C50.9941 68.6789 50.9994 69.5328 51.0152 70.5776C51.031 71.6171 51.0363 72.9483 51.0258 73.5316C51.0152 74.115 50.9941 74.8151 50.973 75.0803C50.9572 75.3507 50.915 75.7538 50.8781 75.9819C50.8412 76.2046 50.7779 76.5069 50.7357 76.6554C50.6883 76.7986 50.6039 76.9896 50.5459 77.0797C50.4879 77.1646 50.393 77.2706 50.3297 77.3131C50.2717 77.3502 50.1768 77.3873 50.1188 77.3873C50.066 77.3873 49.9394 77.3502 49.8498 77.3025C49.7549 77.26 49.5861 77.138 49.4807 77.0373C49.3594 76.9206 49.2117 76.7297 49.1062 76.544C49.0113 76.3796 48.8426 76.0561 48.7371 75.8281C48.6316 75.5947 48.4734 75.2182 48.3785 74.9848C48.2889 74.7515 48.1043 74.237 47.9725 73.8392C47.8406 73.4468 47.6771 72.8952 47.6033 72.6194C47.5295 72.3384 47.4346 71.9353 47.3924 71.7178C47.3502 71.5057 47.2816 71.1185 47.2447 70.8693C47.2078 70.62 47.1551 70.1851 47.1287 69.904C47.1023 69.6282 47.0707 69.0555 47.0601 68.6312C47.0443 68.1539 47.0549 67.6765 47.076 67.3583C47.0971 67.0825 47.1393 66.7007 47.1656 66.5151C47.192 66.3294 47.2553 66.0112 47.308 65.815C47.3555 65.6135 47.3924 65.4438 47.3924 65.4385C47.3871 65.4385 46.8439 66.531 46.1795 67.8728C45.5203 69.2146 44.8348 70.62 44.6607 70.9912C44.4867 71.3625 44.3338 71.6701 44.318 71.6701C44.3074 71.6701 44.2494 71.5481 44.1914 71.3943L44.0859 71.1185L44.0807 68.6948C44.0754 67.1356 44.049 65.7885 44.0174 64.9399C43.9857 64.2133 43.9488 63.3913 43.9277 63.1155C43.9119 62.8344 43.8855 62.4738 43.8644 62.3147C43.8486 62.1503 43.8064 61.657 43.7695 61.2222C43.7326 60.782 43.6852 60.294 43.6693 60.1402C43.6482 59.9864 43.6219 59.769 43.6061 59.6523C43.585 59.5356 43.5639 59.3977 43.5533 59.3447C43.5428 59.297 43.5269 59.2598 43.5217 59.2651C43.5164 59.2758 43.374 59.8538 43.2053 60.5539C43.0365 61.2487 42.7992 62.2563 42.6832 62.7867C42.5672 63.317 42.3932 64.1391 42.293 64.6111C42.1928 65.0884 42.1084 65.4809 42.1031 65.4862C42.0978 65.4915 42.0451 65.3324 41.9871 65.1309C41.9291 64.9293 41.7867 64.4202 41.6707 63.9959C41.5547 63.5716 41.3437 62.7655 41.2014 62.198C41.059 61.6305 40.8691 60.8085 40.7689 60.3683C40.6687 59.9281 40.4947 59.0901 40.3787 58.5067C40.2627 57.9233 40.0834 56.9793 39.9832 56.4012C39.8883 55.8284 39.7301 54.9375 39.6404 54.4283C39.5508 53.9139 39.4137 53.1502 39.3346 52.7259C39.2502 52.3069 39.1131 51.6122 39.0234 51.1932C38.9338 50.7689 38.765 50.0423 38.6543 49.5756C38.5383 49.1089 38.3643 48.4406 38.2641 48.0906C38.1639 47.7406 37.9477 47.0034 37.7789 46.4571C37.6102 45.9108 37.3781 45.1312 37.2568 44.7282C37.1408 44.3251 36.9615 43.6887 36.8613 43.3227C36.7664 42.9515 36.6135 42.3469 36.5238 41.965C36.4342 41.5885 36.2918 40.9202 36.2021 40.48C36.1178 40.0398 36.0281 39.5678 36.007 39.4299C35.9859 39.2867 35.9543 39.1754 35.9385 39.1754C35.9226 39.1754 35.7381 39.2814 35.5271 39.4087C35.3215 39.536 34.831 39.8542 34.4408 40.1088C34.0559 40.3634 33.4389 40.7823 33.0803 41.0422C32.7164 41.2968 32.0098 41.8165 31.5088 42.1931C31.0078 42.5696 30.2273 43.1795 29.7738 43.5455C29.315 43.9167 28.6717 44.4418 28.3447 44.7229C28.0125 45.0039 27.5221 45.4229 27.2584 45.6563C26.9895 45.8896 26.5412 46.2874 26.267 46.5367C25.9875 46.7912 25.8029 46.945 25.8557 46.8814C25.9084 46.8178 26.2195 46.4836 26.557 46.1336C26.8892 45.7836 27.2795 45.3699 27.4219 45.2161C27.5643 45.0623 27.8807 44.7017 28.1338 44.4153C28.3816 44.1289 28.7455 43.7099 28.9353 43.4871C29.1199 43.2591 29.5576 42.7765 29.9057 42.4052C30.2537 42.0393 30.7494 41.5036 31.0078 41.2119C31.2715 40.9255 31.7619 40.4217 32.0994 40.0876C32.4369 39.7588 32.9695 39.2549 33.2807 38.9791C33.5918 38.6981 34.04 38.3109 34.2721 38.1094C34.5041 37.9131 34.9207 37.5631 35.2055 37.335L35.717 36.9161V35.7175C35.717 35.0598 35.7275 34.2802 35.7486 33.9832C35.7645 33.6862 35.8119 33.1506 35.8436 32.7899C35.8805 32.4293 35.9385 31.9307 35.9754 31.6815C36.0123 31.4269 36.0861 30.9708 36.1441 30.6685C36.1969 30.3609 36.2971 29.8783 36.3656 29.5919C36.4342 29.3002 36.5924 28.6903 36.7189 28.2342C36.8455 27.7781 36.9826 27.3008 37.0248 27.1735C37.067 27.0462 37.2885 26.4681 37.5152 25.8847C37.858 25.0096 38.0162 24.649 38.4328 23.827C38.7123 23.2754 39.0129 22.6973 39.1025 22.5329C39.1922 22.3738 39.4822 21.9071 39.7459 21.4987C40.0148 21.0903 40.2416 20.735 40.2521 20.7085C40.2627 20.6767 40.2521 20.6554 40.2258 20.6554C40.1994 20.6607 39.9199 20.6713 39.6088 20.6926C39.2291 20.7138 38.6121 20.7138 37.8211 20.6926C37.1514 20.6713 36.4553 20.6448 36.2654 20.6236C36.0808 20.6024 35.717 20.5547 35.4586 20.5069C35.2002 20.4645 34.8205 20.385 34.6148 20.3319C34.4092 20.2789 34.1086 20.1887 33.9451 20.1357C33.7869 20.0774 33.5654 19.9872 33.46 19.9342C33.2859 19.8546 33.2754 19.844 33.3756 19.8546C33.4389 19.8652 33.7184 19.8811 33.9926 19.8917C34.3037 19.9076 34.6676 19.9023 34.9365 19.8758C35.1791 19.8546 35.6168 19.8016 35.9121 19.7538C36.2021 19.7114 36.5449 19.6531 36.6715 19.6265C36.7928 19.6 37.1883 19.5311 37.5469 19.4674C37.9055 19.4038 38.417 19.3083 38.6859 19.25C38.9549 19.197 39.3504 19.1068 39.5613 19.0538C39.7775 19.0007 40.3523 18.8894 40.8375 18.8098C41.3227 18.7303 41.7393 18.656 41.7656 18.6454C41.792 18.6348 41.9818 18.4333 42.1822 18.1999C42.3879 17.9612 42.7834 17.5264 43.0576 17.2294C43.3371 16.9324 43.8117 16.4603 44.1123 16.1793C44.4129 15.8982 44.8453 15.5057 45.0721 15.3148C45.2988 15.1186 45.7101 14.7738 45.9896 14.5511C46.2744 14.3283 46.7701 13.9571 47.0918 13.7237C47.4187 13.4957 47.9303 13.1456 48.2309 12.9547C48.5367 12.7585 49.0061 12.4721 49.275 12.313C49.5387 12.1539 50.124 11.8357 50.567 11.6076L51.3791 11.1939L51.0574 11.0932C50.8781 11.0401 50.5354 10.9341 50.298 10.8651C50.0555 10.7909 49.7496 10.706 49.6125 10.6689C49.4807 10.6371 48.7635 10.4992 48.0146 10.3666C47.2711 10.234 46.6646 10.1226 46.6699 10.1173C46.6752 10.112 47.1392 10.0908 47.7035 10.0696C48.2625 10.0537 49.0008 10.0325 49.3383 10.0378C49.6758 10.0378 50.2031 10.0537 50.509 10.0749C50.8096 10.0961 51.474 10.1279 51.9855 10.1438C52.4918 10.1598 53.0455 10.1969 53.2143 10.2181L53.5201 10.2605L53.8312 10.1385C54.0053 10.0749 54.3797 9.937 54.6645 9.83623C54.9492 9.74077 55.4291 9.58697 55.735 9.49151C56.0408 9.40135 56.4838 9.27937 56.7264 9.21573C56.9689 9.15209 57.3961 9.04601 57.6809 8.98237C57.9709 8.91873 58.4824 8.81795 58.8199 8.75431C59.1574 8.69067 59.7006 8.60582 60.0223 8.56339C60.3439 8.51566 60.8344 8.45732 61.1086 8.4308C61.3881 8.40428 61.8416 8.36185 62.1158 8.34063C62.4111 8.31412 63.2074 8.29821 64.0512 8.29821C64.8949 8.29821 65.6807 8.31412 65.9812 8.34063C66.2555 8.36185 66.7037 8.40428 66.9726 8.4308C67.2363 8.45732 67.7637 8.52096 68.1381 8.5793C68.5125 8.63233 69.1084 8.73309 69.4564 8.80204C69.8045 8.87098 70.3055 8.98237 70.5691 9.04601C70.8328 9.10965 71.3021 9.23163 71.608 9.32179C71.9139 9.41195 72.3937 9.56045 72.668 9.65061C72.9474 9.74607 73.4115 9.9158 73.7068 10.0272C74.0021 10.1385 74.4715 10.3348 74.7457 10.4514C75.0252 10.5734 75.5683 10.828 75.948 11.0242C76.333 11.2205 76.8498 11.5015 77.1029 11.6447C77.3508 11.7932 77.7463 12.0372 77.973 12.1857C78.1998 12.3395 78.3791 12.4456 78.3738 12.435C78.3633 12.419 77.8517 12.0213 77.24 11.5546C76.6283 11.0879 75.8215 10.478 75.4471 10.2022C75.0727 9.92109 74.4346 9.46499 74.0338 9.1786C73.633 8.89751 72.9685 8.44141 72.5572 8.16562C72.1459 7.89514 71.6133 7.54512 71.3707 7.39131C71.1281 7.24281 70.6324 6.9352 70.2738 6.71775C69.91 6.49501 69.2824 6.13437 68.8764 5.90631C68.4756 5.67826 67.732 5.2858 67.231 5.03124C66.7301 4.77136 66.0129 4.42132 65.6385 4.24631C65.2641 4.07129 64.7051 3.82203 64.3939 3.68413C64.0881 3.55155 63.5449 3.3288 63.1916 3.1856C62.8383 3.04241 62.2055 2.80375 61.7889 2.65525C61.3723 2.50145 60.7816 2.29461 60.4758 2.19384C60.1699 2.09308 59.6531 1.93397 59.3209 1.83321C58.9887 1.73774 58.4139 1.57334 58.0394 1.47257C57.665 1.3718 57.0428 1.21799 56.6631 1.13314C56.2781 1.04298 55.698 0.915692 55.3711 0.85205C55.0494 0.788408 54.4799 0.687644 54.1055 0.624002C53.7363 0.56036 53.267 0.486111 53.0666 0.459594L52.708 0.406555L52.3019 0.486105C52.0857 0.533837 51.685 0.6346 51.416 0.714153C51.1471 0.793706 50.3719 1.03237 49.6969 1.24981C49.0166 1.46726 48.3152 1.70062 48.1359 1.76426C47.9566 1.8279 47.7299 1.91276 47.6349 1.94988C47.5348 1.98701 46.8387 2.30521 46.0898 2.65525C45.341 3.00528 44.7135 3.29698 44.6924 3.30759C44.6713 3.31819 44.6713 3.31289 44.6924 3.29168C44.7135 3.27577 45.2777 2.87801 45.9422 2.4166C46.6172 1.95519 47.2816 1.49378 47.424 1.39831C47.5717 1.30815 48.0516 1.02706 48.4945 0.783101C48.9322 0.539139 49.3857 0.295182 49.4912 0.242147C49.5967 0.189112 49.6758 0.130778 49.66 0.114868C49.6441 0.10426 49.3225 0.0724257 48.948 0.0512116C48.5736 0.0299974 47.6033 0.00878525 46.7859 0.00348172ZM39.4928 9.09905C39.44 9.09905 39.2977 9.13617 39.1764 9.17329C39.0498 9.21572 38.7861 9.31118 38.591 9.38543C38.3959 9.46498 37.9688 9.66121 37.6471 9.83092C37.3254 9.99533 36.8297 10.2605 36.5449 10.4196C36.2601 10.5787 35.7381 10.8651 35.39 11.0667C35.042 11.2629 34.5357 11.5758 34.2721 11.7508C34.0031 11.9311 33.6076 12.2016 33.3914 12.3554C33.1805 12.5092 32.8061 12.785 32.5688 12.9653C32.3262 13.1403 31.9465 13.4373 31.725 13.6177C31.4982 13.798 31.1027 14.1215 30.8443 14.3389C30.5859 14.5564 30.1377 14.9488 29.8529 15.2034C29.5682 15.4633 28.9301 16.0785 28.4396 16.5717C27.9492 17.0703 27.3375 17.7067 27.0791 17.9984C26.8207 18.2848 26.3936 18.7833 26.1246 19.1068C25.8504 19.4356 25.4602 19.9182 25.2545 20.1887C25.0488 20.4539 24.7166 20.8941 24.5215 21.1646C24.3264 21.4351 23.8307 22.1829 23.4246 22.8299C23.0186 23.4769 22.5914 24.1558 22.4807 24.3308C22.3699 24.5111 21.948 25.3278 21.5367 26.1446C21.1254 26.9613 20.6824 27.8735 20.5559 28.1705C20.424 28.4675 20.2447 28.9077 20.1551 29.1464C20.0654 29.3904 19.8914 29.8518 19.7648 30.1753C19.6436 30.4988 19.4432 31.0398 19.3271 31.3845C19.2111 31.7239 19.0266 32.3285 18.9105 32.7263C18.7945 33.1187 18.6311 33.7392 18.5414 34.0946C18.4518 34.4552 18.3199 35.0386 18.2514 35.3886C18.1775 35.7387 18.0668 36.3168 18.0035 36.6721C17.9402 37.0274 17.8453 37.6161 17.7926 37.9768C17.7398 38.3374 17.6607 38.9526 17.6133 39.3398C17.5711 39.7269 17.4867 40.7293 17.434 41.5779L17.3391 43.1106L17.3707 44.0599C17.3865 44.5797 17.4234 45.5078 17.4498 46.1177L17.4973 47.2314L17.6555 48.3876C17.7451 49.024 17.8559 49.8249 17.9033 50.1643C17.9508 50.509 18.0721 51.1667 18.167 51.6334C18.2672 52.1001 18.4148 52.7471 18.4939 53.0706C18.573 53.3941 18.6943 53.8608 18.7682 54.1154C18.8367 54.3647 18.9791 54.8367 19.0793 55.1602C19.1795 55.4837 19.3693 56.0565 19.5012 56.4331C19.633 56.8149 19.8703 57.4354 20.0232 57.8226C20.1762 58.2097 20.4557 58.878 20.6402 59.3076C20.8301 59.7425 21.1992 60.5274 21.4629 61.0577C21.7213 61.5881 22.1063 62.3306 22.3172 62.7124C22.5229 63.0943 22.8498 63.6724 23.0396 63.9906C23.2295 64.3088 23.5828 64.8657 23.8254 65.2369C24.068 65.6029 24.4476 66.1544 24.6639 66.4567C24.8853 66.759 25.2228 67.2045 25.4127 67.4538C25.6025 67.6978 25.9664 68.1486 26.2195 68.4562C26.4727 68.7585 26.8207 69.1721 26.9947 69.3684C27.1687 69.5646 27.5853 70.0207 27.9176 70.376C28.2498 70.7314 28.9354 71.4261 29.4363 71.9141C29.9373 72.402 30.5807 73.0013 30.8654 73.2452C31.1502 73.4892 31.6301 73.887 31.9307 74.1309C32.2365 74.3696 32.8641 74.8575 33.3281 75.2129C33.9979 75.722 34.425 76.0137 35.3742 76.6077C36.0334 77.0267 36.8455 77.5252 37.1777 77.7214C37.51 77.9124 38.243 78.3048 38.8178 78.5912C39.3873 78.8776 40.115 79.2276 40.4314 79.3761C40.7479 79.5193 41.2488 79.7421 41.5494 79.8694C41.8447 79.9966 42.3826 80.2088 42.7412 80.3467C43.0998 80.4846 43.6957 80.6914 44.0596 80.8134C44.4287 80.9354 45.0351 81.1263 45.4096 81.2377C45.784 81.3437 46.3852 81.5028 46.7438 81.5983C47.1023 81.6885 47.6613 81.8211 47.9936 81.89C48.3258 81.9643 48.8426 82.065 49.1432 82.1181C49.449 82.1764 49.9236 82.256 50.1978 82.2984C50.4773 82.3408 50.9889 82.4151 51.3369 82.4628C51.685 82.5052 52.1965 82.5636 52.4707 82.5954C52.7502 82.6219 53.2512 82.6643 53.5939 82.6908C53.9314 82.7174 54.6012 82.7545 55.0863 82.7757C55.64 82.8022 56.526 82.8075 57.5068 82.7969C58.4455 82.7863 59.2734 82.7598 59.632 82.728C59.9537 82.7014 60.4283 82.6537 60.6867 82.6272C60.9451 82.6007 61.4356 82.537 61.7731 82.4946C62.1158 82.4469 62.7012 82.3567 63.0756 82.2984C63.45 82.2347 64.0775 82.1181 64.473 82.0332C64.8633 81.9537 65.5383 81.7998 65.9707 81.6938C66.4031 81.5877 67.0939 81.4021 67.5 81.2854C67.906 81.1687 68.5863 80.9566 69.0082 80.8134C69.4301 80.6702 70.0734 80.4421 70.432 80.3096C70.7906 80.1717 71.3127 79.9648 71.5922 79.8482C71.8717 79.7315 72.3621 79.514 72.6838 79.3708C73.0055 79.2223 73.6963 78.8882 74.2131 78.6283C74.7299 78.3632 75.4207 77.9972 75.7529 77.8116C76.0799 77.626 76.5914 77.329 76.8867 77.1487C77.182 76.9683 77.6514 76.6713 77.9308 76.4857C78.3211 76.2258 78.4951 76.0879 78.7113 75.8599C78.9381 75.6212 79.0224 75.4992 79.1596 75.2288C79.2597 75.0272 79.3494 74.7939 79.3758 74.6613C79.4021 74.534 79.4232 74.3484 79.4232 74.2423C79.4232 74.1416 79.4074 73.9824 79.3863 73.887C79.3652 73.7915 79.3125 73.6324 79.2703 73.5316C79.2176 73.4203 79.1016 73.2718 78.9697 73.1392C78.8537 73.0225 78.6849 72.8846 78.59 72.8369C78.5004 72.7892 78.3105 72.7202 78.1734 72.6831C78.0152 72.6406 77.8148 72.6194 77.6303 72.6194C77.4721 72.6194 77.2295 72.6407 77.0924 72.6725C76.9553 72.699 76.7285 72.7679 76.5861 72.821C76.4437 72.8793 76.2064 73.0013 76.064 73.0914C75.9217 73.1869 75.5578 73.4203 75.252 73.6165C74.9461 73.818 74.5084 74.0938 74.2764 74.2317C74.0443 74.3749 73.5539 74.656 73.1848 74.8575C72.8103 75.0644 72.2144 75.3773 71.8506 75.5576C71.4867 75.7432 71.0016 75.9819 70.7695 76.088C70.5375 76.194 70.0787 76.3956 69.7465 76.5334C69.4195 76.6766 68.8869 76.8888 68.5652 77.0055C68.2488 77.1274 67.7742 77.2971 67.5105 77.3873C67.2521 77.4775 66.7195 77.6472 66.3346 77.7639C65.9549 77.8805 65.243 78.0821 64.7578 78.2041C64.2726 78.3313 63.4764 78.5117 62.9859 78.6071C62.5008 78.7079 61.7625 78.8405 61.3512 78.9041C60.9398 78.9625 60.2754 79.0526 59.8746 79.1003C59.4738 79.1428 58.9201 79.1958 58.6406 79.2117C58.3664 79.2329 57.4963 79.2595 56.7105 79.2701C55.8088 79.2807 54.965 79.2754 54.4377 79.2488C53.9736 79.2276 53.3144 79.1905 52.9769 79.164C52.6342 79.1375 52.0963 79.0844 51.7746 79.0473C51.4529 79.0155 50.9256 78.9465 50.6039 78.9041C50.2822 78.8564 49.7707 78.7768 49.4648 78.7238C49.159 78.6708 48.6527 78.5753 48.3416 78.5117C48.0357 78.448 47.4557 78.3154 47.0654 78.22C46.6699 78.1245 46.1162 77.976 45.8314 77.8912C45.5467 77.8116 45.0984 77.6737 44.84 77.5942C44.5816 77.5093 44.107 77.3502 43.7853 77.2335C43.4637 77.1168 42.9469 76.9153 42.6357 76.7933C42.3299 76.666 41.8395 76.4539 41.5494 76.3266C41.2594 76.194 40.7637 75.966 40.442 75.8175C40.1203 75.6743 39.6615 75.4515 39.4189 75.3295C39.1764 75.2023 38.7017 74.9424 38.359 74.7462C38.0215 74.5499 37.3201 74.1362 36.8033 73.8233C36.065 73.3778 35.6379 73.0914 34.8258 72.4868C34.2563 72.0679 33.576 71.5534 33.3123 71.3466C33.0539 71.1451 32.727 70.8746 32.5846 70.7526C32.4369 70.6306 32.2049 70.4291 32.0625 70.2965C31.9201 70.1639 31.4402 69.7184 31.0025 69.2994C30.5596 68.8804 29.9426 68.2599 29.6209 67.9205C29.3045 67.5864 28.8721 67.1197 28.6664 66.8863C28.4607 66.653 28.0863 66.2181 27.8437 65.9211C27.5959 65.6241 27.1371 65.0354 26.8154 64.6111C26.499 64.1868 26.0297 63.5186 25.7713 63.1261C25.5129 62.7337 25.1701 62.1927 25.0066 61.9222C24.8484 61.6517 24.5689 61.1585 24.3844 60.8297C24.1998 60.4956 23.8465 59.8273 23.5986 59.3394C23.3561 58.8568 23.0238 58.1832 22.8709 57.8385C22.718 57.4991 22.4807 56.9634 22.3488 56.6452C22.2223 56.3323 21.9902 55.7436 21.8373 55.3405C21.6896 54.9375 21.4682 54.3116 21.3521 53.951C21.2361 53.5957 21.0832 53.0918 21.0094 52.8426C20.9355 52.5933 20.7826 52.0046 20.6666 51.5379C20.5506 51.0712 20.4293 50.5408 20.3924 50.3552C20.3555 50.1749 20.2816 49.7506 20.2289 49.4112C20.1762 49.0718 20.0654 48.4035 19.9811 47.9262L19.8228 47.0617L19.7332 45.6722C19.6805 44.9138 19.6225 44.0069 19.6014 43.6622C19.5697 43.1636 19.575 42.7552 19.6172 41.6362C19.6436 40.8672 19.691 39.9815 19.7174 39.6633C19.7438 39.3504 19.7965 38.8306 19.8334 38.5071C19.865 38.1836 19.9336 37.6533 19.9758 37.3297C20.0232 37.0062 20.1023 36.4812 20.1551 36.1683C20.2078 35.8501 20.3133 35.272 20.3924 34.8795C20.4715 34.4817 20.6244 33.8294 20.7246 33.4263C20.8248 33.0233 20.9988 32.3815 21.1096 32.005C21.2256 31.6284 21.3838 31.1299 21.4682 30.8966C21.5525 30.6632 21.716 30.1912 21.832 29.8518C21.948 29.5123 22.1484 28.9714 22.2803 28.6532C22.4121 28.335 22.7285 27.6243 22.9816 27.0674C23.2348 26.5158 23.5248 25.8847 23.625 25.6726C23.7252 25.4551 23.9519 25.0468 24.1207 24.7551C24.2894 24.4687 24.6533 23.8429 24.9275 23.3708C25.1965 22.8935 25.6025 22.2359 25.824 21.9071C26.0455 21.5783 26.383 21.0903 26.5729 20.8305C26.7627 20.5653 27.0686 20.1569 27.2426 19.9235C27.4219 19.6902 27.7225 19.3083 27.9123 19.075C28.1021 18.8416 28.4555 18.4174 28.7033 18.1257C28.9512 17.8393 29.3941 17.346 29.6894 17.0278C29.9795 16.7096 30.5438 16.1315 30.9393 15.7444C31.3348 15.3572 31.9307 14.7897 32.2629 14.4927C32.5951 14.1957 33.1646 13.7025 33.5338 13.3949C33.8977 13.0873 34.4303 12.6577 34.7203 12.435C35.0051 12.2175 35.9543 11.5493 36.8297 10.9553C37.7051 10.3613 38.5594 9.79381 38.7281 9.69304C38.8969 9.59228 39.1394 9.44378 39.266 9.35892C39.3926 9.27406 39.5139 9.17859 39.535 9.15207C39.5719 9.10434 39.5666 9.09905 39.4928 9.09905ZM126.457 24.771C124.095 25.6779 121.964 26.2931 119.217 26.8765V26.9507C120.946 27.2424 121.848 28.2236 121.848 30.5836V52.116C121.848 54.0465 120.925 55.2026 119.391 55.5898V55.664H128.914V55.5898C127.38 55.2026 126.457 54.0465 126.457 52.116V24.771ZM69.8045 27.4174C68.3226 27.7038 64.2726 27.8205 60.5074 27.6667V27.741C65.4223 28.091 67.616 32.477 69.3404 36.9956L69.4195 36.9532C69.0715 32.7263 69.4354 29.4805 69.8783 27.4546L69.8045 27.4174ZM50.3719 27.6667V27.741C51.9064 28.1281 52.8082 29.3055 52.8082 31.236V52.0948C52.8082 54.0253 51.9064 55.2026 50.3719 55.5898V55.664H60.5285V55.5898C58.7988 55.2026 57.7072 54.0253 57.7072 52.0948V30.467C57.7072 28.7274 57.8391 27.9372 58.609 27.741V27.6667H50.3719ZM114.94 29.8677C113.537 33.3627 111.422 36.3168 107.779 36.3539V36.4334C109.503 36.9161 110.447 38.2844 110.405 40.6444L110.289 50.0264C110.236 54.0465 111.844 55.8231 115.014 55.8231C117.202 55.8231 118.911 54.9534 120.161 53.6222L120.124 53.5426C119.317 54.2003 118.394 54.6405 117.529 54.6405C115.741 54.6405 115.014 52.8107 115.014 49.915V41.8961C115.014 38.3851 116.685 37.0486 119.892 36.4334V36.3539H115.958C115.283 36.3539 115.072 36.0463 115.014 35.5053V29.8677H114.94ZM200.67 29.8677C199.267 33.3627 197.158 36.3168 193.509 36.3539V36.4334C195.233 36.9161 196.177 38.2844 196.14 40.6444L196.024 50.0264C195.966 54.0465 197.58 55.8231 200.749 55.8231C202.938 55.8231 204.646 54.9534 205.891 53.6222L205.854 53.5426C205.047 54.2003 204.124 54.6405 203.265 54.6405C201.477 54.6405 200.749 52.8107 200.749 49.915V41.8961C200.749 38.3851 202.416 37.0486 205.622 36.4334V36.3539H201.688C201.013 36.3539 200.807 36.0463 200.749 35.5053V29.8677H200.67ZM169.71 35.972C167.347 36.8789 165.217 37.4941 162.469 38.0722V38.1518C164.199 38.4435 165.101 39.4246 165.101 41.7794C165.101 45.5078 161.916 55.0488 154.485 55.7224V55.8019C167.906 55.6853 169.71 39.9497 169.71 35.972ZM235.201 36.0675C232.843 36.9744 230.708 37.5896 227.965 38.173V38.2473C229.69 38.5389 230.597 39.5201 230.597 41.8802V52.116C230.597 54.0465 229.674 55.2026 228.134 55.5898V55.664H237.658V55.5898C236.123 55.2026 235.201 54.0465 235.201 52.116V36.0675ZM175.031 36.1046C173.069 36.1046 171.461 37.7646 170.575 41.1642L170.654 41.1854C171.244 39.8118 171.766 39.3504 172.515 39.3504C173.765 39.3504 175.279 41.1058 175.511 43.7894L175.584 43.8106C176.449 41.3021 177.256 39.3133 178.084 37.2661C177.277 36.6668 176.18 36.1046 175.031 36.1046ZM184.85 36.163C182.197 36.2584 179.107 37.6692 179.107 41.1854C179.107 44.0599 181.158 46.1866 184.27 48.3505C187.133 50.3393 189.206 51.7076 189.206 53.601C189.206 54.8367 188.436 55.4943 187.038 55.7065V55.7807C189.686 55.6853 192.776 54.492 192.776 50.8962C192.776 47.3428 189.57 45.2585 187.207 43.6356C184.254 41.6097 182.64 40.1777 182.64 38.4594C182.64 37.2078 183.447 36.4547 184.85 36.2425V36.163ZM186.384 36.1842V36.2584C189.533 37.3191 191.009 41.2968 192.201 44.0016L192.28 43.9645C191.932 41.2809 191.721 38.4223 191.969 36.3963L191.895 36.3539C190.798 37.2237 188.805 36.3751 186.384 36.1842ZM78.4213 36.2001C73.1637 36.3963 69.3826 40.7187 69.5145 46.6321C69.6516 52.4448 73.5644 55.7807 79.1332 55.8231C84.4699 55.8603 86.8166 52.4024 87.2965 50.7212L87.2174 50.7052C86.3736 52.7312 83.9162 55.1655 80.7838 55.1655C76.7127 55.1655 74.6982 51.0924 74.6613 45.5502C74.6402 40.7028 76.275 36.7039 78.4213 36.2796V36.2001ZM80.151 36.2001V36.2796C81.5906 36.8206 82.6506 38.8465 82.7086 41.3551C82.7455 43.8106 81.7857 44.6221 76.5808 44.988V45.0623L87.6603 44.9668C87.5232 40.1035 84.6861 36.4334 80.151 36.2001ZM100.638 36.2001C99.7312 36.2001 99.0035 36.3539 98.5236 36.4918L98.5447 36.566C100.501 36.3751 100.443 38.4435 100.443 41.9544C100.443 45.2585 100.29 48.2338 100.29 51.3629C100.29 53.7919 100.712 55.8019 103.823 55.8019C105.532 55.8019 107.225 55.1655 108.337 54.2957L108.295 54.2162C106.012 55.2026 105.052 53.776 105.052 50.8591C105.052 47.4966 105.205 44.9668 105.205 41.8961C105.205 36.9956 102.653 36.2001 100.638 36.2001ZM134.446 36.2001C131.931 36.2001 129.795 37.457 128.377 38.9844L128.413 39.0587C129.22 38.4011 130.47 37.5737 131.926 37.5737C133.713 37.5737 134.541 38.942 134.541 42.209C134.541 45.2797 134.367 48.3081 134.367 51.3788C134.367 53.8131 134.789 55.8231 137.653 55.8231C139.572 55.8231 141.26 55.1655 142.372 54.2957L142.335 54.2162C140.052 55.2026 139.071 53.7919 139.071 50.8803C139.071 47.5178 139.245 44.9085 139.245 41.8961C139.245 37.7487 137.326 36.2001 134.446 36.2001ZM152.123 36.2001C146.67 36.3963 142.884 40.7187 143.021 46.3616C143.153 52.0152 147.15 55.7807 152.64 55.8231V55.7436C150.182 55.3193 148.3 51.1666 148.168 45.8949C148.031 40.8937 149.781 36.7039 152.123 36.2796V36.2001ZM153.657 36.2001V36.2796C155.097 36.8206 156.157 38.8465 156.21 41.3551C156.252 43.8106 155.292 44.6221 150.087 44.988V45.0623L161.167 44.9668C161.03 40.1035 158.187 36.4334 153.657 36.2001ZM214.829 36.2001C209.377 36.3963 205.59 40.7187 205.727 46.3616C205.859 52.0152 209.856 55.7807 215.346 55.8231V55.7436C212.889 55.3193 211.006 51.1666 210.874 45.8949C210.737 40.8937 212.483 36.7039 214.829 36.2796V36.2001ZM216.554 36.2001V36.2796C219.011 36.8206 220.931 40.9149 221.031 46.1071C221.126 51.1295 219.417 55.3193 217.076 55.7436V55.8231C222.703 55.6269 226.31 51.3045 226.178 45.6457C226.041 40.008 222.049 36.2372 216.554 36.2001ZM243.19 36.2001C240.674 36.2001 238.544 37.457 237.12 38.9844L237.162 39.0587C237.969 38.4011 239.214 37.5737 240.674 37.5737C242.462 37.5737 243.285 38.942 243.285 42.209C243.285 45.2797 243.116 48.3081 243.116 51.3788C243.116 53.8131 243.538 55.8231 246.454 55.8231C248.374 55.8231 250.066 55.1655 251.179 54.2957L251.142 54.2162C248.854 55.2026 247.873 53.7919 247.873 50.8803C247.873 47.5178 248.047 44.9085 248.047 41.8961C248.047 37.7487 246.127 36.2001 243.19 36.2001ZM260.766 36.2001C255.503 36.3963 251.717 40.7187 251.854 46.6321C251.986 52.4448 255.904 55.7807 261.473 55.8231C266.815 55.8603 269.156 52.4024 269.636 50.7212L269.557 50.7052C268.713 52.7312 266.256 55.1655 263.123 55.1655C259.058 55.1655 257.038 51.0924 257.001 45.5502C256.98 40.7028 258.615 36.7039 260.766 36.2796V36.2001ZM262.491 36.2001V36.2796C263.93 36.8206 264.99 38.8465 265.048 41.3551C265.085 43.8106 264.125 44.6221 258.921 44.988V45.0623L270 44.9668C269.868 40.1035 267.026 36.4334 262.491 36.2001ZM91.4203 36.4122L91.3412 36.4547C91.7051 38.5761 91.6523 41.0687 91.0353 43.9432L91.1144 43.9857C92.7808 40.3899 94.6266 37.7275 96.8361 36.8948L96.815 36.8206C95.1064 37.1653 92.9549 37.3616 91.4203 36.4122ZM66.9779 36.6668C65.7123 40.8354 64.0406 41.4135 59.6268 41.9969V42.0711C63.8508 42.6492 65.5225 43.2326 66.7881 47.4012L66.8619 47.364C66.5561 43.9061 66.6141 40.3528 67.057 36.7039L66.9779 36.6668ZM98.7188 44.4471C94.8164 44.585 89.2318 45.9745 89.2318 50.9916C89.2318 54.1048 91.4572 55.8231 94.3945 55.8231C96.757 55.8231 98.3496 54.6988 99.0984 54.004L99.0615 53.9298C98.4656 54.3329 97.7379 54.6617 97.026 54.6617C95.3543 54.6617 94.3734 52.8479 94.3734 50.509C94.3734 47.7671 95.6654 45.1206 98.7188 44.5213V44.4471ZM169.346 47.3057C168.808 49.8355 166.177 54.9162 162.069 55.5898V55.664H171.882V55.5898C170.343 55.2026 169.425 54.0465 169.425 52.116V47.3057H169.346ZM178.817 47.8466L178.743 47.8838C179.065 50.4931 179.107 53.3888 178.854 55.4519L178.933 55.4943C180.373 54.8579 182.64 55.5527 185.309 55.7807V55.7065C181.949 54.895 180.104 50.8378 178.817 47.8466ZM11.9601 48.8437C11.9654 48.8437 11.9918 48.8702 12.0129 48.902L12.0603 48.9604L12.0023 48.9126C11.9707 48.8914 11.9443 48.8649 11.9443 48.8543C11.9443 48.849 11.9496 48.8437 11.9601 48.8437ZM263.16 60.1137C262.955 60.1349 262.702 60.172 262.406 60.2145C262.111 60.2516 261.81 60.294 261.504 60.3524C261.199 60.4001 260.909 60.4584 260.634 60.5221C260.36 60.591 260.144 60.66 259.986 60.7289V61.4025L261.283 61.5351V71.9406C260.903 72.0307 260.529 72.1686 260.155 72.3543V73.0225H264.779V72.3543C264.6 72.2482 264.426 72.1633 264.268 72.0944C264.11 72.0254 263.936 71.9724 263.74 71.9406V68.9176L264.305 69.0926C264.452 69.3525 264.6 69.6229 264.748 69.8987C264.895 70.1586 265.048 70.4344 265.206 70.7208C265.365 71.0072 265.544 71.3042 265.739 71.6118C265.939 71.9247 266.177 72.2535 266.435 72.6088L266.899 73.0225H269.784V72.3543L268.914 71.9406C268.613 71.6065 268.318 71.2617 268.022 70.8958C267.738 70.5139 267.469 70.148 267.205 69.7926C266.941 69.4267 266.699 69.0873 266.472 68.7638C266.245 68.4456 266.045 68.1698 265.871 67.9417L266.367 67.4432C266.551 67.247 266.736 67.0507 266.931 66.8439C267.137 66.637 267.337 66.4249 267.527 66.2075C267.732 65.9794 267.922 65.7514 268.091 65.518C268.318 65.4756 268.523 65.4172 268.708 65.3483C268.898 65.2794 269.104 65.1998 269.32 65.1096V64.4414H265.328V65.1096C265.454 65.1998 265.57 65.2794 265.686 65.3483C265.813 65.4172 265.95 65.4756 266.098 65.518C265.845 65.9211 265.554 66.3613 265.222 66.8439C264.906 67.3212 264.558 67.7614 264.183 68.1645H263.74V60.1137H263.16ZM189.127 60.3365C188.694 60.3365 188.341 60.4531 188.067 60.6812C187.792 60.9092 187.655 61.2221 187.655 61.6252C187.655 62.0124 187.792 62.32 188.067 62.5533C188.341 62.7814 188.694 62.8928 189.127 62.8928C189.559 62.8928 189.907 62.7814 190.181 62.5533C190.455 62.32 190.593 62.0124 190.593 61.6252C190.593 61.2221 190.455 60.9092 190.181 60.6812C189.907 60.4531 189.559 60.3365 189.127 60.3365ZM237.795 60.8668C237.305 60.8668 236.767 60.8933 236.176 60.9358C235.596 60.9835 235.074 61.0047 234.62 61.0047H232.469V61.657C232.664 61.7737 232.88 61.8745 233.118 61.9646C233.36 62.0442 233.608 62.1078 233.872 62.1556V71.8716C233.64 71.9194 233.402 71.9777 233.154 72.0573C232.912 72.1421 232.685 72.2429 232.469 72.3702V73.0225H238.154V72.3702C237.916 72.2535 237.642 72.158 237.336 72.0785C237.041 71.9883 236.735 71.9194 236.429 71.8716V68.4403C236.487 68.4509 236.577 68.4615 236.704 68.4721C236.841 68.4721 236.978 68.4774 237.11 68.488H237.521H237.795C238.407 68.488 239.008 68.4137 239.588 68.2652C240.168 68.1061 240.68 67.8675 241.123 67.544C241.566 67.2257 241.919 66.8174 242.183 66.3294C242.457 65.8362 242.594 65.2528 242.594 64.574C242.594 63.8686 242.457 63.2746 242.183 62.8079C241.908 62.3253 241.545 61.9434 241.091 61.657C240.648 61.3706 240.131 61.1691 239.551 61.0577C238.982 60.9305 238.396 60.8668 237.795 60.8668ZM162.575 60.9039C162.074 60.9039 161.626 60.9199 161.241 60.957C160.856 60.9888 160.444 61.0047 160.012 61.0047H157.264V61.657C157.47 61.7737 157.697 61.8745 157.945 61.9646C158.198 62.0442 158.435 62.1078 158.662 62.1556V71.8716C158.435 71.8928 158.198 71.9512 157.945 72.0414C157.707 72.1368 157.481 72.2429 157.264 72.3702V73.0225H159.295C159.479 73.0225 159.701 73.0278 159.959 73.0384C160.233 73.049 160.513 73.0596 160.798 73.0702L161.652 73.1074C161.937 73.118 162.195 73.1233 162.438 73.1233C163.071 73.1233 163.688 73.0596 164.278 72.9377C164.869 72.7998 165.391 72.5876 165.85 72.3012C166.314 72.0148 166.688 71.6489 166.957 71.2034C167.231 70.7579 167.368 70.2222 167.368 69.607C167.368 69.1138 167.273 68.6895 167.078 68.3342C166.894 67.9682 166.656 67.6659 166.361 67.4273C166.066 67.1833 165.728 67.003 165.354 66.8757C164.99 66.7484 164.626 66.6636 164.262 66.6211V66.5522C164.626 66.4832 164.964 66.3666 165.27 66.2075C165.586 66.0484 165.86 65.8468 166.087 65.6082C166.324 65.3642 166.509 65.0884 166.635 64.7808C166.772 64.4626 166.841 64.1179 166.841 63.7519C166.841 63.1685 166.72 62.6912 166.482 62.3253C166.24 61.9487 165.923 61.657 165.523 61.4502C165.127 61.2434 164.674 61.1055 164.157 61.0206C163.645 60.9411 163.118 60.9039 162.575 60.9039ZM237.352 61.9859C238.08 61.9859 238.665 62.2033 239.108 62.6382C239.551 63.0731 239.778 63.7466 239.778 64.6641C239.778 65.1415 239.709 65.5551 239.572 65.8999C239.435 66.2393 239.251 66.5204 239.024 66.7378C238.808 66.9553 238.56 67.1144 238.275 67.2204C237.99 67.3212 237.695 67.3742 237.384 67.3742H236.888C236.688 67.3636 236.535 67.3371 236.429 67.3053V62.0866C236.556 62.0548 236.682 62.0283 236.804 62.0177C236.941 61.9965 237.125 61.9859 237.352 61.9859ZM162.264 62.0177C162.854 62.0177 163.339 62.1874 163.714 62.5321C164.094 62.8662 164.278 63.3913 164.278 64.1126C164.278 64.6058 164.141 65.046 163.867 65.4332C163.598 65.8097 163.239 66.0908 162.796 66.2764C162.622 66.2976 162.443 66.3188 162.248 66.3454C162.053 66.356 161.863 66.3613 161.668 66.3613H161.119V62.0866C161.267 62.0654 161.436 62.0495 161.615 62.0336C161.8 62.023 162.016 62.0177 162.264 62.0177ZM259.089 64.2346C258.826 64.2399 258.567 64.3035 258.319 64.4202C258.035 64.5581 257.771 64.7437 257.534 64.9717C257.296 65.1998 257.085 65.4544 256.901 65.7248C256.732 66.0006 256.6 66.2658 256.511 66.5151H256.442V64.2346H255.862L255.176 64.3194C254.918 64.3512 254.644 64.399 254.359 64.4573C254.074 64.4997 253.795 64.5581 253.521 64.627C253.262 64.696 253.041 64.7702 252.856 64.8498V65.518L253.985 65.6559V71.9406C253.8 71.983 253.621 72.0361 253.436 72.0944C253.252 72.1527 253.062 72.2376 252.856 72.3543V73.0225H257.808V72.3543C257.581 72.227 257.349 72.1368 257.122 72.0785C256.896 72.0095 256.669 71.9618 256.442 71.9406V67.544C256.59 67.178 256.753 66.9181 256.938 66.7537C257.117 66.5946 257.275 66.4832 257.412 66.4143H259.754V65.7408C259.696 65.4809 259.622 65.2051 259.527 64.9187C259.437 64.6217 259.332 64.3937 259.205 64.2346C259.168 64.2293 259.126 64.2293 259.089 64.2346ZM171.181 64.2346C171.002 64.2558 170.77 64.2876 170.501 64.3353C170.237 64.3725 169.963 64.4149 169.678 64.4732C169.393 64.5209 169.119 64.574 168.845 64.6429C168.581 64.7119 168.36 64.7808 168.175 64.8498V65.518L169.304 65.6559C169.304 66.3454 169.288 66.9977 169.251 67.6129C169.219 68.2334 169.204 68.9017 169.204 69.6229C169.204 70.3336 169.267 70.9223 169.388 71.389C169.515 71.8504 169.694 72.2164 169.937 72.4922C170.174 72.7626 170.459 72.9536 170.791 73.0543C171.128 73.171 171.519 73.2293 171.951 73.2293C172.336 73.2293 172.689 73.1657 173.006 73.0384C173.327 72.9111 173.602 72.752 173.828 72.5558C174.066 72.3543 174.261 72.1315 174.408 71.8876C174.556 71.6383 174.656 71.389 174.714 71.1504H174.783L174.904 73.1922H175.484C175.69 73.171 175.917 73.1339 176.164 73.0914C176.428 73.0543 176.687 73.0119 176.95 72.9536C177.214 72.8846 177.462 72.8157 177.699 72.7467C177.942 72.6778 178.142 72.6088 178.3 72.5399V71.9406L177.172 71.8027V64.2346H176.592C176.386 64.2558 176.149 64.2876 175.874 64.3353C175.6 64.3725 175.326 64.4149 175.041 64.4732C174.767 64.5209 174.498 64.574 174.234 64.6429C173.987 64.7119 173.776 64.7808 173.607 64.8498V65.518L174.714 65.6559V70.1533C174.519 70.7473 174.271 71.1822 173.965 71.458C173.67 71.7231 173.343 71.8557 172.99 71.8557C172.478 71.8557 172.125 71.6489 171.935 71.2352C171.751 70.8268 171.661 70.148 171.661 69.2093C171.661 68.4084 171.677 67.597 171.714 66.7749C171.745 65.937 171.761 65.0937 171.761 64.2346H171.181ZM182.361 64.2346C181.918 64.2346 181.501 64.2929 181.116 64.4043C180.742 64.5103 180.42 64.6535 180.146 64.8498C179.872 65.046 179.655 65.2846 179.497 65.571C179.334 65.8468 179.255 66.1544 179.255 66.4992C179.255 66.9765 179.36 67.3849 179.566 67.719C179.782 68.0478 180.04 68.3395 180.346 68.5941C180.668 68.8327 181.011 69.0449 181.375 69.2252C181.749 69.4108 182.092 69.5911 182.398 69.7767C182.714 69.9624 182.978 70.1586 183.183 70.376C183.4 70.5935 183.505 70.8534 183.505 71.1504C183.505 71.4951 183.368 71.7603 183.099 71.9565C182.825 72.1527 182.524 72.2482 182.192 72.2482C182.055 72.2482 181.907 72.2429 181.749 72.2323C181.601 72.2111 181.464 72.1527 181.338 72.0573L180.504 70.1904H179.924C179.729 70.5192 179.545 70.9011 179.376 71.3201C179.207 71.7444 179.107 72.1633 179.086 72.577C179.508 72.7838 180.009 72.943 180.589 73.0543C181.169 73.171 181.733 73.2293 182.276 73.2293C183.347 73.2293 184.201 73.0066 184.839 72.5558C185.477 72.0997 185.794 71.4792 185.794 70.6889C185.794 70.2434 185.688 69.8563 185.472 69.5381C185.266 69.2146 185.003 68.9441 184.686 68.7107C184.375 68.4721 184.038 68.2599 183.658 68.0796C183.294 67.894 182.957 67.7137 182.635 67.528C182.329 67.3477 182.065 67.1515 181.849 66.9446C181.649 66.7272 181.543 66.4779 181.543 66.1916C181.543 65.937 181.628 65.7142 181.802 65.518C181.981 65.3165 182.245 65.2104 182.582 65.2104C182.767 65.2104 182.93 65.221 183.078 65.2475C183.226 65.2581 183.368 65.29 183.505 65.3483L184.222 67.0985H184.802C184.929 66.7537 185.061 66.3772 185.198 65.9688C185.335 65.5445 185.425 65.1468 185.472 64.7808C185.071 64.6111 184.602 64.4785 184.069 64.3884C183.547 64.2823 182.978 64.2346 182.361 64.2346ZM189.823 64.2346C189.617 64.2558 189.38 64.2876 189.105 64.3353C188.837 64.3725 188.557 64.4149 188.272 64.4732C187.988 64.5209 187.713 64.574 187.45 64.6429C187.202 64.7119 186.991 64.7808 186.822 64.8498V65.518L187.945 65.6559V71.9406C187.729 71.9989 187.534 72.0626 187.349 72.1315C187.17 72.1845 186.991 72.2588 186.822 72.3543V73.0225H191.531V72.3543C191.373 72.2588 191.199 72.1845 191.02 72.1315C190.835 72.0626 190.635 71.9989 190.403 71.9406V64.2346H189.823ZM195.354 64.2346C195.117 64.2558 194.848 64.2876 194.553 64.3353C194.268 64.3725 193.983 64.4149 193.699 64.4732C193.424 64.5315 193.171 64.5952 192.934 64.6641C192.691 64.7172 192.502 64.7808 192.354 64.8498V65.518L193.477 65.6559V71.9406C193.013 72.0679 192.639 72.2058 192.354 72.3543V73.0225H196.873V72.3543C196.715 72.2482 196.562 72.1686 196.414 72.1103C196.277 72.0414 196.119 71.983 195.935 71.9406V67.1674C196.093 66.6901 196.33 66.3082 196.636 66.0378C196.952 65.7514 197.332 65.6082 197.764 65.6082C198.287 65.6082 198.65 65.8097 198.856 66.2234C199.056 66.6264 199.162 67.1833 199.162 67.9046V71.9406C198.967 72.0095 198.798 72.0785 198.65 72.1474C198.513 72.2005 198.371 72.2694 198.223 72.3543V73.0225H202.748V72.3543C202.453 72.158 202.073 72.0201 201.619 71.9406V67.8357C201.619 67.1303 201.551 66.5469 201.414 66.0855C201.287 65.6188 201.103 65.2475 200.849 64.9717C200.612 64.696 200.317 64.5103 199.963 64.4043C199.61 64.2929 199.215 64.2346 198.766 64.2346C198.086 64.2346 197.506 64.4096 197.026 64.7649C196.552 65.1096 196.193 65.518 195.95 66.0006H195.935V64.2346H195.354ZM207.805 64.2346C206.45 64.2346 205.395 64.6164 204.63 65.3801C203.871 66.1491 203.491 67.2682 203.491 68.7319C203.491 69.4161 203.581 70.0366 203.76 70.5829C203.955 71.1345 204.235 71.6065 204.599 72.0095C204.963 72.3967 205.416 72.699 205.965 72.9164C206.508 73.1233 207.135 73.2293 207.842 73.2293C208.285 73.2293 208.696 73.1763 209.071 73.0702C209.456 72.9801 209.793 72.8634 210.078 72.7149C210.373 72.5505 210.616 72.3755 210.811 72.1792C211.017 71.9724 211.164 71.7762 211.254 71.5799L210.932 71.2352C210.7 71.4208 210.384 71.5693 209.972 71.6807C209.577 71.7974 209.187 71.8557 208.812 71.8557C207.937 71.8557 207.272 71.5853 206.819 71.0496C206.371 70.5086 206.144 69.7874 206.133 68.8857H211.375C211.523 68.0266 211.528 67.3 211.391 66.706C211.264 66.112 211.032 65.6294 210.69 65.2634C210.363 64.8975 209.941 64.6323 209.429 64.4732C208.928 64.3141 208.385 64.2346 207.805 64.2346ZM215.9 64.2346C215.457 64.2346 215.04 64.2929 214.65 64.4043C214.276 64.5103 213.954 64.6535 213.68 64.8498C213.405 65.046 213.189 65.2846 213.031 65.571C212.873 65.8468 212.794 66.1544 212.794 66.4992C212.794 66.9765 212.894 67.3849 213.1 67.719C213.316 68.0478 213.58 68.3395 213.885 68.5941C214.202 68.8327 214.545 69.0449 214.908 69.2252C215.283 69.4108 215.626 69.5911 215.931 69.7767C216.253 69.9624 216.512 70.1586 216.717 70.376C216.933 70.5935 217.044 70.8534 217.044 71.1504C217.044 71.4951 216.907 71.7603 216.633 71.9565C216.359 72.1527 216.058 72.2482 215.726 72.2482C215.594 72.2482 215.446 72.2429 215.283 72.2323C215.135 72.2111 214.998 72.1527 214.877 72.0573L214.038 70.1904H213.458C213.263 70.5192 213.084 70.9011 212.91 71.3201C212.741 71.7444 212.646 72.1633 212.62 72.577C213.042 72.7838 213.543 72.943 214.123 73.0543C214.703 73.171 215.267 73.2293 215.815 73.2293C216.881 73.2293 217.735 73.0066 218.373 72.5558C219.011 72.0997 219.328 71.4792 219.328 70.6889C219.328 70.2434 219.222 69.8563 219.006 69.5381C218.8 69.2146 218.537 68.9441 218.22 68.7107C217.914 68.4721 217.571 68.2599 217.197 68.0796C216.833 67.894 216.49 67.7137 216.174 67.528C215.863 67.3477 215.604 67.1515 215.388 66.9446C215.183 66.7272 215.082 66.4779 215.082 66.1916C215.082 65.937 215.167 65.7142 215.336 65.518C215.52 65.3165 215.779 65.2104 216.121 65.2104C216.306 65.2104 216.469 65.221 216.617 65.2475C216.765 65.2581 216.907 65.29 217.044 65.3483L217.761 67.0985H218.341C218.463 66.7537 218.595 66.3772 218.732 65.9688C218.869 65.5445 218.958 65.1468 219.006 64.7808C218.605 64.6111 218.141 64.4785 217.603 64.3884C217.081 64.2823 216.512 64.2346 215.9 64.2346ZM223.599 64.2346C223.156 64.2346 222.739 64.2929 222.355 64.4043C221.98 64.5103 221.653 64.6535 221.379 64.8498C221.105 65.046 220.894 65.2846 220.73 65.571C220.572 65.8468 220.493 66.1544 220.493 66.4992C220.493 66.9765 220.593 67.3849 220.799 67.719C221.015 68.0478 221.279 68.3395 221.585 68.5941C221.906 68.8327 222.244 69.0449 222.608 69.2252C222.987 69.4108 223.325 69.5911 223.636 69.7767C223.952 69.9624 224.216 70.1586 224.416 70.376C224.633 70.5935 224.743 70.8534 224.743 71.1504C224.743 71.4951 224.606 71.7603 224.332 71.9565C224.058 72.1527 223.757 72.2482 223.43 72.2482C223.293 72.2482 223.145 72.2429 222.987 72.2323C222.84 72.2111 222.703 72.1527 222.576 72.0573L221.737 70.1904H221.157C220.968 70.5192 220.783 70.9011 220.614 71.3201C220.44 71.7444 220.345 72.1633 220.324 72.577C220.746 72.7838 221.242 72.943 221.822 73.0543C222.402 73.171 222.966 73.2293 223.515 73.2293C224.585 73.2293 225.439 73.0066 226.078 72.5558C226.71 72.0997 227.032 71.4792 227.032 70.6889C227.032 70.2434 226.921 69.8563 226.705 69.5381C226.499 69.2146 226.241 68.9441 225.919 68.7107C225.613 68.4721 225.271 68.2599 224.896 68.0796C224.532 67.894 224.19 67.7137 223.873 67.528C223.567 67.3477 223.304 67.1515 223.087 66.9446C222.882 66.7272 222.782 66.4779 222.782 66.1916C222.782 65.937 222.866 65.7142 223.035 65.518C223.219 65.3165 223.478 65.2104 223.821 65.2104C224.005 65.2104 224.169 65.221 224.316 65.2475C224.464 65.2581 224.606 65.29 224.743 65.3483L225.461 67.0985H226.041C226.167 66.7537 226.299 66.3772 226.431 65.9688C226.568 65.5445 226.663 65.1468 226.705 64.7808C226.31 64.6111 225.84 64.4785 225.308 64.3884C224.786 64.2823 224.216 64.2346 223.599 64.2346ZM247.894 64.2346C247.134 64.2346 246.412 64.3194 245.726 64.4891C245.046 64.6588 244.487 64.8975 244.055 65.1945C244.076 65.3907 244.113 65.587 244.16 65.7938C244.213 66.0006 244.276 66.2075 244.345 66.4143C244.424 66.6052 244.503 66.7962 244.582 66.9765C244.677 67.1515 244.767 67.3053 244.856 67.4432H245.61L246.412 65.3801C246.707 65.2687 247.029 65.2104 247.382 65.2104C247.952 65.2104 248.321 65.4384 248.495 65.8999C248.664 66.356 248.706 67.0772 248.611 68.0584C247.678 68.1061 246.881 68.1804 246.222 68.2864C245.573 68.3872 245.041 68.5463 244.619 68.7638C244.208 68.9706 243.907 69.2411 243.712 69.5699C243.522 69.904 243.422 70.3283 243.422 70.8428C243.422 71.2087 243.49 71.5375 243.628 71.8345C243.765 72.1209 243.954 72.3702 244.192 72.577C244.429 72.7838 244.709 72.943 245.03 73.0543C245.347 73.171 245.695 73.2293 246.069 73.2293C246.422 73.2293 246.739 73.1763 247.024 73.0702C247.308 72.9695 247.556 72.8369 247.757 72.6778C247.973 72.5081 248.152 72.3171 248.289 72.1103C248.426 71.8929 248.521 71.6701 248.579 71.4421H248.664C248.674 71.8186 248.69 72.1421 248.716 72.402C248.738 72.6672 248.806 72.9323 248.922 73.1922H249.497C249.692 73.171 249.913 73.1339 250.167 73.0914C250.414 73.0543 250.668 73.0119 250.915 72.9536C251.179 72.8846 251.422 72.8157 251.648 72.7467C251.891 72.6778 252.076 72.6088 252.213 72.5399V71.9406L251.037 71.7709C251.016 71.564 250.995 71.3678 250.984 71.1822V70.5352C250.984 69.9518 250.995 69.3843 251.021 68.8327C251.053 68.2705 251.068 67.65 251.068 66.9606C251.068 66.584 251.026 66.2287 250.931 65.8999C250.842 65.5657 250.678 65.2793 250.441 65.0407C250.209 64.7861 249.892 64.5952 249.481 64.4573C249.075 64.3088 248.542 64.2346 247.894 64.2346ZM207.737 65.2104C208.248 65.2104 208.596 65.4491 208.781 65.9317C208.96 66.4143 209.013 67.0985 208.934 67.9894H206.186C206.218 67.4432 206.276 66.9924 206.355 66.6371C206.434 66.2711 206.539 65.9847 206.661 65.7779C206.798 65.5604 206.956 65.4119 207.125 65.3324C207.304 65.2528 207.51 65.2104 207.737 65.2104ZM161.119 67.475H162.026C162.411 67.475 162.77 67.5121 163.102 67.5811C163.429 67.6394 163.714 67.7508 163.956 67.9258C164.194 68.0849 164.384 68.3077 164.515 68.5941C164.653 68.8698 164.721 69.2199 164.721 69.6548C164.721 70.3654 164.515 70.9382 164.109 71.3731C163.698 71.7974 163.134 72.0095 162.417 72.0095C162.069 72.0095 161.8 71.9989 161.615 71.9724C161.446 71.9512 161.283 71.9247 161.119 71.8876V67.475ZM248.611 68.8698V70.5829C248.579 70.6996 248.527 70.8322 248.458 70.9807C248.4 71.1292 248.31 71.267 248.184 71.389C248.073 71.5163 247.931 71.6277 247.757 71.7178C247.588 71.808 247.382 71.8557 247.145 71.8557C246.781 71.8557 246.496 71.7338 246.291 71.4951C246.085 71.2564 245.985 70.917 245.985 70.4821C245.985 70.1957 246.016 69.9571 246.085 69.7608C246.164 69.554 246.301 69.3896 246.496 69.2623C246.691 69.1244 246.955 69.0289 247.298 68.9706C247.641 68.9123 248.078 68.8804 248.611 68.8698Z" fill="#E4E3DD"/>
</svg>
