<svg width="225" height="76" viewBox="0 0 225 76" fill="none" xmlns="http://www.w3.org/2000/svg">
<path d="M131.052 59.8648V59.33C131.232 59.2268 131.422 59.1377 131.621 59.0627C131.83 58.9876 132.029 58.9407 132.218 58.9219V50.9567C132.029 50.9192 131.83 50.8676 131.621 50.8019C131.412 50.7268 131.223 50.6424 131.052 50.5486V50.0138H133.342C133.702 50.0138 134.044 49.9997 134.366 49.9716C134.689 49.9435 135.058 49.9294 135.476 49.9294C135.931 49.9294 136.372 49.9622 136.798 50.0279C137.225 50.0936 137.604 50.2108 137.936 50.3797C138.268 50.5486 138.534 50.7878 138.733 51.0974C138.932 51.3976 139.031 51.787 139.031 52.2655C139.031 52.5657 138.975 52.8472 138.861 53.1098C138.756 53.3632 138.605 53.5883 138.406 53.7853C138.216 53.9824 137.988 54.1465 137.723 54.2779C137.467 54.4092 137.187 54.5031 136.884 54.5593V54.6156C137.187 54.6532 137.491 54.7235 137.794 54.8267C138.107 54.9299 138.387 55.08 138.633 55.2771C138.88 55.4741 139.079 55.7227 139.231 56.0229C139.392 56.3138 139.472 56.6609 139.472 57.0643C139.472 57.5709 139.359 58.0072 139.131 58.3731C138.903 58.739 138.595 59.0392 138.206 59.2738C137.827 59.5083 137.391 59.6819 136.898 59.7944C136.405 59.8976 135.893 59.9492 135.362 59.9492C135.163 59.9492 134.945 59.9446 134.708 59.9352C134.47 59.9258 134.233 59.9164 133.996 59.907C133.759 59.8976 133.527 59.8883 133.299 59.8789C133.081 59.8695 132.896 59.8648 132.745 59.8648H131.052ZM135.348 59.0345C135.945 59.0345 136.414 58.8609 136.756 58.5138C137.097 58.1573 137.268 57.6882 137.268 57.1065C137.268 56.75 137.211 56.4592 137.097 56.234C136.983 55.9995 136.827 55.8165 136.628 55.6852C136.429 55.5444 136.191 55.4506 135.916 55.4037C135.641 55.3474 135.343 55.3193 135.02 55.3193H134.267V58.936C134.399 58.9641 134.537 58.9876 134.679 59.0064C134.831 59.0251 135.054 59.0345 135.348 59.0345ZM134.722 54.4046C134.883 54.4046 135.044 54.3999 135.205 54.3905C135.367 54.3717 135.518 54.3529 135.66 54.3342C136.03 54.1841 136.329 53.9542 136.557 53.6446C136.784 53.3256 136.898 52.9644 136.898 52.561C136.898 51.9699 136.741 51.5384 136.429 51.2663C136.116 50.9848 135.713 50.8441 135.22 50.8441C135.011 50.8441 134.831 50.8488 134.679 50.8582C134.527 50.8676 134.39 50.8816 134.267 50.9004V54.4046H134.722Z" fill="#C3AC3C"/>
<path d="M141.004 57.081C141.004 56.49 141.018 55.9411 141.047 55.4345C141.075 54.9279 141.089 54.3931 141.089 53.8302L140.151 53.7176V53.1688C140.302 53.1125 140.487 53.0562 140.705 52.9999C140.933 52.9436 141.165 52.8967 141.402 52.8592C141.639 52.8123 141.867 52.7747 142.085 52.7466C142.313 52.7091 142.502 52.6809 142.654 52.6622H143.138C143.138 53.3658 143.123 54.0601 143.095 54.7449C143.067 55.4204 143.052 56.0866 143.052 56.7433C143.052 57.5126 143.128 58.0661 143.28 58.4039C143.441 58.7416 143.735 58.9105 144.162 58.9105C144.456 58.9105 144.726 58.8026 144.972 58.5868C145.228 58.3617 145.437 58.0051 145.598 57.5173V53.8302L144.674 53.7176V53.1688C144.816 53.1125 144.991 53.0562 145.2 52.9999C145.418 52.9436 145.641 52.8967 145.869 52.8592C146.106 52.8123 146.338 52.7747 146.565 52.7466C146.793 52.7091 146.992 52.6809 147.163 52.6622H147.646V58.8683L148.585 58.9809V59.4734C148.452 59.5297 148.287 59.586 148.087 59.6423C147.888 59.6986 147.68 59.7549 147.462 59.8112C147.244 59.8581 147.025 59.8956 146.807 59.9238C146.599 59.9613 146.409 59.9894 146.238 60.0082H145.755L145.655 58.3335H145.598C145.551 58.5305 145.466 58.7323 145.342 58.9387C145.219 59.1357 145.058 59.3186 144.859 59.4875C144.669 59.647 144.441 59.7783 144.176 59.8815C143.91 59.9847 143.616 60.0363 143.294 60.0363C142.934 60.0363 142.611 59.9894 142.327 59.8956C142.052 59.8112 141.815 59.6564 141.616 59.4312C141.417 59.206 141.265 58.9058 141.161 58.5305C141.056 58.1459 141.004 57.6627 141.004 57.081Z" fill="#C3AC3C"/>
<path d="M152.921 58.3344C152.921 58.0905 152.831 57.8794 152.65 57.7011C152.48 57.5229 152.262 57.3587 151.996 57.2086C151.74 57.0584 151.456 56.9083 151.143 56.7582C150.839 56.6081 150.555 56.4346 150.289 56.2375C150.033 56.0311 149.815 55.7919 149.635 55.5198C149.464 55.2477 149.379 54.9147 149.379 54.5206C149.379 54.2392 149.445 53.9859 149.578 53.7607C149.711 53.5262 149.891 53.3292 150.119 53.1697C150.346 53.0102 150.616 52.8882 150.929 52.8038C151.252 52.7099 151.598 52.663 151.968 52.663C152.48 52.663 152.954 52.7052 153.39 52.7897C153.836 52.8647 154.225 52.9726 154.556 53.1134C154.518 53.4136 154.443 53.7373 154.329 54.0844C154.215 54.4221 154.106 54.7317 154.002 55.0132H153.518L152.921 53.5778C152.807 53.5309 152.688 53.5027 152.565 53.4933C152.442 53.4746 152.304 53.4652 152.153 53.4652C151.868 53.4652 151.65 53.5496 151.498 53.7185C151.356 53.878 151.285 54.0609 151.285 54.2673C151.285 54.5019 151.37 54.7083 151.541 54.8865C151.721 55.0554 151.939 55.2149 152.195 55.365C152.461 55.5151 152.745 55.6652 153.049 55.8153C153.362 55.9655 153.646 56.139 153.902 56.3361C154.168 56.5237 154.386 56.7488 154.556 57.0115C154.737 57.2742 154.827 57.5885 154.827 57.9544C154.827 58.6018 154.561 59.1131 154.03 59.4884C153.499 59.8543 152.788 60.0372 151.897 60.0372C151.441 60.0372 150.972 59.9903 150.489 59.8965C150.005 59.8027 149.588 59.6713 149.237 59.5024C149.256 59.1647 149.336 58.8222 149.479 58.4751C149.621 58.128 149.773 57.8184 149.934 57.5463H150.417L151.114 59.0803C151.219 59.1553 151.332 59.2022 151.456 59.221C151.588 59.2304 151.712 59.235 151.826 59.235C152.1 59.235 152.352 59.1553 152.579 58.9958C152.807 58.8363 152.921 58.6158 152.921 58.3344Z" fill="#C3AC3C"/>
<path d="M159.61 59.8648H155.685V59.316C155.827 59.2409 155.974 59.1799 156.125 59.133C156.277 59.0767 156.443 59.0251 156.623 58.9782V53.8276L155.685 53.715V53.1661C155.827 53.1099 156.002 53.0536 156.211 52.9973C156.429 52.941 156.656 52.8941 156.893 52.8565C157.131 52.8096 157.363 52.7721 157.59 52.744C157.818 52.7064 158.017 52.6783 158.188 52.6595H158.671V58.9782C158.861 59.0251 159.032 59.0767 159.183 59.133C159.335 59.1799 159.477 59.2409 159.61 59.316V59.8648ZM156.381 50.5205C156.381 50.1921 156.495 49.9341 156.723 49.7464C156.95 49.5588 157.244 49.465 157.605 49.465C157.965 49.465 158.259 49.5588 158.487 49.7464C158.714 49.9341 158.828 50.1921 158.828 50.5205C158.828 50.8394 158.714 51.0927 158.487 51.2804C158.259 51.468 157.965 51.5618 157.605 51.5618C157.244 51.5618 156.95 51.468 156.723 51.2804C156.495 51.0927 156.381 50.8394 156.381 50.5205Z" fill="#C3AC3C"/>
<path d="M168.953 59.8648H165.184V59.316C165.307 59.2503 165.426 59.194 165.54 59.1471C165.663 59.0908 165.805 59.0345 165.966 58.9782V55.6711C165.966 55.08 165.881 54.6203 165.71 54.292C165.54 53.9542 165.236 53.7853 164.8 53.7853C164.44 53.7853 164.127 53.9026 163.861 54.1372C163.605 54.3623 163.411 54.6719 163.278 55.066V58.9782C163.43 59.0157 163.563 59.0627 163.676 59.1189C163.8 59.1659 163.928 59.2315 164.06 59.316V59.8648H160.291V59.316C160.528 59.194 160.841 59.0814 161.23 58.9782V53.8276L160.291 53.715V53.1661C160.414 53.1098 160.576 53.0582 160.775 53.0113C160.974 52.955 161.187 52.9034 161.415 52.8565C161.652 52.8096 161.889 52.7721 162.126 52.744C162.373 52.7064 162.595 52.6783 162.794 52.6595H163.278V54.109H163.292C163.491 53.715 163.79 53.3772 164.188 53.0958C164.587 52.8049 165.07 52.6595 165.639 52.6595C166.009 52.6595 166.341 52.7064 166.635 52.8002C166.929 52.8847 167.175 53.0395 167.374 53.2646C167.583 53.4898 167.74 53.7947 167.844 54.1794C167.958 54.5546 168.015 55.0331 168.015 55.6148V58.9782C168.394 59.0439 168.707 59.1565 168.953 59.316V59.8648Z" fill="#C3AC3C"/>
<path d="M176.047 58.6862C175.971 58.8457 175.848 59.0099 175.677 59.1788C175.516 59.3383 175.312 59.4837 175.066 59.615C174.829 59.737 174.549 59.8355 174.227 59.9106C173.914 59.995 173.572 60.0372 173.203 60.0372C172.615 60.0372 172.093 59.9528 171.638 59.7839C171.183 59.6056 170.803 59.357 170.5 59.038C170.197 58.7097 169.964 58.3203 169.803 57.87C169.651 57.4197 169.576 56.913 169.576 56.3501C169.576 55.1492 169.893 54.2345 170.528 53.6059C171.164 52.9773 172.046 52.663 173.174 52.663C173.658 52.663 174.108 52.7287 174.525 52.8601C174.952 52.9914 175.303 53.2072 175.578 53.5074C175.862 53.8076 176.057 54.2017 176.161 54.6895C176.275 55.1774 176.27 55.7731 176.147 56.4768H171.78C171.79 57.2179 171.979 57.809 172.349 58.25C172.728 58.6909 173.283 58.9114 174.013 58.9114C174.326 58.9114 174.649 58.8645 174.98 58.7706C175.322 58.6768 175.587 58.5549 175.777 58.4048L176.047 58.6862ZM173.117 53.4652C172.928 53.4652 172.757 53.498 172.605 53.5637C172.463 53.6294 172.335 53.7513 172.221 53.9296C172.117 54.0985 172.031 54.333 171.965 54.6332C171.899 54.9241 171.851 55.2947 171.823 55.745H174.113C174.179 55.0132 174.137 54.4503 173.985 54.0562C173.833 53.6622 173.544 53.4652 173.117 53.4652Z" fill="#C3AC3C"/>
<path d="M180.87 58.3344C180.87 58.0905 180.78 57.8794 180.6 57.7011C180.429 57.5229 180.211 57.3587 179.945 57.2086C179.689 57.0584 179.405 56.9083 179.092 56.7582C178.788 56.6081 178.504 56.4346 178.239 56.2375C177.982 56.0311 177.764 55.7919 177.584 55.5198C177.414 55.2477 177.328 54.9147 177.328 54.5206C177.328 54.2392 177.395 53.9859 177.527 53.7607C177.66 53.5262 177.84 53.3292 178.068 53.1697C178.295 53.0102 178.566 52.8882 178.879 52.8038C179.201 52.7099 179.547 52.663 179.917 52.663C180.429 52.663 180.903 52.7052 181.339 52.7897C181.785 52.8647 182.174 52.9726 182.506 53.1134C182.468 53.4136 182.392 53.7373 182.278 54.0844C182.164 54.4221 182.055 54.7317 181.951 55.0132H181.467L180.87 53.5778C180.756 53.5309 180.638 53.5027 180.514 53.4933C180.391 53.4746 180.254 53.4652 180.102 53.4652C179.817 53.4652 179.599 53.5496 179.448 53.7185C179.305 53.878 179.234 54.0609 179.234 54.2673C179.234 54.5019 179.32 54.7083 179.49 54.8865C179.67 55.0554 179.888 55.2149 180.144 55.365C180.41 55.5151 180.694 55.6652 180.998 55.8153C181.311 55.9655 181.595 56.139 181.851 56.3361C182.117 56.5237 182.335 56.7488 182.506 57.0115C182.686 57.2742 182.776 57.5885 182.776 57.9544C182.776 58.6018 182.51 59.1131 181.979 59.4884C181.448 59.8543 180.737 60.0372 179.846 60.0372C179.391 60.0372 178.921 59.9903 178.438 59.8965C177.954 59.8027 177.537 59.6713 177.186 59.5024C177.205 59.1647 177.286 58.8222 177.428 58.4751C177.57 58.128 177.722 57.8184 177.883 57.5463H178.367L179.063 59.0803C179.168 59.1553 179.282 59.2022 179.405 59.221C179.538 59.2304 179.661 59.235 179.775 59.235C180.05 59.235 180.301 59.1553 180.529 58.9958C180.756 58.8363 180.87 58.6158 180.87 58.3344Z" fill="#C3AC3C"/>
<path d="M187.288 58.3344C187.288 58.0905 187.198 57.8794 187.018 57.7011C186.847 57.5229 186.629 57.3587 186.364 57.2086C186.108 57.0584 185.823 56.9083 185.51 56.7582C185.207 56.6081 184.922 56.4346 184.657 56.2375C184.401 56.0311 184.183 55.7919 184.003 55.5198C183.832 55.2477 183.746 54.9147 183.746 54.5206C183.746 54.2392 183.813 53.9859 183.946 53.7607C184.078 53.5262 184.259 53.3292 184.486 53.1697C184.714 53.0102 184.984 52.8882 185.297 52.8038C185.619 52.7099 185.965 52.663 186.335 52.663C186.847 52.663 187.321 52.7052 187.758 52.7897C188.203 52.8647 188.592 52.9726 188.924 53.1134C188.886 53.4136 188.81 53.7373 188.696 54.0844C188.582 54.4221 188.473 54.7317 188.369 55.0132H187.886L187.288 53.5778C187.174 53.5309 187.056 53.5027 186.933 53.4933C186.809 53.4746 186.672 53.4652 186.52 53.4652C186.236 53.4652 186.018 53.5496 185.866 53.7185C185.724 53.878 185.652 54.0609 185.652 54.2673C185.652 54.5019 185.738 54.7083 185.908 54.8865C186.089 55.0554 186.307 55.2149 186.563 55.365C186.828 55.5151 187.113 55.6652 187.416 55.8153C187.729 55.9655 188.014 56.139 188.27 56.3361C188.535 56.5237 188.753 56.7488 188.924 57.0115C189.104 57.2742 189.194 57.5885 189.194 57.9544C189.194 58.6018 188.929 59.1131 188.398 59.4884C187.867 59.8543 187.155 60.0372 186.264 60.0372C185.809 60.0372 185.34 59.9903 184.856 59.8965C184.372 59.8027 183.955 59.6713 183.604 59.5024C183.623 59.1647 183.704 58.8222 183.846 58.4751C183.988 58.128 184.14 57.8184 184.301 57.5463H184.785L185.482 59.0803C185.586 59.1553 185.7 59.2022 185.823 59.221C185.956 59.2304 186.079 59.235 186.193 59.235C186.468 59.235 186.719 59.1553 186.947 58.9958C187.174 58.8363 187.288 58.6158 187.288 58.3344Z" fill="#C3AC3C"/>
<path d="M197.027 58.9237C197.283 58.9612 197.534 59.0175 197.781 59.0926C198.037 59.1582 198.264 59.238 198.463 59.3318V59.8666H193.727V59.3318C193.907 59.2286 194.097 59.1442 194.296 59.0785C194.505 59.0128 194.704 58.9612 194.893 58.9237V50.9585C194.675 50.9209 194.467 50.8693 194.268 50.8037C194.068 50.7286 193.888 50.6442 193.727 50.5503V50.0156H195.519C195.898 50.0156 196.33 49.9968 196.814 49.9593C197.307 49.9218 197.757 49.903 198.165 49.903C198.667 49.903 199.156 49.9546 199.63 50.0578C200.113 50.1516 200.54 50.3158 200.91 50.5503C201.289 50.7849 201.593 51.0992 201.82 51.4932C202.048 51.8779 202.162 52.3611 202.162 52.9427C202.162 53.4963 202.048 53.9747 201.82 54.3782C201.602 54.7816 201.308 55.1146 200.938 55.3773C200.569 55.64 200.142 55.8371 199.658 55.9684C199.175 56.0904 198.677 56.1513 198.165 56.1513C198.117 56.1513 198.042 56.1513 197.937 56.1513C197.833 56.1513 197.719 56.1513 197.596 56.1513C197.482 56.142 197.368 56.1373 197.254 56.1373C197.15 56.1279 197.074 56.1185 197.027 56.1091V58.9237ZM197.795 50.8177C197.605 50.8177 197.454 50.8271 197.34 50.8459C197.235 50.8553 197.131 50.874 197.027 50.9022V55.1803C197.112 55.2085 197.24 55.2272 197.411 55.2366C197.582 55.2366 197.719 55.2366 197.823 55.2366C198.079 55.2366 198.326 55.1944 198.563 55.1099C198.8 55.0255 199.009 54.8942 199.189 54.7159C199.378 54.5376 199.53 54.3078 199.644 54.0263C199.758 53.7449 199.815 53.4071 199.815 53.0131C199.815 52.2625 199.63 51.709 199.26 51.3525C198.89 50.996 198.402 50.8177 197.795 50.8177Z" fill="#C3AC3C"/>
<path d="M209.157 57.8242C209.157 58.0307 209.157 58.2089 209.157 58.359C209.166 58.5091 209.181 58.6686 209.2 58.8375L210.181 58.9782V59.4708C210.067 59.5271 209.911 59.5833 209.712 59.6396C209.522 59.6959 209.318 59.7522 209.1 59.8085C208.891 59.8554 208.683 59.8929 208.474 59.9211C208.266 59.9586 208.081 59.9868 207.919 60.0055H207.436C207.341 59.7898 207.284 59.574 207.265 59.3582C207.246 59.1424 207.232 58.8797 207.222 58.5701H207.151C207.104 58.7577 207.023 58.9407 206.91 59.1189C206.796 59.2878 206.649 59.4426 206.469 59.5834C206.298 59.7147 206.094 59.8226 205.857 59.907C205.62 59.9915 205.354 60.0337 205.06 60.0337C204.748 60.0337 204.458 59.9868 204.193 59.8929C203.927 59.7991 203.695 59.6678 203.496 59.4989C203.297 59.33 203.14 59.1283 203.027 58.8938C202.913 58.6498 202.856 58.3778 202.856 58.0776C202.856 57.6554 202.936 57.3082 203.098 57.0362C203.259 56.7641 203.51 56.5436 203.851 56.3747C204.202 56.1965 204.648 56.0651 205.188 55.9807C205.738 55.8963 206.402 55.8353 207.18 55.7978C207.256 54.9909 207.222 54.3999 207.08 54.0246C206.938 53.6493 206.63 53.4617 206.156 53.4617C205.862 53.4617 205.591 53.5086 205.345 53.6024L204.676 55.2911H204.051C203.975 55.1786 203.899 55.0519 203.823 54.9112C203.757 54.761 203.69 54.6062 203.624 54.4468C203.567 54.2779 203.515 54.109 203.467 53.9401C203.43 53.7713 203.401 53.6071 203.382 53.4476C203.742 53.2037 204.207 53.0113 204.776 52.8706C205.345 52.7299 205.947 52.6595 206.582 52.6595C207.123 52.6595 207.564 52.7205 207.905 52.8425C208.247 52.955 208.512 53.1145 208.702 53.3209C208.901 53.518 209.038 53.7525 209.114 54.0246C209.19 54.2966 209.228 54.5875 209.228 54.8971C209.228 55.46 209.214 55.9713 209.185 56.431C209.166 56.8814 209.157 57.3458 209.157 57.8242ZM205.957 58.9079C206.156 58.9079 206.326 58.8703 206.469 58.7953C206.611 58.7202 206.729 58.6311 206.824 58.5279C206.928 58.4247 207.004 58.3121 207.052 58.1901C207.109 58.0682 207.151 57.9603 207.18 57.8665V56.4592C206.734 56.4686 206.369 56.4967 206.085 56.5436C205.8 56.5905 205.577 56.6703 205.416 56.7829C205.255 56.8861 205.141 57.0221 205.075 57.191C205.018 57.3505 204.989 57.5475 204.989 57.782C204.989 58.1385 205.075 58.4153 205.245 58.6123C205.416 58.8093 205.653 58.9079 205.957 58.9079Z" fill="#C3AC3C"/>
<path d="M214.513 54.4468C214.399 54.5031 214.266 54.5969 214.115 54.7282C213.963 54.8596 213.825 55.0754 213.702 55.3756V58.9782C213.892 58.997 214.081 59.0345 214.271 59.0908C214.461 59.1377 214.65 59.2128 214.84 59.316V59.8648H210.715V59.316C210.886 59.2222 211.047 59.1518 211.199 59.1049C211.351 59.058 211.502 59.0158 211.654 58.9782V53.8276L210.715 53.715V53.1661C210.867 53.1005 211.052 53.0395 211.27 52.9832C211.497 52.9269 211.73 52.88 211.967 52.8425C212.204 52.7956 212.432 52.758 212.65 52.7299C212.877 52.7017 213.067 52.6783 213.219 52.6595H213.702V54.5312H213.759C213.835 54.3248 213.944 54.109 214.086 53.8839C214.238 53.6587 214.413 53.4523 214.612 53.2647C214.812 53.077 215.03 52.9269 215.267 52.8143C215.504 52.7017 215.75 52.6501 216.006 52.6595C216.111 52.7909 216.201 52.9785 216.277 53.2224C216.352 53.457 216.414 53.6822 216.461 53.8979V54.4468H214.513Z" fill="#C3AC3C"/>
<path d="M221.105 52.8284H224.433V53.3772C224.253 53.4523 224.082 53.518 223.921 53.5743C223.769 53.6306 223.598 53.6775 223.409 53.715C223.267 53.9026 223.11 54.0903 222.939 54.2779C222.778 54.4561 222.612 54.6297 222.442 54.7986C222.28 54.9675 222.124 55.1317 221.972 55.2911C221.82 55.4413 221.683 55.5773 221.56 55.6993C221.702 55.8869 221.868 56.1121 222.058 56.3747C222.247 56.6374 222.451 56.9189 222.669 57.2191C222.887 57.51 223.115 57.8102 223.352 58.1198C223.598 58.42 223.845 58.7062 224.091 58.9782L224.817 59.316V59.8648H222.413L222.029 59.5271C221.811 59.2362 221.617 58.9642 221.446 58.7108C221.285 58.4575 221.138 58.2136 221.005 57.9791C220.872 57.7445 220.744 57.5193 220.621 57.3036C220.498 57.0784 220.374 56.8579 220.251 56.6421L219.782 56.5014V58.9782C219.943 59.0064 220.09 59.0486 220.223 59.1049C220.355 59.1612 220.498 59.2315 220.649 59.316V59.8648H216.795V59.316C217.108 59.1659 217.421 59.0533 217.734 58.9782V50.4501L216.653 50.3375V49.7887C216.785 49.7324 216.966 49.6761 217.193 49.6198C217.421 49.5635 217.662 49.5166 217.918 49.4791C218.175 49.4321 218.426 49.3946 218.672 49.3665C218.919 49.3289 219.127 49.3008 219.298 49.282H219.782V55.8822H220.152C220.464 55.5538 220.754 55.1926 221.019 54.7986C221.294 54.4046 221.536 54.0433 221.745 53.715C221.621 53.6775 221.508 53.6306 221.403 53.5743C221.308 53.518 221.209 53.4523 221.105 53.3772V52.8284Z" fill="#C3AC3C"/>
<path d="M57.7833 30.3294L57.8473 30.2978C57.5593 26.8306 57.8633 24.1708 58.2314 22.5085L58.1673 22.4768C56.9352 22.7143 53.5589 22.8093 50.4227 22.6826V22.7459C54.519 23.0309 56.3432 26.6248 57.7833 30.3294ZM41.9739 45.6389H50.4387V45.5756C48.9985 45.259 48.0864 44.2932 48.0864 42.71V24.9782C48.0864 23.5534 48.1985 22.9043 48.8385 22.7459V22.6826H41.9739V22.7459C43.254 23.0626 44.0061 24.0283 44.0061 25.6115V42.71C44.0061 44.2932 43.254 45.259 41.9739 45.5756V45.6389ZM49.6866 34.4932C53.2069 34.9682 54.599 35.4431 55.6551 38.8629L55.7191 38.8312C55.4631 35.9973 55.5111 33.0842 55.8791 30.092L55.8151 30.0603C54.759 33.48 53.3669 33.955 49.6866 34.4299V34.4932Z" fill="#E4E3DD"/>
<path d="M65.9441 45.7656C70.3925 45.7972 72.3446 42.9633 72.7447 41.5859L72.6807 41.5701C71.9766 43.2325 69.9284 45.2273 67.3202 45.2273C63.9279 45.2273 62.2477 41.8868 62.2157 37.343C62.1997 33.3692 63.5598 30.092 65.352 29.7436V29.6803C60.9676 29.8386 57.8153 33.385 57.9273 38.2296C58.0394 42.995 61.3036 45.7339 65.9441 45.7656ZM63.8159 36.9472L73.0487 36.868C72.9367 32.8784 70.5685 29.8703 66.7921 29.6803V29.7436C67.9922 30.1869 68.8723 31.8493 68.9203 33.9075C68.9523 35.9181 68.1523 36.583 63.8159 36.8839V36.9472Z" fill="#E4E3DD"/>
<path d="M86.5192 45.748C87.9433 45.748 89.3515 45.2255 90.2795 44.5131L90.2475 44.4498C88.3434 45.2572 87.5433 44.0856 87.5433 41.695C87.5433 38.9403 87.6713 36.8663 87.6713 34.349C87.6713 30.3277 85.5431 29.6786 83.863 29.6786C83.1109 29.6786 82.5028 29.8052 82.1028 29.916L82.1188 29.9794C83.751 29.8211 83.703 31.5151 83.703 34.3965C83.703 37.1038 83.5749 39.5419 83.5749 42.1066C83.5749 44.1015 83.927 45.748 86.5192 45.748ZM74.3581 41.8058C74.3581 44.3548 76.2143 45.7638 78.6625 45.7638C80.6307 45.7638 81.9588 44.8456 82.5829 44.2756L82.5508 44.2123C82.0548 44.5448 81.4468 44.8139 80.8547 44.8139C79.4626 44.8139 78.6465 43.3257 78.6465 41.41C78.6465 39.1619 79.7186 36.9929 82.2628 36.5021V36.4388C79.0145 36.5496 74.3581 37.6895 74.3581 41.8058ZM75.8623 36.0272L75.9263 36.0588C77.3184 33.1141 78.8545 30.9293 80.6947 30.2485L80.6787 30.1852C79.2546 30.4702 77.4624 30.6285 76.1823 29.8527L76.1183 29.8844C76.4223 31.6259 76.3743 33.6682 75.8623 36.0272Z" fill="#E4E3DD"/>
<path d="M89.8128 29.8061V29.8694C91.253 30.2652 92.037 31.3893 92.005 33.3208L91.909 41.0151C91.861 44.3082 93.2051 45.7647 95.8454 45.7647C97.6695 45.7647 99.0937 45.0523 100.134 43.9599L100.102 43.8965C99.4297 44.4348 98.6616 44.7989 97.9416 44.7989C96.4534 44.7989 95.8454 43.2949 95.8454 40.9201V34.3499C95.8454 31.4684 97.2375 30.376 99.9097 29.8694V29.8061H96.6294C96.0694 29.8061 95.8934 29.5528 95.8454 29.1095V24.4866H95.7814C94.6133 27.3522 92.8531 29.7744 89.8128 29.8061Z" fill="#E4E3DD"/>
<path d="M99.4893 45.5765V45.6398H107.426V45.5765C106.146 45.2598 105.378 44.3099 105.378 42.7267V20.3087C103.41 21.0528 101.633 21.5594 99.3452 22.0344V22.0977C100.785 22.3352 101.537 23.1426 101.537 25.0741V42.7267C101.537 44.3099 100.769 45.2598 99.4893 45.5765ZM106.978 31.961L107.01 32.0243C107.682 31.486 108.722 30.8053 109.938 30.8053C111.426 30.8053 112.114 31.9293 112.114 34.6049C112.114 37.1222 111.97 39.6078 111.97 42.1251C111.97 44.1199 112.322 45.7665 114.707 45.7665C116.307 45.7665 117.715 45.2282 118.643 44.5157L118.611 44.4524C116.707 45.2598 115.891 44.1041 115.891 41.7135C115.891 38.9587 116.035 36.8214 116.035 34.3516C116.035 30.9478 114.435 29.6812 112.034 29.6812C109.938 29.6812 108.162 30.7103 106.978 31.961Z" fill="#E4E3DD"/>
<path d="M128.736 45.6864V45.7497C139.921 45.6547 141.426 32.7517 141.426 29.4903C139.457 30.2344 137.681 30.741 135.393 31.216V31.2793C136.833 31.5168 137.585 32.3243 137.585 34.2557C137.585 37.3113 134.929 45.1323 128.736 45.6864ZM119.183 38.0079C119.296 42.6467 122.624 45.7339 127.2 45.7656V45.7022C125.152 45.3539 123.584 41.9501 123.472 37.628C123.36 33.5275 124.816 30.0919 126.768 29.7436V29.6803C122.224 29.8386 119.071 33.385 119.183 38.0079ZM125.072 36.9472L134.305 36.868C134.193 32.8784 131.825 29.8703 128.048 29.6803V29.7436C129.248 30.1869 130.128 31.8493 130.177 33.9074C130.209 35.9181 129.408 36.583 125.072 36.8838V36.9472ZM135.057 45.6389H143.234V45.5756C141.954 45.2589 141.185 44.309 141.185 42.7258V38.7837H141.121C140.673 40.8577 138.481 45.0215 135.057 45.5756V45.6389ZM142.146 33.7491L142.21 33.765C142.706 32.6409 143.138 32.2609 143.762 32.2609C144.802 32.2609 146.066 33.7016 146.258 35.9023L146.322 35.9181C147.042 33.8599 147.714 32.2293 148.402 30.5511C147.73 30.0603 146.818 29.6011 145.858 29.6011C144.226 29.6011 142.882 30.9627 142.146 33.7491Z" fill="#E4E3DD"/>
<path d="M155.863 45.6688V45.7322C158.071 45.653 160.648 44.6714 160.648 41.7267C160.648 38.8136 157.975 37.1038 156.007 35.7739C153.543 34.1115 152.199 32.9399 152.199 31.5309C152.199 30.5018 152.871 29.8844 154.039 29.7102V29.6469C151.831 29.7261 149.255 30.8818 149.255 33.7632C149.255 36.1222 150.967 37.8637 153.559 39.6369C155.943 41.2676 157.671 42.3916 157.671 43.9431C157.671 44.9564 157.031 45.4947 155.863 45.6688ZM148.951 39.2569C149.223 41.3942 149.255 43.769 149.047 45.463L149.111 45.4947C150.311 44.9722 152.199 45.5422 154.423 45.7322V45.6688C151.623 45.0039 150.087 41.6792 149.015 39.2252L148.951 39.2569ZM155.319 29.7261C157.943 30.5968 159.175 33.8582 160.168 36.0747L160.232 36.043C159.944 33.8424 159.768 31.4992 159.976 29.8369L159.912 29.8052C158.999 30.5177 157.335 29.8211 155.319 29.6627V29.7261Z" fill="#E4E3DD"/>
<path d="M161.255 29.8061V29.8694C162.695 30.2652 163.479 31.3893 163.447 33.3208L163.351 41.0151C163.303 44.3082 164.647 45.7647 167.287 45.7647C169.111 45.7647 170.536 45.0523 171.576 43.9599L171.544 43.8965C170.872 44.4348 170.104 44.7989 169.384 44.7989C167.895 44.7989 167.287 43.2949 167.287 40.9201V34.3499C167.287 31.4684 168.679 30.376 171.352 29.8694V29.8061H168.071C167.511 29.8061 167.335 29.5528 167.287 29.1095V24.4866H167.223C166.055 27.3522 164.295 29.7744 161.255 29.8061Z" fill="#E4E3DD"/>
<path d="M179.456 45.7656V45.7022C177.408 45.3539 175.84 41.9501 175.728 37.628C175.616 33.5275 177.072 30.092 179.024 29.7436V29.6803C174.48 29.8386 171.328 33.385 171.44 38.0079C171.552 42.6467 174.88 45.7339 179.456 45.7656ZM180.464 29.7436C182.513 30.1869 184.113 33.5433 184.193 37.8021C184.273 41.9184 182.849 45.3539 180.897 45.7022V45.7656C185.585 45.6073 188.593 42.0609 188.481 37.4221C188.369 32.7992 185.041 29.712 180.464 29.6803V29.7436Z" fill="#E4E3DD"/>
<path d="M190.115 45.5765V45.6398H198.052V45.5765C196.772 45.2598 196.004 44.3099 196.004 42.7267V29.5704C194.035 30.3145 192.259 30.8211 189.971 31.2961V31.3594C191.411 31.5969 192.163 32.4043 192.163 34.3358V42.7267C192.163 44.3099 191.395 45.2598 190.115 45.5765ZM197.604 31.961L197.636 32.0243C198.308 31.486 199.348 30.8053 200.564 30.8053C202.052 30.8053 202.74 31.9293 202.74 34.6049C202.74 37.1222 202.596 39.6078 202.596 42.1251C202.596 44.1199 202.948 45.7665 205.38 45.7665C206.981 45.7665 208.389 45.2282 209.317 44.5157L209.285 44.4524C207.381 45.2598 206.565 44.1041 206.565 41.7135C206.565 38.9587 206.709 36.8214 206.709 34.3516C206.709 30.9478 205.108 29.6812 202.66 29.6812C200.564 29.6812 198.788 30.7103 197.604 31.961Z" fill="#E4E3DD"/>
<path d="M217.895 45.7656C222.344 45.7972 224.296 42.9633 224.696 41.5859L224.632 41.5701C223.928 43.2325 221.88 45.2273 219.271 45.2273C215.879 45.2273 214.199 41.8868 214.167 37.343C214.151 33.3692 215.511 30.092 217.303 29.7436V29.6803C212.919 29.8386 209.767 33.385 209.879 38.2296C209.991 42.995 213.255 45.7339 217.895 45.7656ZM215.767 36.9472L225 36.868C224.888 32.8784 222.52 29.8703 218.743 29.6803V29.7436C219.944 30.1869 220.824 31.8493 220.872 33.9075C220.904 35.9181 220.104 36.583 215.767 36.8839V36.9472Z" fill="#E4E3DD"/>
<path d="M38.9905 0.00245894C38.3135 -0.00149905 37.6437 -0.00061735 37.5022 0.00465997C37.3609 0.0100252 36.9347 0.0324937 36.555 0.05472C36.1756 0.0771925 35.6033 0.120047 35.2832 0.149767C34.9633 0.17976 34.4153 0.239997 34.0654 0.28364C33.7158 0.327574 33.0961 0.417792 32.6886 0.484458C32.281 0.550859 31.6478 0.665716 31.2814 0.739616C30.915 0.813511 30.2742 0.956481 29.8574 1.05769C29.4407 1.1589 28.7831 1.33214 28.3961 1.44298C28.0092 1.55382 27.5069 1.70403 27.2799 1.7766L26.8671 1.90854L26.2806 2.46763C25.9583 2.775 25.5432 3.18894 25.3584 3.3879C25.1736 3.58656 24.8302 3.9962 24.5953 4.29824C24.3602 4.59998 24.049 5.00857 23.9034 5.20616C23.7578 5.40349 23.5034 5.7652 23.3383 6.0094C23.173 6.25385 22.9484 6.61986 22.8388 6.82282C22.7289 7.02577 22.5571 7.36902 22.4564 7.58588C22.3555 7.80248 22.2107 8.14519 22.1341 8.34735C22.0575 8.5495 21.9539 8.86276 21.9038 9.04378C21.8537 9.22451 21.7939 9.4869 21.7709 9.62666C21.7476 9.76642 21.7203 9.97098 21.7098 10.0816L21.6911 10.2824L21.6535 10.1761C21.6326 10.1174 21.5913 9.95492 21.5612 9.81462C21.5269 9.65397 21.5006 9.39988 21.4903 9.12892C21.4806 8.86733 21.4872 8.56236 21.5068 8.35245C21.5249 8.16209 21.5631 7.86997 21.5918 7.70316C21.6204 7.53663 21.6811 7.25336 21.7263 7.07398C21.7712 6.89486 21.8689 6.57061 21.9428 6.35349C22.0169 6.13634 22.1514 5.78693 22.2418 5.57702C22.3319 5.36711 22.4981 5.02039 22.6104 4.80697C22.7229 4.59331 22.9064 4.26802 23.0184 4.08407C23.1305 3.89986 23.3031 3.62891 23.4024 3.48167C23.5017 3.33441 23.5921 3.19866 23.6032 3.18018C23.6159 3.15876 23.5705 3.16682 23.4795 3.20239C23.4003 3.23318 23.092 3.36759 22.7944 3.50093C22.4967 3.63426 21.9639 3.88622 21.6105 4.06108C21.257 4.23591 20.7762 4.48276 20.5416 4.60964C20.3072 4.73655 19.9145 4.95503 19.6688 5.09481C19.4234 5.23484 18.9972 5.48838 18.7217 5.65842C18.4465 5.82844 17.9851 6.12323 17.6966 6.31356C17.4082 6.50393 17.0003 6.78104 16.7901 6.92969C16.5798 7.07802 16.1463 7.39502 15.8262 7.63412C15.5063 7.87322 15.0251 8.24647 14.7573 8.46332C14.4894 8.67993 14.1065 8.99747 13.9062 9.16828C13.706 9.33937 13.3345 9.66465 13.0809 9.89171C12.8271 10.1185 12.1987 10.7209 11.6845 11.2304C11.1703 11.7397 10.5476 12.3793 10.3006 12.6519C10.0538 12.9242 9.69067 13.3338 9.49364 13.5622C9.29663 13.7903 8.94456 14.212 8.7113 14.4993C8.47803 14.7864 8.09187 15.2804 7.85296 15.5971C7.61401 15.9136 7.30281 16.3361 7.16129 16.5355C7.01976 16.735 6.7459 17.1326 6.55297 17.4191C6.35976 17.7056 6.06155 18.1626 5.89024 18.4352C5.71895 18.7077 5.4443 19.1594 5.28001 19.4392C5.11548 19.719 4.87437 20.1407 4.74366 20.3763C4.61295 20.612 4.31717 21.1782 4.08609 21.6348L3.66554 22.4647L3.69857 23.4822C3.71671 24.0417 3.7435 24.6683 3.75784 24.8745C3.77246 25.0806 3.80872 25.5203 3.83875 25.8517C3.86907 26.1829 3.92994 26.7372 3.97459 27.0834C4.01899 27.4296 4.11017 28.0301 4.17701 28.4181C4.24385 28.806 4.3594 29.3964 4.43409 29.73C4.50851 30.0636 4.63678 30.5817 4.71905 30.8816C4.80132 31.1812 4.94879 31.6693 5.04676 31.966C5.14472 32.2626 5.33198 32.7823 5.46269 33.1211C5.59339 33.4598 5.78823 33.9476 5.89566 34.2054C6.00282 34.463 6.16384 34.8351 6.25314 35.032C6.34244 35.2288 6.51591 35.5667 6.63849 35.7827C6.76135 35.9988 6.96836 36.3498 7.09879 36.5627C7.22896 36.7755 7.47008 37.1485 7.63409 37.3916C7.79835 37.6344 8.05517 37.9959 8.20481 38.1943C8.35473 38.3927 8.59476 38.6939 8.73845 38.8637C8.88215 39.0334 9.13219 39.299 9.29428 39.4543C9.4561 39.6093 9.66799 39.8066 9.76459 39.8923L9.94048 40.0484L9.75106 39.9068C9.64688 39.8288 9.41523 39.6422 9.23608 39.492C9.05694 39.3418 8.71949 39.0358 8.48596 38.812C8.2527 38.5881 7.90414 38.2342 7.71145 38.0256C7.51904 37.8167 7.20839 37.4671 7.02171 37.2483C6.83471 37.0296 6.54352 36.674 6.37498 36.4585C6.20612 36.2427 5.96988 35.9276 5.85 35.7584C5.73012 35.5889 5.54936 35.3238 5.44788 35.1693C5.34667 35.0146 5.164 34.7254 5.04223 34.5267C4.92045 34.3278 4.72128 33.9883 4.59951 33.7719C4.47773 33.5556 4.22687 33.0737 4.04203 32.701C3.8572 32.3283 3.61284 31.8064 3.49945 31.5414C3.38579 31.2763 3.19745 30.8064 3.08109 30.4972C2.96473 30.1879 2.80047 29.7239 2.71604 29.4663C2.63161 29.2085 2.50198 28.7868 2.42783 28.5292C2.35395 28.2714 2.23353 27.8197 2.1602 27.5251C2.08714 27.2306 2.01922 26.9385 2.0092 26.8759C1.9992 26.8132 1.98293 26.7621 1.97293 26.7621C1.96293 26.7621 1.88552 26.9819 1.80082 27.2507C1.71612 27.5195 1.57919 27.9741 1.49665 28.2614C1.41384 28.5485 1.26231 29.1209 1.15948 29.5332C1.05664 29.9456 0.917551 30.5421 0.850705 30.8586C0.783592 31.1751 0.679681 31.7052 0.619605 32.0367C0.559799 32.3679 0.480502 32.8377 0.443428 33.0809C0.406625 33.3237 0.346009 33.7575 0.308664 34.0448C0.271594 34.3318 0.217204 34.8137 0.187708 35.1157C0.158461 35.4175 0.121134 35.8333 0.105168 36.0395C0.0889443 36.2456 0.0635251 36.6191 0.048346 36.8694C0.0334558 37.1198 0.0137107 37.8066 0.00477654 38.3956C-0.00522435 39.0459 0.000784477 39.7769 0.0199417 40.2564C0.0370099 40.6907 0.069184 41.2873 0.0911015 41.5817C0.113015 41.8763 0.155785 42.3582 0.185823 42.6527C0.216137 42.9473 0.264839 43.3689 0.29434 43.5898C0.323587 43.8107 0.37228 44.154 0.402585 44.3529C0.432899 44.5516 0.500002 44.9473 0.551958 45.2322C0.603914 45.5168 0.688889 45.9506 0.741116 46.1961C0.793343 46.4413 0.88482 46.8408 0.944354 47.084C1.00389 47.3268 1.09589 47.6824 1.14866 47.8738C1.20143 48.0652 1.32213 48.4749 1.41711 48.7841C1.51209 49.0934 1.68094 49.6123 1.79217 49.9373C1.90366 50.2621 2.07631 50.7381 2.1759 50.9949C2.27548 51.2514 2.45787 51.6966 2.58127 51.9837C2.7044 52.2707 2.91656 52.7409 3.05243 53.0279C3.18827 53.3149 3.41396 53.7687 3.55389 54.0359C3.6938 54.3034 3.89568 54.677 4.00256 54.866C4.10918 55.0553 4.30077 55.3849 4.42796 55.5983C4.55542 55.8117 4.79842 56.2034 4.96836 56.4685C5.1383 56.7335 5.41216 57.1432 5.57694 57.3788C5.74202 57.6144 6.04943 58.0361 6.26052 58.3159C6.47159 58.5957 6.77629 58.9872 6.93786 59.1861C7.09915 59.3848 7.37193 59.7101 7.54348 59.909C7.71532 60.1077 8.0341 60.4638 8.25248 60.6999C8.47059 60.9363 8.88489 61.3626 9.17309 61.6477C9.46129 61.9326 9.91023 62.3583 10.1706 62.5937C10.4312 62.8288 10.8511 63.1923 11.1042 63.4012C11.3572 63.61 11.7287 63.9075 11.9295 64.062C12.1306 64.2162 12.4732 64.4711 12.691 64.628C12.9089 64.7849 13.3469 65.0835 13.6644 65.2915C13.9821 65.4993 14.4308 65.7815 14.6618 65.9183C14.8929 66.0554 15.2282 66.249 15.4069 66.3488C15.5855 66.4487 15.9751 66.6546 16.2728 66.8061C16.5705 66.958 17.0151 67.174 17.2605 67.2865C17.5062 67.3989 17.9019 67.5727 18.14 67.6723C18.3782 67.7722 18.7862 67.9347 19.0466 68.0338C19.3072 68.1328 19.788 68.3023 20.1154 68.4107C20.4429 68.5192 20.9056 68.6635 21.1438 68.7318C21.3819 68.7998 21.8387 68.9202 22.1586 68.9995C22.4787 69.0788 22.978 69.1915 23.2681 69.2496C23.5585 69.3079 23.9968 69.3877 24.2423 69.4271C24.488 69.4664 24.7438 69.5077 24.8106 69.5187L24.9324 69.539L24.77 69.6121C24.6807 69.6522 24.3971 69.7628 24.14 69.8579C23.8829 69.9529 23.4445 70.0956 23.1658 70.1749C22.887 70.2544 22.44 70.3679 22.1721 70.4274C21.9042 70.4868 21.4598 70.5722 21.1843 70.6175C20.9091 70.6624 20.4342 70.7286 20.129 70.7642C19.8237 70.7998 19.3794 70.8424 19.1412 70.8587C18.9031 70.875 18.6292 70.8959 18.5324 70.905L18.3565 70.9216L18.4647 70.9548C18.5242 70.9733 18.78 71.0501 19.033 71.1259C19.286 71.2014 19.7244 71.3227 20.0072 71.395C20.29 71.4673 20.6981 71.5623 20.9137 71.6062C21.1297 71.6498 21.4766 71.7101 21.685 71.7401C21.8933 71.7698 22.204 71.8068 22.375 71.822C22.5463 71.837 22.9969 71.8574 23.3763 71.8668C23.79 71.8769 24.282 71.8716 24.6051 71.8534C24.9014 71.8366 25.3214 71.8047 25.5387 71.7824C25.7557 71.7602 26.1224 71.7118 26.353 71.6748C26.5838 71.6379 26.9429 71.5653 27.1513 71.5134C27.3596 71.4617 27.6581 71.3827 27.8143 71.3377C27.9707 71.293 28.2811 71.1921 28.5043 71.1136C28.7276 71.0352 29.0742 70.9026 29.2747 70.8191C29.475 70.7356 29.8314 70.5722 30.0665 70.456C30.3014 70.3398 30.5937 70.1888 30.7155 70.1203C30.8373 70.052 31.0126 69.9503 31.1049 69.8943C31.1972 69.8384 31.3793 69.7232 31.5095 69.6383L31.7465 69.4839L32.0466 69.4367C32.212 69.4108 32.3741 69.3829 32.4071 69.3746L32.4672 69.3599L32.3697 69.6346C32.3162 69.7856 32.2001 70.1323 32.1121 70.4046C32.0239 70.6769 31.8786 71.1529 31.7893 71.4622C31.6997 71.7714 31.5365 72.3827 31.4267 72.8207C31.3168 73.2587 31.1655 73.9056 31.0903 74.2582C31.0148 74.6111 30.9534 74.9156 30.9536 74.9345C30.9536 74.9538 30.9861 74.9153 31.0256 74.8491C31.0651 74.7827 31.1349 74.6805 31.1804 74.6215C31.2259 74.5626 31.3244 74.4443 31.3991 74.3584C31.474 74.2724 31.6813 74.0751 31.8599 73.9195C32.0385 73.7642 32.3735 73.4973 32.6041 73.3265C32.8349 73.1557 33.2977 72.8349 33.6324 72.6137C33.9674 72.3926 34.4645 72.0732 34.7376 71.9039C35.0106 71.7345 35.6195 71.3444 36.0906 71.037C36.5618 70.7296 37.3189 70.2405 37.7727 69.9502C38.2268 69.6597 38.7686 69.32 38.9769 69.1949C39.1853 69.0699 39.4716 68.9066 39.6129 68.8319C39.7544 68.7572 39.9895 68.6522 40.136 68.5986C40.2821 68.5451 40.478 68.4942 40.5714 68.4856C40.6761 68.4757 40.7795 68.4821 40.8423 68.503C40.898 68.5212 40.9843 68.5716 41.0341 68.6147C41.0839 68.6581 41.147 68.7502 41.174 68.8195C41.2122 68.9178 41.2227 69.0184 41.2217 69.28C41.2208 69.4934 41.2027 69.6972 41.1722 69.8423C41.1456 69.9673 41.0829 70.2144 41.0328 70.3912C40.983 70.5679 40.8929 70.853 40.8328 71.0249C40.7727 71.1968 40.6759 71.4557 40.6174 71.6006C40.559 71.7454 40.4604 71.9781 40.3979 72.1181C40.3357 72.2579 40.1658 72.6078 40.0204 72.8954C39.8749 73.1829 39.6608 73.5864 39.5447 73.7924C39.4286 73.998 39.2059 74.3771 39.0498 74.6349C38.8936 74.8925 38.7191 75.172 38.6617 75.2561C38.6044 75.3399 38.5575 75.4162 38.5575 75.4256C38.5575 75.4347 38.7597 75.3391 39.0065 75.213C39.2533 75.0866 39.6096 74.8826 39.798 74.7591C39.9863 74.6357 40.2439 74.4523 40.3706 74.3513C40.4973 74.2507 40.7211 74.0531 40.8683 73.9128C41.0155 73.7725 41.2431 73.5283 41.3741 73.37C41.505 73.2118 41.6909 72.9649 41.7876 72.8212C41.8839 72.6774 42.0303 72.4329 42.1128 72.2779C42.1956 72.1229 42.318 71.8666 42.3851 71.7084C42.4519 71.5502 42.555 71.2717 42.614 71.0894C42.6727 70.907 42.7574 70.5911 42.8018 70.387C42.8462 70.183 42.8965 69.9257 42.9133 69.8154C42.9301 69.7048 42.9496 69.5878 42.9566 69.5551L42.9691 69.4957L43.1801 69.6641C43.296 69.7567 43.5393 69.9434 43.7206 70.0788L44.0502 70.3252L44.0339 70.2108C44.0247 70.1479 43.9549 69.723 43.8786 69.2665L43.7397 68.4365L43.5097 68.4191C43.3831 68.4095 43.2129 68.3884 43.1309 68.372C43.0491 68.3557 42.775 68.3134 42.522 68.278C42.269 68.2424 41.9037 68.1881 41.7102 68.157C41.5167 68.126 41.1635 68.0638 40.9254 68.0191C40.6873 67.9744 40.2429 67.8839 39.9377 67.8178C39.6327 67.7516 39.1699 67.6429 38.9093 67.5763C38.649 67.5093 38.2837 67.4129 38.0975 67.3615C37.9116 67.3104 37.5035 67.1894 37.1909 67.093C36.8784 66.9963 36.3304 66.8148 35.9732 66.6895C35.616 66.5642 35.0436 66.3505 34.7013 66.2145C34.359 66.0785 33.8354 65.8606 33.5377 65.7302C33.24 65.5995 32.6374 65.3157 32.1982 65.0994C31.7592 64.8831 31.1574 64.5722 30.8614 64.4084C30.5651 64.2448 30.1573 64.0126 29.9548 63.8927C29.7524 63.7727 29.3373 63.5186 29.032 63.328C28.727 63.1374 28.2705 62.8415 28.0181 62.6702C27.7653 62.4988 27.3394 62.1973 27.0714 62C26.8035 61.8027 26.4014 61.4958 26.1776 61.3178C25.954 61.1397 25.6069 60.8545 25.4058 60.684C25.205 60.5135 24.8822 60.2318 24.6887 60.0583C24.4952 59.8846 24.0706 59.4819 23.7454 59.1632C23.4198 58.8444 22.9936 58.4149 22.7982 58.2084C22.6026 58.0023 22.277 57.6467 22.0746 57.4186C21.8725 57.1905 21.5372 56.7991 21.3302 56.5487C21.1229 56.2984 20.8 55.8947 20.6125 55.6518C20.425 55.4087 20.1154 54.9932 19.9244 54.7281C19.7336 54.463 19.4048 53.987 19.194 53.6705C18.9829 53.3538 18.6457 52.8237 18.4446 52.4925C18.2433 52.161 17.9532 51.6611 17.8 51.3813C17.6469 51.1015 17.3725 50.5714 17.1903 50.2033C17.0082 49.8351 16.7536 49.2988 16.6248 49.0118C16.4957 48.7245 16.283 48.2244 16.152 47.9004C16.021 47.5761 15.8284 47.076 15.7242 46.7892C15.62 46.5022 15.4668 46.0625 15.3843 45.8123C15.3015 45.5619 15.1532 45.0799 15.0544 44.7413C14.9559 44.4026 14.8103 43.8663 14.7308 43.5493C14.6512 43.2323 14.5373 42.7445 14.4777 42.4649C14.4179 42.1854 14.3316 41.7519 14.2861 41.5016C14.2404 41.2512 14.1668 40.8054 14.1227 40.5109C14.0783 40.2164 14.0117 39.7042 13.9744 39.373C13.9371 39.0415 13.8878 38.5296 13.8651 38.2351C13.8421 37.9406 13.8099 37.3031 13.7931 36.8182C13.7706 36.1608 13.7707 35.7153 13.794 35.0644C13.8111 34.5846 13.8432 33.9329 13.8654 33.6165C13.8873 33.2998 13.9239 32.854 13.9463 32.6259C13.9688 32.3975 14.024 31.9276 14.0689 31.5817C14.1141 31.2355 14.1985 30.6753 14.2567 30.3367C14.3149 29.998 14.4123 29.4799 14.4732 29.1854C14.5341 28.8909 14.6553 28.3607 14.743 28.0073C14.8304 27.6539 14.9825 27.0876 15.0813 26.7489C15.1798 26.4102 15.3559 25.8501 15.4728 25.5039C15.5895 25.1577 15.7784 24.63 15.8923 24.3309C16.0065 24.0321 16.1954 23.5623 16.312 23.2867C16.4286 23.0115 16.6243 22.5695 16.7463 22.3044C16.8687 22.0393 17.1071 21.5512 17.2762 21.22C17.4456 20.8885 17.7189 20.3769 17.884 20.0829C18.049 19.7887 18.3188 19.3247 18.4833 19.0521C18.6479 18.7793 18.9926 18.2427 19.2492 17.8598C19.5057 17.4769 19.8516 16.9789 20.0177 16.753C20.1839 16.527 20.4439 16.1837 20.5957 15.9899C20.7475 15.7961 21.0195 15.4627 21.1999 15.2493C21.3804 15.0357 21.6806 14.6924 21.867 14.4863C22.0534 14.2801 22.4905 13.8169 22.8384 13.4571C23.1862 13.0972 23.6354 12.6525 23.8362 12.4691C24.0373 12.2857 24.5417 11.8452 24.9573 11.4903C25.3733 11.1355 25.8482 10.7392 26.0127 10.6102C26.1775 10.4809 26.6533 10.1419 27.07 9.85675C27.4868 9.5716 27.9982 9.23051 28.2066 9.0988C28.4149 8.96707 28.8108 8.72611 29.0861 8.56303C29.3616 8.40024 29.7572 8.1748 29.9656 8.06181C30.1739 7.94909 30.5292 7.76756 30.755 7.65832C30.9807 7.54908 31.3371 7.38682 31.5468 7.2982C31.7565 7.20957 32.1086 7.07651 32.3294 7.00262C32.5503 6.92872 32.8636 6.83821 33.026 6.8018C33.1883 6.76539 33.4065 6.73568 33.5106 6.73541C33.6487 6.73541 33.7228 6.74903 33.7837 6.78574C33.8305 6.8141 33.8952 6.8931 33.9312 6.96646C33.9688 7.04304 33.9958 7.14692 33.9964 7.21949C33.9973 7.31347 33.9788 7.36942 33.9166 7.45831C33.8719 7.5223 33.7442 7.65189 33.6324 7.7464C33.5209 7.84065 32.9608 8.22915 32.3876 8.60934C31.8147 8.98954 31.1206 9.45996 30.8451 9.65491C30.5699 9.84983 30.0766 10.2096 29.7491 10.4544C29.4217 10.6994 28.8109 11.1735 28.3918 11.5085C27.9729 11.8432 27.5466 12.1913 27.4446 12.2817C27.3429 12.3722 26.8493 12.8426 26.3481 13.3268C25.8467 13.8111 25.2982 14.3603 25.1288 14.5477C24.9596 14.7349 24.7486 14.9732 24.6601 15.077C24.5716 15.1809 24.3489 15.4388 24.1646 15.65C23.9806 15.8612 23.6905 16.2074 23.5197 16.4192C23.349 16.631 23.0564 17.0117 22.8695 17.2653C22.6825 17.5189 22.3442 18.0032 22.1177 18.3419C21.8912 18.6806 21.5927 19.1444 21.4544 19.3728C21.3158 19.6009 21.0701 20.0226 20.908 20.3099C20.7457 20.5969 20.4458 21.1632 20.2412 21.5683C20.0366 21.9731 19.762 22.5447 19.631 22.8385C19.5 23.1319 19.3165 23.5598 19.2232 23.789C19.1295 24.0182 18.9896 24.3743 18.912 24.5804C18.834 24.7865 18.6982 25.166 18.6097 25.4238C18.5212 25.6814 18.3694 26.1574 18.2725 26.4814C18.1754 26.8053 18.019 27.3775 17.9245 27.7532C17.8301 28.1285 17.7029 28.6801 17.6417 28.9786C17.5806 29.2772 17.4891 29.7712 17.4382 30.0764C17.3876 30.3816 17.3146 30.8724 17.2764 31.1669C17.238 31.4614 17.1828 31.9674 17.1536 32.2914C17.1243 32.6154 17.0854 33.1273 17.0672 33.4294C17.0488 33.7311 17.0339 34.5204 17.0337 35.1831C17.0337 36.0666 17.0461 36.5558 17.0805 37.0171C17.1062 37.363 17.1517 37.8691 17.1817 38.1416C17.2115 38.4139 17.2718 38.8838 17.3156 39.1859C17.3595 39.4876 17.432 39.9334 17.4769 40.1765C17.5219 40.4193 17.5957 40.7928 17.6415 41.0065C17.6872 41.2199 17.7835 41.6357 17.8555 41.9302C17.9278 42.2247 18.0674 42.7426 18.1662 43.0813C18.2649 43.4197 18.4365 43.9645 18.5475 44.292C18.6584 44.6191 18.8414 45.1254 18.9542 45.4168C19.067 45.7081 19.2364 46.1271 19.3303 46.348C19.4242 46.5689 19.5936 46.9512 19.7065 47.1978C19.8196 47.4444 20.0293 47.8781 20.1725 48.1617C20.3159 48.4452 20.5489 48.8881 20.6905 49.146C20.832 49.4035 21.0758 49.8252 21.2322 50.0831C21.3883 50.3406 21.6654 50.7763 21.8481 51.0509C22.0305 51.3256 22.3531 51.7894 22.5649 52.0818C22.7768 52.3741 23.1113 52.8181 23.3085 53.0684C23.5058 53.3188 23.8059 53.688 23.9756 53.8888C24.1453 54.0896 24.4659 54.4572 24.6884 54.7054C24.9111 54.9536 25.4039 55.465 25.7838 55.8415C26.1637 56.2182 26.6573 56.6881 26.8806 56.886C27.1039 57.0838 27.4389 57.373 27.6248 57.5286C27.8109 57.6841 28.1113 57.9275 28.2926 58.0694C28.4737 58.2113 28.7844 58.4461 28.9827 58.5912C29.1808 58.7363 29.5015 58.9631 29.6949 59.0948C29.8884 59.2266 30.1999 59.4324 30.3869 59.5524C30.5742 59.6724 30.9701 59.9149 31.2669 60.0914C31.5635 60.2678 32.0268 60.5332 32.2963 60.6809C32.5656 60.8287 33.056 61.0831 33.3855 61.2464C33.7154 61.4098 34.1841 61.6325 34.4271 61.7415C34.6704 61.8505 35.079 62.0256 35.3355 62.1311C35.5921 62.2363 36.0232 62.4044 36.2935 62.5046C36.5638 62.6047 37.065 62.7779 37.4073 62.8896C37.7496 63.0015 38.2186 63.1469 38.4492 63.213C38.68 63.2791 39.0575 63.382 39.2881 63.4414C39.5189 63.5006 39.9511 63.6026 40.2487 63.6679C40.5464 63.7332 40.991 63.8237 41.2365 63.8687C41.4819 63.9137 41.8353 63.9742 42.0212 64.0031C42.2074 64.032 42.5544 64.0802 42.7925 64.1105C43.0306 64.1405 43.4252 64.1839 43.6692 64.2063C43.9136 64.2291 44.1174 64.2433 44.1225 64.2382C44.1277 64.2331 44.2527 63.8205 44.4007 63.3214C44.5487 62.8221 44.667 62.4111 44.6637 62.4079C44.6602 62.4044 44.4524 62.5458 44.2012 62.722C43.9501 62.8979 43.7325 63.0419 43.7182 63.0419C43.7017 63.0419 43.6982 62.9726 43.7085 62.8612C43.7179 62.7618 43.7333 62.4213 43.7431 62.1048C43.7543 61.7463 43.7486 61.3423 43.728 61.0338C43.7102 60.7613 43.672 60.35 43.6433 60.1195C43.6147 59.8889 43.5603 59.5334 43.5224 59.3296C43.4845 59.1256 43.4106 58.784 43.3576 58.5706C43.3048 58.3572 43.1974 57.9891 43.1186 57.7529C43.0401 57.5167 42.9121 57.174 42.8345 56.9914C42.7568 56.8088 42.6507 56.5759 42.5991 56.4742C42.5474 56.3724 42.5019 56.2934 42.4981 56.2988C42.4941 56.3039 42.5017 57.007 42.5138 57.8611C42.5263 58.7152 42.5296 59.8055 42.5215 60.2842C42.5133 60.7627 42.4944 61.3351 42.4793 61.556C42.4641 61.7769 42.4276 62.1081 42.3981 62.2922C42.3689 62.4762 42.3147 62.7249 42.2779 62.8446C42.2411 62.9643 42.1713 63.1206 42.1229 63.1919C42.0744 63.2633 41.9935 63.349 41.9429 63.3825C41.8923 63.4163 41.8133 63.4435 41.767 63.4433C41.721 63.443 41.6185 63.4133 41.5397 63.3769C41.4607 63.3407 41.3224 63.2414 41.2323 63.1562C41.1319 63.0617 41.0115 62.9062 40.9216 62.7554C40.841 62.6199 40.7035 62.3549 40.6158 62.1664C40.5284 61.9779 40.3937 61.6671 40.3163 61.4756C40.2389 61.2842 40.0862 60.8625 39.9772 60.5385C39.8681 60.2145 39.7296 59.7625 39.6692 59.5344C39.6092 59.306 39.5302 58.9749 39.4939 58.7982C39.4576 58.6215 39.403 58.3082 39.3724 58.102C39.3415 57.8959 39.2977 57.5406 39.2747 57.3122C39.252 57.0838 39.2257 56.6139 39.2162 56.268C39.206 55.8741 39.2118 55.4835 39.2314 55.2238C39.2489 54.9954 39.2817 54.6843 39.3042 54.5319C39.3269 54.3796 39.3797 54.1207 39.4216 53.9563C39.4638 53.7919 39.4958 53.6545 39.4928 53.651C39.4893 53.6475 39.0358 54.5451 38.484 55.6457C37.9325 56.7464 37.362 57.8969 37.217 58.2024C37.0716 58.5079 36.9442 58.758 36.9336 58.758C36.923 58.758 36.8749 58.6565 36.8265 58.5325L36.7385 58.3074L36.732 56.3169C36.7275 55.0427 36.7093 53.9367 36.6808 53.2424C36.6565 52.6459 36.624 51.9715 36.6086 51.743C36.5932 51.5147 36.5693 51.2196 36.5553 51.0871C36.5412 50.9545 36.5047 50.5508 36.4741 50.1902C36.4435 49.8292 36.4059 49.4316 36.3907 49.3066C36.3759 49.1813 36.3515 49.0006 36.3369 48.905C36.3223 48.8091 36.3034 48.6969 36.2949 48.6554C36.2863 48.6139 36.2746 48.5845 36.2687 48.5901C36.263 48.5957 36.1434 49.0696 36.0027 49.6429C35.862 50.2164 35.6671 51.041 35.5697 51.4754C35.472 51.9096 35.3254 52.5833 35.2434 52.972C35.1616 53.3608 35.0907 53.6829 35.0859 53.6877C35.081 53.6921 35.0372 53.5611 34.9882 53.3956C34.9392 53.2304 34.8201 52.812 34.7235 52.466C34.6272 52.1198 34.4524 51.4572 34.3352 50.9934C34.218 50.5294 34.0551 49.8547 33.9731 49.4941C33.8911 49.1331 33.7447 48.4464 33.6478 47.9679C33.551 47.4892 33.4038 46.7122 33.3209 46.2409C33.2379 45.7697 33.1091 45.0406 33.0344 44.6211C32.9597 44.2013 32.8441 43.5748 32.7773 43.2288C32.7105 42.8826 32.5943 42.3163 32.5194 41.9704C32.4444 41.6242 32.3061 41.028 32.2117 40.6451C32.1173 40.2622 31.9714 39.7138 31.8875 39.4268C31.8036 39.1395 31.621 38.5371 31.4816 38.0881C31.3422 37.6388 31.1477 37.0003 31.0489 36.669C30.9501 36.3376 30.8021 35.8195 30.7198 35.5177C30.6378 35.2157 30.5101 34.7159 30.436 34.4066C30.3621 34.0974 30.2422 33.549 30.1697 33.1884C30.0972 32.8275 30.023 32.439 30.0049 32.3249C29.9867 32.2109 29.9613 32.1174 29.9483 32.1174C29.9356 32.1174 29.7822 32.2036 29.6071 32.3089C29.4323 32.4143 29.025 32.6725 28.7022 32.8826C28.3793 33.0928 27.8679 33.4368 27.5656 33.6476C27.2633 33.8583 26.675 34.2835 26.2583 34.5927C25.8415 34.902 25.1902 35.4013 24.8105 35.7023C24.4311 36.0033 23.8953 36.4373 23.6198 36.6667C23.3446 36.8962 22.9365 37.2405 22.7133 37.4317C22.49 37.6229 22.1188 37.9479 21.8879 38.1541C21.6573 38.36 21.5034 38.4869 21.5461 38.4357C21.5889 38.3843 21.8514 38.1075 22.1293 37.8204C22.4072 37.5331 22.7314 37.1958 22.8497 37.0702C22.9682 36.9447 23.2358 36.6496 23.4445 36.4142C23.6531 36.1789 23.9527 35.8357 24.1102 35.6517C24.2677 35.4675 24.6327 35.0694 24.9215 34.7668C25.2102 34.4642 25.6245 34.0246 25.8421 33.7895C26.0597 33.5547 26.468 33.1395 26.7498 32.8671C27.0315 32.5946 27.4745 32.1849 27.7342 31.9563C27.994 31.7279 28.365 31.4077 28.5585 31.2449C28.752 31.0821 29.1022 30.7954 29.3366 30.6077L29.7628 30.2666V29.2845C29.763 28.7442 29.7752 28.1032 29.7904 27.8603C29.8053 27.6175 29.8421 27.1776 29.8718 26.8831C29.9019 26.5885 29.9508 26.1789 29.9809 25.9727C30.0109 25.7665 30.0732 25.3931 30.1192 25.143C30.1652 24.8926 30.2485 24.4951 30.3048 24.2594C30.3608 24.0235 30.4926 23.5234 30.5979 23.148C30.7029 22.7723 30.8187 22.3809 30.8547 22.2778C30.891 22.1747 31.075 21.6987 31.2639 21.2202C31.5469 20.5026 31.6811 20.2068 32.0292 19.5334C32.2611 19.0841 32.5111 18.6083 32.5848 18.4758C32.6586 18.3433 32.9003 17.9607 33.1225 17.6254C33.3447 17.2905 33.5333 16.9981 33.5417 16.9762C33.5509 16.9529 33.542 16.9365 33.5206 16.9368C33.5003 16.9371 33.2686 16.9491 33.0056 16.9636C32.693 16.9807 32.1778 16.9807 31.5172 16.9633C30.9616 16.9489 30.3793 16.924 30.2229 16.9079C30.0668 16.8918 29.7634 16.8495 29.5494 16.8139C29.3351 16.7783 29.0184 16.7138 28.8458 16.6704C28.6728 16.6271 28.4219 16.5532 28.288 16.5066C28.154 16.4597 27.9714 16.3869 27.8821 16.3443C27.7384 16.276 27.7305 16.2685 27.8144 16.2795C27.8666 16.2865 28.098 16.3002 28.3286 16.31C28.5857 16.321 28.8896 16.3157 29.1134 16.2964C29.3144 16.2792 29.6797 16.2345 29.9252 16.197C30.1709 16.1596 30.4553 16.1116 30.5579 16.0905C30.6602 16.0693 30.989 16.0104 31.2885 15.9598C31.5878 15.9092 32.0157 15.83 32.2389 15.7842C32.4622 15.7381 32.791 15.665 32.9696 15.6216C33.1482 15.5785 33.6255 15.4889 34.0301 15.4227C34.4349 15.3566 34.7835 15.2958 34.8052 15.2878C34.8265 15.2795 34.9835 15.114 35.1537 14.9199C35.3242 14.7255 35.6527 14.3678 35.8838 14.125C36.1152 13.8818 36.51 13.4947 36.7611 13.2642C37.0125 13.0339 37.3719 12.7145 37.5594 12.5546C37.7472 12.3948 38.0925 12.1145 38.3269 11.9316C38.5612 11.749 38.9739 11.4435 39.244 11.2532C39.514 11.0631 39.9419 10.7774 40.1949 10.6189C40.4479 10.4601 40.8376 10.2242 41.0609 10.0944C41.2841 9.96478 41.7701 9.70507 42.1412 9.51764L42.8155 9.1768L42.5471 9.09568C42.3993 9.05096 42.1144 8.96609 41.9133 8.90691C41.7122 8.84801 41.4568 8.77625 41.345 8.74787C41.2335 8.71951 40.6341 8.60783 40.0134 8.49993C39.3926 8.3923 38.8882 8.3002 38.8928 8.29565C38.8972 8.29108 39.2835 8.27397 39.7511 8.25735C40.2184 8.24077 40.8322 8.22788 41.115 8.22898C41.3978 8.22986 41.8361 8.24397 42.0892 8.26029C42.3422 8.27661 42.8962 8.30155 43.3205 8.31599C43.7448 8.33046 44.2062 8.35829 44.3461 8.37783L44.6002 8.41319L44.8602 8.3136C45.0031 8.25871 45.3148 8.1476 45.553 8.06673C45.7911 7.98588 46.193 7.8587 46.446 7.784C46.699 7.7093 47.0703 7.60568 47.2714 7.554C47.4724 7.50233 47.8315 7.41692 48.0697 7.36444C48.3078 7.3117 48.734 7.22762 49.0168 7.17729C49.2996 7.12695 49.7502 7.05573 50.0181 7.01931C50.286 6.98264 50.694 6.93391 50.9246 6.91142C51.1555 6.88869 51.5329 6.85518 51.7635 6.83698C52.0106 6.81745 52.6725 6.80377 53.3736 6.80377C54.0789 6.80377 54.7354 6.81746 54.9838 6.83724C55.2146 6.85545 55.5859 6.88865 55.8092 6.91087C56.0324 6.93308 56.4708 6.98772 56.7834 7.03217C57.0959 7.07688 57.5893 7.15987 57.8793 7.21718C58.1697 7.27421 58.5875 7.36364 58.8083 7.41612C59.0292 7.4686 59.4188 7.57087 59.6743 7.64343C59.9297 7.71625 60.3278 7.83781 60.5584 7.91384C60.7892 7.98962 61.1789 8.12805 61.4243 8.22095C61.67 8.31413 62.0597 8.47103 62.2903 8.56983C62.5211 8.66863 62.9717 8.87988 63.2915 9.0392C63.6116 9.19878 64.0438 9.42796 64.2522 9.54846C64.4605 9.66921 64.7871 9.86895 64.9777 9.99211C65.1684 10.1155 65.3181 10.206 65.31 10.1932C65.3021 10.1803 64.8781 9.85663 64.368 9.47376C63.8578 9.09088 63.1846 8.59125 62.872 8.36344C62.5595 8.13586 62.0299 7.75915 61.6949 7.52673C61.3601 7.29433 60.8059 6.92054 60.4636 6.69616C60.1213 6.47206 59.6769 6.18612 59.4758 6.06136C59.2751 5.93632 58.863 5.68679 58.5601 5.50715C58.2573 5.32723 57.7342 5.0284 57.3978 4.84313C57.0615 4.65785 56.4448 4.33386 56.0272 4.12343C55.6097 3.91272 55.0122 3.62381 54.6996 3.48115C54.3871 3.33844 53.9206 3.13227 53.6627 3.02302C53.405 2.91378 52.9531 2.72931 52.6584 2.61284C52.3637 2.49637 51.8379 2.2993 51.4899 2.17508C51.1417 2.05057 50.65 1.8819 50.397 1.79996C50.1439 1.71803 49.7107 1.58523 49.4344 1.50463C49.1578 1.42378 48.6767 1.29098 48.3655 1.20905C48.054 1.12712 47.5371 1.00075 47.2173 0.927925C46.8974 0.854829 46.4141 0.752284 46.1438 0.699809C45.8732 0.647327 45.3983 0.562723 45.0884 0.512118C44.7783 0.461245 44.3889 0.400461 44.223 0.376902L43.9213 0.333808L43.5871 0.40102C43.4033 0.437961 43.0702 0.520966 42.8469 0.58549C42.6237 0.650019 41.9782 0.848681 41.4127 1.02672C40.8471 1.20504 40.2626 1.39406 40.1138 1.4468C39.9649 1.49955 39.7763 1.56835 39.6943 1.59968C39.6126 1.63126 39.034 1.89099 38.4089 2.17746C37.7838 2.46368 37.2602 2.70467 37.2453 2.71241C37.2272 2.72204 37.2272 2.71777 37.2453 2.6993C37.2602 2.6843 37.7292 2.36087 38.2872 1.98097C38.8454 1.60131 39.4007 1.22672 39.5214 1.14883C39.6421 1.07092 40.0418 0.843872 40.4098 0.644099C40.7778 0.444362 41.1526 0.244356 41.2424 0.199397C41.3323 0.154685 41.3951 0.108093 41.3821 0.0963114C41.3691 0.0845253 41.1028 0.0601593 40.7902 0.0424935C40.4777 0.0248145 39.6681 0.00687695 38.9907 0.00287499L38.9905 0.00245894ZM9.96435 40.0437C9.97004 40.0437 9.99116 40.0648 10.0117 40.0905L10.0488 40.1374L10.0014 40.1007C9.97542 40.0803 9.95407 40.0595 9.95407 40.0538C9.95407 40.0482 9.95871 40.0437 9.96435 40.0437ZM32.9117 7.45886C32.869 7.45974 32.7488 7.48807 32.6446 7.52206C32.5405 7.55632 32.3213 7.63478 32.1575 7.69689C31.9938 7.75874 31.6407 7.92153 31.3728 8.05835C31.1049 8.19543 30.6908 8.41284 30.4527 8.54187C30.2145 8.67093 29.7824 8.90977 29.492 9.07256C29.2019 9.23509 28.7816 9.48864 28.5584 9.63565C28.3352 9.78264 28.0064 10.0054 27.8278 10.1304C27.6492 10.2555 27.3391 10.479 27.1388 10.6268C26.9385 10.7746 26.6219 11.0161 26.4352 11.1631C26.2485 11.3101 25.9194 11.5768 25.7035 11.7556C25.4878 11.9345 25.1163 12.2539 24.8781 12.4654C24.64 12.677 24.1096 13.1819 23.6996 13.5878C23.2894 13.9935 22.779 14.5182 22.5652 14.7539C22.3514 14.9895 21.9929 15.4002 21.7683 15.6663C21.5439 15.9324 21.2189 16.33 21.0465 16.5499C20.8741 16.7697 20.5989 17.1301 20.4355 17.351C20.2717 17.5718 19.8599 18.1863 19.5205 18.7165C19.1809 19.2466 18.8275 19.8011 18.7352 19.9486C18.6427 20.0962 18.2874 20.7649 17.9456 21.4346C17.6041 22.1043 17.2363 22.851 17.1284 23.0936C17.0207 23.3364 16.8716 23.6979 16.7969 23.8968C16.7222 24.096 16.5755 24.4749 16.4711 24.7392C16.3669 25.0032 16.2026 25.449 16.1065 25.7298C16.0105 26.0104 15.8538 26.5053 15.7583 26.8292C15.663 27.1532 15.5247 27.6592 15.4514 27.9537C15.3778 28.2482 15.2682 28.724 15.2073 29.0113C15.1467 29.2983 15.0542 29.772 15.0019 30.0632C14.9497 30.3548 14.8709 30.8367 14.8268 31.1342C14.7827 31.4319 14.7159 31.9342 14.678 32.251C14.6404 32.5674 14.573 33.3929 14.5284 34.085L14.4474 35.3434L14.4743 36.1199C14.4891 36.5469 14.5192 37.3076 14.5411 37.8101L14.5806 38.7239L14.7148 39.6709C14.7884 40.1917 14.8807 40.8469 14.9197 41.1267C14.9584 41.4065 15.0577 41.9484 15.1402 42.331C15.2228 42.7136 15.3443 43.2432 15.4106 43.508C15.4766 43.7728 15.5794 44.1586 15.639 44.3653C15.6985 44.572 15.8154 44.9581 15.8987 45.2231C15.9821 45.4882 16.1409 45.9581 16.2519 46.2674C16.3628 46.5766 16.5574 47.0885 16.6843 47.4053C16.8115 47.7217 17.0445 48.2701 17.2023 48.6235C17.3601 48.9769 17.6672 49.6214 17.8851 50.0559C18.1026 50.4902 18.4228 51.1023 18.5965 51.4156C18.77 51.7291 19.0414 52.199 19.1994 52.4597C19.3578 52.7208 19.6525 53.1808 19.8546 53.4823C20.0565 53.7838 20.3715 54.2333 20.5541 54.4815C20.7368 54.7297 21.0164 55.0976 21.1755 55.2989C21.3343 55.5003 21.6371 55.8701 21.8482 56.1204C22.059 56.3707 22.3507 56.708 22.4963 56.87C22.6419 57.032 22.9875 57.4042 23.2648 57.6971C23.5419 57.9898 24.111 58.5572 24.5294 58.9577C24.9478 59.3582 25.4836 59.8498 25.7201 60.0503C25.9566 60.2509 26.3571 60.5762 26.6101 60.773C26.8631 60.9698 27.3868 61.369 27.7737 61.66C28.3312 62.0796 28.6851 62.3179 29.4781 62.8078C30.0285 63.1481 30.7042 63.5572 30.98 63.7171C31.2557 63.8767 31.8708 64.1982 32.3471 64.4317C32.8233 64.6649 33.4292 64.9541 33.6934 65.0743C33.9575 65.1943 34.3758 65.3766 34.6232 65.4794C34.8708 65.582 35.3184 65.7576 35.6179 65.8695C35.9175 65.9817 36.4125 66.1552 36.7174 66.2556C37.0227 66.3558 37.5279 66.5102 37.8405 66.5991C38.153 66.6878 38.6528 66.8208 38.9513 66.895C39.2498 66.9692 39.7188 67.0779 39.994 67.1365C40.2692 67.1949 40.7008 67.2797 40.9533 67.325C41.2057 67.37 41.6014 67.4361 41.8319 67.4717C42.0628 67.5076 42.489 67.567 42.7791 67.604C43.0694 67.6412 43.4957 67.6899 43.7262 67.7127C43.9571 67.7352 44.377 67.7713 44.6598 67.7927C44.9426 67.8144 45.5027 67.846 45.9046 67.8634C46.3679 67.8833 47.1056 67.8892 47.9207 67.8792C48.7063 67.8696 49.3955 67.8476 49.6932 67.8225C49.9611 67.8 50.357 67.7627 50.5727 67.7397C50.7886 67.7169 51.1965 67.668 51.4793 67.6305C51.7621 67.5932 52.2492 67.5207 52.5617 67.469C52.8743 67.4176 53.3979 67.3212 53.7253 67.2551C54.0528 67.189 54.6159 67.0631 54.9766 66.9758C55.3376 66.8883 55.9099 66.7378 56.2485 66.6414C56.5873 66.545 57.1534 66.3707 57.5063 66.2537C57.8594 66.137 58.3933 65.9499 58.6929 65.8382C58.9922 65.7266 59.4279 65.5565 59.6608 65.4604C59.8938 65.3646 60.3038 65.1884 60.5717 65.0692C60.8396 64.9501 61.412 64.6762 61.8436 64.4606C62.2752 64.2451 62.8521 63.9449 63.126 63.7937C63.3996 63.6421 63.8258 63.3977 64.0732 63.2499C64.3202 63.1021 64.7115 62.8579 64.9421 62.7074C65.2684 62.4943 65.413 62.38 65.5937 62.1923C65.781 61.9974 65.8527 61.8975 65.9666 61.6729C66.0491 61.5101 66.1238 61.3173 66.1468 61.2076C66.1682 61.1045 66.1861 60.9513 66.1863 60.8675C66.1866 60.7835 66.1733 60.6509 66.1568 60.573C66.14 60.4948 66.0954 60.3647 66.0573 60.2838C66.0151 60.1939 65.9187 60.0686 65.8102 59.9623C65.7122 59.8662 65.5691 59.7545 65.492 59.7138C65.4151 59.6734 65.2579 59.6164 65.1426 59.5872C65.0114 59.5539 64.8438 59.5342 64.6931 59.5342C64.5608 59.5342 64.3589 59.5532 64.2442 59.5767C64.1294 59.6 63.9386 59.6568 63.8204 59.7028C63.7021 59.7492 63.5073 59.8485 63.3874 59.924C63.2675 59.9995 62.9626 60.1936 62.7095 60.3553C62.4565 60.5173 62.0912 60.7436 61.8977 60.8587C61.7042 60.9736 61.2937 61.2044 60.9854 61.3714C60.6769 61.5382 60.1776 61.7974 59.8759 61.9467C59.5739 62.0964 59.1685 62.2905 58.9751 62.3786C58.7816 62.4664 58.3981 62.6316 58.1226 62.746C57.8474 62.8603 57.4047 63.0343 57.1393 63.1326C56.8738 63.2311 56.4779 63.3719 56.2598 63.4458C56.0416 63.5195 55.6013 63.6587 55.2812 63.7548C54.9614 63.8512 54.3682 64.0132 53.9634 64.1149C53.5585 64.2164 52.8947 64.3656 52.4885 64.4459C52.0821 64.5262 51.4697 64.6344 51.1273 64.686C50.785 64.738 50.2311 64.8105 49.8961 64.8472C49.5613 64.8839 49.0986 64.927 48.8678 64.9428C48.6372 64.9589 47.9125 64.979 47.2576 64.9875C46.5094 64.9971 45.8055 64.9915 45.3634 64.9717C44.9764 64.9543 44.4284 64.9222 44.1456 64.9002C43.8628 64.8783 43.4122 64.8365 43.1444 64.8073C42.8765 64.7781 42.438 64.7238 42.1701 64.6863C41.9022 64.6491 41.4747 64.583 41.2198 64.5399C40.9651 64.4968 40.5448 64.4183 40.2862 64.3658C40.0275 64.3133 39.5479 64.2057 39.2205 64.1264C38.8931 64.0475 38.4303 63.927 38.1922 63.8587C37.9541 63.7904 37.5828 63.6796 37.3668 63.6127C37.1512 63.5455 36.7552 63.4124 36.4873 63.3171C36.2194 63.2215 35.7889 63.0592 35.5307 62.9564C35.2723 62.8533 34.8645 62.6812 34.6241 62.5738C34.3838 62.4662 33.969 62.2801 33.7022 62.1599C33.4356 62.0394 33.0516 61.8578 32.849 61.7561C32.6463 61.6544 32.2496 61.4399 31.9673 61.2793C31.6851 61.1189 31.1008 60.7778 30.6692 60.5215C30.0536 60.1561 29.6983 59.9204 29.0201 59.4281C28.5446 59.0832 27.9785 58.6629 27.7617 58.4944C27.545 58.3257 27.2703 58.1065 27.1512 58.0068C27.0322 57.907 26.8373 57.738 26.7183 57.6315C26.5992 57.5246 26.2017 57.1565 25.835 56.8135C25.4683 56.4705 24.9506 55.9629 24.6849 55.6855C24.4191 55.4084 24.0606 55.0252 23.8879 54.8343C23.7155 54.6432 23.4068 54.2881 23.2016 54.0453C22.9968 53.8022 22.6123 53.3181 22.3471 52.9695C22.0822 52.6206 21.6892 52.0723 21.4744 51.7513C21.2592 51.43 20.974 50.9863 20.8406 50.7654C20.7072 50.5446 20.472 50.1408 20.318 49.8685C20.1641 49.596 19.8707 49.0479 19.6659 48.6503C19.4613 48.2527 19.188 47.6984 19.0589 47.4187C18.9298 47.1389 18.735 46.699 18.6256 46.4414C18.5166 46.1835 18.3244 45.7016 18.1989 45.3704C18.0733 45.0389 17.8912 44.527 17.7938 44.2325C17.6966 43.938 17.5678 43.5283 17.5077 43.3221C17.4477 43.116 17.3194 42.6341 17.2228 42.2511C17.1262 41.8683 17.0222 41.4335 16.9919 41.2851C16.9614 41.1368 16.9002 40.7874 16.8561 40.5087C16.8117 40.2299 16.7197 39.6827 16.6512 39.2926L16.5203 38.5847L16.442 37.4453C16.3987 36.8193 16.3499 36.0771 16.3334 35.7958C16.3093 35.3875 16.3121 35.0517 16.3462 34.1357C16.3697 33.5041 16.4073 32.7764 16.4298 32.5188C16.4522 32.261 16.4953 31.8334 16.525 31.5683C16.5551 31.3033 16.61 30.8695 16.6473 30.6044C16.6847 30.3394 16.751 29.9099 16.7948 29.6505C16.8389 29.3907 16.9291 28.9147 16.9953 28.5929C17.0616 28.2708 17.1845 27.7361 17.2684 27.4049C17.3523 27.0734 17.4981 26.5494 17.5926 26.2402C17.687 25.9309 17.821 25.5213 17.8903 25.3298C17.9598 25.1384 18.0951 24.7528 18.1914 24.4731C18.2875 24.1933 18.4566 23.7509 18.5671 23.4904C18.6775 23.2296 18.94 22.6452 19.1505 22.1919C19.3608 21.7383 19.6027 21.2226 19.6877 21.0459C19.7727 20.8692 19.9586 20.5318 20.1004 20.2962C20.2424 20.0606 20.5444 19.5484 20.7715 19.1583C20.9985 18.7682 21.3351 18.2284 21.5195 17.9588C21.7035 17.6894 21.9844 17.2918 22.1435 17.0752C22.3026 16.8589 22.5545 16.525 22.7034 16.3336C22.8522 16.1422 23.1026 15.8289 23.2598 15.6375C23.417 15.446 23.7144 15.0966 23.9208 14.861C24.127 14.6254 24.4959 14.2198 24.7403 13.9595C24.9846 13.6992 25.4536 13.2256 25.7824 12.907C26.1115 12.5881 26.6072 12.127 26.8843 11.8824C27.1614 11.6376 27.6382 11.2317 27.9435 10.9803C28.249 10.7291 28.6934 10.3763 28.9312 10.1963C29.1691 10.0164 29.9604 9.47013 30.6896 8.98234C31.4189 8.49475 32.1315 8.02864 32.2727 7.9464C32.4142 7.86447 32.6153 7.7405 32.72 7.67088C32.8248 7.60127 32.9265 7.52496 32.9465 7.50114C32.9787 7.46283 32.9739 7.45804 32.9051 7.45883L32.9117 7.45886Z" fill="#C3AC3C"/>
</svg>
