<svg version="1.1" xmlns:cc="http://creativecommons.org/ns#" xmlns:dc="http://purl.org/dc/elements/1.1/" xmlns:rdf="http://www.w3.org/1999/02/22-rdf-syntax-ns#" xmlns="http://www.w3.org/2000/svg" xmlns:xlink="http://www.w3.org/1999/xlink" x="0px" y="0px" viewBox="0 0 1024 768" xml:space="preserve">
<style>
#logo-fade{
opacity: 0;
animation: fadeIn 4s ease-in infinite;
}

@keyframes fadeIn { 0% { opacity:0; } 50% { opacity:0; } 100% { opacity:1; } }
@keyframes fadeOut { from { opacity:1; } to { opacity:0; } }

#outline{
opacity: 1;
stroke-dasharray: 2000;
stroke-dashoffset: 2000;
animation: dash 4s ease-in-out infinite;
}

@keyframes dash {
  0% {
    opacity: 1;
    stroke-dashoffset: 2000;
  }
  50% {
    opacity: 1;
    stroke-dashoffset: 1000;
  }
  100% {
    opacity: 0;
    stroke-dashoffset: 0;
  }
}
</style>
<path id="outline" d="m557.62 89.16c-5.2375-0.03042-10.419-0.02535-11.514 0.02028-1.0927 0.04057-4.389 0.21855-7.3261 0.39248-2.9349 0.17596-7.3613 0.50981-9.8379 0.74221-2.4743 0.23427-6.7132 0.70565-9.4199 1.0469-2.7046 0.34329-7.4999 1.0491-10.652 1.5703-3.1526 0.51914-8.0505 1.4163-10.885 1.9941-2.8344 0.57776-7.7916 1.697-11.016 2.4883-3.2238 0.79129-8.3111 2.1451-11.305 3.0117-2.9935 0.86664-6.8784 2.0401-8.6348 2.6074l-3.1914 1.0312-4.5371 4.3731c-2.4932 2.4032-5.7052 5.6381-7.1348 7.1934-1.4298 1.5533-4.0853 4.7558-5.9023 7.1172-1.8191 2.3592-4.2274 5.5549-5.3536 7.0996-1.1262 1.5428-3.0942 4.3701-4.3711 6.2793-1.279 1.9113-3.0154 4.7728-3.8633 6.3593-0.84991 1.5868-2.1803 4.271-2.959 5.9668-0.78084 1.6935-1.8998 4.3726-2.4922 5.9531-0.59242 1.5805-1.3959 4.03-1.7832 5.4453-0.3874 1.413-0.8494 3.4639-1.0273 4.5566-0.18001 1.0927-0.39096 2.6921-0.4726 3.5566l-0.14451 1.5703-0.29106-0.83008c-0.16125-0.4584-0.48071-1.7292-0.7129-2.8261-0.26571-1.256-0.46905-3.243-0.54886-5.3614-0.0756-2.0452-0.0254-4.4291 0.12677-6.0703 0.14046-1.4884 0.43659-3.772 0.65818-5.0762 0.2221-1.3021 0.68952-3.5174 1.0391-4.9199 0.34735-1.4004 1.1043-3.9352 1.6758-5.6328 0.57355-1.6977 1.6133-4.4292 2.3125-6.0704 0.69713-1.6412 1.9828-4.3528 2.8516-6.0215 0.87085-1.6705 2.2896-4.2141 3.1562-5.6523 0.86665-1.4402 2.2024-3.5576 2.9707-4.709 0.76827-1.1514 1.4669-2.2129 1.5527-2.3574 0.0984-0.16734-0.25151-0.10446-0.95507 0.17393-0.61336 0.24086-2.998 1.2915-5.3008 2.334-2.3027 1.0425-6.4244 3.0117-9.1582 4.3789-2.734 1.367-6.4544 3.297-8.2695 4.289-1.8129 0.9922-4.8514 2.7002-6.752 3.793-1.8986 1.0949-5.1951 3.0769-7.3262 4.4063-2.1289 1.3292-5.6982 3.6348-7.9297 5.123-2.2315 1.4884-5.3852 3.6544-7.0117 4.8164-1.6266 1.1597-4.9804 3.6386-7.457 5.5078-2.4743 1.8694-6.1972 4.789-8.2696 6.4844-2.0724 1.6935-5.035 4.1743-6.584 5.5097-1.5491 1.3376-4.4232 3.8811-6.3847 5.6563-1.9636 1.7731-6.8234 6.4831-10.801 10.467-3.9774 3.9816-8.794 8.9842-10.705 11.115-1.9091 2.1289-4.7181 5.3314-6.2422 7.1172-1.524 1.7835-4.2481 5.08-6.0527 7.3262-1.8045 2.2441-4.7924 6.1057-6.6406 8.582-1.8484 2.4743-4.2548 5.7784-5.3496 7.3379-1.0948 1.5596-3.2144 4.6684-4.707 6.9082-1.4946 2.2399-3.8001 5.8143-5.125 7.9453-1.3251 2.1311-3.45 5.6621-4.7207 7.8496-1.2728 2.1875-3.1392 5.484-4.1504 7.3262-1.0111 1.8422-3.2981 6.2706-5.0859 9.8398l-3.2539 6.4883 0.25607 7.955c0.14046 4.375 0.34785 9.2729 0.4589 10.885 0.11308 1.6118 0.39248 5.0491 0.62503 7.6406 0.23426 2.5894 0.70534 6.9242 1.0508 9.6309 0.34329 2.7067 1.0493 7.402 1.5664 10.436 0.51707 3.0333 1.4105 7.6494 1.9883 10.258 0.57568 2.6084 1.5686 6.6571 2.2051 9.002 0.63638 2.3425 1.7773 6.1592 2.5352 8.4785 0.75778 2.3195 2.2057 6.383 3.2168 9.0313 1.0111 2.6481 2.5185 6.4627 3.3496 8.4785 0.82902 2.0138 2.0748 4.9221 2.7656 6.4609 0.69079 1.5386 2.0322 4.1818 2.9804 5.8711 0.95041 1.6893 2.5516 4.4335 3.5606 6.0976 1.0069 1.6642 2.8719 4.5795 4.1406 6.4805 1.2706 1.8987 3.2584 4.7242 4.416 6.2754 1.1597 1.5512 3.0155 3.9072 4.1269 5.2343 1.1116 1.3272 3.047 3.4032 4.3008 4.6172 1.2519 1.2121 2.8894 2.7558 3.6367 3.4258l1.3613 1.2207-1.4648-1.1074c-0.80595-0.60915-2.5985-2.0697-3.9844-3.2441-1.3858-1.1744-3.9963-3.5665-5.8028-5.3164-1.8044-1.7501-4.4996-4.5174-5.9902-6.1484-1.4884-1.6328-3.8917-4.3657-5.336-6.0761-1.4465-1.7103-3.6999-4.4906-5.0039-6.1758-1.3062-1.6872-3.1333-4.1516-4.0606-5.4746-0.92733-1.3251-2.3263-3.3976-3.1113-4.6055-0.78287-1.2099-2.1947-3.4702-3.1367-5.0234-0.94199-1.5554-2.4838-4.2108-3.4258-5.9024-0.94205-1.6914-2.8826-5.4589-4.3125-8.373-1.4298-2.914-3.3201-6.9941-4.1973-9.0664-0.87922-2.0724-2.3362-5.7462-3.2363-8.1641-0.90016-2.4178-2.1711-6.0446-2.8242-8.0586-0.65316-2.0159-1.655-5.3123-2.2286-7.3262-0.57147-2.0159-1.503-5.5489-2.0703-7.8516-0.56523-2.3027-1.0905-4.5864-1.168-5.0762-0.0776-0.48984-0.20385-0.8887-0.28143-0.8887-0.0776 0-0.67482 1.7186-1.3301 3.8203-0.65524 2.1017-1.715 5.6561-2.3535 7.9024-0.64054 2.2441-1.8139 6.7197-2.6094 9.9434-0.79545 3.2238-1.8716 7.887-2.3887 10.361-0.51915 2.4743-1.3224 6.6195-1.7871 9.2109-0.46245 2.5895-1.0765 6.2635-1.3633 8.1641-0.28498 1.8986-0.75215 5.2909-1.041 7.5371-0.287 2.2441-0.70737 6.0116-0.93555 8.373-0.22616 2.3592-0.51519 5.6109-0.63866 7.2227-0.12576 1.6119-0.322 4.5309-0.43964 6.4883-0.1151 1.9573-0.26875 7.3262-0.33771 11.932-0.0776 5.0846-0.0304 10.8 0.11713 14.549 0.13184 3.3954 0.38133 8.0606 0.55079 10.363 0.16936 2.3027 0.49998 6.0704 0.73242 8.373 0.23427 2.3027 0.61163 5.5991 0.83982 7.3262 0.22615 1.727 0.60347 4.4114 0.83789 5.9668 0.23427 1.5533 0.7524 4.6476 1.1543 6.875 0.40211 2.2252 1.0589 5.6157 1.4629 7.5351 0.40414 1.9176 1.1117 5.0404 1.5722 6.9414 0.46042 1.8986 1.1719 4.6791 1.5801 6.1758 0.40819 1.4967 1.3433 4.6993 2.0781 7.1172 0.73481 2.4178 2.04 6.4762 2.9004 9.0176 0.86243 2.5393 2.1984 6.26 2.9687 8.2676 0.77035 2.0054 2.1822 5.4865 3.1367 7.7305 0.95249 2.2441 2.5936 5.9201 3.6446 8.1641 1.0509 2.2441 2.7965 5.7936 3.8789 7.8828 1.0823 2.0912 2.6438 5.0105 3.4707 6.4883 0.82476 1.48 2.3071 4.0579 3.291 5.7266 0.98596 1.6684 2.8651 4.7305 4.1797 6.8027 1.3146 2.0724 3.4324 5.275 4.707 7.1172 1.277 1.8422 3.6561 5.1386 5.2891 7.3262 1.6328 2.1875 3.9903 5.2494 5.2402 6.8047 1.2477 1.5533 3.3565 4.097 4.6836 5.6523 1.3293 1.5532 3.795 4.3372 5.4844 6.1836 1.6873 1.8484 4.8938 5.1808 7.123 7.4102 2.2295 2.2273 5.701 5.5562 7.7148 7.3965 2.0159 1.838 5.2652 4.6796 7.2227 6.3125 1.9573 1.6328 4.8313 3.9582 6.3848 5.166 1.5554 1.2058 4.2054 3.199 5.8906 4.4258 1.6851 1.2268 5.0738 3.5609 7.5293 5.1875 2.4576 1.6244 5.9292 3.8307 7.7168 4.9004 1.7877 1.0718 4.3819 2.5863 5.7637 3.3672 1.3816 0.78085 4.3946 2.3893 6.6972 3.5742 2.3027 1.1869 5.7419 2.8766 7.6406 3.7558 1.9008 0.87922 4.9625 2.2388 6.8047 3.0176 1.8422 0.78085 4.9978 2.0496 7.0117 2.8242 2.0159 0.77456 5.7364 2.1014 8.2695 2.9492 2.533 0.84778 6.1128 1.976 7.9551 2.5098 1.8422 0.53172 5.3752 1.4721 7.8496 2.0918 2.4764 0.61965 6.3381 1.5027 8.582 1.957 2.2462 0.45637 5.6384 1.079 7.5371 1.3868 1.9008 0.30779 3.8795 0.63095 4.3965 0.7168l0.94138 0.15821-1.2559 0.57223c-0.69079 0.31388-2.8842 1.1768-4.873 1.9199-1.9887 0.74312-5.3809 1.8589-7.5371 2.4785-2.1562 0.62172-5.6133 1.51-7.6856 1.9746-2.0724 0.46499-5.5116 1.1326-7.6425 1.4863-2.129 0.3514-5.8027 0.87004-8.1641 1.1485-2.3614 0.27839-5.7984 0.61052-7.6406 0.73826-1.8422 0.12778-3.9598 0.29055-4.709 0.36154l-1.3614 0.13083 0.83789 0.25962c0.46043 0.14452 2.4392 0.7455 4.3965 1.3379 1.9573 0.59034 5.3477 1.5383 7.5351 2.1035 2.1876 0.56519 5.3454 1.307 7.0137 1.6504 1.6705 0.34126 4.353 0.81249 5.9648 1.0469 1.6119 0.23224 4.0148 0.52127 5.3379 0.64059 1.3251 0.11713 4.8112 0.27635 7.7461 0.34988 3.2007 0.0796 7.0063 0.0355 9.5058-0.10345 2.2922-0.13184 5.5416-0.38081 7.2227-0.55469 1.6789-0.17392 4.5153-0.55291 6.2988-0.84179 1.7856-0.28903 4.5639-0.85569 6.1758-1.2618 1.6119-0.40414 3.9211-1.0214 5.1289-1.373 1.21-0.34937 3.6109-1.1406 5.3379-1.7539 1.727-0.61336 4.4078-1.6496 5.959-2.3027 1.5491-0.65317 4.3057-1.9294 6.125-2.8379 1.8171-0.90853 4.0775-2.0891 5.0195-2.625 0.942-0.5338 2.2998-1.3301 3.0136-1.7676 0.71386-0.43761 2.122-1.3364 3.1289-2l1.834-1.209 2.3223-0.36712c1.279-0.20283 2.5317-0.42138 2.7871-0.48629l0.46499-0.11511-0.75392 2.1484c-0.41428 1.1807-1.3119 3.8904-1.9922 6.0195-0.68247 2.129-1.8072 5.8516-2.4981 8.2695-0.69292 2.4178-1.9548 7.1965-2.8047 10.621-0.84991 3.4248-2.0196 8.4831-2.6016 11.24-0.58404 2.759-1.0587 5.1388-1.0566 5.2871 0 0.1506 0.251-0.1506 0.55662-0.66797 0.30576-0.51914 0.8456-1.3188 1.1973-1.7793 0.35191-0.46042 1.1136-1.3866 1.6914-2.0586 0.57984-0.67193 2.1828-2.2135 3.5644-3.4297 1.3816-1.2141 3.9724-3.3013 5.7559-4.6367 1.7857-1.3356 5.3655-3.843 7.955-5.5722 2.5916-1.7292 6.4386-4.2278 8.5508-5.5508 2.1122-1.3251 6.8222-4.3741 10.467-6.7773 3.6446-2.4032 9.5012-6.2289 13.012-8.4981 3.5127-2.2713 7.7026-4.9265 9.3144-5.9043 1.6119-0.97759 3.8274-2.2558 4.92-2.8398 1.0948-0.58405 2.9142-1.4036 4.0469-1.8223 1.1304-0.41884 2.6469-0.81776 3.3692-0.88474 0.81011-0.0776 1.6081-0.0254 2.0937 0.13691 0.43101 0.14249 1.0992 0.53598 1.4844 0.87303 0.38538 0.33923 0.87268 1.0594 1.082 1.6016 0.29512 0.76822 0.37726 1.5544 0.36915 3.5996-0.005 1.6684-0.14604 3.2619-0.38284 4.3965-0.20537 0.97759-0.69084 2.9094-1.0781 4.291-0.38537 1.3816-1.0822 3.6113-1.5469 4.9551-0.46499 1.3439-1.2138 3.3695-1.666 4.502-0.45231 1.1326-1.2137 2.9518-1.6972 4.0469-0.48172 1.0928-1.7978 3.8277-2.9219 6.0762-1.1263 2.2483-2.7817 5.4038-3.6797 7.0137-0.89808 1.6077-2.6204 4.5702-3.8281 6.586-1.2079 2.0138-2.5582 4.2001-3.002 4.8574-0.44369 0.65524-0.80661 1.251-0.80661 1.3242 0 0.071 1.5635-0.67614 3.4727-1.6621 1.9091-0.98808 4.666-2.5818 6.123-3.5469 1.457-0.96501 3.45-2.4003 4.4297-3.1894 0.97972-0.78714 2.7108-2.3308 3.8496-3.4277 1.1388-1.097 2.9008-3.007 3.9141-4.2441 1.0132-1.2372 2.4499-3.1669 3.1973-4.291 0.7452-1.1242 1.8791-3.036 2.5176-4.248 0.64054-1.212 1.5863-3.214 2.1055-4.4512 0.51707-1.2372 1.3151-3.4141 1.7715-4.8398 0.45434-1.4256 1.1098-3.8969 1.4531-5.4922 0.34329-1.5952 0.73151-3.6062 0.86132-4.4688 0.12981-0.86457 0.28142-1.7798 0.33568-2.0352l0.0958-0.46499 1.6328 1.3164c0.89595 0.72431 2.7773 2.183 4.1797 3.2422l2.5508 1.9258-0.12677-0.8926c-0.071-0.49187-0.61088-3.8136-1.2012-7.3828l-1.0742-6.4903-1.7793-0.13691c-0.97972-0.0756-2.2954-0.23934-2.9297-0.36713-0.63222-0.12778-2.7537-0.45789-4.7109-0.73439-1.9573-0.27839-4.7827-0.70448-6.2793-0.94727-1.4967-0.24289-4.2281-0.72857-6.0703-1.0782-1.8422-0.34988-5.2792-1.0572-7.6406-1.5742-2.3592-0.51707-5.9393-1.3674-7.9551-1.8887-2.0138-0.52335-4.8411-1.2758-6.2812-1.6777-1.4381-0.40008-4.5938-1.346-7.0117-2.0996-2.4178-0.7557-6.6567-2.1746-9.4199-3.1543-2.7633-0.97967-7.1919-2.6515-9.8399-3.7148-2.6481-1.0634-6.6973-2.7677-9-3.7872-2.3027-1.0216-6.9658-3.2403-10.363-4.9316-3.3954-1.6915-8.0519-4.1215-10.342-5.4024-2.2922-1.279-5.4458-3.0933-7.0117-4.0312-1.5658-0.93773-4.7773-2.9255-7.1387-4.416-2.3592-1.4904-5.8908-3.8026-7.8438-5.1426-1.9552-1.3397-5.2497-3.6973-7.3223-5.2402-2.0724-1.5428-5.1829-3.942-6.9141-5.334-1.7291-1.3921-4.4154-3.6218-5.9707-4.9551-1.5533-1.3334-4.0503-3.5359-5.5468-4.8926-1.4968-1.3586-4.7827-4.5071-7.2988-6.998-2.5183-2.4932-5.8149-5.8508-7.3262-7.4649-1.5135-1.6119-4.0322-4.3922-5.5977-6.1758-1.5637-1.7835-4.1561-4.8437-5.7578-6.8008-1.6035-1.9572-4.1021-5.113-5.5527-7.0117-1.4507-1.9008-3.8445-5.1504-5.3223-7.2227-1.4758-2.0724-4.0197-5.7951-5.6504-8.2695-1.6328-2.4765-4.2415-6.6214-5.7969-9.211-1.5574-2.5916-3.8014-6.5-4.9863-8.6875-1.1848-2.1875-3.3078-6.3306-4.7168-9.209-1.4089-2.8784-3.3787-7.0724-4.375-9.3164-0.99848-2.2462-2.6431-6.1564-3.6562-8.6894-1.0132-2.535-2.5046-6.4454-3.3105-8.6875-0.80595-2.2441-1.9904-5.6816-2.6289-7.6386-0.64059-1.9573-1.7887-5.7251-2.5527-8.3731-0.76198-2.648-1.8865-6.8418-2.502-9.3203-0.61544-2.4786-1.4985-6.2929-1.959-8.4785-0.46246-2.1855-1.1288-5.5738-1.4805-7.5312-0.35394-1.9573-0.92445-5.4434-1.2656-7.7461-0.34329-2.3027-0.85762-6.3069-1.1465-8.8965-0.28903-2.5916-0.6699-6.5938-0.8457-8.8965-0.17798-2.3027-0.42696-7.2867-0.55667-11.078-0.17392-5.1393-0.17443-8.6221 0.005-13.711 0.13184-3.7513 0.38132-8.8463 0.55277-11.32 0.16936-2.4764 0.45332-5.9626 0.62694-7.7461 0.17393-1.7856 0.59977-5.4592 0.94727-8.164 0.34938-2.7067 1.003-7.0864 1.4531-9.7344 0.45028-2.6481 1.2028-6.6993 1.6738-9.002 0.47108-2.3027 1.4097-6.4477 2.0879-9.2109 0.67613-2.7632 1.8531-7.19 2.6172-9.8379 0.76198-2.6481 2.125-7.0277 3.0293-9.7344 0.90229-2.7067 2.3628-6.8338 3.2442-9.1718 0.88337-2.3362 2.3438-6.0101 3.2461-8.1641 0.90224-2.152 2.4172-5.6071 3.3613-7.6797 0.94621-2.0725 2.7895-5.8889 4.0977-8.4785 1.3104-2.5916 3.4241-6.5921 4.7012-8.8906 1.277-2.3006 3.3641-5.9276 4.6368-8.0586 1.2728-2.1331 3.9412-6.3287 5.9258-9.3223 1.9845-2.9935 4.6584-6.8874 5.9433-8.6543 1.2853-1.7668 3.2984-4.4494 4.4727-5.9648 1.1744-1.5156 3.2778-4.1227 4.6738-5.791 1.3963-1.6705 3.718-4.355 5.1602-5.9668 1.4423-1.6119 4.8237-5.2333 7.5157-8.0469 2.6899-2.8135 6.1633-6.2908 7.7168-7.7246 1.5554-1.434 5.4585-4.8768 8.6738-7.6523 3.2175-2.7737 6.8915-5.8718 8.1641-6.8809 1.2748-1.0111 4.9541-3.6611 8.1777-5.8906 3.2238-2.2294 7.1812-4.8961 8.793-5.9258 1.6119-1.0299 4.6736-2.9144 6.8027-4.1895 2.131-1.2728 5.1929-3.0347 6.8047-3.918 1.6119-0.88135 4.3592-2.3021 6.1054-3.1562 1.7459-0.85407 4.5027-2.1216 6.125-2.8145 1.6223-0.69292 4.3465-1.7328 6.0547-2.3105 1.7082-0.57781 4.1327-1.2856 5.3886-1.5703 1.256-0.28447 2.9421-0.51737 3.748-0.5195 1.0676 0 1.6423 0.10598 2.1133 0.39248 0.36205 0.2221 0.86223 0.84043 1.1406 1.414 0.29106 0.5987 0.49998 1.4112 0.50403 1.9785 0.005 0.7348-0.13539 1.1722-0.61716 1.8672-0.34532 0.50048-1.3327 1.513-2.1973 2.252-0.86248 0.73689-5.1972 3.7736-9.6309 6.7461-4.4318 2.9726-9.8006 6.6517-11.932 8.1758-2.1289 1.524-5.9454 4.3367-8.4785 6.25-2.533 1.9154-7.2576 5.6232-10.5 8.2422-3.2405 2.6167-6.537 5.3375-7.3261 6.045-0.78714 0.70757-4.6056 4.3869-8.4825 8.1719-3.8791 3.7869-8.1234 8.0795-9.4336 9.5449-1.3084 1.4633-2.9405 3.3265-3.625 4.1387-0.68455 0.81224-2.4066 2.829-3.832 4.4805-1.4235 1.6516-3.6676 4.3578-4.9883 6.0137-1.3209 1.6558-3.5846 4.6326-5.0312 6.6152-1.4465 1.9824-4.0622 5.7696-5.8144 8.418-1.7522 2.6481-4.0609 6.2728-5.1309 8.0586-1.0718 1.7835-2.9725 5.0799-4.2265 7.3261-1.256 2.2441-3.5756 6.6727-5.1582 9.8398-1.5826 3.1651-3.7074 7.633-4.7207 9.9297-1.0132 2.2943-2.4341 5.6398-3.1563 7.4316-0.7243 1.7919-1.8054 4.5757-2.4062 6.1875-0.60292 1.6119-1.6534 4.5798-2.3379 6.5957-0.68456 2.0138-1.86 5.7345-2.6094 8.2676-0.75148 2.533-1.9608 7.0063-2.6914 9.9434-0.73054 2.9349-1.7144 7.2481-2.1875 9.582-0.47311 2.3341-1.1807 6.1958-1.5742 8.582-0.39146 2.3864-0.9568 6.2246-1.252 8.5273-0.29715 2.3027-0.72512 6.2579-0.95117 8.791-0.22616 2.533-0.52772 6.537-0.66797 8.8985-0.14249 2.3592-0.2576 8.5299-0.25963 13.711 0 6.9081 0.0974 10.733 0.36307 14.34 0.19877 2.7046 0.55089 6.66 0.78318 8.791 0.23021 2.129 0.69606 5.8026 1.0352 8.1641 0.33924 2.3592 0.90052 5.8455 1.248 7.7461 0.34735 1.8987 0.91963 4.8178 1.2735 6.4883 0.35394 1.6684 1.0994 4.92 1.6562 7.2226 0.55895 2.3027 1.6383 6.3521 2.4024 9 0.76406 2.646 2.0909 6.9046 2.9492 9.4648 0.85828 2.558 2.2736 6.517 3.1465 8.7949 0.87293 2.2776 2.1838 5.5542 2.9102 7.2812 0.72638 1.727 2.0372 4.7168 2.9102 6.6445 0.87501 1.928 2.4961 5.3184 3.6035 7.5352 1.1095 2.2169 2.9129 5.6791 4.0078 7.6953 1.0948 2.0138 2.9795 5.3104 4.1895 7.3262 1.2078 2.0138 3.3525 5.4208 4.7656 7.5684 1.4109 2.1478 3.906 5.7724 5.5449 8.0586 1.6391 2.286 4.226 5.7574 5.7519 7.7148 1.526 1.9573 3.8477 4.844 5.1602 6.414s3.793 4.4443 5.5136 6.3848c1.7228 1.9406 5.5356 5.9397 8.4746 8.8828 2.9391 2.9454 6.7574 6.619 8.4844 8.166s4.3196 3.8073 5.7578 5.0234c1.4402 1.2162 3.7635 3.1191 5.166 4.2286 1.4004 1.1095 3.8036 2.9457 5.3379 4.08 1.5323 1.1346 4.0132 2.9078 5.5098 3.9375 1.4967 1.0299 3.907 2.6403 5.3535 3.5781 1.4486 0.93783 4.5103 2.8335 6.8066 4.2129 2.2944 1.3795 5.8778 3.4539 7.9629 4.6094 2.0829 1.1555 5.8761 3.1448 8.4258 4.4218 2.5518 1.2769 6.1771 3.0193 8.0567 3.8711 1.882 0.85199 5.0428 2.2201 7.0273 3.0449 1.9845 0.82268 5.3191 2.137 7.4102 2.9199 2.0913 0.78292 5.9692 2.1388 8.6171 3.0117 2.6481 0.87501 6.2751 2.0103 8.0586 2.5274 1.7857 0.51707 4.7068 1.3224 6.4903 1.7871 1.7856 0.46245 5.1289 1.2588 7.4316 1.7695 2.3027 0.51078 5.7419 1.2186 7.6406 1.5703 1.8986 0.3514 4.6321 0.82466 6.0703 1.0508 1.4402 0.22616 4.1246 0.60332 5.9668 0.83987 1.8422 0.23478 4.8931 0.57411 6.7812 0.74997 1.8903 0.17798 3.4681 0.28802 3.5078 0.24796 0.0406-0.0406 1.0053-3.2657 2.1504-7.168 1.1451-3.904 2.0603-7.1173 2.0352-7.1426-0.0254-0.0254-1.6336 1.0776-3.5762 2.4551-1.9426 1.3753-3.6274 2.502-3.7383 2.502-0.12778 0-0.15415-0.54125-0.074-1.4121 0.0735-0.77664 0.19167-3.4398 0.26773-5.9141 0.0857-2.803 0.0406-5.9615-0.11713-8.373-0.13792-2.131-0.43254-5.3462-0.65433-7.1484-0.22159-1.8024-0.64246-4.5828-0.93555-6.1758-0.29309-1.5952-0.86508-4.2668-1.2754-5.9355-0.4082-1.6684-1.2405-4.5462-1.8496-6.3926-0.60707-1.8464-1.5965-4.5254-2.1973-5.9531-0.60078-1.4276-1.4204-3.2494-1.8203-4.0449-0.39958-0.7955-0.75189-1.413-0.78125-1.3711-0.0304 0.0406 0.0254 5.5368 0.12119 12.215 0.0963 6.6777 0.1217 15.202 0.0588 18.945-0.0629 3.7408-0.20891 8.2164-0.32605 9.9434-0.11713 1.727-0.39856 4.3157-0.62695 5.7559-0.22615 1.4381-0.645 3.3828-0.92967 4.3184-0.28447 0.93576-0.82648 2.1581-1.2012 2.7149-0.37473 0.55895-0.99919 1.2305-1.3907 1.4922-0.39146 0.26368-1.0034 0.47666-1.3613 0.47463-0.35597-0.002-1.1486-0.23529-1.7578-0.51955-0.61128-0.28295-1.6818-1.0589-2.3789-1.7246-0.77664-0.73896-1.7074-1.9562-2.4024-3.1347-0.62381-1.0593-1.687-3.1318-2.3652-4.6055-0.67618-1.4737-1.7196-3.9034-2.3184-5.4004-0.59865-1.4968-1.7794-4.793-2.623-7.3262-0.84362-2.5329-1.916-6.0661-2.3828-7.8496-0.46448-1.7857-1.075-4.3761-1.3555-5.7578-0.28042-1.3816-0.70291-3.8316-0.93946-5.4434-0.23883-1.6119-0.57792-4.3881-0.75585-6.1738-0.17595-1.7856-0.3798-5.4592-0.45332-8.1641-0.0796-3.0793-0.0355-6.1336 0.11713-8.1641 0.1359-1.7856 0.39096-4.2189 0.56448-5.4101 0.17595-1.1912 0.58369-3.2147 0.90817-4.5 0.32656-1.2853 0.57381-2.3595 0.55078-2.3867-0.0253-0.0254-3.5362 6.99-7.8047 15.596-4.2661 8.6057-8.6788 17.6-9.8008 19.988-1.1242 2.3885-2.1117 4.3438-2.1934 4.3438-0.0816 0-0.45333-0.79251-0.82816-1.7617l-0.67968-1.7617-0.0507-15.561c-0.0355-9.9623-0.17697-18.611-0.39653-24.039-0.18813-4.6641-0.43913-9.9369-0.5586-11.723-0.11916-1.7857-0.30323-4.0928-0.41225-5.1289-0.10902-1.0362-0.39045-4.1921-0.62695-7.0117-0.2363-2.8219-0.52731-5.9308-0.64449-6.9082-0.11511-0.97972-0.30475-2.3933-0.41783-3.1406-0.11308-0.74941-0.25912-1.6268-0.32402-1.9512-0.0669-0.32453-0.1572-0.5556-0.20334-0.51169-0.0456 0.0456-0.96811 3.7505-2.0566 8.2324-1.0886 4.4841-2.596 10.93-3.3496 14.326-0.75569 3.3954-1.8911 8.6636-2.5254 11.703-0.63217 3.0396-1.1811 5.5561-1.2188 5.5938-0.0355 0.0355-0.37676-0.98951-0.75585-2.2832-0.37878-1.2916-1.2995-4.5631-2.0469-7.2676-0.7452-2.7067-2.0975-7.888-3.0039-11.514-0.90644-3.6278-2.1665-8.903-2.8008-11.723-0.63425-2.8219-1.7662-8.1907-2.5156-11.932-0.74946-3.7429-1.8888-9.8175-2.5293-13.502-0.64262-3.6843-1.639-9.3859-2.2168-12.666-0.57776-3.2824-1.4712-8.18-1.9883-10.885-0.51701-2.7068-1.4162-7.135-1.996-9.8399-0.57989-2.7067-1.6484-7.3678-2.379-10.361-0.73054-2.9935-1.8588-7.2814-2.5078-9.5254-0.64896-2.2462-2.0625-6.9563-3.1406-10.467-1.0781-3.5127-2.5836-8.5042-3.3477-11.094-0.76406-2.5916-1.9085-6.6428-2.5449-9.002-0.6343-2.3613-1.6217-6.2696-2.1953-8.6875-0.57147-2.4178-1.4995-6.7057-2.0606-9.5254-0.56103-2.8219-1.1351-5.8581-1.2754-6.75-0.14046-0.89174-0.3372-1.623-0.4376-1.623-0.0984 0-1.2843 0.67344-2.6387 1.4961-1.3524 0.82481-4.5046 2.8431-7.002 4.4863-2.4974 1.6433-6.4526 4.333-8.791 5.9805-2.3383 1.6475-6.8897 4.9727-10.113 7.3906-3.2237 2.4178-8.2621 6.3226-11.199 8.6758-2.9349 2.3529-7.0799 5.745-9.2109 7.539-2.1289 1.794-5.2847 4.4858-7.0117 5.9805-1.727 1.4946-4.599 4.0366-6.3848 5.6484-1.7835 1.6098-2.9753 2.603-2.6446 2.2032 0.33061-0.40212 2.3618-2.5665 4.5118-4.8106 2.1498-2.2461 4.6573-4.8853 5.5723-5.8672 0.91689-0.9818 2.9875-3.2888 4.6016-5.1289 1.614-1.84 3.9301-4.5226 5.1484-5.9609 1.2184-1.4402 4.0436-4.5524 6.2773-6.918 2.2336-2.3655 5.4381-5.8026 7.1211-7.6406 1.683-1.8359 4.8423-5.0841 7.0215-7.2129 2.1792-2.131 5.6058-5.3334 7.6152-7.1211 2.0096-1.7856 4.88-4.2896 6.377-5.5625 1.4967-1.2728 4.2047-3.5149 6.0176-4.9824l3.2968-2.666v-7.6797c0.002-4.2244 0.0958-9.2361 0.21298-11.135 0.1151-1.8986 0.40059-5.3379 0.63085-7.6406 0.23224-2.3027 0.61138-5.5054 0.84372-7.1172 0.23224-1.6119 0.71447-4.5312 1.0703-6.4864 0.35596-1.9573 1.0001-5.0659 1.4355-6.9082 0.43304-1.8442 1.4532-5.7542 2.2676-8.6894 0.81223-2.937 1.7079-5.9986 1.9863-6.8047 0.28041-0.80594 1.7029-4.5267 3.164-8.2676 2.1897-5.6103 3.2277-7.9248 5.92-13.189 1.794-3.5127 3.7293-7.2315 4.2988-8.2676 0.57147-1.0362 2.4414-4.0272 4.1602-6.6484 1.7186-2.6188 3.1773-4.9045 3.2422-5.0762 0.071-0.18204 0.001-0.31083-0.1643-0.30881-0.15719 0.002-1.9476 0.0958-3.9824 0.20892-2.4178 0.13387-6.4038 0.13387-11.514-0.002-4.2978-0.11308-8.8039-0.30779-10.014-0.43355-1.2079-0.12575-3.5531-0.45586-5.209-0.7344-1.6579-0.27838-4.1079-0.78191-5.4434-1.1211-1.3385-0.33873-3.2784-0.91694-4.3145-1.2812-1.0362-0.36611-2.4498-0.93667-3.1407-1.2696-1.1116-0.5338-1.1724-0.59171-0.5234-0.50606 0.40414 0.0542 2.193 0.16074 3.9765 0.23832 1.9887 0.0857 4.3411 0.0456 6.0723-0.1075 1.5554-0.13387 4.3806-0.48273 6.2793-0.77542 1.9008-0.29309 4.1012-0.66853 4.8945-0.83394 0.79129-0.1653 3.335-0.62583 5.6524-1.0215 2.3153-0.39552 5.6245-1.0151 7.3515-1.3731 1.727-0.36002 4.2706-0.93236 5.6524-1.2715 1.3816-0.33721 5.0732-1.0376 8.2031-1.5547 3.1317-0.51707 5.8285-0.99189 5.9961-1.0547 0.1653-0.0649 1.3786-1.3593 2.6954-2.8769 1.3188-1.5198 3.8608-4.3161 5.6484-6.2149 1.7898-1.9008 4.8444-4.9281 6.7871-6.7305 1.9447-1.8003 4.7251-4.2972 6.1758-5.5468 1.4528-1.2497 4.1227-3.4414 5.9356-4.8711 1.8128-1.4277 5.0065-3.8164 7.0957-5.3047 2.0892-1.4863 5.3981-3.7196 7.3555-4.959 1.9573-1.2414 4.9722-3.0863 6.6992-4.1015 1.727-1.0132 5.4854-3.0445 8.3554-4.5098l5.2188-2.6641-2.0781-0.63476c-1.143-0.34937-3.3468-1.012-4.9024-1.4746-1.5554-0.46043-3.5319-1.0222-4.3965-1.2441-0.86243-0.2221-5.4985-1.0939-10.301-1.9375-4.8023-0.84154-8.7033-1.562-8.668-1.5976 0.0355-0.0355 3.0215-0.16886 6.6386-0.29867 3.6152-0.12981 8.3633-0.23072 10.551-0.22261 2.1875 0.005 5.5796 0.11663 7.5371 0.24441 1.9573 0.12779 6.2411 0.3225 9.5234 0.43558 3.2824 0.11308 6.8516 0.33112 7.9336 0.48426l1.9668 0.27534 2.0117-0.77734c1.1053-0.42899 3.5171-1.2975 5.3594-1.9297 1.8422-0.63217 4.9488-1.6269 6.9063-2.211 1.9573-0.58405 4.8294-1.3948 6.3848-1.7988 1.5554-0.40414 4.3336-1.0721 6.1758-1.4824 1.8422-0.41225 5.1406-1.0694 7.3282-1.4629 2.1875-0.39349 5.6718-0.9497 7.7441-1.2344 2.0725-0.28701 5.2302-0.66787 7.0137-0.84373 1.7857-0.17798 4.7048-0.43963 6.4883-0.58202 1.9113-0.15263 7.0331-0.25962 12.457-0.25962 5.4551 0 10.533 0.10699 12.455 0.26165 1.7857 0.14249 4.6578 0.40262 6.3848 0.57619 1.727 0.17393 5.1172 0.59972 7.5351 0.94727 2.4178 0.34937 6.2345 0.99924 8.4785 1.4472 2.2462 0.44572 5.479 1.1444 7.1875 1.5547 1.7082 0.41022 4.721 1.2101 6.6973 1.7774 1.9761 0.56939 5.0563 1.5207 6.8398 2.1152 1.7856 0.59242 4.8005 1.674 6.6992 2.4004 1.9008 0.72851 4.9138 1.9541 6.6973 2.7266 1.7856 0.77243 5.2717 2.4244 7.7461 3.6699 2.4764 1.2477 5.8198 3.0404 7.4316 3.9824 1.6119 0.94412 4.1377 2.5058 5.6113 3.4688 1.4758 0.96502 2.6351 1.6727 2.5723 1.5722-0.0609-0.1004-3.3413-2.6314-7.2871-5.625-3.9461-2.9935-9.1543-6.9004-11.572-8.6816-2.4178-1.7794-6.5159-4.724-9.1074-6.541-2.5895-1.8171-6.8755-4.74-9.5234-6.4941-2.6481-1.7521-6.0853-3.9874-7.6407-4.9629-1.5532-0.97759-4.7414-2.9294-7.084-4.334-2.3425-1.4067-6.3902-3.7427-8.9922-5.1914-2.602-1.4486-7.3715-3.9816-10.602-5.627-3.2301-1.6474-7.852-3.9059-10.27-5.0215-2.4178-1.1158-6.0283-2.7279-8.0234-3.582-1.9929-0.85412-5.4878-2.2964-7.7675-3.207-2.2797-0.91061-6.3471-2.4506-9.0391-3.4219-2.6941-0.97343-6.4976-2.293-8.4551-2.9336-1.9573-0.64059-5.3098-1.6785-7.4473-2.3086-2.1394-0.63217-5.8602-1.6701-8.2676-2.3105-2.4095-0.64059-6.4084-1.6299-8.8828-2.1992-2.4743-0.57152-6.2116-1.373-8.3027-1.7832-2.0934-0.41022-5.7692-1.0711-8.166-1.4668-2.399-0.39755-5.4102-0.8744-6.6933-1.0586l-2.334-0.33619-2.5859 0.52543c-1.4214 0.28903-3.9976 0.93687-5.7246 1.4414-1.727 0.50454-6.7207 2.0591-11.096 3.4512-4.375 1.3942-8.8975 2.8709-10.049 3.2832-1.1513 0.41225-2.6098 0.95036-3.2441 1.1953-0.63217 0.24695-5.1076 2.2778-9.9433 4.5176-4.8358 2.2378-8.8868 4.1229-9.002 4.1836-0.14046 0.0756-0.14046 0.0406 0-0.10345 0.11511-0.11713 3.744-2.645 8.0605-5.6152 4.3185-2.9684 8.6132-5.897 9.5469-6.5058 0.93358-0.6092 4.0263-2.3854 6.873-3.9473 2.847-1.5616 5.7464-3.1249 6.4414-3.4766 0.695-0.34938 1.1806-0.71457 1.0801-0.80666-0.1004-0.09229-2.1602-0.28143-4.5781-0.41986-2.4178-0.13792-8.682-0.27889-13.922-0.31033zm-47.021 58.297-0.0507 0.002c0.0152-0.00021 0.0101 0.002 0.0254 0.002 0.005-0.0002 0.0203-0.004 0.0254-0.004zm-0.0254 0.004c-0.34431 0.0102-1.246 0.2287-2.0391 0.49035-0.80594 0.26773-2.5011 0.8815-3.7676 1.3672-1.2665 0.48375-3.998 1.7565-6.0703 2.8262-2.0724 1.0718-5.275 2.7724-7.1172 3.7813-1.8422 1.009-5.1855 2.8756-7.4316 4.1484-2.2441 1.2706-5.4956 3.2529-7.2227 4.4023-1.727 1.1492-4.2706 2.8915-5.6523 3.8691-1.3816 0.97759-3.7788 2.7254-5.3281 3.8808-1.5491 1.1555-3.9991 3.044-5.4434 4.1934-1.4444 1.1492-3.9896 3.2326-5.6601 4.6309-1.6684 1.3984-4.5425 3.8968-6.3848 5.5508-1.8422 1.6537-5.9455 5.6018-9.1172 8.7754-3.1736 3.1714-7.1214 7.275-8.7754 9.1172-1.6538 1.8422-4.4265 5.0522-6.1641 7.1328-1.7354 2.0808-4.2504 5.1895-5.584 6.9082-1.3335 1.7187-3.4624 4.5366-4.7266 6.2636-1.2665 1.727-4.4531 6.5308-7.0781 10.676-2.6272 4.1449-5.3603 8.4816-6.0742 9.6348-0.71594 1.1535-3.4655 6.3815-6.1094 11.617-2.6418 5.2356-5.4852 11.074-6.3203 12.971-0.83318 1.8987-1.9867 4.724-2.5644 6.2793-0.57781 1.5575-1.7135 4.5197-2.5215 6.586-0.80595 2.0641-2.0753 5.5503-2.8184 7.7461-0.74312 2.1938-1.9564 6.063-2.6953 8.5957-0.73688 2.533-1.8058 6.4883-2.3731 8.791-0.5694 2.3027-1.4177 6.0234-1.8886 8.2695-0.46905 2.2441-1.1858 5.9472-1.5898 8.2246-0.40414 2.2797-1.0123 6.0474-1.3535 8.373-0.34126 2.3278-0.85731 6.2558-1.1504 8.7324-0.29106 2.4743-0.81279 8.9284-1.1582 14.34l-0.62695 9.8379 0.20689 6.0703c0.11511 3.3389 0.34785 9.2876 0.51757 13.217l0.30678 7.1445 1.0371 7.4043c0.5694 4.0715 1.2845 9.1934 1.5859 11.381 0.29918 2.1876 1.0666 6.4247 1.7051 9.416 0.63846 2.9914 1.5789 7.1327 2.0918 9.2031 0.51078 2.0703 1.3051 5.0872 1.7656 6.7031 0.46043 1.616 1.365 4.6348 2.0097 6.707 0.6448 2.0724 1.8742 5.7461 2.7324 8.164 0.85828 2.4178 2.3639 6.4199 3.3457 8.8965 0.98388 2.4744 2.7854 6.7603 4.0058 9.5234 1.2204 2.7632 3.598 7.8036 5.2832 11.201 1.683 3.3954 4.1582 8.1794 5.5019 10.629 1.3419 2.4513 3.4414 6.1249 4.6641 8.1641 1.2246 2.041 3.5045 5.6368 5.0684 7.9941 1.5616 2.3571 3.999 5.872 5.4121 7.8125 1.413 1.9406 3.5757 4.8184 4.8067 6.3926 1.2288 1.5742 3.5704 4.4648 5.2031 6.4219 1.6307 1.9573 3.8876 4.5948 5.0137 5.8613 1.1262 1.2665 3.7996 4.1765 5.9453 6.4668 2.1436 2.2881 6.5448 6.7241 9.7812 9.8555 3.2364 3.1317 7.3815 6.9752 9.2109 8.543 1.8296 1.5679 4.9293 4.11 6.8868 5.6485 1.9573 1.5386 6.0064 4.6603 9 6.9355 4.3125 3.2803 7.052 5.1437 13.186 8.9746 4.2579 2.6607 9.4839 5.8594 11.617 7.1094 2.1331 1.2476 6.8921 3.7624 10.576 5.5879 3.6843 1.8233 8.3708 4.0836 10.414 5.0234 2.0431 0.93783 5.28 2.3642 7.1933 3.168 1.9154 0.80179 5.3764 2.1738 7.6934 3.0488 2.3173 0.87713 6.1467 2.2345 8.5058 3.0195 2.3613 0.78292 6.2696 1.9906 8.6875 2.6856 2.4178 0.69292 6.2847 1.7327 8.5938 2.3125 2.309 0.57984 5.9373 1.4303 8.0664 1.8887 2.129 0.45636 5.467 1.1208 7.4199 1.4746 1.9531 0.3514 5.0134 0.86801 6.7969 1.1464 1.7856 0.28041 5.0822 0.74428 7.3261 1.0332 2.2462 0.29106 5.5447 0.67365 7.3282 0.85158 1.7856 0.17595 5.0332 0.45738 7.2207 0.62497 2.1875 0.16936 6.522 0.41682 9.6308 0.55276 3.5838 0.15517 9.2904 0.2003 15.596 0.12322 6.0772-0.0756 11.408-0.24644 13.711-0.44318 2.0725-0.17596 5.1344-0.46651 6.8028-0.64652 1.6705-0.17799 4.8262-0.56047 7.0137-0.85351 2.1875-0.29106 5.9552-0.85965 8.373-1.2636 2.4178-0.40211 6.4688-1.1548 9.002-1.6719 2.533-0.51707 6.8894-1.5012 9.6797-2.1836 2.7926-0.68456 7.2189-1.8617 9.8379-2.6152 2.6209-0.75361 7.0008-2.1165 9.7304-3.0312 2.7319-0.91269 6.8623-2.3752 9.1797-3.248 2.3153-0.87293 5.686-2.2016 7.4883-2.9532 1.8024-0.74941 4.9726-2.127 7.0449-3.0586 2.0725-0.93155 6.501-3.0726 9.8398-4.7578 3.3389-1.6852 7.8014-4.0323 9.9199-5.2149 2.1164-1.1848 5.4128-3.0965 7.3262-4.2519 1.9113-1.1555 4.9392-3.0656 6.7226-4.2422 2.5246-1.6663 3.6428-2.5601 5.041-4.0274 1.4486-1.524 2.0035-2.3044 2.8848-4.0606 0.63846-1.2728 1.2146-2.7804 1.3926-3.6387 0.1653-0.80595 0.30424-2.003 0.30678-2.6582 0.002-0.65727-0.10091-1.6936-0.22869-2.3027-0.12981-0.61128-0.47462-1.6276-0.76954-2.2598-0.32656-0.70336-1.0727-1.6845-1.9121-2.5156-0.75778-0.75149-1.8643-1.6232-2.4609-1.9414-0.5945-0.31641-1.8114-0.76208-2.7032-0.99022-1.0153-0.25962-2.3105-0.41428-3.4766-0.41428-1.0236 0-2.5851 0.14807-3.4727 0.33214-0.88758 0.18204-2.3645 0.62634-3.2792 0.98636-0.91482 0.36205-2.4222 1.1382-3.3496 1.7285-0.92734 0.59034-3.2868 2.1086-5.2441 3.373-1.9573 1.2665-4.7827 3.0354-6.2793 3.9356-1.4967 0.89808-4.6722 2.7018-7.0566 4.0078-2.3864 1.3041-6.2481 3.3321-8.582 4.5-2.3361 1.1702-5.4722 2.6863-6.9687 3.375-1.4967 0.68663-4.4647 1.9791-6.5957 2.873-2.129 0.89382-5.552 2.2552-7.6055 3.0234-2.0536 0.77035-5.1176 1.8715-6.8047 2.4492-1.6872 0.57569-5.0921 1.6626-7.5684 2.414-2.4743 0.75362-7.0636 2.021-10.195 2.8164-3.1316 0.79342-8.2659 1.9599-11.408 2.5879-3.1442 0.62801-7.883 1.4729-10.531 1.8769-2.6481 0.40617-6.932 0.97298-9.5234 1.2598-2.5895 0.287-6.1693 0.62451-7.9551 0.74804-1.7835 0.12575-7.3892 0.28294-12.455 0.34937-5.788 0.0756-11.234 0.0304-14.654-0.12322-2.9935-0.13589-7.2324-0.3869-9.4199-0.55859-2.1876-0.1719-5.6738-0.49846-7.7461-0.72654-2.0724-0.22818-5.4629-0.65423-7.5351-0.94727-2.0724-0.29106-5.3794-0.80752-7.3515-1.1445-1.9699-0.3372-5.2216-0.95107-7.2227-1.3613-2.0013-0.41023-5.7114-1.2514-8.2441-1.8711-2.533-0.61752-6.1128-1.5599-7.9551-2.0937-1.8422-0.5338-4.7142-1.4005-6.3848-1.9238-1.6684-0.52549-4.7305-1.5653-6.8027-2.3105-2.0724-0.74733-5.403-2.0164-7.4004-2.8203-1.9992-0.80594-5.1529-2.1509-7.0117-2.9903-1.8589-0.84155-5.0688-2.2964-7.1328-3.2363-2.062-0.94205-5.0315-2.3628-6.5996-3.1582-1.5679-0.7955-4.637-2.4705-6.8203-3.7266-2.1834-1.254-6.7042-3.9224-10.043-5.9258-4.7624-2.8574-7.5096-4.6991-12.756-8.5488-3.678-2.6962-8.0574-5.9818-9.7344-7.2988-1.6768-1.3188-3.8018-3.0336-4.7226-3.8125-0.9211-0.78079-2.4285-2.1024-3.3496-2.9356-0.92105-0.83526-3.9954-3.7129-6.832-6.3945-2.8365-2.6816-6.8427-6.6517-8.8984-8.8203-2.0557-2.1666-4.8286-5.1618-6.1641-6.6543-1.3335-1.4946-3.7219-4.2692-5.3086-6.168-1.5847-1.9008-4.5602-5.6866-6.6114-8.4121-2.0494-2.7277-5.0877-7.0156-6.75-9.5254-1.6642-2.512-3.87-5.98-4.9024-7.707-1.032-1.727-2.852-4.883-4.043-7.0117-1.1911-2.1311-3.4601-6.4166-5.045-9.5254-1.5826-3.1086-3.6968-7.4414-4.6953-9.6289-0.99848-2.1876-2.5058-5.6267-3.3515-7.6406-0.84367-2.0159-2.3295-5.7854-3.3008-8.375-0.9713-2.5916-2.3812-6.5938-3.1347-8.8965-0.75154-2.3026-1.7482-5.5053-2.2129-7.1172-0.46448-1.6119-1.4558-5.3795-2.2031-8.373-0.74733-2.9935-1.5527-6.3931-1.7871-7.5527-0.2363-1.1597-0.70955-3.8911-1.0508-6.0703-0.34329-2.1792-1.0544-6.4597-1.584-9.5098l-1.0136-5.5332-0.6055-8.9082c-0.33467-4.8942-0.71213-10.699-0.83982-12.898-0.18609-3.1924-0.16429-5.817 0.0994-12.978 0.18204-4.9382 0.4726-10.627 0.64647-12.641 0.17393-2.0159 0.50606-5.3594 0.73633-7.4316 0.23224-2.0724 0.65838-5.4648 0.94726-7.5371 0.28904-2.0724 0.80154-5.4288 1.1406-7.457 0.34126-2.0305 1.0379-5.7533 1.5508-8.2695 0.51286-2.5183 1.4624-6.6995 2.1113-9.2891 0.64895-2.5916 1.7772-6.6875 2.5078-9.1054 0.73055-2.4178 1.7668-5.6206 2.3027-7.1172 0.53795-1.4967 1.5848-4.5118 2.3301-6.6992 0.74317-2.1876 2.0522-5.6448 2.9062-7.6817 0.85412-2.0389 2.8852-6.6102 4.5137-10.154 1.6266-3.5461 3.4968-7.5772 4.1543-8.959 0.65732-1.3816 2.0965-4.0191 3.1934-5.8613 1.099-1.8422 3.435-5.8464 5.1914-8.8965 1.7563-3.05 4.3593-7.2709 5.7851-9.3789 1.4235-2.1059 3.5974-5.2147 4.8282-6.9082 1.2309-1.6914 3.1786-4.3022 4.3301-5.7988 1.1513-1.4967 3.0885-3.9448 4.3047-5.4414 1.2163-1.4968 3.5161-4.23 5.1133-6.0722 1.5951-1.8422 4.4494-5.0119 6.3398-7.0469 1.8903-2.0347 5.5169-5.7395 8.0606-8.2305 2.5455-2.4932 6.382-6.0964 8.5254-8.0098 2.1436-1.9134 5.8319-5.087 8.1934-7.0527 2.3634-1.9636 5.8006-4.7239 7.6406-6.1308 1.8401-1.4068 7.962-5.6763 13.604-9.4902 5.6415-3.8121 11.153-7.4569 12.246-8.0996 1.0949-0.64059 2.6489-1.61 3.459-2.1543 0.8101-0.54424 1.597-1.1398 1.7519-1.3262 0.24289-0.29157 0.19624-0.33416-0.29663-0.33011zm-177.48 254.76c0.0456 0 0.2079 0.16581 0.36712 0.36712l0.28701 0.3651-0.36712-0.28701c-0.20081-0.15922-0.3651-0.32149-0.3651-0.36509 0-0.0456 0.0355-0.0801 0.0781-0.0801z" fill="none" stroke="#c3ac3c" stroke-width="4" stroke-linejoin="round" stroke-linecap="round" />

<g id="logo-fade">

 
 <g id="logo-group" transform="translate(-2156.8 -1654.1) scale(5.0708)">
  <path id="icon" stroke-width=".74250" fill="#c3ac3c" d="m535.31 343.8c-1.0329-0.006-2.0546-0.005-2.2706 0.004-0.21549 0.008-0.86568 0.0429-1.4449 0.0772-0.57879 0.0347-1.4519 0.10072-1.9403 0.14655-0.48797 0.0462-1.324 0.13912-1.8577 0.20641-0.53337 0.0677-1.4788 0.20684-2.1004 0.30963-0.62173 0.10238-1.5878 0.27948-2.1467 0.39343-0.55897 0.11394-1.5365 0.33439-2.1723 0.49044-0.63576 0.15605-1.6389 0.42315-2.2293 0.59406-0.59035 0.17091-1.3566 0.40251-1.7029 0.51439l-0.62964 0.20344-0.89471 0.86205c-0.49168 0.47393-1.125 1.1122-1.4069 1.4189-0.28196 0.30632-0.80584 0.93793-1.1642 1.4036-0.35874 0.46526-0.83353 1.0953-1.0556 1.3999-0.2221 0.30426-0.61016 0.86197-0.86197 1.2385-0.25224 0.37692-0.59489 0.94127-0.7621 1.2542-0.16761 0.31293-0.42976 0.84214-0.58333 1.1766-0.15399 0.33397-0.37485 0.86241-0.49168 1.1741s-0.27495 0.7947-0.35132 1.0738c-0.0764 0.27866-0.16761 0.68323-0.20271 0.89872-0.0355 0.21549-0.0772 0.5309-0.0933 0.70139l-0.0285 0.30963-0.0574-0.1639c-0.0318-0.0904-0.0949-0.341-0.14078-0.55732-0.0524-0.2477-0.0925-0.63947-0.10816-1.0572-0.0149-0.40334-0.005-0.87355 0.0252-1.1972 0.0277-0.29353 0.0859-0.74391 0.12962-1.0011 0.0438-0.25678 0.13624-0.69356 0.20518-0.97015 0.0685-0.27618 0.21756-0.77614 0.33026-1.1109 0.11311-0.33481 0.3183-0.87355 0.45618-1.1972 0.13747-0.32365 0.39095-0.85825 0.56227-1.1873 0.17174-0.32944 0.45164-0.83101 0.62255-1.1146 0.17091-0.28403 0.4343-0.70181 0.5858-0.92887 0.15151-0.22706 0.2894-0.43636 0.30632-0.46485 0.0194-0.033-0.05-0.0206-0.18866 0.0343-0.12096 0.0475-0.59117 0.25471-1.0453 0.4603-0.45411 0.20559-1.267 0.59406-1.8061 0.86368-0.53916 0.26958-1.2727 0.65021-1.6307 0.84586-0.35751 0.19567-0.95656 0.53255-1.3314 0.74806-0.37443 0.21592-1.0246 0.60686-1.4449 0.86903-0.41985 0.26214-1.1237 0.71667-1.5638 1.0102-0.44008 0.29352-1.0622 0.7208-1.383 0.94995-0.32077 0.22871-0.98211 0.7175-1.4705 1.0861-0.48797 0.36866-1.222 0.94416-1.6307 1.2785-0.4087 0.33398-0.99287 0.82358-1.2983 1.087-0.30549 0.26379-0.87229 0.76537-1.2591 1.1154-0.38723 0.34967-1.3458 1.2785-2.1302 2.0642-0.78438 0.7852-1.7343 1.7715-2.1112 2.1917-0.37651 0.41984-0.93051 1.0514-1.2311 1.4036-0.30054 0.35173-0.83762 1.0019-1.1935 1.4449-0.35585 0.44256-0.94498 1.2043-1.3095 1.6926-0.36453 0.48796-0.83925 1.1394-1.0552 1.447-0.21592 0.30756-0.6337 0.92063-0.92806 1.3623-0.29475 0.44173-0.7497 1.1464-1.011 1.5667-0.26133 0.42027-0.68035 1.1167-0.93095 1.5481-0.251 0.4314-0.61883 1.0816-0.81823 1.4449-0.1994 0.36329-0.65063 1.2364-1.0032 1.9403l-0.64153 1.2798 0.0504 1.5688c0.0277 0.86278 0.0685 1.8288 0.0904 2.1467 0.0223 0.31787 0.0776 0.99576 0.12343 1.5068 0.0462 0.51066 0.13912 1.3652 0.20724 1.899 0.0677 0.53379 0.20683 1.4598 0.3088 2.058 0.10197 0.59819 0.27824 1.5085 0.39219 2.0229 0.11353 0.51439 0.3092 1.3132 0.43471 1.7756 0.1255 0.46196 0.35049 1.2146 0.49994 1.672 0.14944 0.45742 0.43512 1.2587 0.63452 1.781 0.1994 0.52223 0.49663 1.2744 0.66052 1.672 0.16349 0.39714 0.40912 0.97096 0.54536 1.2744 0.13623 0.30343 0.40086 0.8244 0.58786 1.1576 0.18743 0.33315 0.50324 0.87437 0.70223 1.2026 0.19857 0.3282 0.5664 0.90325 0.8166 1.2781 0.25059 0.37444 0.64237 0.93177 0.87066 1.2377 0.2287 0.3059 0.59489 0.77034 0.81407 1.0321 0.21922 0.26173 0.60067 0.67126 0.84794 0.91068 0.24687 0.23903 0.57012 0.54328 0.7175 0.67539l0.26834 0.24068-0.28898-0.21839c-0.15894-0.12013-0.51233-0.40787-0.78564-0.63947-0.27329-0.2316-0.78809-0.70346-1.1443-1.0486-0.35586-0.34513-0.88759-0.89085-1.1815-1.2125-0.29353-0.32201-0.76745-0.86115-1.0523-1.1985-0.28527-0.33728-0.72947-0.88551-0.98664-1.2178-0.2576-0.33274-0.618-0.81861-0.80086-1.0795-0.18288-0.26132-0.45866-0.67002-0.61347-0.90823-0.15439-0.23861-0.43305-0.68447-0.61883-0.99079-0.18577-0.30673-0.48962-0.83019-0.67539-1.1638-0.18577-0.33357-0.56846-1.0766-0.85046-1.6513-0.28196-0.57466-0.65475-1.3793-0.82774-1.7879-0.17339-0.4087-0.46072-1.1332-0.63824-1.61-0.17751-0.47682-0.4281-1.1922-0.5569-1.5894-0.1288-0.39755-0.32655-1.0477-0.43966-1.4449-0.11271-0.39756-0.29642-1.094-0.40829-1.5481-0.11146-0.45412-0.21509-0.90452-0.23036-1.0011-0.0153-0.0966-0.04-0.17545-0.0553-0.17545s-0.13334 0.33894-0.26256 0.75342c-0.12922 0.41447-0.33811 1.1154-0.46402 1.5584-0.12633 0.44255-0.35751 1.3252-0.51439 1.9609-0.15688 0.63576-0.36907 1.5555-0.47104 2.0435-0.10239 0.48796-0.26091 1.3054-0.35256 1.8164-0.0912 0.51067-0.21219 1.2352-0.26875 1.61-0.0561 0.37443-0.14862 1.0432-0.20559 1.4862-0.0566 0.44255-0.13954 1.1856-0.18453 1.6513-0.0446 0.46526-0.10156 1.1064-0.12592 1.4243-0.0248 0.31788-0.0636 0.89375-0.0867 1.2798-0.0227 0.386-0.0528 1.4449-0.0665 2.3531-0.0153 1.0027-0.006 2.1298 0.0231 2.8692 0.026 0.66961 0.0751 1.5894 0.10858 2.0435 0.0334 0.45412 0.0987 1.1972 0.14449 1.6513 0.0462 0.45412 0.12054 1.1043 0.16555 1.4449 0.0446 0.34058 0.11889 0.86984 0.16513 1.1766 0.0462 0.30632 0.14862 0.91647 0.22788 1.3557 0.0793 0.43884 0.20889 1.1077 0.28856 1.4862 0.0797 0.37816 0.21922 0.99406 0.31004 1.369 0.0908 0.37443 0.23119 0.9227 0.31169 1.2178 0.0805 0.29517 0.26463 0.92679 0.40952 1.4036 0.14491 0.47682 0.40251 1.2769 0.57219 1.7781 0.17008 0.50077 0.43347 1.2348 0.58539 1.6307 0.15193 0.39549 0.43017 1.082 0.61843 1.5246 0.18783 0.44255 0.51149 1.1675 0.71874 1.61 0.20723 0.44256 0.55154 1.1423 0.76499 1.5543 0.21344 0.41241 0.52141 0.98834 0.68448 1.2798 0.16265 0.29187 0.45493 0.80005 0.64896 1.1291 0.19445 0.32903 0.56517 0.93303 0.8244 1.3417 0.25926 0.4087 0.67704 1.0403 0.92842 1.4036 0.25183 0.36329 0.72081 1.0135 1.0428 1.4449 0.32201 0.4314 0.78683 1.035 1.0333 1.3417 0.24605 0.30632 0.66218 0.80792 0.92389 1.1146 0.26215 0.30631 0.74844 0.85536 1.0816 1.2195 0.33275 0.36453 0.96481 1.0218 1.4044 1.4614 0.43967 0.43925 1.1245 1.0956 1.5217 1.4586 0.39756 0.36247 1.0382 0.92308 1.4243 1.2451 0.38599 0.32201 0.95277 0.78067 1.2591 1.0189 0.30673 0.23779 0.82937 0.6308 1.1617 0.87273s1.0007 0.70223 1.4849 1.023c0.48466 0.32035 1.1691 0.75549 1.5217 0.96644 0.35255 0.21137 0.86405 0.50984 1.1365 0.66383 0.27247 0.15399 0.86695 0.47145 1.3211 0.70512 0.45411 0.23407 1.1324 0.56722 1.5068 0.74061 0.37485 0.17339 0.97839 0.44132 1.3417 0.59489 0.36329 0.15399 0.98581 0.40457 1.383 0.55732 0.39755 0.15275 1.1311 0.41407 1.6307 0.58127 0.49952 0.16719 1.2054 0.38971 1.5688 0.49498 0.36329 0.10486 1.0601 0.29063 1.5481 0.41283 0.48838 0.1222 1.2501 0.296 1.6926 0.38559 0.44297 0.09 1.1118 0.21301 1.4862 0.2737 0.37485 0.0607 0.765 0.12426 0.86695 0.14119l0.18577 0.0313-0.2477 0.11271c-0.13623 0.0619-0.56888 0.23242-0.96109 0.37898-0.39219 0.14655-1.061 0.36659-1.4862 0.48878-0.42521 0.12261-1.1072 0.29766-1.5159 0.3893-0.4087 0.0917-1.0866 0.22335-1.5068 0.29311-0.41984 0.0693-1.1443 0.17133-1.61 0.22624-0.46568 0.0549-1.1435 0.12054-1.5068 0.14573-0.36329 0.0252-0.78111 0.0574-0.92887 0.0714l-0.26834 0.0256 0.16513 0.0512c0.0908 0.0285 0.48095 0.14697 0.86695 0.2638 0.38599 0.11642 1.0548 0.30343 1.4862 0.41489 0.43141 0.11146 1.054 0.25802 1.383 0.32573 0.32944 0.0673 0.85871 0.16018 1.1766 0.20641 0.31788 0.0458 0.7918 0.10279 1.0527 0.12632 0.26132 0.0231 0.94869 0.0545 1.5275 0.069 0.63121 0.0157 1.3817 0.007 1.8747-0.0206 0.45205-0.026 1.0927-0.0751 1.4243-0.1094 0.33109-0.0343 0.89048-0.10899 1.2422-0.16596 0.35214-0.057 0.89998-0.16885 1.2178-0.24893 0.31787-0.0797 0.77323-0.20147 1.0114-0.27082 0.23862-0.0689 0.71213-0.22458 1.0527-0.34554 0.34058-0.12096 0.86939-0.32531 1.1753-0.45411 0.30549-0.12881 0.8492-0.38063 1.208-0.5598 0.35834-0.17917 0.8042-0.41201 0.98998-0.51769 0.18577-0.10527 0.45329-0.26215 0.59406-0.34843 0.14078-0.0863 0.4186-0.2638 0.61718-0.39466l0.36164-0.23821 0.45782-0.0727c0.25225-0.04 0.49953-0.083 0.54989-0.0958l0.0917-0.0227-0.14862 0.42356c-0.0817 0.23284-0.25884 0.76745-0.39301 1.1873-0.13458 0.41985-0.35627 1.1538-0.49251 1.6307-0.13665 0.47682-0.38558 1.4193-0.55319 2.0947s-0.39838 1.6728-0.51315 2.2165c-0.11517 0.54411-0.20889 1.0135-0.20848 1.0428 0 0.0297 0.0495-0.0297 0.10982-0.13169 0.0603-0.10238 0.16678-0.26008 0.23614-0.3509 0.0694-0.0908 0.21962-0.27329 0.33356-0.40582 0.11436-0.13251 0.43059-0.43677 0.70306-0.67662 0.27246-0.23944 0.78356-0.65103 1.1353-0.91439 0.35214-0.26339 1.0581-0.75794 1.5688-1.099 0.51109-0.34101 1.2694-0.83354 1.686-1.0944 0.41655-0.26132 1.3454-0.86278 2.0642-1.3367 0.71874-0.47393 1.8738-1.2282 2.5662-1.6757 0.69273-0.44792 1.5192-0.97178 1.8371-1.1646 0.31788-0.19279 0.75468-0.44461 0.97015-0.55979 0.21592-0.11518 0.57466-0.27701 0.79804-0.35958 0.22293-0.0826 0.52182-0.161 0.66425-0.17421 0.15976-0.0153 0.31746-0.005 0.41324 0.0268 0.085 0.0281 0.21674 0.10568 0.29269 0.17215 0.076 0.0669 0.17215 0.2089 0.21344 0.31582 0.0582 0.1515 0.0743 0.30673 0.0727 0.71006-0.002 0.32903-0.0289 0.64319-0.0756 0.86695-0.0405 0.19279-0.13624 0.57383-0.21261 0.8463-0.076 0.27247-0.21343 0.71213-0.30508 0.97713-0.0916 0.26503-0.23944 0.66425-0.32862 0.88758-0.0892 0.22335-0.23944 0.58209-0.3348 0.79804-0.095 0.2155-0.35421 0.75505-0.57589 1.1985-0.22211 0.44338-0.54866 1.0655-0.72576 1.383-0.17711 0.31706-0.51686 0.90162-0.75505 1.2992-0.2382 0.39714-0.50448 0.82811-0.59199 0.95775-0.0875 0.12922-0.15894 0.24688-0.15894 0.26133 0 0.014 0.30838-0.13335 0.68488-0.32779 0.3765-0.19486 0.92018-0.50943 1.2075-0.69975 0.28733-0.19031 0.68034-0.4731 0.87355-0.62873 0.1932-0.15523 0.53461-0.4599 0.7592-0.67622 0.22459-0.21633 0.57177-0.59283 0.77161-0.8368 0.19981-0.24398 0.48342-0.62461 0.6308-0.8463 0.14697-0.2217 0.37031-0.5986 0.49622-0.83762 0.12633-0.23902 0.31293-0.6341 0.41531-0.87808 0.10197-0.24398 0.25926-0.67332 0.34926-0.95448 0.0896-0.28114 0.2188-0.76826 0.2865-1.0829 0.0677-0.31458 0.14449-0.71131 0.17009-0.88142 0.0256-0.1705 0.0553-0.35091 0.0661-0.40127l0.019-0.0917 0.32201 0.25967c0.17669 0.14284 0.54782 0.43058 0.82439 0.63947l0.50283 0.3798-0.0248-0.17627c-0.014-0.097-0.12054-0.75216-0.23696-1.456l-0.21178-1.2798-0.35091-0.0268c-0.19321-0.0149-0.45287-0.0475-0.57796-0.0727-0.12467-0.0252-0.54287-0.0904-0.92887-0.14489-0.38599-0.0549-0.94334-0.13872-1.2385-0.1866-0.29517-0.0479-0.8339-0.14367-1.1972-0.21261-0.3633-0.069-1.0411-0.20848-1.5068-0.31045-0.46525-0.10197-1.1712-0.26958-1.5688-0.37237-0.39714-0.10321-0.95448-0.25183-1.2385-0.33109-0.28361-0.0789-0.90615-0.26545-1.383-0.41407-0.47682-0.14903-1.3128-0.42893-1.8577-0.62214-0.54494-0.1932-1.4181-0.52264-1.9403-0.73235-0.52224-0.20972-1.3211-0.54577-1.7752-0.74681-0.45412-0.20146-1.3735-0.63906-2.0435-0.9726-0.66961-0.33357-1.5878-0.81289-2.0394-1.0655-0.45205-0.25224-1.0742-0.61016-1.383-0.79514-0.3088-0.18494-0.94209-0.57672-1.4078-0.87066-0.46526-0.29393-1.1617-0.75007-1.5468-1.0143-0.38558-0.26421-1.0354-0.72906-1.4441-1.0333-0.4087-0.30426-1.0222-0.7774-1.3636-1.0519-0.341-0.27454-0.87066-0.7142-1.1774-0.97713-0.30631-0.26297-0.79885-0.69727-1.094-0.96481-0.29517-0.26793-0.9429-0.88884-1.4391-1.3801-0.49664-0.49169-1.1469-1.1538-1.4449-1.4722-0.29848-0.31788-0.79515-0.86612-1.1039-1.2178-0.30838-0.35173-0.81987-0.9553-1.1357-1.3412-0.31623-0.38599-0.80873-1.0085-1.0948-1.383-0.2861-0.37485-0.75839-1.0156-1.0498-1.4243-0.29105-0.4087-0.79262-1.1427-1.1142-1.6307-0.32201-0.48838-0.83643-1.3058-1.1432-1.8164-0.30714-0.51109-0.7497-1.2818-0.98337-1.7132-0.23366-0.4314-0.65227-1.2488-0.93013-1.8164-0.27784-0.56764-0.6663-1.3946-0.86278-1.8371-0.19692-0.44297-0.52141-1.2141-0.72122-1.7137-0.1998-0.49993-0.49374-1.2711-0.65268-1.7132-0.15894-0.44255-0.39261-1.1204-0.51852-1.5064-0.12633-0.386-0.35256-1.1291-0.50324-1.6513-0.15027-0.52223-0.37237-1.3491-0.49375-1.8379-0.12136-0.4888-0.29517-1.2409-0.38599-1.672-0.0912-0.431-0.22293-1.0994-0.29229-1.4854-0.0698-0.386-0.18206-1.0734-0.24934-1.5275-0.0677-0.45412-0.16926-1.2438-0.22623-1.7545-0.057-0.51109-0.13211-1.3004-0.16679-1.7545-0.0351-0.45411-0.0842-1.437-0.10981-2.1847-0.0343-1.0135-0.0343-1.7005 0.001-2.704 0.026-0.73979 0.0751-1.7446 0.10898-2.2326 0.0334-0.48838 0.0892-1.1758 0.12344-1.5275 0.0343-0.35214 0.11848-1.0766 0.18701-1.61 0.0689-0.53379 0.19774-1.3974 0.2865-1.9196 0.0888-0.52223 0.23738-1.3211 0.33026-1.7752 0.0929-0.45412 0.27784-1.2715 0.41159-1.8165 0.13335-0.54493 0.36536-1.4181 0.51604-1.9403 0.15027-0.52223 0.41902-1.3859 0.59737-1.9197 0.17793-0.53379 0.46608-1.3475 0.63988-1.8086 0.17421-0.46072 0.46237-1.1852 0.64031-1.61 0.17793-0.4244 0.4764-1.106 0.66259-1.5147 0.18659-0.40871 0.5503-1.1613 0.80828-1.672 0.25844-0.51108 0.67539-1.3 0.92724-1.7533 0.25182-0.4537 0.66341-1.1691 0.91438-1.5894 0.25101-0.42067 0.77696-1.248 1.1683-1.8384 0.39136-0.59035 0.91899-1.3582 1.1724-1.7066 0.25347-0.34842 0.6502-0.87771 0.88179-1.1766 0.2316-0.29889 0.64649-0.81289 0.92181-1.1419 0.27536-0.32944 0.73319-0.8587 1.0176-1.1766 0.28444-0.31788 0.95114-1.0321 1.482-1.587 0.53049-0.55484 1.2158-1.2406 1.5221-1.5233 0.30674-0.28279 1.0763-0.96191 1.7104-1.5093 0.63452-0.547 1.3591-1.158 1.61-1.357 0.25141-0.1994 0.9772-0.72204 1.6129-1.1617 0.63576-0.43966 1.416-0.96562 1.7339-1.1687 0.31788-0.20311 0.92181-0.57466 1.3417-0.82611 0.42026-0.251 1.0238-0.5986 1.3417-0.77279 0.31788-0.17381 0.85989-0.4537 1.2043-0.62214 0.3443-0.16843 0.88804-0.4186 1.208-0.55525 0.31994-0.13665 0.85707-0.34183 1.1939-0.45576 0.33687-0.11395 0.81489-0.25348 1.0626-0.30963 0.2477-0.0561 0.58044-0.10196 0.73938-0.10238 0.21054 0 0.32366 0.0211 0.41654 0.0776 0.0714 0.0438 0.17009 0.16555 0.225 0.27867 0.0574 0.11807 0.0987 0.27824 0.0995 0.39012 0.001 0.14491-0.0268 0.23118-0.12179 0.36824-0.0681 0.0987-0.26297 0.29848-0.43347 0.44421-0.17009 0.14532-1.0246 0.74436-1.899 1.3306-0.87399 0.58622-1.9329 1.3116-2.3531 1.6121-0.41985 0.30054-1.1724 0.85536-1.672 1.2327-0.49953 0.37774-1.4313 1.1088-2.0708 1.6253-0.63906 0.51603-1.2893 1.0527-1.4449 1.1922-0.15523 0.13954-0.90823 0.86486-1.6728 1.6113-0.765 0.74681-1.6018 1.5936-1.8602 1.8825-0.25802 0.28857-0.58002 0.65599-0.71502 0.81616-0.13499 0.16018-0.47475 0.55774-0.75586 0.88343-0.28073 0.32572-0.72328 0.85951-0.98374 1.1861-0.2605 0.32655-0.70676 0.91357-0.99206 1.3046-0.28526 0.39095-0.8013 1.1377-1.1469 1.66-0.34554 0.52223-0.80086 1.2372-1.0119 1.5894-0.21137 0.35173-0.58622 1.0019-0.83353 1.4449-0.2477 0.44255-0.70512 1.3157-1.0172 1.9403-0.3121 0.62419-0.73112 1.5056-0.93094 1.9585-0.19981 0.45246-0.47971 1.1122-0.62214 1.4656-0.14284 0.35338-0.35627 0.90243-0.47475 1.2203-0.1189 0.31788-0.32614 0.90288-0.46113 1.3004-0.13499 0.39714-0.36659 1.1311-0.51439 1.6307-0.1482 0.49952-0.38682 1.3817-0.5309 1.9609-0.14408 0.57879-0.33811 1.4292-0.43141 1.8895-0.0933 0.46031-0.23283 1.222-0.31045 1.6926-0.0772 0.47062-0.18866 1.2274-0.24687 1.6815-0.0586 0.45412-0.14284 1.2343-0.18742 1.7339-0.0446 0.49952-0.10403 1.2888-0.13169 1.7545-0.0281 0.46525-0.0508 1.6823-0.0512 2.704 0 1.3623 0.019 2.1166 0.0714 2.8279 0.0392 0.53337 0.10858 1.3136 0.15439 1.7339 0.0454 0.41985 0.13748 1.1443 0.20436 1.61 0.0669 0.46526 0.17751 1.1527 0.24605 1.5275 0.0685 0.37444 0.18122 0.95033 0.251 1.2798 0.0698 0.32903 0.21673 0.97016 0.32655 1.4243 0.11022 0.45411 0.32325 1.2525 0.47393 1.7747 0.15068 0.52182 0.41241 1.3619 0.58167 1.8668 0.16926 0.50447 0.44834 1.2851 0.62049 1.7343 0.17215 0.44916 0.43058 1.0953 0.57383 1.4358 0.14325 0.34059 0.40169 0.93013 0.57384 1.3103 0.17256 0.38022 0.4925 1.049 0.71089 1.4862 0.2188 0.43719 0.57425 1.12 0.79017 1.5176 0.21591 0.39714 0.58786 1.0474 0.82647 1.4449 0.2382 0.39714 0.66095 1.0688 0.93964 1.4924 0.27824 0.42357 0.77034 1.1386 1.0936 1.5894 0.32325 0.45081 0.83353 1.1353 1.1345 1.5213 0.30095 0.38599 0.75876 0.9553 1.0176 1.2649 0.25885 0.30962 0.74807 0.87645 1.0874 1.2591 0.33976 0.3827 1.0916 1.1712 1.6712 1.7516 0.57961 0.58085 1.3326 1.3054 1.6732 1.6105 0.34059 0.30508 0.85165 0.75097 1.1353 0.9908 0.28402 0.23985 0.74227 0.61511 1.0188 0.8339 0.27618 0.2188 0.75015 0.58085 1.0527 0.80457 0.30219 0.22375 0.79143 0.57343 1.0866 0.77651 0.29518 0.20311 0.77035 0.52057 1.0556 0.70552 0.28567 0.18495 0.88966 0.55898 1.3425 0.83101 0.45247 0.27205 1.1592 0.68117 1.5704 0.90904 0.41076 0.22788 1.1588 0.62007 1.6616 0.87192 0.50324 0.25182 1.2183 0.59531 1.589 0.76329 0.37114 0.16802 0.9945 0.43801 1.3859 0.60067 0.39136 0.16224 1.049 0.42149 1.4614 0.57589 0.41243 0.1544 1.177 0.4215 1.6992 0.59365 0.52223 0.17256 1.2377 0.39673 1.5894 0.4987 0.35215 0.10197 0.92805 0.2605 1.2798 0.35214 0.35215 0.0912 1.0114 0.24853 1.4656 0.34926 0.45411 0.10073 1.1324 0.24027 1.5068 0.30962 0.37444 0.0693 0.91357 0.16265 1.1972 0.20724 0.28403 0.0446 0.81326 0.1189 1.1766 0.16555 0.36329 0.0463 0.96518 0.11311 1.3375 0.14779 0.37279 0.0351 0.68365 0.057 0.69149 0.0491 0.008-0.008 0.19858-0.64401 0.42439-1.4136 0.22582-0.7699 0.40623-1.4036 0.40127-1.4086-0.005-0.005-0.32242 0.21261-0.70552 0.48425-0.38311 0.27123-0.71503 0.49333-0.7369 0.49333-0.0252 0-0.0306-0.10692-0.0148-0.27866 0.0145-0.15316 0.0379-0.67828 0.0529-1.1662 0.0169-0.55278 0.008-1.1758-0.0231-1.6513-0.0272-0.42026-0.0855-1.0544-0.12922-1.4098-0.0437-0.35545-0.12674-0.9037-0.18453-1.2178-0.0578-0.31458-0.1705-0.84133-0.25141-1.1704-0.0805-0.32902-0.2444-0.89664-0.36453-1.2608-0.11972-0.36412-0.315-0.89256-0.43347-1.1741-0.11849-0.28154-0.28031-0.64071-0.35917-0.79759-0.0788-0.15688-0.1482-0.27866-0.15398-0.2704-0.006 0.008 0.005 1.0919 0.024 2.4089 0.019 1.3169 0.024 2.998 0.0116 3.7361-0.0124 0.73773-0.0413 1.6204-0.0644 1.9609-0.0231 0.34059-0.0788 0.85128-0.12385 1.1353-0.0446 0.28361-0.12716 0.66713-0.1833 0.85164-0.0561 0.18454-0.16266 0.42563-0.23655 0.53544-0.0739 0.11023-0.19733 0.24233-0.27453 0.29394-0.0772 0.052-0.19775 0.0941-0.26834 0.0937-0.0702-0.00041-0.22664-0.0463-0.34678-0.10238-0.12054-0.0558-0.3315-0.20889-0.46898-0.34018-0.15315-0.14573-0.33686-0.38558-0.47392-0.618-0.12302-0.2089-0.33274-0.6176-0.4665-0.90823-0.13334-0.29063-0.33893-0.76989-0.45701-1.0651-0.11806-0.29518-0.3509-0.94535-0.51727-1.4449-0.16637-0.49952-0.37774-1.1964-0.4698-1.5481-0.0916-0.35215-0.2122-0.86279-0.26751-1.1353-0.0553-0.27247-0.13872-0.7555-0.18536-1.0734-0.0471-0.31788-0.11395-0.86568-0.14904-1.2178-0.0347-0.35214-0.0747-1.0766-0.0892-1.61-0.0157-0.60727-0.007-1.2096 0.0231-1.61 0.0268-0.35215 0.0768-0.83183 0.11105-1.0668 0.0347-0.23491 0.11519-0.63411 0.17918-0.88759 0.0644-0.25348 0.11311-0.46526 0.10857-0.47062-0.005-0.005-0.69727 1.3784-1.539 3.0756-0.84133 1.6971-1.7116 3.471-1.9329 3.9421-0.2217 0.47104-0.41613 0.85662-0.43224 0.85662-0.0161 0-0.0896-0.15646-0.16348-0.3476l-0.13416-0.34719-0.01-3.069c-0.007-1.9646-0.0347-3.67-0.078-4.7406-0.0371-0.91981-0.0867-1.9597-0.11023-2.3118-0.0235-0.35215-0.0598-0.8071-0.0813-1.0114-0.0215-0.20435-0.0772-0.82693-0.12385-1.383-0.0466-0.5565-0.10404-1.1696-0.12715-1.3623-0.0227-0.19321-0.0598-0.47187-0.0822-0.61925-0.0223-0.14779-0.0512-0.32077-0.064-0.38475-0.0132-0.064-0.031-0.1094-0.04-0.10074-0.009 0.009-0.19114 0.73938-0.40581 1.6232-0.21467 0.88432-0.51191 2.1558-0.66053 2.8254-0.14903 0.66961-0.37278 1.7083-0.49787 2.3077-0.12467 0.59943-0.23284 1.0961-0.24026 1.1035-0.007 0.007-0.0743-0.19527-0.14904-0.4504-0.0747-0.25471-0.25637-0.89998-0.40375-1.4333-0.14696-0.53379-0.41365-1.5555-0.59241-2.2706-0.17876-0.71544-0.42728-1.7558-0.55237-2.3118-0.12508-0.5565-0.34842-1.6154-0.49622-2.3531-0.14779-0.73814-0.37237-1.9362-0.4987-2.6628-0.12674-0.72658-0.32324-1.8508-0.43718-2.4976-0.11395-0.64732-0.29022-1.6133-0.39219-2.1467-0.10197-0.5338-0.27908-1.4069-0.39343-1.9403-0.11435-0.53379-0.32531-1.4531-0.46939-2.0435-0.14407-0.59035-0.36659-1.4358-0.49457-1.8784-0.12798-0.44297-0.40664-1.3718-0.61924-2.0642-0.21261-0.69273-0.50943-1.6773-0.66012-2.188-0.15068-0.51108-0.37649-1.3099-0.502-1.7752-0.12509-0.46567-0.31994-1.2364-0.43305-1.7132-0.11271-0.47682-0.29559-1.3223-0.40623-1.8784-0.11064-0.5565-0.22375-1.1555-0.25141-1.3314-0.0277-0.17586-0.0665-0.31994-0.0863-0.31994-0.0194 0-0.25347 0.13293-0.52058 0.29517-0.26669 0.16266-0.88803 0.56063-1.3805 0.88469-0.49251 0.32407-1.2727 0.85455-1.7339 1.1795-0.46113 0.3249-1.3586 0.98048-1.9944 1.4573-0.63576 0.47682-1.6294 1.2467-2.2086 1.7108-0.57879 0.46402-1.3962 1.1332-1.8164 1.487-0.41985 0.35379-1.0424 0.88469-1.383 1.1795-0.34059 0.29476-0.90697 0.79596-1.2591 1.1138-0.35173 0.31747-0.58664 0.51315-0.52141 0.4343 0.0652-0.0793 0.46568-0.50613 0.88966-0.94869 0.42398-0.44297 0.91855-0.9631 1.099-1.1567 0.18082-0.19362 0.58911-0.64856 0.90741-1.0114 0.31829-0.36287 0.77532-0.89211 1.0156-1.1758 0.24027-0.28402 0.79715-0.8979 1.2377-1.3644 0.44049-0.4665 1.0725-1.1444 1.4044-1.5068 0.33191-0.36205 0.95486-1.0024 1.3846-1.4222 0.42975-0.42026 1.1056-1.0519 1.5018-1.4044 0.39632-0.35214 0.96228-0.84585 1.2575-1.0969 0.29517-0.251 0.82937-0.69314 1.1869-0.98255l0.65021-0.52595v-1.5142c0.00041-0.83308 0.019-1.8214 0.0421-2.1959 0.0227-0.37443 0.0788-1.0527 0.12426-1.5068 0.0458-0.45411 0.12055-1.0858 0.16638-1.4036 0.0458-0.31788 0.14077-0.89375 0.21095-1.2793 0.0702-0.38599 0.19734-0.99903 0.28321-1.3623 0.0854-0.3637 0.2865-1.1348 0.4471-1.7137 0.16017-0.5792 0.33687-1.1827 0.39177-1.3417 0.0553-0.15894 0.33604-0.89294 0.6242-1.6307 0.43182-1.1064 0.63658-1.5626 1.1675-2.6008 0.3538-0.69273 0.73526-1.4263 0.84757-1.6307 0.1127-0.20435 0.48136-0.79425 0.82031-1.3112 0.33894-0.51645 0.62668-0.96726 0.63947-1.0011 0.014-0.0359 0.00042-0.0611-0.0322-0.0607-0.031 0.00041-0.38435 0.019-0.78564 0.0413-0.47682 0.0264-1.2628 0.0264-2.2706-0.00041-0.84757-0.0223-1.736-0.0607-1.9745-0.0855-0.23821-0.0248-0.70099-0.09-1.0276-0.14491-0.32696-0.0549-0.80999-0.15439-1.0734-0.22128-0.26395-0.0668-0.64665-0.18076-0.85098-0.2526-0.20435-0.0722-0.48301-0.18453-0.61924-0.25018-0.21922-0.10527-0.23119-0.11683-0.10321-0.0999 0.0797 0.0107 0.43265 0.0318 0.78438 0.0471 0.39219 0.0169 0.8558 0.009 1.1972-0.0211 0.30674-0.0264 0.86405-0.0954 1.2385-0.15316 0.37486-0.0578 0.80874-0.13169 0.96518-0.16431 0.15605-0.0326 0.65764-0.12343 1.1146-0.20146 0.45659-0.078 1.1093-0.20022 1.4499-0.27082 0.34059-0.071 0.84214-0.18371 1.1146-0.25059 0.27247-0.0665 1.0007-0.20476 1.6179-0.30673 0.6176-0.10197 1.1493-0.19568 1.1824-0.20806 0.0326-0.0128 0.27205-0.26793 0.53172-0.56723 0.26009-0.29972 0.76129-0.85127 1.1138-1.2257 0.35297-0.37485 0.9553-0.97178 1.3384-1.3272 0.38351-0.35503 0.93176-0.84756 1.2178-1.094 0.2865-0.24645 0.81326-0.67869 1.1708-0.96064 0.35751-0.28155 0.98708-0.7526 1.3991-1.0461 0.412-0.29311 1.0647-0.7336 1.4507-0.97802 0.386-0.24481 0.98047-0.60851 1.3211-0.80873 0.34058-0.19981 1.082-0.60025 1.648-0.88922l1.0288-0.52553-0.40953-0.12509c-0.2254-0.0689-0.66011-0.19981-0.96688-0.29105-0.30674-0.0908-0.69645-0.20146-0.86694-0.24522-0.17009-0.0438-1.0845-0.21591-2.0316-0.38228-0.94706-0.16596-1.7165-0.30797-1.7095-0.31499 0.007-0.007 0.59612-0.0334 1.3095-0.059 0.71296-0.0256 1.6492-0.0454 2.0806-0.0438 0.43141 0.001 1.1002 0.0231 1.4862 0.0483s1.2311 0.0636 1.8784 0.0859c0.64732 0.0223 1.3512 0.0652 1.5646 0.0954l0.38765 0.0545 0.39673-0.15357c0.21798-0.0846 0.69356-0.25596 1.0569-0.38063 0.36329-0.12467 0.97631-0.32077 1.3623-0.43595s0.9524-0.27495 1.2591-0.35462c0.30673-0.0797 0.85454-0.21137 1.2178-0.29229 0.36329-0.0813 1.0135-0.21095 1.4449-0.28856 0.43141-0.0776 1.1188-0.18742 1.5275-0.24357 0.4087-0.0566 1.0313-0.13169 1.383-0.16637 0.35215-0.0351 0.92805-0.0867 1.2798-0.11477 0.37692-0.0301 1.3867-0.0512 2.4563-0.0512 1.0758 0 2.0774 0.0211 2.4563 0.0516 0.35215 0.0281 0.91855 0.0793 1.2591 0.11352 0.34059 0.0343 1.0094 0.11848 1.4862 0.18702 0.47682 0.0689 1.2294 0.19692 1.672 0.28527 0.44297 0.0879 1.0803 0.22581 1.4173 0.30673 0.33686 0.0809 0.93131 0.23862 1.321 0.35049 0.38971 0.11229 0.99696 0.29972 1.3487 0.41696 0.35215 0.11683 0.94661 0.33026 1.3211 0.47351 0.37485 0.14367 0.96933 0.38558 1.321 0.53792 0.35215 0.15233 1.0395 0.47806 1.5275 0.72369 0.48838 0.24605 1.1477 0.59943 1.4656 0.7852 0.31788 0.18619 0.81616 0.49415 1.1068 0.68406 0.29105 0.19031 0.51934 0.32984 0.50695 0.31003-0.012-0.0198-0.65887-0.51892-1.437-1.1093-0.77821-0.59035-1.8053-1.3607-2.2821-1.712-0.47682-0.35091-1.2848-0.93177-1.7958-1.2901-0.51067-0.35834-1.3562-0.93466-1.8784-1.2806-0.52223-0.34553-1.2001-0.78645-1.5068-0.97883-0.30632-0.19279-0.93503-0.57755-1.397-0.85455-0.46196-0.27742-1.26-0.73814-1.7731-1.0238-0.51315-0.28568-1.454-0.78519-2.091-1.1097-0.637-0.32489-1.5486-0.77034-2.0253-0.99034-0.47681-0.22004-1.1885-0.53792-1.582-0.70636-0.39302-0.16844-1.0824-0.45287-1.532-0.63245-0.44956-0.17958-1.2517-0.48343-1.7826-0.67498-0.53131-0.19197-1.2814-0.45205-1.6674-0.57838s-1.0469-0.33109-1.4684-0.45535c-0.42192-0.12467-1.1559-0.32944-1.6307-0.45576-0.47517-0.12633-1.2637-0.32119-1.7516-0.43347-0.48797-0.11271-1.2253-0.27082-1.6377-0.35173-0.41283-0.0809-1.1374-0.21137-1.61-0.2894-0.47311-0.0784-1.0672-0.17215-1.3202-0.20848l-0.4603-0.0665-0.50985 0.10363c-0.28031 0.057-0.78853 0.18494-1.1291 0.28443-0.34058 0.0995-1.3252 0.40582-2.188 0.68035-0.86278 0.27495-1.7545 0.5664-1.9816 0.64772-0.22706 0.0813-0.5148 0.18743-0.63989 0.23573-0.12467 0.0487-1.0073 0.44916-1.9609 0.89086-0.95367 0.44131-1.7524 0.81288-1.7752 0.82484-0.0277 0.0149-0.0277 0.008 0-0.0202 0.0227-0.0231 0.73814-0.52181 1.5894-1.1076 0.85164-0.5854 1.6988-1.163 1.8829-1.283 0.18412-0.12014 0.79388-0.47021 1.3553-0.77822 0.56145-0.30797 1.1332-0.61636 1.2703-0.68571 0.13705-0.0689 0.23283-0.14078 0.21301-0.15894-0.0198-0.0182-0.42604-0.0557-0.90288-0.083-0.47682-0.0272-1.712-0.0549-2.7453-0.0611zm-44.28 61.739c0.009 0 0.0409 0.0326 0.0722 0.0723l0.0566 0.0722-0.0722-0.0566c-0.0396-0.0314-0.0722-0.0636-0.0722-0.0722 0-0.009 0.007-0.0157 0.0157-0.0157zm35.007-50.242c-0.0652 0.001-0.24853 0.045-0.40746 0.0974-0.15894 0.0528-0.49334 0.1738-0.7431 0.26958-0.24976 0.0954-0.78853 0.34636-1.1972 0.55732-0.4087 0.21136-1.0403 0.54658-1.4036 0.74554-0.36329 0.19898-1.0226 0.56723-1.4655 0.81824-0.44256 0.25058-1.0837 0.64153-1.4243 0.8682-0.34058 0.22664-0.84214 0.57012-1.1146 0.76292-0.27247 0.19279-0.74554 0.5375-1.0511 0.76537-0.3055 0.22788-0.78854 0.60025-1.0734 0.82692-0.28485 0.22664-0.78683 0.63782-1.1163 0.91357-0.32903 0.27577-0.89583 0.76827-1.2591 1.0944-0.36329 0.32613-1.1724 1.1048-1.7979 1.7306-0.62586 0.62543-1.4044 1.4346-1.7306 1.7979-0.32614 0.36329-0.87311 0.99658-1.2158 1.4069-0.34224 0.41035-0.83806 1.0234-1.1011 1.3623-0.26297 0.33894-0.68281 0.89464-0.93213 1.2352-0.24976 0.34058-0.87808 1.288-1.3958 2.1054-0.5181 0.81742-1.0572 1.6724-1.198 1.8998-0.14118 0.22748-0.68323 1.2587-1.2046 2.2912-0.52099 1.0325-1.082 2.1838-1.2467 2.5579-0.16431 0.37444-0.39177 0.93177-0.50572 1.2385-0.11394 0.30715-0.33769 0.8913-0.49704 1.2988-0.15894 0.40706-0.40953 1.0944-0.55608 1.5275-0.14656 0.43264-0.38558 1.1956-0.53131 1.695-0.14532 0.49952-0.35628 1.2798-0.46815 1.7339-0.11229 0.45412-0.27948 1.1877-0.37237 1.6307-0.0925 0.44256-0.23367 1.1729-0.31334 1.622-0.0797 0.44957-0.1998 1.1927-0.26709 1.6513-0.0673 0.45907-0.16927 1.2335-0.22706 1.7219-0.0574 0.48796-0.16018 1.7607-0.2283 2.8279l-0.12343 1.9403 0.0409 1.1972c0.0227 0.65846 0.0685 1.8313 0.10197 2.6062l0.0603 1.409 0.20476 1.4602c0.11229 0.80294 0.25307 1.8132 0.31251 2.2446 0.0591 0.43141 0.21055 1.267 0.33646 1.8569 0.12591 0.58993 0.31127 1.4065 0.41242 1.8148 0.10072 0.40829 0.2576 1.0032 0.34842 1.3219 0.0908 0.3187 0.26916 0.91402 0.39632 1.3227 0.12715 0.4087 0.36948 1.1332 0.53874 1.61 0.16926 0.47682 0.46608 1.2661 0.6597 1.7545 0.19403 0.48797 0.54949 1.3335 0.79017 1.8784 0.24068 0.54494 0.70925 1.5386 1.0416 2.2086 0.33191 0.66961 0.82032 1.6133 1.0853 2.0964 0.26463 0.48342 0.67869 1.2079 0.91981 1.61 0.24151 0.40251 0.69108 1.1118 0.99948 1.5766 0.30798 0.46485 0.78854 1.158 1.0672 1.5407s0.70511 0.94996 0.94787 1.2604c0.24233 0.31045 0.70429 0.8806 1.0263 1.2666 0.32159 0.38599 0.76663 0.90614 0.98871 1.1559 0.2221 0.24976 0.74926 0.82358 1.1724 1.2752 0.42273 0.45123 1.2909 1.326 1.9292 1.9436 0.63824 0.6176 1.4557 1.3756 1.8164 1.6847 0.36081 0.30921 0.97179 0.81081 1.3578 1.1142 0.386 0.30343 1.1848 0.91899 1.7752 1.3677 0.85046 0.64691 1.3904 1.0143 2.6 1.7698 0.8397 0.52471 1.8705 1.1555 2.2912 1.402 0.42067 0.24604 1.3591 0.74185 2.0856 1.1019 0.72658 0.35957 1.6509 0.80546 2.0538 0.99079 0.40292 0.18495 1.0411 0.46609 1.4185 0.62461 0.37774 0.15812 1.0606 0.42893 1.5175 0.60149 0.457 0.17298 1.2121 0.44049 1.6773 0.5953 0.46567 0.1544 1.2364 0.39261 1.7132 0.52966 0.47682 0.13665 1.2393 0.34183 1.6947 0.45618 0.45535 0.11435 1.1708 0.28197 1.5906 0.37237 0.41985 0.09 1.0783 0.22087 1.4635 0.29064 0.38517 0.0693 0.98871 0.17132 1.3404 0.22623 0.35214 0.0553 1.0024 0.14696 1.4449 0.20394 0.44297 0.0574 1.0932 0.13252 1.4449 0.16761 0.35214 0.0347 0.99287 0.0904 1.4243 0.12343 0.43141 0.0334 1.2859 0.0822 1.899 0.10899 0.70676 0.0306 1.8321 0.0396 3.0756 0.0244 1.1985-0.0149 2.2499-0.0487 2.704-0.0875 0.4087-0.0347 1.0127-0.0921 1.3417-0.12757 0.32944-0.0351 0.95158-0.11064 1.383-0.16843 0.4314-0.0574 1.1745-0.16926 1.6513-0.24893 0.47681-0.0793 1.2756-0.22789 1.7752-0.32986 0.49953-0.10197 1.3586-0.296 1.9089-0.43058 0.55072-0.135 1.4238-0.36701 1.9403-0.51562 0.51687-0.14862 1.3805-0.41738 1.9188-0.59778 0.53874-0.17999 1.3533-0.46857 1.8103-0.64071 0.45659-0.17215 1.1212-0.4343 1.4767-0.58251 0.35545-0.14779 0.98092-0.41943 1.3896-0.60314 0.4087-0.18371 1.2819-0.60604 1.9403-0.93837 0.65847-0.33233 1.5386-0.79515 1.9564-1.0284 0.41737-0.23366 1.0676-0.61058 1.4449-0.83844 0.37692-0.22788 0.97387-0.60438 1.3256-0.83642 0.49787-0.32861 0.71832-0.50489 0.99406-0.79425 0.28567-0.30055 0.39507-0.45453 0.56888-0.80086 0.12591-0.25101 0.23985-0.54824 0.27494-0.7175 0.0326-0.15894 0.0598-0.39508 0.0603-0.5243 0.00041-0.12962-0.0198-0.33398-0.045-0.45411-0.0256-0.12055-0.0937-0.32119-0.15192-0.44586-0.0644-0.13871-0.21137-0.33191-0.37691-0.49581-0.14945-0.1482-0.36784-0.32035-0.48549-0.3831-0.11724-0.0624-0.3571-0.15028-0.53296-0.19527-0.20022-0.0512-0.45577-0.0817-0.68572-0.0817-0.20187 0-0.50984 0.0293-0.68488 0.0656-0.17504 0.0359-0.46609 0.12345-0.64649 0.19445-0.18041 0.0714-0.47765 0.22458-0.66053 0.341-0.18289 0.11642-0.64814 0.41572-1.0342 0.66507-0.386 0.24976-0.94335 0.5986-1.2385 0.77613-0.29518 0.17711-0.92145 0.53297-1.3917 0.79054-0.47063 0.2572-1.2323 0.65682-1.6926 0.88714-0.46071 0.23077-1.0791 0.53007-1.3743 0.66589-0.29517 0.13541-0.88016 0.39012-1.3004 0.56641-0.41985 0.17627-1.0953 0.44461-1.5002 0.59612-0.40499 0.15192-1.009 0.36907-1.3417 0.48301-0.33275 0.11353-1.0045 0.3282-1.4928 0.4764-0.48796 0.14862-1.3928 0.39839-2.0105 0.55526-0.6176 0.15647-1.6302 0.38641-2.2499 0.51026-0.62007 0.12385-1.5543 0.29063-2.0766 0.37031-0.52223 0.0801-1.3673 0.19196-1.8784 0.24852-0.51066 0.0566-1.2166 0.12303-1.5688 0.14739-0.35173 0.0248-1.4573 0.0558-2.4563 0.0689-1.1414 0.0149-2.2152 0.006-2.8898-0.0243-0.59034-0.0268-1.4263-0.0764-1.8577-0.11023-0.43141-0.0339-1.1188-0.0983-1.5275-0.14325-0.40871-0.045-1.0775-0.1288-1.4862-0.18659-0.4087-0.0574-1.061-0.15936-1.4499-0.22582-0.38848-0.0665-1.0296-0.18743-1.4243-0.26834-0.39467-0.0809-1.1262-0.24687-1.6257-0.36908-0.49952-0.12178-1.2054-0.30755-1.5688-0.41283-0.36329-0.10527-0.92969-0.27618-1.2591-0.37938-0.32903-0.10363-0.93303-0.3088-1.3417-0.45577-0.4087-0.14738-1.0655-0.39755-1.4594-0.55608-0.39426-0.15894-1.0164-0.42439-1.383-0.58993-0.36659-0.16596-0.99948-0.45288-1.4065-0.63824-0.40664-0.18578-0.99243-0.46568-1.3017-0.62255-0.30921-0.15688-0.91439-0.48755-1.345-0.73525-0.43059-0.24729-1.3219-0.77324-1.9803-1.1683-0.93918-0.56351-1.4812-0.92679-2.5158-1.686-0.72534-0.53171-1.589-1.1798-1.9197-1.4396-0.33068-0.26009-0.7497-0.59819-0.93132-0.75179-0.18164-0.15398-0.47888-0.41448-0.66052-0.57879-0.18165-0.16472-0.78809-0.73236-1.3475-1.2612-0.55939-0.52883-1.3491-1.3116-1.7545-1.7392-0.4054-0.42728-0.95241-1.018-1.2158-1.3124-0.26297-0.29476-0.73401-0.84214-1.0469-1.2166-0.31251-0.37485-0.89916-1.1212-1.3037-1.6587-0.40415-0.53792-1.0036-1.3834-1.3314-1.8784-0.3282-0.49539-0.76329-1.1795-0.96689-1.52-0.20352-0.34059-0.56227-0.96318-0.79714-1.383-0.2349-0.42027-0.68241-1.2653-0.99495-1.8784-0.31211-0.61305-0.72907-1.4676-0.92598-1.899-0.19692-0.43141-0.49415-1.1097-0.66094-1.5068-0.16637-0.39756-0.45948-1.1406-0.65103-1.6513-0.19155-0.51108-0.46939-1.3004-0.61801-1.7545-0.1482-0.45411-0.34471-1.0858-0.43636-1.4036-0.0916-0.31788-0.28733-1.061-0.43471-1.6513-0.14738-0.59034-0.30591-1.2608-0.35214-1.4894-0.0466-0.22871-0.13995-0.76745-0.20724-1.1972-0.0677-0.42975-0.20807-1.2736-0.31251-1.8751l-0.19974-1.0915-0.11954-1.7568c-0.066-0.96518-0.14036-2.1096-0.16555-2.5434-0.0367-0.62957-0.0326-1.1472 0.0194-2.5596 0.0359-0.97386 0.0933-2.0959 0.12757-2.4931 0.0343-0.39756 0.0999-1.0569 0.14531-1.4656 0.0458-0.4087 0.12963-1.0775 0.1866-1.4862 0.057-0.4087 0.15811-1.0709 0.22499-1.4709 0.0673-0.40044 0.20477-1.1345 0.30591-1.6307 0.10114-0.49663 0.28857-1.321 0.41654-1.8317 0.12798-0.51109 0.35049-1.319 0.49457-1.7958 0.14408-0.47681 0.34843-1.1085 0.45412-1.4036 0.10609-0.29517 0.31251-0.88966 0.45948-1.321 0.14655-0.43141 0.40457-1.1134 0.57301-1.5151 0.16843-0.4021 0.56888-1.3033 0.89003-2.0022 0.32077-0.69933 0.68985-1.4944 0.8195-1.7669 0.12963-0.27246 0.41325-0.79262 0.62957-1.1559 0.21673-0.36329 0.67745-1.153 1.0238-1.7545 0.34636-0.60149 0.85989-1.4338 1.1411-1.8495 0.28073-0.41531 0.70925-1.0284 0.95196-1.3623 0.24275-0.33357 0.62709-0.84838 0.85417-1.1435 0.22706-0.29517 0.60893-0.77821 0.84876-1.0734 0.23985-0.29518 0.69355-0.8339 1.0085-1.1972 0.31458-0.36329 0.87727-0.98871 1.2501-1.39 0.37278-0.40127 1.0882-1.1316 1.5898-1.6228 0.502-0.49169 1.2583-1.2026 1.681-1.5799 0.42273-0.37733 1.1501-1.0032 1.6158-1.3908 0.46608-0.38724 1.144-0.93132 1.5068-1.2088 0.36287-0.27743 1.57-1.1196 2.6826-1.8718 1.1126-0.75178 2.1996-1.4705 2.4151-1.5973 0.21591-0.12633 0.52265-0.31746 0.68241-0.4248 0.15976-0.10733 0.31499-0.22499 0.34554-0.26173 0.0491-0.059 0.0417-0.0665-0.0632-0.0652z"/>
 </g>

</g>
</svg>